M48
; DRILL file {KiCad 5.1.6-c6e7f7d~86~ubuntu18.04.1} date Mon Apr 26 01:47:05 2021
; FORMAT={-:-/ absolute / inch / decimal}
; #@! TF.CreationDate,2021-04-26T01:47:05-07:00
; #@! TF.GenerationSoftware,Kicad,Pcbnew,5.1.6-c6e7f7d~86~ubuntu18.04.1
FMAT,2
INCH
T1C0.0118
T2C0.0157
T3C0.0236
T4C0.0343
T5C0.0433
T6C0.0591
T7C0.1260
T8C0.0256
%
G90
G05
T1
X6.4366Y-3.5433
X6.4366Y-3.6024
X6.4661Y-3.5138
X6.4661Y-3.6319
X6.5252Y-3.5138
X6.5252Y-3.6319
X6.5547Y-3.5433
X6.5547Y-3.6024
T2
X5.9764Y-3.5591
X5.9764Y-3.8937
X6.1535Y-3.8898
X6.185Y-3.5591
X6.2598Y-3.0709
X6.2807Y-1.8492
X6.2844Y-1.6496
X6.3555Y-1.8492
X6.4638Y-1.678
X6.4638Y-1.7622
X6.572Y-1.8492
X6.5787Y-2.1063
X6.5902Y-1.6665
X6.6142Y-2.688
X6.6469Y-1.8492
X6.6496Y-3.2913
X6.6535Y-1.6417
X6.6988Y-2.2657
X6.7008Y-1.9331
X6.7402Y-3.1811
X6.7402Y-3.2402
X6.7402Y-3.2992
X6.7402Y-3.3583
X6.7402Y-3.4173
X6.7441Y-3.8898
X6.7559Y-2.7874
X6.7913Y-2.5906
X6.8268Y-2.185
X6.8268Y-2.4016
X6.8504Y-1.9685
X6.8799Y-1.8012
X6.9134Y-3.3465
X6.9616Y-3.0738
X6.9764Y-1.6521
X6.998Y-2.0374
X6.998Y-2.2579
X6.998Y-2.4783
X6.998Y-2.6988
X6.998Y-2.9193
X7.0315Y-3.7835
X7.0315Y-3.8701
X7.0512Y-3.2283
X7.0799Y-1.8492
X7.0846Y-3.0177
X7.1102Y-3.1545
X7.1882Y-1.678
X7.1882Y-1.8508
X7.2965Y-1.8492
X7.3146Y-1.6665
X7.3209Y-3.2933
X7.3465Y-3.1831
X7.3465Y-3.4062
X7.3465Y-3.5197
X7.3713Y-1.8492
X7.378Y-1.6417
T4
X7.1102Y-2.1378
X7.1693Y-2.1378
X7.2283Y-2.1378
X7.2874Y-2.1378
X7.3465Y-2.1378
X7.4055Y-2.1378
X7.4646Y-2.1378
X7.1102Y-2.3268
X7.1693Y-2.3268
X7.2283Y-2.3268
X7.2874Y-2.3268
X7.3465Y-2.3268
X7.4055Y-2.3268
X7.4646Y-2.3268
X7.1102Y-2.8937
X7.1693Y-2.8937
X7.2283Y-2.8937
X7.2874Y-2.8937
X7.3465Y-2.8937
X7.4055Y-2.8937
X7.4646Y-2.8937
X7.1102Y-2.5157
X7.1693Y-2.5157
X7.2283Y-2.5157
X7.2874Y-2.5157
X7.3465Y-2.5157
X7.4055Y-2.5157
X7.4646Y-2.5157
X7.1102Y-2.7047
X7.1693Y-2.7047
X7.2283Y-2.7047
X7.2874Y-2.7047
X7.3465Y-2.7047
X7.4055Y-2.7047
X7.4646Y-2.7047
T5
X6.0512Y-2.0197
X6.0512Y-2.2756
X6.2283Y-2.0197
X6.2283Y-2.2756
X6.0512Y-2.4528
X6.0512Y-2.7087
X6.2283Y-2.4528
X6.2283Y-2.7087
T6
X6.4957Y-3.5728
T7
X7.4193Y-3.7972
X6.0453Y-1.439
T8
X6.35Y-1.5413
X6.5776Y-1.5413
X7.0744Y-1.5413
X7.302Y-1.5413
T3
G00X6.2937Y-1.4094
M15
G01X6.2937Y-1.3858
M16
G05
G00X6.2937Y-1.5839
M15
G01X6.2937Y-1.5406
M16
G05
G00X6.6339Y-1.4094
M15
G01X6.6339Y-1.3858
M16
G05
G00X6.6339Y-1.5839
M15
G01X6.6339Y-1.5406
M16
G05
G00X7.0181Y-1.4094
M15
G01X7.0181Y-1.3858
M16
G05
G00X7.0181Y-1.5839
M15
G01X7.0181Y-1.5406
M16
G05
G00X7.3583Y-1.4094
M15
G01X7.3583Y-1.3858
M16
G05
G00X7.3583Y-1.5839
M15
G01X7.3583Y-1.5406
M16
G05
T0
M30
