%TF.GenerationSoftware,KiCad,Pcbnew,5.1.6-c6e7f7d~86~ubuntu18.04.1*%
%TF.CreationDate,2021-04-26T01:47:06-07:00*%
%TF.ProjectId,main_board,6d61696e-5f62-46f6-9172-642e6b696361,rev?*%
%TF.SameCoordinates,Original*%
%TF.FileFunction,Copper,L1,Top*%
%TF.FilePolarity,Positive*%
%FSLAX46Y46*%
G04 Gerber Fmt 4.6, Leading zero omitted, Abs format (unit mm)*
G04 Created by KiCad (PCBNEW 5.1.6-c6e7f7d~86~ubuntu18.04.1) date 2021-04-26 01:47:06*
%MOMM*%
%LPD*%
G01*
G04 APERTURE LIST*
%TA.AperFunction,ComponentPad*%
%ADD10C,2.000000*%
%TD*%
%TA.AperFunction,SMDPad,CuDef*%
%ADD11R,2.000000X0.900000*%
%TD*%
%TA.AperFunction,SMDPad,CuDef*%
%ADD12R,0.900000X2.000000*%
%TD*%
%TA.AperFunction,ComponentPad*%
%ADD13C,0.500000*%
%TD*%
%TA.AperFunction,ComponentPad*%
%ADD14C,1.700000*%
%TD*%
%TA.AperFunction,SMDPad,CuDef*%
%ADD15R,4.100000X4.100000*%
%TD*%
%TA.AperFunction,SMDPad,CuDef*%
%ADD16R,0.800000X1.900000*%
%TD*%
%TA.AperFunction,ComponentPad*%
%ADD17C,5.600000*%
%TD*%
%TA.AperFunction,SMDPad,CuDef*%
%ADD18R,0.600000X1.450000*%
%TD*%
%TA.AperFunction,SMDPad,CuDef*%
%ADD19R,0.300000X1.450000*%
%TD*%
%TA.AperFunction,ComponentPad*%
%ADD20O,1.000000X2.100000*%
%TD*%
%TA.AperFunction,ComponentPad*%
%ADD21O,1.000000X1.600000*%
%TD*%
%TA.AperFunction,SMDPad,CuDef*%
%ADD22R,0.650000X1.060000*%
%TD*%
%TA.AperFunction,ComponentPad*%
%ADD23O,1.170000X1.870000*%
%TD*%
%TA.AperFunction,ViaPad*%
%ADD24C,0.800000*%
%TD*%
%TA.AperFunction,Conductor*%
%ADD25C,0.250000*%
%TD*%
%TA.AperFunction,Conductor*%
%ADD26C,0.400000*%
%TD*%
%TA.AperFunction,Conductor*%
%ADD27C,0.200000*%
%TD*%
G04 APERTURE END LIST*
%TO.P,U6,14*%
%TO.N,N/C*%
%TA.AperFunction,SMDPad,CuDef*%
G36*
G01*
X178100000Y-78775000D02*
X177900000Y-78775000D01*
G75*
G02*
X177800000Y-78675000I0J100000D01*
G01*
X177800000Y-77400000D01*
G75*
G02*
X177900000Y-77300000I100000J0D01*
G01*
X178100000Y-77300000D01*
G75*
G02*
X178200000Y-77400000I0J-100000D01*
G01*
X178200000Y-78675000D01*
G75*
G02*
X178100000Y-78775000I-100000J0D01*
G01*
G37*
%TD.AperFunction*%
%TO.P,U6,13*%
%TA.AperFunction,SMDPad,CuDef*%
G36*
G01*
X178750000Y-78775000D02*
X178550000Y-78775000D01*
G75*
G02*
X178450000Y-78675000I0J100000D01*
G01*
X178450000Y-77400000D01*
G75*
G02*
X178550000Y-77300000I100000J0D01*
G01*
X178750000Y-77300000D01*
G75*
G02*
X178850000Y-77400000I0J-100000D01*
G01*
X178850000Y-78675000D01*
G75*
G02*
X178750000Y-78775000I-100000J0D01*
G01*
G37*
%TD.AperFunction*%
%TO.P,U6,12*%
%TA.AperFunction,SMDPad,CuDef*%
G36*
G01*
X179400000Y-78775000D02*
X179200000Y-78775000D01*
G75*
G02*
X179100000Y-78675000I0J100000D01*
G01*
X179100000Y-77400000D01*
G75*
G02*
X179200000Y-77300000I100000J0D01*
G01*
X179400000Y-77300000D01*
G75*
G02*
X179500000Y-77400000I0J-100000D01*
G01*
X179500000Y-78675000D01*
G75*
G02*
X179400000Y-78775000I-100000J0D01*
G01*
G37*
%TD.AperFunction*%
%TO.P,U6,11*%
%TO.N,GND*%
%TA.AperFunction,SMDPad,CuDef*%
G36*
G01*
X180050000Y-78775000D02*
X179850000Y-78775000D01*
G75*
G02*
X179750000Y-78675000I0J100000D01*
G01*
X179750000Y-77400000D01*
G75*
G02*
X179850000Y-77300000I100000J0D01*
G01*
X180050000Y-77300000D01*
G75*
G02*
X180150000Y-77400000I0J-100000D01*
G01*
X180150000Y-78675000D01*
G75*
G02*
X180050000Y-78775000I-100000J0D01*
G01*
G37*
%TD.AperFunction*%
%TO.P,U6,10*%
%TO.N,N/C*%
%TA.AperFunction,SMDPad,CuDef*%
G36*
G01*
X180700000Y-78775000D02*
X180500000Y-78775000D01*
G75*
G02*
X180400000Y-78675000I0J100000D01*
G01*
X180400000Y-77400000D01*
G75*
G02*
X180500000Y-77300000I100000J0D01*
G01*
X180700000Y-77300000D01*
G75*
G02*
X180800000Y-77400000I0J-100000D01*
G01*
X180800000Y-78675000D01*
G75*
G02*
X180700000Y-78775000I-100000J0D01*
G01*
G37*
%TD.AperFunction*%
%TO.P,U6,9*%
%TA.AperFunction,SMDPad,CuDef*%
G36*
G01*
X181350000Y-78775000D02*
X181150000Y-78775000D01*
G75*
G02*
X181050000Y-78675000I0J100000D01*
G01*
X181050000Y-77400000D01*
G75*
G02*
X181150000Y-77300000I100000J0D01*
G01*
X181350000Y-77300000D01*
G75*
G02*
X181450000Y-77400000I0J-100000D01*
G01*
X181450000Y-78675000D01*
G75*
G02*
X181350000Y-78775000I-100000J0D01*
G01*
G37*
%TD.AperFunction*%
%TO.P,U6,8*%
%TA.AperFunction,SMDPad,CuDef*%
G36*
G01*
X182000000Y-78775000D02*
X181800000Y-78775000D01*
G75*
G02*
X181700000Y-78675000I0J100000D01*
G01*
X181700000Y-77400000D01*
G75*
G02*
X181800000Y-77300000I100000J0D01*
G01*
X182000000Y-77300000D01*
G75*
G02*
X182100000Y-77400000I0J-100000D01*
G01*
X182100000Y-78675000D01*
G75*
G02*
X182000000Y-78775000I-100000J0D01*
G01*
G37*
%TD.AperFunction*%
%TO.P,U6,7*%
%TO.N,/COL5_AMP*%
%TA.AperFunction,SMDPad,CuDef*%
G36*
G01*
X182000000Y-84500000D02*
X181800000Y-84500000D01*
G75*
G02*
X181700000Y-84400000I0J100000D01*
G01*
X181700000Y-83125000D01*
G75*
G02*
X181800000Y-83025000I100000J0D01*
G01*
X182000000Y-83025000D01*
G75*
G02*
X182100000Y-83125000I0J-100000D01*
G01*
X182100000Y-84400000D01*
G75*
G02*
X182000000Y-84500000I-100000J0D01*
G01*
G37*
%TD.AperFunction*%
%TO.P,U6,6*%
%TO.N,/COL5*%
%TA.AperFunction,SMDPad,CuDef*%
G36*
G01*
X181350000Y-84500000D02*
X181150000Y-84500000D01*
G75*
G02*
X181050000Y-84400000I0J100000D01*
G01*
X181050000Y-83125000D01*
G75*
G02*
X181150000Y-83025000I100000J0D01*
G01*
X181350000Y-83025000D01*
G75*
G02*
X181450000Y-83125000I0J-100000D01*
G01*
X181450000Y-84400000D01*
G75*
G02*
X181350000Y-84500000I-100000J0D01*
G01*
G37*
%TD.AperFunction*%
%TO.P,U6,5*%
%TO.N,/AMP_REF*%
%TA.AperFunction,SMDPad,CuDef*%
G36*
G01*
X180700000Y-84500000D02*
X180500000Y-84500000D01*
G75*
G02*
X180400000Y-84400000I0J100000D01*
G01*
X180400000Y-83125000D01*
G75*
G02*
X180500000Y-83025000I100000J0D01*
G01*
X180700000Y-83025000D01*
G75*
G02*
X180800000Y-83125000I0J-100000D01*
G01*
X180800000Y-84400000D01*
G75*
G02*
X180700000Y-84500000I-100000J0D01*
G01*
G37*
%TD.AperFunction*%
%TO.P,U6,4*%
%TO.N,+3V3*%
%TA.AperFunction,SMDPad,CuDef*%
G36*
G01*
X180050000Y-84500000D02*
X179850000Y-84500000D01*
G75*
G02*
X179750000Y-84400000I0J100000D01*
G01*
X179750000Y-83125000D01*
G75*
G02*
X179850000Y-83025000I100000J0D01*
G01*
X180050000Y-83025000D01*
G75*
G02*
X180150000Y-83125000I0J-100000D01*
G01*
X180150000Y-84400000D01*
G75*
G02*
X180050000Y-84500000I-100000J0D01*
G01*
G37*
%TD.AperFunction*%
%TO.P,U6,3*%
%TO.N,N/C*%
%TA.AperFunction,SMDPad,CuDef*%
G36*
G01*
X179400000Y-84500000D02*
X179200000Y-84500000D01*
G75*
G02*
X179100000Y-84400000I0J100000D01*
G01*
X179100000Y-83125000D01*
G75*
G02*
X179200000Y-83025000I100000J0D01*
G01*
X179400000Y-83025000D01*
G75*
G02*
X179500000Y-83125000I0J-100000D01*
G01*
X179500000Y-84400000D01*
G75*
G02*
X179400000Y-84500000I-100000J0D01*
G01*
G37*
%TD.AperFunction*%
%TO.P,U6,2*%
%TA.AperFunction,SMDPad,CuDef*%
G36*
G01*
X178750000Y-84500000D02*
X178550000Y-84500000D01*
G75*
G02*
X178450000Y-84400000I0J100000D01*
G01*
X178450000Y-83125000D01*
G75*
G02*
X178550000Y-83025000I100000J0D01*
G01*
X178750000Y-83025000D01*
G75*
G02*
X178850000Y-83125000I0J-100000D01*
G01*
X178850000Y-84400000D01*
G75*
G02*
X178750000Y-84500000I-100000J0D01*
G01*
G37*
%TD.AperFunction*%
%TO.P,U6,1*%
%TA.AperFunction,SMDPad,CuDef*%
G36*
G01*
X178100000Y-84500000D02*
X177900000Y-84500000D01*
G75*
G02*
X177800000Y-84400000I0J100000D01*
G01*
X177800000Y-83125000D01*
G75*
G02*
X177900000Y-83025000I100000J0D01*
G01*
X178100000Y-83025000D01*
G75*
G02*
X178200000Y-83125000I0J-100000D01*
G01*
X178200000Y-84400000D01*
G75*
G02*
X178100000Y-84500000I-100000J0D01*
G01*
G37*
%TD.AperFunction*%
%TD*%
%TO.P,U5,14*%
%TO.N,/COL4_AMP*%
%TA.AperFunction,SMDPad,CuDef*%
G36*
G01*
X184750000Y-82975000D02*
X184550000Y-82975000D01*
G75*
G02*
X184450000Y-82875000I0J100000D01*
G01*
X184450000Y-81600000D01*
G75*
G02*
X184550000Y-81500000I100000J0D01*
G01*
X184750000Y-81500000D01*
G75*
G02*
X184850000Y-81600000I0J-100000D01*
G01*
X184850000Y-82875000D01*
G75*
G02*
X184750000Y-82975000I-100000J0D01*
G01*
G37*
%TD.AperFunction*%
%TO.P,U5,13*%
%TO.N,/COL4*%
%TA.AperFunction,SMDPad,CuDef*%
G36*
G01*
X185400000Y-82975000D02*
X185200000Y-82975000D01*
G75*
G02*
X185100000Y-82875000I0J100000D01*
G01*
X185100000Y-81600000D01*
G75*
G02*
X185200000Y-81500000I100000J0D01*
G01*
X185400000Y-81500000D01*
G75*
G02*
X185500000Y-81600000I0J-100000D01*
G01*
X185500000Y-82875000D01*
G75*
G02*
X185400000Y-82975000I-100000J0D01*
G01*
G37*
%TD.AperFunction*%
%TO.P,U5,12*%
%TO.N,/AMP_REF*%
%TA.AperFunction,SMDPad,CuDef*%
G36*
G01*
X186050000Y-82975000D02*
X185850000Y-82975000D01*
G75*
G02*
X185750000Y-82875000I0J100000D01*
G01*
X185750000Y-81600000D01*
G75*
G02*
X185850000Y-81500000I100000J0D01*
G01*
X186050000Y-81500000D01*
G75*
G02*
X186150000Y-81600000I0J-100000D01*
G01*
X186150000Y-82875000D01*
G75*
G02*
X186050000Y-82975000I-100000J0D01*
G01*
G37*
%TD.AperFunction*%
%TO.P,U5,11*%
%TO.N,GND*%
%TA.AperFunction,SMDPad,CuDef*%
G36*
G01*
X186700000Y-82975000D02*
X186500000Y-82975000D01*
G75*
G02*
X186400000Y-82875000I0J100000D01*
G01*
X186400000Y-81600000D01*
G75*
G02*
X186500000Y-81500000I100000J0D01*
G01*
X186700000Y-81500000D01*
G75*
G02*
X186800000Y-81600000I0J-100000D01*
G01*
X186800000Y-82875000D01*
G75*
G02*
X186700000Y-82975000I-100000J0D01*
G01*
G37*
%TD.AperFunction*%
%TO.P,U5,10*%
%TO.N,/AMP_REF*%
%TA.AperFunction,SMDPad,CuDef*%
G36*
G01*
X187350000Y-82975000D02*
X187150000Y-82975000D01*
G75*
G02*
X187050000Y-82875000I0J100000D01*
G01*
X187050000Y-81600000D01*
G75*
G02*
X187150000Y-81500000I100000J0D01*
G01*
X187350000Y-81500000D01*
G75*
G02*
X187450000Y-81600000I0J-100000D01*
G01*
X187450000Y-82875000D01*
G75*
G02*
X187350000Y-82975000I-100000J0D01*
G01*
G37*
%TD.AperFunction*%
%TO.P,U5,9*%
%TO.N,/COL3*%
%TA.AperFunction,SMDPad,CuDef*%
G36*
G01*
X188000000Y-82975000D02*
X187800000Y-82975000D01*
G75*
G02*
X187700000Y-82875000I0J100000D01*
G01*
X187700000Y-81600000D01*
G75*
G02*
X187800000Y-81500000I100000J0D01*
G01*
X188000000Y-81500000D01*
G75*
G02*
X188100000Y-81600000I0J-100000D01*
G01*
X188100000Y-82875000D01*
G75*
G02*
X188000000Y-82975000I-100000J0D01*
G01*
G37*
%TD.AperFunction*%
%TO.P,U5,8*%
%TO.N,/COL3_AMP*%
%TA.AperFunction,SMDPad,CuDef*%
G36*
G01*
X188650000Y-82975000D02*
X188450000Y-82975000D01*
G75*
G02*
X188350000Y-82875000I0J100000D01*
G01*
X188350000Y-81600000D01*
G75*
G02*
X188450000Y-81500000I100000J0D01*
G01*
X188650000Y-81500000D01*
G75*
G02*
X188750000Y-81600000I0J-100000D01*
G01*
X188750000Y-82875000D01*
G75*
G02*
X188650000Y-82975000I-100000J0D01*
G01*
G37*
%TD.AperFunction*%
%TO.P,U5,7*%
%TO.N,/COL1_AMP*%
%TA.AperFunction,SMDPad,CuDef*%
G36*
G01*
X188650000Y-88700000D02*
X188450000Y-88700000D01*
G75*
G02*
X188350000Y-88600000I0J100000D01*
G01*
X188350000Y-87325000D01*
G75*
G02*
X188450000Y-87225000I100000J0D01*
G01*
X188650000Y-87225000D01*
G75*
G02*
X188750000Y-87325000I0J-100000D01*
G01*
X188750000Y-88600000D01*
G75*
G02*
X188650000Y-88700000I-100000J0D01*
G01*
G37*
%TD.AperFunction*%
%TO.P,U5,6*%
%TO.N,/COL1*%
%TA.AperFunction,SMDPad,CuDef*%
G36*
G01*
X188000000Y-88700000D02*
X187800000Y-88700000D01*
G75*
G02*
X187700000Y-88600000I0J100000D01*
G01*
X187700000Y-87325000D01*
G75*
G02*
X187800000Y-87225000I100000J0D01*
G01*
X188000000Y-87225000D01*
G75*
G02*
X188100000Y-87325000I0J-100000D01*
G01*
X188100000Y-88600000D01*
G75*
G02*
X188000000Y-88700000I-100000J0D01*
G01*
G37*
%TD.AperFunction*%
%TO.P,U5,5*%
%TO.N,/AMP_REF*%
%TA.AperFunction,SMDPad,CuDef*%
G36*
G01*
X187350000Y-88700000D02*
X187150000Y-88700000D01*
G75*
G02*
X187050000Y-88600000I0J100000D01*
G01*
X187050000Y-87325000D01*
G75*
G02*
X187150000Y-87225000I100000J0D01*
G01*
X187350000Y-87225000D01*
G75*
G02*
X187450000Y-87325000I0J-100000D01*
G01*
X187450000Y-88600000D01*
G75*
G02*
X187350000Y-88700000I-100000J0D01*
G01*
G37*
%TD.AperFunction*%
%TO.P,U5,4*%
%TO.N,+3V3*%
%TA.AperFunction,SMDPad,CuDef*%
G36*
G01*
X186700000Y-88700000D02*
X186500000Y-88700000D01*
G75*
G02*
X186400000Y-88600000I0J100000D01*
G01*
X186400000Y-87325000D01*
G75*
G02*
X186500000Y-87225000I100000J0D01*
G01*
X186700000Y-87225000D01*
G75*
G02*
X186800000Y-87325000I0J-100000D01*
G01*
X186800000Y-88600000D01*
G75*
G02*
X186700000Y-88700000I-100000J0D01*
G01*
G37*
%TD.AperFunction*%
%TO.P,U5,3*%
%TO.N,/AMP_REF*%
%TA.AperFunction,SMDPad,CuDef*%
G36*
G01*
X186050000Y-88700000D02*
X185850000Y-88700000D01*
G75*
G02*
X185750000Y-88600000I0J100000D01*
G01*
X185750000Y-87325000D01*
G75*
G02*
X185850000Y-87225000I100000J0D01*
G01*
X186050000Y-87225000D01*
G75*
G02*
X186150000Y-87325000I0J-100000D01*
G01*
X186150000Y-88600000D01*
G75*
G02*
X186050000Y-88700000I-100000J0D01*
G01*
G37*
%TD.AperFunction*%
%TO.P,U5,2*%
%TO.N,/COL2*%
%TA.AperFunction,SMDPad,CuDef*%
G36*
G01*
X185400000Y-88700000D02*
X185200000Y-88700000D01*
G75*
G02*
X185100000Y-88600000I0J100000D01*
G01*
X185100000Y-87325000D01*
G75*
G02*
X185200000Y-87225000I100000J0D01*
G01*
X185400000Y-87225000D01*
G75*
G02*
X185500000Y-87325000I0J-100000D01*
G01*
X185500000Y-88600000D01*
G75*
G02*
X185400000Y-88700000I-100000J0D01*
G01*
G37*
%TD.AperFunction*%
%TO.P,U5,1*%
%TO.N,/COL2_AMP*%
%TA.AperFunction,SMDPad,CuDef*%
G36*
G01*
X184750000Y-88700000D02*
X184550000Y-88700000D01*
G75*
G02*
X184450000Y-88600000I0J100000D01*
G01*
X184450000Y-87325000D01*
G75*
G02*
X184550000Y-87225000I100000J0D01*
G01*
X184750000Y-87225000D01*
G75*
G02*
X184850000Y-87325000I0J-100000D01*
G01*
X184850000Y-88600000D01*
G75*
G02*
X184750000Y-88700000I-100000J0D01*
G01*
G37*
%TD.AperFunction*%
%TD*%
D10*
%TO.P,SW2,2*%
%TO.N,GND*%
X158200000Y-68800000D03*
%TO.P,SW2,1*%
%TO.N,/GPIO_0*%
X153700000Y-68800000D03*
%TO.P,SW2,2*%
%TO.N,GND*%
X158200000Y-62300000D03*
%TO.P,SW2,1*%
%TO.N,/GPIO_0*%
X153700000Y-62300000D03*
%TD*%
%TO.P,C5,1*%
%TO.N,/GPIO_0*%
%TA.AperFunction,SMDPad,CuDef*%
G36*
G01*
X154350000Y-71750001D02*
X154350000Y-70849999D01*
G75*
G02*
X154599999Y-70600000I249999J0D01*
G01*
X155250001Y-70600000D01*
G75*
G02*
X155500000Y-70849999I0J-249999D01*
G01*
X155500000Y-71750001D01*
G75*
G02*
X155250001Y-72000000I-249999J0D01*
G01*
X154599999Y-72000000D01*
G75*
G02*
X154350000Y-71750001I0J249999D01*
G01*
G37*
%TD.AperFunction*%
%TO.P,C5,2*%
%TO.N,GND*%
%TA.AperFunction,SMDPad,CuDef*%
G36*
G01*
X156400000Y-71750001D02*
X156400000Y-70849999D01*
G75*
G02*
X156649999Y-70600000I249999J0D01*
G01*
X157300001Y-70600000D01*
G75*
G02*
X157550000Y-70849999I0J-249999D01*
G01*
X157550000Y-71750001D01*
G75*
G02*
X157300001Y-72000000I-249999J0D01*
G01*
X156649999Y-72000000D01*
G75*
G02*
X156400000Y-71750001I0J249999D01*
G01*
G37*
%TD.AperFunction*%
%TD*%
D11*
%TO.P,U1,42*%
%TO.N,GND*%
X154800000Y-98800000D03*
%TO.P,U1,41*%
%TO.N,/CHIP_PU*%
X154800000Y-97300000D03*
%TO.P,U1,40*%
%TO.N,Net-(U1-Pad40)*%
X154800000Y-95800000D03*
%TO.P,U1,39*%
%TO.N,Net-(U1-Pad39)*%
X154800000Y-94300000D03*
%TO.P,U1,38*%
%TO.N,Net-(U1-Pad38)*%
X154800000Y-92800000D03*
%TO.P,U1,37*%
%TO.N,Net-(U1-Pad37)*%
X154800000Y-91300000D03*
%TO.P,U1,36*%
%TO.N,Net-(U1-Pad36)*%
X154800000Y-89800000D03*
%TO.P,U1,35*%
%TO.N,Net-(U1-Pad35)*%
X154800000Y-88300000D03*
%TO.P,U1,34*%
%TO.N,Net-(U1-Pad34)*%
X154800000Y-86800000D03*
%TO.P,U1,33*%
%TO.N,Net-(U1-Pad33)*%
X154800000Y-85300000D03*
%TO.P,U1,32*%
%TO.N,Net-(U1-Pad32)*%
X154800000Y-83800000D03*
%TO.P,U1,31*%
%TO.N,Net-(U1-Pad31)*%
X154800000Y-82300000D03*
%TO.P,U1,30*%
%TO.N,Net-(U1-Pad30)*%
X154800000Y-80800000D03*
%TO.P,U1,29*%
%TO.N,Net-(U1-Pad29)*%
X154800000Y-79300000D03*
%TO.P,U1,28*%
%TO.N,Net-(U1-Pad28)*%
X154800000Y-77800000D03*
D12*
%TO.P,U1,26*%
%TO.N,Net-(U1-Pad26)*%
X157050000Y-75300000D03*
%TO.P,U1,25*%
%TO.N,Net-(U1-Pad25)*%
X158550000Y-75300000D03*
%TO.P,U1,24*%
%TO.N,Net-(U1-Pad24)*%
X160050000Y-75300000D03*
%TO.P,U1,23*%
%TO.N,Net-(R20-Pad1)*%
X161550000Y-75300000D03*
%TO.P,U1,22*%
%TO.N,Net-(R19-Pad1)*%
X163050000Y-75300000D03*
%TO.P,U1,21*%
%TO.N,Net-(R1-Pad1)*%
X164550000Y-75300000D03*
%TO.P,U1,20*%
%TO.N,Net-(U1-Pad20)*%
X166050000Y-75300000D03*
%TO.P,U1,19*%
%TO.N,Net-(U1-Pad19)*%
X167550000Y-75300000D03*
%TO.P,U1,18*%
%TO.N,Net-(U1-Pad18)*%
X169050000Y-75300000D03*
D11*
%TO.P,U1,16*%
%TO.N,/U1TX*%
X172800000Y-76300000D03*
%TO.P,U1,15*%
%TO.N,/U1RX*%
X172800000Y-77800000D03*
%TO.P,U1,14*%
%TO.N,Net-(U1-Pad14)*%
X172800000Y-79300000D03*
%TO.P,U1,13*%
%TO.N,/ROW1*%
X172800000Y-80800000D03*
%TO.P,U1,12*%
%TO.N,/ROW2*%
X172800000Y-82300000D03*
%TO.P,U1,11*%
%TO.N,/ROW3*%
X172800000Y-83800000D03*
%TO.P,U1,10*%
%TO.N,/ROW4*%
X172800000Y-85300000D03*
%TO.P,U1,9*%
%TO.N,/ROW5*%
X172800000Y-86800000D03*
%TO.P,U1,8*%
%TO.N,/COL5_AMP*%
X172800000Y-88300000D03*
%TO.P,U1,7*%
%TO.N,/COL4_AMP*%
X172800000Y-89800000D03*
%TO.P,U1,6*%
%TO.N,/COL3_AMP*%
X172800000Y-91300000D03*
%TO.P,U1,5*%
%TO.N,/COL2_AMP*%
X172800000Y-92800000D03*
%TO.P,U1,4*%
%TO.N,/COL1_AMP*%
X172800000Y-94300000D03*
%TO.P,U1,3*%
%TO.N,/GPIO_0*%
X172800000Y-95800000D03*
%TO.P,U1,2*%
%TO.N,+3V3*%
X172800000Y-97300000D03*
%TO.P,U1,1*%
%TO.N,GND*%
X172800000Y-98800000D03*
D13*
%TO.P,U1,43*%
X163490000Y-90000000D03*
X166490000Y-90000000D03*
X163490000Y-91500000D03*
X166490000Y-91500000D03*
X164240000Y-89250000D03*
X165740000Y-89250000D03*
X164240000Y-92250000D03*
X165740000Y-92250000D03*
D14*
X164990000Y-90750000D03*
D15*
X164990000Y-90750000D03*
D11*
%TO.P,U1,27*%
%TO.N,Net-(U1-Pad27)*%
X154800000Y-76300000D03*
D12*
%TO.P,U1,17*%
%TO.N,Net-(U1-Pad17)*%
X170550000Y-75300000D03*
%TD*%
D16*
%TO.P,Q5,3*%
%TO.N,Net-(J5-Pad7)*%
X176800000Y-72500000D03*
%TO.P,Q5,2*%
%TO.N,GND*%
X177750000Y-75500000D03*
%TO.P,Q5,1*%
%TO.N,Net-(Q5-Pad1)*%
X175850000Y-75500000D03*
%TD*%
D17*
%TO.P,H2,1*%
%TO.N,GND*%
X153550000Y-36549999D03*
%TD*%
%TO.P,H1,1*%
%TO.N,GND*%
X188450000Y-96450000D03*
%TD*%
%TO.P,R9,2*%
%TO.N,/COL5*%
%TA.AperFunction,SMDPad,CuDef*%
G36*
G01*
X179750000Y-85849999D02*
X179750000Y-86750001D01*
G75*
G02*
X179500001Y-87000000I-249999J0D01*
G01*
X178849999Y-87000000D01*
G75*
G02*
X178600000Y-86750001I0J249999D01*
G01*
X178600000Y-85849999D01*
G75*
G02*
X178849999Y-85600000I249999J0D01*
G01*
X179500001Y-85600000D01*
G75*
G02*
X179750000Y-85849999I0J-249999D01*
G01*
G37*
%TD.AperFunction*%
%TO.P,R9,1*%
%TO.N,/COL5_AMP*%
%TA.AperFunction,SMDPad,CuDef*%
G36*
G01*
X181800000Y-85849999D02*
X181800000Y-86750001D01*
G75*
G02*
X181550001Y-87000000I-249999J0D01*
G01*
X180899999Y-87000000D01*
G75*
G02*
X180650000Y-86750001I0J249999D01*
G01*
X180650000Y-85849999D01*
G75*
G02*
X180899999Y-85600000I249999J0D01*
G01*
X181550001Y-85600000D01*
G75*
G02*
X181800000Y-85849999I0J-249999D01*
G01*
G37*
%TD.AperFunction*%
%TD*%
%TO.P,R7,2*%
%TO.N,/COL3*%
%TA.AperFunction,SMDPad,CuDef*%
G36*
G01*
X187950000Y-78949999D02*
X187950000Y-79850001D01*
G75*
G02*
X187700001Y-80100000I-249999J0D01*
G01*
X187049999Y-80100000D01*
G75*
G02*
X186800000Y-79850001I0J249999D01*
G01*
X186800000Y-78949999D01*
G75*
G02*
X187049999Y-78700000I249999J0D01*
G01*
X187700001Y-78700000D01*
G75*
G02*
X187950000Y-78949999I0J-249999D01*
G01*
G37*
%TD.AperFunction*%
%TO.P,R7,1*%
%TO.N,/COL3_AMP*%
%TA.AperFunction,SMDPad,CuDef*%
G36*
G01*
X190000000Y-78949999D02*
X190000000Y-79850001D01*
G75*
G02*
X189750001Y-80100000I-249999J0D01*
G01*
X189099999Y-80100000D01*
G75*
G02*
X188850000Y-79850001I0J249999D01*
G01*
X188850000Y-78949999D01*
G75*
G02*
X189099999Y-78700000I249999J0D01*
G01*
X189750001Y-78700000D01*
G75*
G02*
X190000000Y-78949999I0J-249999D01*
G01*
G37*
%TD.AperFunction*%
%TD*%
%TO.P,R8,2*%
%TO.N,/COL4*%
%TA.AperFunction,SMDPad,CuDef*%
G36*
G01*
X185150000Y-79850001D02*
X185150000Y-78949999D01*
G75*
G02*
X185399999Y-78700000I249999J0D01*
G01*
X186050001Y-78700000D01*
G75*
G02*
X186300000Y-78949999I0J-249999D01*
G01*
X186300000Y-79850001D01*
G75*
G02*
X186050001Y-80100000I-249999J0D01*
G01*
X185399999Y-80100000D01*
G75*
G02*
X185150000Y-79850001I0J249999D01*
G01*
G37*
%TD.AperFunction*%
%TO.P,R8,1*%
%TO.N,/COL4_AMP*%
%TA.AperFunction,SMDPad,CuDef*%
G36*
G01*
X183100000Y-79850001D02*
X183100000Y-78949999D01*
G75*
G02*
X183349999Y-78700000I249999J0D01*
G01*
X184000001Y-78700000D01*
G75*
G02*
X184250000Y-78949999I0J-249999D01*
G01*
X184250000Y-79850001D01*
G75*
G02*
X184000001Y-80100000I-249999J0D01*
G01*
X183349999Y-80100000D01*
G75*
G02*
X183100000Y-79850001I0J249999D01*
G01*
G37*
%TD.AperFunction*%
%TD*%
%TO.P,R6,2*%
%TO.N,/COL2*%
%TA.AperFunction,SMDPad,CuDef*%
G36*
G01*
X185150000Y-91250001D02*
X185150000Y-90349999D01*
G75*
G02*
X185399999Y-90100000I249999J0D01*
G01*
X186050001Y-90100000D01*
G75*
G02*
X186300000Y-90349999I0J-249999D01*
G01*
X186300000Y-91250001D01*
G75*
G02*
X186050001Y-91500000I-249999J0D01*
G01*
X185399999Y-91500000D01*
G75*
G02*
X185150000Y-91250001I0J249999D01*
G01*
G37*
%TD.AperFunction*%
%TO.P,R6,1*%
%TO.N,/COL2_AMP*%
%TA.AperFunction,SMDPad,CuDef*%
G36*
G01*
X183100000Y-91250001D02*
X183100000Y-90349999D01*
G75*
G02*
X183349999Y-90100000I249999J0D01*
G01*
X184000001Y-90100000D01*
G75*
G02*
X184250000Y-90349999I0J-249999D01*
G01*
X184250000Y-91250001D01*
G75*
G02*
X184000001Y-91500000I-249999J0D01*
G01*
X183349999Y-91500000D01*
G75*
G02*
X183100000Y-91250001I0J249999D01*
G01*
G37*
%TD.AperFunction*%
%TD*%
%TO.P,R5,2*%
%TO.N,/COL1*%
%TA.AperFunction,SMDPad,CuDef*%
G36*
G01*
X187950000Y-90349999D02*
X187950000Y-91250001D01*
G75*
G02*
X187700001Y-91500000I-249999J0D01*
G01*
X187049999Y-91500000D01*
G75*
G02*
X186800000Y-91250001I0J249999D01*
G01*
X186800000Y-90349999D01*
G75*
G02*
X187049999Y-90100000I249999J0D01*
G01*
X187700001Y-90100000D01*
G75*
G02*
X187950000Y-90349999I0J-249999D01*
G01*
G37*
%TD.AperFunction*%
%TO.P,R5,1*%
%TO.N,/COL1_AMP*%
%TA.AperFunction,SMDPad,CuDef*%
G36*
G01*
X190000000Y-90349999D02*
X190000000Y-91250001D01*
G75*
G02*
X189750001Y-91500000I-249999J0D01*
G01*
X189099999Y-91500000D01*
G75*
G02*
X188850000Y-91250001I0J249999D01*
G01*
X188850000Y-90349999D01*
G75*
G02*
X189099999Y-90100000I249999J0D01*
G01*
X189750001Y-90100000D01*
G75*
G02*
X190000000Y-90349999I0J-249999D01*
G01*
G37*
%TD.AperFunction*%
%TD*%
%TO.P,R4,2*%
%TO.N,GND*%
%TA.AperFunction,SMDPad,CuDef*%
G36*
G01*
X175149999Y-83250000D02*
X176050001Y-83250000D01*
G75*
G02*
X176300000Y-83499999I0J-249999D01*
G01*
X176300000Y-84150001D01*
G75*
G02*
X176050001Y-84400000I-249999J0D01*
G01*
X175149999Y-84400000D01*
G75*
G02*
X174900000Y-84150001I0J249999D01*
G01*
X174900000Y-83499999D01*
G75*
G02*
X175149999Y-83250000I249999J0D01*
G01*
G37*
%TD.AperFunction*%
%TO.P,R4,1*%
%TO.N,/AMP_REF*%
%TA.AperFunction,SMDPad,CuDef*%
G36*
G01*
X175149999Y-81200000D02*
X176050001Y-81200000D01*
G75*
G02*
X176300000Y-81449999I0J-249999D01*
G01*
X176300000Y-82100001D01*
G75*
G02*
X176050001Y-82350000I-249999J0D01*
G01*
X175149999Y-82350000D01*
G75*
G02*
X174900000Y-82100001I0J249999D01*
G01*
X174900000Y-81449999D01*
G75*
G02*
X175149999Y-81200000I249999J0D01*
G01*
G37*
%TD.AperFunction*%
%TD*%
%TO.P,R3,2*%
%TO.N,/AMP_REF*%
%TA.AperFunction,SMDPad,CuDef*%
G36*
G01*
X175149999Y-79550000D02*
X176050001Y-79550000D01*
G75*
G02*
X176300000Y-79799999I0J-249999D01*
G01*
X176300000Y-80450001D01*
G75*
G02*
X176050001Y-80700000I-249999J0D01*
G01*
X175149999Y-80700000D01*
G75*
G02*
X174900000Y-80450001I0J249999D01*
G01*
X174900000Y-79799999D01*
G75*
G02*
X175149999Y-79550000I249999J0D01*
G01*
G37*
%TD.AperFunction*%
%TO.P,R3,1*%
%TO.N,+3V3*%
%TA.AperFunction,SMDPad,CuDef*%
G36*
G01*
X175149999Y-77500000D02*
X176050001Y-77500000D01*
G75*
G02*
X176300000Y-77749999I0J-249999D01*
G01*
X176300000Y-78400001D01*
G75*
G02*
X176050001Y-78650000I-249999J0D01*
G01*
X175149999Y-78650000D01*
G75*
G02*
X174900000Y-78400001I0J249999D01*
G01*
X174900000Y-77749999D01*
G75*
G02*
X175149999Y-77500000I249999J0D01*
G01*
G37*
%TD.AperFunction*%
%TD*%
%TO.P,R14,2*%
%TO.N,/ROW1*%
%TA.AperFunction,SMDPad,CuDef*%
G36*
G01*
X174350001Y-71350000D02*
X173449999Y-71350000D01*
G75*
G02*
X173200000Y-71100001I0J249999D01*
G01*
X173200000Y-70449999D01*
G75*
G02*
X173449999Y-70200000I249999J0D01*
G01*
X174350001Y-70200000D01*
G75*
G02*
X174600000Y-70449999I0J-249999D01*
G01*
X174600000Y-71100001D01*
G75*
G02*
X174350001Y-71350000I-249999J0D01*
G01*
G37*
%TD.AperFunction*%
%TO.P,R14,1*%
%TO.N,Net-(Q5-Pad1)*%
%TA.AperFunction,SMDPad,CuDef*%
G36*
G01*
X174350001Y-73400000D02*
X173449999Y-73400000D01*
G75*
G02*
X173200000Y-73150001I0J249999D01*
G01*
X173200000Y-72499999D01*
G75*
G02*
X173449999Y-72250000I249999J0D01*
G01*
X174350001Y-72250000D01*
G75*
G02*
X174600000Y-72499999I0J-249999D01*
G01*
X174600000Y-73150001D01*
G75*
G02*
X174350001Y-73400000I-249999J0D01*
G01*
G37*
%TD.AperFunction*%
%TD*%
%TO.P,R13,2*%
%TO.N,/ROW2*%
%TA.AperFunction,SMDPad,CuDef*%
G36*
G01*
X174350001Y-67450000D02*
X173449999Y-67450000D01*
G75*
G02*
X173200000Y-67200001I0J249999D01*
G01*
X173200000Y-66549999D01*
G75*
G02*
X173449999Y-66300000I249999J0D01*
G01*
X174350001Y-66300000D01*
G75*
G02*
X174600000Y-66549999I0J-249999D01*
G01*
X174600000Y-67200001D01*
G75*
G02*
X174350001Y-67450000I-249999J0D01*
G01*
G37*
%TD.AperFunction*%
%TO.P,R13,1*%
%TO.N,Net-(Q4-Pad1)*%
%TA.AperFunction,SMDPad,CuDef*%
G36*
G01*
X174350001Y-69500000D02*
X173449999Y-69500000D01*
G75*
G02*
X173200000Y-69250001I0J249999D01*
G01*
X173200000Y-68599999D01*
G75*
G02*
X173449999Y-68350000I249999J0D01*
G01*
X174350001Y-68350000D01*
G75*
G02*
X174600000Y-68599999I0J-249999D01*
G01*
X174600000Y-69250001D01*
G75*
G02*
X174350001Y-69500000I-249999J0D01*
G01*
G37*
%TD.AperFunction*%
%TD*%
%TO.P,R12,2*%
%TO.N,/ROW3*%
%TA.AperFunction,SMDPad,CuDef*%
G36*
G01*
X174350001Y-62650000D02*
X173449999Y-62650000D01*
G75*
G02*
X173200000Y-62400001I0J249999D01*
G01*
X173200000Y-61749999D01*
G75*
G02*
X173449999Y-61500000I249999J0D01*
G01*
X174350001Y-61500000D01*
G75*
G02*
X174600000Y-61749999I0J-249999D01*
G01*
X174600000Y-62400001D01*
G75*
G02*
X174350001Y-62650000I-249999J0D01*
G01*
G37*
%TD.AperFunction*%
%TO.P,R12,1*%
%TO.N,Net-(Q3-Pad1)*%
%TA.AperFunction,SMDPad,CuDef*%
G36*
G01*
X174350001Y-64700000D02*
X173449999Y-64700000D01*
G75*
G02*
X173200000Y-64450001I0J249999D01*
G01*
X173200000Y-63799999D01*
G75*
G02*
X173449999Y-63550000I249999J0D01*
G01*
X174350001Y-63550000D01*
G75*
G02*
X174600000Y-63799999I0J-249999D01*
G01*
X174600000Y-64450001D01*
G75*
G02*
X174350001Y-64700000I-249999J0D01*
G01*
G37*
%TD.AperFunction*%
%TD*%
%TO.P,R11,2*%
%TO.N,/ROW4*%
%TA.AperFunction,SMDPad,CuDef*%
G36*
G01*
X174450001Y-57150000D02*
X173549999Y-57150000D01*
G75*
G02*
X173300000Y-56900001I0J249999D01*
G01*
X173300000Y-56249999D01*
G75*
G02*
X173549999Y-56000000I249999J0D01*
G01*
X174450001Y-56000000D01*
G75*
G02*
X174700000Y-56249999I0J-249999D01*
G01*
X174700000Y-56900001D01*
G75*
G02*
X174450001Y-57150000I-249999J0D01*
G01*
G37*
%TD.AperFunction*%
%TO.P,R11,1*%
%TO.N,Net-(Q2-Pad1)*%
%TA.AperFunction,SMDPad,CuDef*%
G36*
G01*
X174450001Y-59200000D02*
X173549999Y-59200000D01*
G75*
G02*
X173300000Y-58950001I0J249999D01*
G01*
X173300000Y-58299999D01*
G75*
G02*
X173549999Y-58050000I249999J0D01*
G01*
X174450001Y-58050000D01*
G75*
G02*
X174700000Y-58299999I0J-249999D01*
G01*
X174700000Y-58950001D01*
G75*
G02*
X174450001Y-59200000I-249999J0D01*
G01*
G37*
%TD.AperFunction*%
%TD*%
%TO.P,R10,2*%
%TO.N,/ROW5*%
%TA.AperFunction,SMDPad,CuDef*%
G36*
G01*
X174450001Y-51650000D02*
X173549999Y-51650000D01*
G75*
G02*
X173300000Y-51400001I0J249999D01*
G01*
X173300000Y-50749999D01*
G75*
G02*
X173549999Y-50500000I249999J0D01*
G01*
X174450001Y-50500000D01*
G75*
G02*
X174700000Y-50749999I0J-249999D01*
G01*
X174700000Y-51400001D01*
G75*
G02*
X174450001Y-51650000I-249999J0D01*
G01*
G37*
%TD.AperFunction*%
%TO.P,R10,1*%
%TO.N,Net-(Q1-Pad1)*%
%TA.AperFunction,SMDPad,CuDef*%
G36*
G01*
X174450001Y-53700000D02*
X173549999Y-53700000D01*
G75*
G02*
X173300000Y-53450001I0J249999D01*
G01*
X173300000Y-52799999D01*
G75*
G02*
X173549999Y-52550000I249999J0D01*
G01*
X174450001Y-52550000D01*
G75*
G02*
X174700000Y-52799999I0J-249999D01*
G01*
X174700000Y-53450001D01*
G75*
G02*
X174450001Y-53700000I-249999J0D01*
G01*
G37*
%TD.AperFunction*%
%TD*%
%TO.P,R20,2*%
%TO.N,/D+*%
%TA.AperFunction,SMDPad,CuDef*%
G36*
G01*
X161850001Y-71650000D02*
X160949999Y-71650000D01*
G75*
G02*
X160700000Y-71400001I0J249999D01*
G01*
X160700000Y-70749999D01*
G75*
G02*
X160949999Y-70500000I249999J0D01*
G01*
X161850001Y-70500000D01*
G75*
G02*
X162100000Y-70749999I0J-249999D01*
G01*
X162100000Y-71400001D01*
G75*
G02*
X161850001Y-71650000I-249999J0D01*
G01*
G37*
%TD.AperFunction*%
%TO.P,R20,1*%
%TO.N,Net-(R20-Pad1)*%
%TA.AperFunction,SMDPad,CuDef*%
G36*
G01*
X161850001Y-73700000D02*
X160949999Y-73700000D01*
G75*
G02*
X160700000Y-73450001I0J249999D01*
G01*
X160700000Y-72799999D01*
G75*
G02*
X160949999Y-72550000I249999J0D01*
G01*
X161850001Y-72550000D01*
G75*
G02*
X162100000Y-72799999I0J-249999D01*
G01*
X162100000Y-73450001D01*
G75*
G02*
X161850001Y-73700000I-249999J0D01*
G01*
G37*
%TD.AperFunction*%
%TD*%
%TO.P,R19,2*%
%TO.N,/D-*%
%TA.AperFunction,SMDPad,CuDef*%
G36*
G01*
X163750001Y-71650000D02*
X162849999Y-71650000D01*
G75*
G02*
X162600000Y-71400001I0J249999D01*
G01*
X162600000Y-70749999D01*
G75*
G02*
X162849999Y-70500000I249999J0D01*
G01*
X163750001Y-70500000D01*
G75*
G02*
X164000000Y-70749999I0J-249999D01*
G01*
X164000000Y-71400001D01*
G75*
G02*
X163750001Y-71650000I-249999J0D01*
G01*
G37*
%TD.AperFunction*%
%TO.P,R19,1*%
%TO.N,Net-(R19-Pad1)*%
%TA.AperFunction,SMDPad,CuDef*%
G36*
G01*
X163750001Y-73700000D02*
X162849999Y-73700000D01*
G75*
G02*
X162600000Y-73450001I0J249999D01*
G01*
X162600000Y-72799999D01*
G75*
G02*
X162849999Y-72550000I249999J0D01*
G01*
X163750001Y-72550000D01*
G75*
G02*
X164000000Y-72799999I0J-249999D01*
G01*
X164000000Y-73450001D01*
G75*
G02*
X163750001Y-73700000I-249999J0D01*
G01*
G37*
%TD.AperFunction*%
%TD*%
D18*
%TO.P,J7,B1*%
%TO.N,GND*%
X179330000Y-40595000D03*
%TO.P,J7,A9*%
%TO.N,Net-(C9-Pad1)*%
X180130000Y-40595000D03*
%TO.P,J7,B9*%
X185030000Y-40595000D03*
%TO.P,J7,B12*%
%TO.N,GND*%
X185830000Y-40595000D03*
%TO.P,J7,A1*%
X185830000Y-40595000D03*
%TO.P,J7,A4*%
%TO.N,Net-(C9-Pad1)*%
X185030000Y-40595000D03*
%TO.P,J7,B4*%
X180130000Y-40595000D03*
%TO.P,J7,A12*%
%TO.N,GND*%
X179330000Y-40595000D03*
D19*
%TO.P,J7,B8*%
%TO.N,Net-(J7-PadB8)*%
X184330000Y-40595000D03*
%TO.P,J7,A5*%
%TO.N,Net-(J7-PadA5)*%
X183830000Y-40595000D03*
%TO.P,J7,B7*%
%TO.N,/U1RX_raw*%
X183330000Y-40595000D03*
%TO.P,J7,A7*%
X182330000Y-40595000D03*
%TO.P,J7,B6*%
%TO.N,/U1TX_raw*%
X181830000Y-40595000D03*
%TO.P,J7,A8*%
%TO.N,Net-(J7-PadA8)*%
X181330000Y-40595000D03*
%TO.P,J7,B5*%
%TO.N,Net-(J7-PadB5)*%
X180830000Y-40595000D03*
%TO.P,J7,A6*%
%TO.N,/U1TX_raw*%
X182830000Y-40595000D03*
D20*
%TO.P,J7,S1*%
%TO.N,Net-(FB3-Pad1)*%
X178260000Y-39680000D03*
X186900000Y-39680000D03*
D21*
X186900000Y-35500000D03*
X178260000Y-35500000D03*
%TD*%
D18*
%TO.P,J6,B1*%
%TO.N,GND*%
X160930000Y-40595000D03*
%TO.P,J6,A9*%
%TO.N,Net-(C8-Pad1)*%
X161730000Y-40595000D03*
%TO.P,J6,B9*%
X166630000Y-40595000D03*
%TO.P,J6,B12*%
%TO.N,GND*%
X167430000Y-40595000D03*
%TO.P,J6,A1*%
X167430000Y-40595000D03*
%TO.P,J6,A4*%
%TO.N,Net-(C8-Pad1)*%
X166630000Y-40595000D03*
%TO.P,J6,B4*%
X161730000Y-40595000D03*
%TO.P,J6,A12*%
%TO.N,GND*%
X160930000Y-40595000D03*
D19*
%TO.P,J6,B8*%
%TO.N,Net-(J6-PadB8)*%
X165930000Y-40595000D03*
%TO.P,J6,A5*%
%TO.N,Net-(J6-PadA5)*%
X165430000Y-40595000D03*
%TO.P,J6,B7*%
%TO.N,/RD-*%
X164930000Y-40595000D03*
%TO.P,J6,A7*%
X163930000Y-40595000D03*
%TO.P,J6,B6*%
%TO.N,/RD+*%
X163430000Y-40595000D03*
%TO.P,J6,A8*%
%TO.N,Net-(J6-PadA8)*%
X162930000Y-40595000D03*
%TO.P,J6,B5*%
%TO.N,Net-(J6-PadB5)*%
X162430000Y-40595000D03*
%TO.P,J6,A6*%
%TO.N,/RD+*%
X164430000Y-40595000D03*
D20*
%TO.P,J6,S1*%
%TO.N,Net-(FB1-Pad1)*%
X159860000Y-39680000D03*
X168500000Y-39680000D03*
D21*
X168500000Y-35500000D03*
X159860000Y-35500000D03*
%TD*%
%TO.P,C8,2*%
%TO.N,GND*%
%TA.AperFunction,SMDPad,CuDef*%
G36*
G01*
X168379999Y-45175000D02*
X169280001Y-45175000D01*
G75*
G02*
X169530000Y-45424999I0J-249999D01*
G01*
X169530000Y-46075001D01*
G75*
G02*
X169280001Y-46325000I-249999J0D01*
G01*
X168379999Y-46325000D01*
G75*
G02*
X168130000Y-46075001I0J249999D01*
G01*
X168130000Y-45424999D01*
G75*
G02*
X168379999Y-45175000I249999J0D01*
G01*
G37*
%TD.AperFunction*%
%TO.P,C8,1*%
%TO.N,Net-(C8-Pad1)*%
%TA.AperFunction,SMDPad,CuDef*%
G36*
G01*
X168379999Y-43125000D02*
X169280001Y-43125000D01*
G75*
G02*
X169530000Y-43374999I0J-249999D01*
G01*
X169530000Y-44025001D01*
G75*
G02*
X169280001Y-44275000I-249999J0D01*
G01*
X168379999Y-44275000D01*
G75*
G02*
X168130000Y-44025001I0J249999D01*
G01*
X168130000Y-43374999D01*
G75*
G02*
X168379999Y-43125000I249999J0D01*
G01*
G37*
%TD.AperFunction*%
%TD*%
%TO.P,FB1,2*%
%TO.N,GND*%
%TA.AperFunction,SMDPad,CuDef*%
G36*
G01*
X159079999Y-45175000D02*
X159980001Y-45175000D01*
G75*
G02*
X160230000Y-45424999I0J-249999D01*
G01*
X160230000Y-46075001D01*
G75*
G02*
X159980001Y-46325000I-249999J0D01*
G01*
X159079999Y-46325000D01*
G75*
G02*
X158830000Y-46075001I0J249999D01*
G01*
X158830000Y-45424999D01*
G75*
G02*
X159079999Y-45175000I249999J0D01*
G01*
G37*
%TD.AperFunction*%
%TO.P,FB1,1*%
%TO.N,Net-(FB1-Pad1)*%
%TA.AperFunction,SMDPad,CuDef*%
G36*
G01*
X159079999Y-43125000D02*
X159980001Y-43125000D01*
G75*
G02*
X160230000Y-43374999I0J-249999D01*
G01*
X160230000Y-44025001D01*
G75*
G02*
X159980001Y-44275000I-249999J0D01*
G01*
X159079999Y-44275000D01*
G75*
G02*
X158830000Y-44025001I0J249999D01*
G01*
X158830000Y-43374999D01*
G75*
G02*
X159079999Y-43125000I249999J0D01*
G01*
G37*
%TD.AperFunction*%
%TD*%
%TO.P,FB2,2*%
%TO.N,Net-(C8-Pad1)*%
%TA.AperFunction,SMDPad,CuDef*%
G36*
G01*
X171180001Y-44275000D02*
X170279999Y-44275000D01*
G75*
G02*
X170030000Y-44025001I0J249999D01*
G01*
X170030000Y-43374999D01*
G75*
G02*
X170279999Y-43125000I249999J0D01*
G01*
X171180001Y-43125000D01*
G75*
G02*
X171430000Y-43374999I0J-249999D01*
G01*
X171430000Y-44025001D01*
G75*
G02*
X171180001Y-44275000I-249999J0D01*
G01*
G37*
%TD.AperFunction*%
%TO.P,FB2,1*%
%TO.N,+5V*%
%TA.AperFunction,SMDPad,CuDef*%
G36*
G01*
X171180001Y-46325000D02*
X170279999Y-46325000D01*
G75*
G02*
X170030000Y-46075001I0J249999D01*
G01*
X170030000Y-45424999D01*
G75*
G02*
X170279999Y-45175000I249999J0D01*
G01*
X171180001Y-45175000D01*
G75*
G02*
X171430000Y-45424999I0J-249999D01*
G01*
X171430000Y-46075001D01*
G75*
G02*
X171180001Y-46325000I-249999J0D01*
G01*
G37*
%TD.AperFunction*%
%TD*%
D22*
%TO.P,U3,5*%
%TO.N,Net-(C8-Pad1)*%
X164180000Y-45820000D03*
%TO.P,U3,6*%
%TO.N,/D-*%
X165130000Y-45820000D03*
%TO.P,U3,4*%
%TO.N,/D+*%
X163230000Y-45820000D03*
%TO.P,U3,3*%
%TO.N,/RD+*%
X163230000Y-43620000D03*
%TO.P,U3,2*%
%TO.N,GND*%
X164180000Y-43620000D03*
%TO.P,U3,1*%
%TO.N,/RD-*%
X165130000Y-43620000D03*
%TD*%
%TO.P,R15,2*%
%TO.N,GND*%
%TA.AperFunction,SMDPad,CuDef*%
G36*
G01*
X160979999Y-45175000D02*
X161880001Y-45175000D01*
G75*
G02*
X162130000Y-45424999I0J-249999D01*
G01*
X162130000Y-46075001D01*
G75*
G02*
X161880001Y-46325000I-249999J0D01*
G01*
X160979999Y-46325000D01*
G75*
G02*
X160730000Y-46075001I0J249999D01*
G01*
X160730000Y-45424999D01*
G75*
G02*
X160979999Y-45175000I249999J0D01*
G01*
G37*
%TD.AperFunction*%
%TO.P,R15,1*%
%TO.N,Net-(J6-PadB5)*%
%TA.AperFunction,SMDPad,CuDef*%
G36*
G01*
X160979999Y-43125000D02*
X161880001Y-43125000D01*
G75*
G02*
X162130000Y-43374999I0J-249999D01*
G01*
X162130000Y-44025001D01*
G75*
G02*
X161880001Y-44275000I-249999J0D01*
G01*
X160979999Y-44275000D01*
G75*
G02*
X160730000Y-44025001I0J249999D01*
G01*
X160730000Y-43374999D01*
G75*
G02*
X160979999Y-43125000I249999J0D01*
G01*
G37*
%TD.AperFunction*%
%TD*%
%TO.P,R16,2*%
%TO.N,GND*%
%TA.AperFunction,SMDPad,CuDef*%
G36*
G01*
X166479999Y-45175000D02*
X167380001Y-45175000D01*
G75*
G02*
X167630000Y-45424999I0J-249999D01*
G01*
X167630000Y-46075001D01*
G75*
G02*
X167380001Y-46325000I-249999J0D01*
G01*
X166479999Y-46325000D01*
G75*
G02*
X166230000Y-46075001I0J249999D01*
G01*
X166230000Y-45424999D01*
G75*
G02*
X166479999Y-45175000I249999J0D01*
G01*
G37*
%TD.AperFunction*%
%TO.P,R16,1*%
%TO.N,Net-(J6-PadA5)*%
%TA.AperFunction,SMDPad,CuDef*%
G36*
G01*
X166479999Y-43125000D02*
X167380001Y-43125000D01*
G75*
G02*
X167630000Y-43374999I0J-249999D01*
G01*
X167630000Y-44025001D01*
G75*
G02*
X167380001Y-44275000I-249999J0D01*
G01*
X166479999Y-44275000D01*
G75*
G02*
X166230000Y-44025001I0J249999D01*
G01*
X166230000Y-43374999D01*
G75*
G02*
X166479999Y-43125000I249999J0D01*
G01*
G37*
%TD.AperFunction*%
%TD*%
%TO.P,R18,2*%
%TO.N,GND*%
%TA.AperFunction,SMDPad,CuDef*%
G36*
G01*
X184879999Y-45175000D02*
X185780001Y-45175000D01*
G75*
G02*
X186030000Y-45424999I0J-249999D01*
G01*
X186030000Y-46075001D01*
G75*
G02*
X185780001Y-46325000I-249999J0D01*
G01*
X184879999Y-46325000D01*
G75*
G02*
X184630000Y-46075001I0J249999D01*
G01*
X184630000Y-45424999D01*
G75*
G02*
X184879999Y-45175000I249999J0D01*
G01*
G37*
%TD.AperFunction*%
%TO.P,R18,1*%
%TO.N,Net-(J7-PadA5)*%
%TA.AperFunction,SMDPad,CuDef*%
G36*
G01*
X184879999Y-43125000D02*
X185780001Y-43125000D01*
G75*
G02*
X186030000Y-43374999I0J-249999D01*
G01*
X186030000Y-44025001D01*
G75*
G02*
X185780001Y-44275000I-249999J0D01*
G01*
X184879999Y-44275000D01*
G75*
G02*
X184630000Y-44025001I0J249999D01*
G01*
X184630000Y-43374999D01*
G75*
G02*
X184879999Y-43125000I249999J0D01*
G01*
G37*
%TD.AperFunction*%
%TD*%
%TO.P,R17,2*%
%TO.N,GND*%
%TA.AperFunction,SMDPad,CuDef*%
G36*
G01*
X179379999Y-45175000D02*
X180280001Y-45175000D01*
G75*
G02*
X180530000Y-45424999I0J-249999D01*
G01*
X180530000Y-46075001D01*
G75*
G02*
X180280001Y-46325000I-249999J0D01*
G01*
X179379999Y-46325000D01*
G75*
G02*
X179130000Y-46075001I0J249999D01*
G01*
X179130000Y-45424999D01*
G75*
G02*
X179379999Y-45175000I249999J0D01*
G01*
G37*
%TD.AperFunction*%
%TO.P,R17,1*%
%TO.N,Net-(J7-PadB5)*%
%TA.AperFunction,SMDPad,CuDef*%
G36*
G01*
X179379999Y-43125000D02*
X180280001Y-43125000D01*
G75*
G02*
X180530000Y-43374999I0J-249999D01*
G01*
X180530000Y-44025001D01*
G75*
G02*
X180280001Y-44275000I-249999J0D01*
G01*
X179379999Y-44275000D01*
G75*
G02*
X179130000Y-44025001I0J249999D01*
G01*
X179130000Y-43374999D01*
G75*
G02*
X179379999Y-43125000I249999J0D01*
G01*
G37*
%TD.AperFunction*%
%TD*%
%TO.P,C9,2*%
%TO.N,GND*%
%TA.AperFunction,SMDPad,CuDef*%
G36*
G01*
X186779999Y-45175000D02*
X187680001Y-45175000D01*
G75*
G02*
X187930000Y-45424999I0J-249999D01*
G01*
X187930000Y-46075001D01*
G75*
G02*
X187680001Y-46325000I-249999J0D01*
G01*
X186779999Y-46325000D01*
G75*
G02*
X186530000Y-46075001I0J249999D01*
G01*
X186530000Y-45424999D01*
G75*
G02*
X186779999Y-45175000I249999J0D01*
G01*
G37*
%TD.AperFunction*%
%TO.P,C9,1*%
%TO.N,Net-(C9-Pad1)*%
%TA.AperFunction,SMDPad,CuDef*%
G36*
G01*
X186779999Y-43125000D02*
X187680001Y-43125000D01*
G75*
G02*
X187930000Y-43374999I0J-249999D01*
G01*
X187930000Y-44025001D01*
G75*
G02*
X187680001Y-44275000I-249999J0D01*
G01*
X186779999Y-44275000D01*
G75*
G02*
X186530000Y-44025001I0J249999D01*
G01*
X186530000Y-43374999D01*
G75*
G02*
X186779999Y-43125000I249999J0D01*
G01*
G37*
%TD.AperFunction*%
%TD*%
%TO.P,R2,2*%
%TO.N,/CHIP_PU*%
%TA.AperFunction,SMDPad,CuDef*%
G36*
G01*
X151349999Y-93150000D02*
X152250001Y-93150000D01*
G75*
G02*
X152500000Y-93399999I0J-249999D01*
G01*
X152500000Y-94050001D01*
G75*
G02*
X152250001Y-94300000I-249999J0D01*
G01*
X151349999Y-94300000D01*
G75*
G02*
X151100000Y-94050001I0J249999D01*
G01*
X151100000Y-93399999D01*
G75*
G02*
X151349999Y-93150000I249999J0D01*
G01*
G37*
%TD.AperFunction*%
%TO.P,R2,1*%
%TO.N,+3V3*%
%TA.AperFunction,SMDPad,CuDef*%
G36*
G01*
X151349999Y-91100000D02*
X152250001Y-91100000D01*
G75*
G02*
X152500000Y-91349999I0J-249999D01*
G01*
X152500000Y-92000001D01*
G75*
G02*
X152250001Y-92250000I-249999J0D01*
G01*
X151349999Y-92250000D01*
G75*
G02*
X151100000Y-92000001I0J249999D01*
G01*
X151100000Y-91349999D01*
G75*
G02*
X151349999Y-91100000I249999J0D01*
G01*
G37*
%TD.AperFunction*%
%TD*%
%TO.P,U4,5*%
%TO.N,Net-(C9-Pad1)*%
X182580000Y-45820000D03*
%TO.P,U4,6*%
%TO.N,/U1RX*%
X183530000Y-45820000D03*
%TO.P,U4,4*%
%TO.N,/U1TX*%
X181630000Y-45820000D03*
%TO.P,U4,3*%
%TO.N,/U1TX_raw*%
X181630000Y-43620000D03*
%TO.P,U4,2*%
%TO.N,GND*%
X182580000Y-43620000D03*
%TO.P,U4,1*%
%TO.N,/U1RX_raw*%
X183530000Y-43620000D03*
%TD*%
%TO.P,U2,5*%
%TO.N,+3V3*%
X171150000Y-52500000D03*
%TO.P,U2,4*%
%TO.N,Net-(U2-Pad4)*%
X169250000Y-52500000D03*
%TO.P,U2,3*%
%TO.N,+5V*%
X169250000Y-50300000D03*
%TO.P,U2,2*%
%TO.N,GND*%
X170200000Y-50300000D03*
%TO.P,U2,1*%
%TO.N,+5V*%
X171150000Y-50300000D03*
%TD*%
D10*
%TO.P,SW1,1*%
%TO.N,/CHIP_PU*%
X153700000Y-51300000D03*
%TO.P,SW1,2*%
%TO.N,GND*%
X158200000Y-51300000D03*
%TO.P,SW1,1*%
%TO.N,/CHIP_PU*%
X153700000Y-57800000D03*
%TO.P,SW1,2*%
%TO.N,GND*%
X158200000Y-57800000D03*
%TD*%
%TO.P,R1,2*%
%TO.N,+3V3*%
%TA.AperFunction,SMDPad,CuDef*%
G36*
G01*
X165650001Y-71650000D02*
X164749999Y-71650000D01*
G75*
G02*
X164500000Y-71400001I0J249999D01*
G01*
X164500000Y-70749999D01*
G75*
G02*
X164749999Y-70500000I249999J0D01*
G01*
X165650001Y-70500000D01*
G75*
G02*
X165900000Y-70749999I0J-249999D01*
G01*
X165900000Y-71400001D01*
G75*
G02*
X165650001Y-71650000I-249999J0D01*
G01*
G37*
%TD.AperFunction*%
%TO.P,R1,1*%
%TO.N,Net-(R1-Pad1)*%
%TA.AperFunction,SMDPad,CuDef*%
G36*
G01*
X165650001Y-73700000D02*
X164749999Y-73700000D01*
G75*
G02*
X164500000Y-73450001I0J249999D01*
G01*
X164500000Y-72799999D01*
G75*
G02*
X164749999Y-72550000I249999J0D01*
G01*
X165650001Y-72550000D01*
G75*
G02*
X165900000Y-72799999I0J-249999D01*
G01*
X165900000Y-73450001D01*
G75*
G02*
X165650001Y-73700000I-249999J0D01*
G01*
G37*
%TD.AperFunction*%
%TD*%
D16*
%TO.P,Q4,3*%
%TO.N,Net-(J4-Pad7)*%
X176800000Y-66900000D03*
%TO.P,Q4,2*%
%TO.N,GND*%
X177750000Y-69900000D03*
%TO.P,Q4,1*%
%TO.N,Net-(Q4-Pad1)*%
X175850000Y-69900000D03*
%TD*%
%TO.P,Q3,3*%
%TO.N,Net-(J3-Pad7)*%
X176800000Y-61300000D03*
%TO.P,Q3,2*%
%TO.N,GND*%
X177750000Y-64300000D03*
%TO.P,Q3,1*%
%TO.N,Net-(Q3-Pad1)*%
X175850000Y-64300000D03*
%TD*%
%TO.P,Q2,3*%
%TO.N,Net-(J2-Pad7)*%
X176800000Y-55700000D03*
%TO.P,Q2,2*%
%TO.N,GND*%
X177750000Y-58700000D03*
%TO.P,Q2,1*%
%TO.N,Net-(Q2-Pad1)*%
X175850000Y-58700000D03*
%TD*%
%TO.P,Q1,3*%
%TO.N,Net-(J1-Pad7)*%
X176800000Y-50100000D03*
%TO.P,Q1,2*%
%TO.N,GND*%
X177750000Y-53100000D03*
%TO.P,Q1,1*%
%TO.N,Net-(Q1-Pad1)*%
X175850000Y-53100000D03*
%TD*%
D23*
%TO.P,J5,7*%
%TO.N,Net-(J5-Pad7)*%
X180600000Y-73500000D03*
%TO.P,J5,6*%
%TO.N,/COL5*%
X182100000Y-73500000D03*
%TO.P,J5,5*%
%TO.N,/COL4*%
X183600000Y-73500000D03*
%TO.P,J5,4*%
%TO.N,/COL3*%
X185100000Y-73500000D03*
%TO.P,J5,3*%
%TO.N,/COL2*%
X186600000Y-73500000D03*
%TO.P,J5,2*%
%TO.N,/COL1*%
X188100000Y-73500000D03*
%TO.P,J5,1*%
%TO.N,+3V3*%
%TA.AperFunction,ComponentPad*%
G36*
G01*
X190185000Y-72814999D02*
X190185000Y-74185001D01*
G75*
G02*
X189935001Y-74435000I-249999J0D01*
G01*
X189264999Y-74435000D01*
G75*
G02*
X189015000Y-74185001I0J249999D01*
G01*
X189015000Y-72814999D01*
G75*
G02*
X189264999Y-72565000I249999J0D01*
G01*
X189935001Y-72565000D01*
G75*
G02*
X190185000Y-72814999I0J-249999D01*
G01*
G37*
%TD.AperFunction*%
%TD*%
%TO.P,J4,7*%
%TO.N,Net-(J4-Pad7)*%
X180600000Y-68700000D03*
%TO.P,J4,6*%
%TO.N,/COL5*%
X182100000Y-68700000D03*
%TO.P,J4,5*%
%TO.N,/COL4*%
X183600000Y-68700000D03*
%TO.P,J4,4*%
%TO.N,/COL3*%
X185100000Y-68700000D03*
%TO.P,J4,3*%
%TO.N,/COL2*%
X186600000Y-68700000D03*
%TO.P,J4,2*%
%TO.N,/COL1*%
X188100000Y-68700000D03*
%TO.P,J4,1*%
%TO.N,+3V3*%
%TA.AperFunction,ComponentPad*%
G36*
G01*
X190185000Y-68014999D02*
X190185000Y-69385001D01*
G75*
G02*
X189935001Y-69635000I-249999J0D01*
G01*
X189264999Y-69635000D01*
G75*
G02*
X189015000Y-69385001I0J249999D01*
G01*
X189015000Y-68014999D01*
G75*
G02*
X189264999Y-67765000I249999J0D01*
G01*
X189935001Y-67765000D01*
G75*
G02*
X190185000Y-68014999I0J-249999D01*
G01*
G37*
%TD.AperFunction*%
%TD*%
%TO.P,J3,7*%
%TO.N,Net-(J3-Pad7)*%
X180600000Y-63900000D03*
%TO.P,J3,6*%
%TO.N,/COL5*%
X182100000Y-63900000D03*
%TO.P,J3,5*%
%TO.N,/COL4*%
X183600000Y-63900000D03*
%TO.P,J3,4*%
%TO.N,/COL3*%
X185100000Y-63900000D03*
%TO.P,J3,3*%
%TO.N,/COL2*%
X186600000Y-63900000D03*
%TO.P,J3,2*%
%TO.N,/COL1*%
X188100000Y-63900000D03*
%TO.P,J3,1*%
%TO.N,+3V3*%
%TA.AperFunction,ComponentPad*%
G36*
G01*
X190185000Y-63214999D02*
X190185000Y-64585001D01*
G75*
G02*
X189935001Y-64835000I-249999J0D01*
G01*
X189264999Y-64835000D01*
G75*
G02*
X189015000Y-64585001I0J249999D01*
G01*
X189015000Y-63214999D01*
G75*
G02*
X189264999Y-62965000I249999J0D01*
G01*
X189935001Y-62965000D01*
G75*
G02*
X190185000Y-63214999I0J-249999D01*
G01*
G37*
%TD.AperFunction*%
%TD*%
%TO.P,J2,7*%
%TO.N,Net-(J2-Pad7)*%
X180600000Y-59100000D03*
%TO.P,J2,6*%
%TO.N,/COL5*%
X182100000Y-59100000D03*
%TO.P,J2,5*%
%TO.N,/COL4*%
X183600000Y-59100000D03*
%TO.P,J2,4*%
%TO.N,/COL3*%
X185100000Y-59100000D03*
%TO.P,J2,3*%
%TO.N,/COL2*%
X186600000Y-59100000D03*
%TO.P,J2,2*%
%TO.N,/COL1*%
X188100000Y-59100000D03*
%TO.P,J2,1*%
%TO.N,+3V3*%
%TA.AperFunction,ComponentPad*%
G36*
G01*
X190185000Y-58414999D02*
X190185000Y-59785001D01*
G75*
G02*
X189935001Y-60035000I-249999J0D01*
G01*
X189264999Y-60035000D01*
G75*
G02*
X189015000Y-59785001I0J249999D01*
G01*
X189015000Y-58414999D01*
G75*
G02*
X189264999Y-58165000I249999J0D01*
G01*
X189935001Y-58165000D01*
G75*
G02*
X190185000Y-58414999I0J-249999D01*
G01*
G37*
%TD.AperFunction*%
%TD*%
%TO.P,J1,7*%
%TO.N,Net-(J1-Pad7)*%
X180600000Y-54300000D03*
%TO.P,J1,6*%
%TO.N,/COL5*%
X182100000Y-54300000D03*
%TO.P,J1,5*%
%TO.N,/COL4*%
X183600000Y-54300000D03*
%TO.P,J1,4*%
%TO.N,/COL3*%
X185100000Y-54300000D03*
%TO.P,J1,3*%
%TO.N,/COL2*%
X186600000Y-54300000D03*
%TO.P,J1,2*%
%TO.N,/COL1*%
X188100000Y-54300000D03*
%TO.P,J1,1*%
%TO.N,+3V3*%
%TA.AperFunction,ComponentPad*%
G36*
G01*
X190185000Y-53614999D02*
X190185000Y-54985001D01*
G75*
G02*
X189935001Y-55235000I-249999J0D01*
G01*
X189264999Y-55235000D01*
G75*
G02*
X189015000Y-54985001I0J249999D01*
G01*
X189015000Y-53614999D01*
G75*
G02*
X189264999Y-53365000I249999J0D01*
G01*
X189935001Y-53365000D01*
G75*
G02*
X190185000Y-53614999I0J-249999D01*
G01*
G37*
%TD.AperFunction*%
%TD*%
%TO.P,FB4,2*%
%TO.N,Net-(C9-Pad1)*%
%TA.AperFunction,SMDPad,CuDef*%
G36*
G01*
X178380001Y-44275000D02*
X177479999Y-44275000D01*
G75*
G02*
X177230000Y-44025001I0J249999D01*
G01*
X177230000Y-43374999D01*
G75*
G02*
X177479999Y-43125000I249999J0D01*
G01*
X178380001Y-43125000D01*
G75*
G02*
X178630000Y-43374999I0J-249999D01*
G01*
X178630000Y-44025001D01*
G75*
G02*
X178380001Y-44275000I-249999J0D01*
G01*
G37*
%TD.AperFunction*%
%TO.P,FB4,1*%
%TO.N,+5V*%
%TA.AperFunction,SMDPad,CuDef*%
G36*
G01*
X178380001Y-46325000D02*
X177479999Y-46325000D01*
G75*
G02*
X177230000Y-46075001I0J249999D01*
G01*
X177230000Y-45424999D01*
G75*
G02*
X177479999Y-45175000I249999J0D01*
G01*
X178380001Y-45175000D01*
G75*
G02*
X178630000Y-45424999I0J-249999D01*
G01*
X178630000Y-46075001D01*
G75*
G02*
X178380001Y-46325000I-249999J0D01*
G01*
G37*
%TD.AperFunction*%
%TD*%
%TO.P,FB3,2*%
%TO.N,GND*%
%TA.AperFunction,SMDPad,CuDef*%
G36*
G01*
X175579999Y-45175000D02*
X176480001Y-45175000D01*
G75*
G02*
X176730000Y-45424999I0J-249999D01*
G01*
X176730000Y-46075001D01*
G75*
G02*
X176480001Y-46325000I-249999J0D01*
G01*
X175579999Y-46325000D01*
G75*
G02*
X175330000Y-46075001I0J249999D01*
G01*
X175330000Y-45424999D01*
G75*
G02*
X175579999Y-45175000I249999J0D01*
G01*
G37*
%TD.AperFunction*%
%TO.P,FB3,1*%
%TO.N,Net-(FB3-Pad1)*%
%TA.AperFunction,SMDPad,CuDef*%
G36*
G01*
X175579999Y-43125000D02*
X176480001Y-43125000D01*
G75*
G02*
X176730000Y-43374999I0J-249999D01*
G01*
X176730000Y-44025001D01*
G75*
G02*
X176480001Y-44275000I-249999J0D01*
G01*
X175579999Y-44275000D01*
G75*
G02*
X175330000Y-44025001I0J249999D01*
G01*
X175330000Y-43374999D01*
G75*
G02*
X175579999Y-43125000I249999J0D01*
G01*
G37*
%TD.AperFunction*%
%TD*%
%TO.P,C7,2*%
%TO.N,GND*%
%TA.AperFunction,SMDPad,CuDef*%
G36*
G01*
X169699999Y-55805000D02*
X170600001Y-55805000D01*
G75*
G02*
X170850000Y-56054999I0J-249999D01*
G01*
X170850000Y-56705001D01*
G75*
G02*
X170600001Y-56955000I-249999J0D01*
G01*
X169699999Y-56955000D01*
G75*
G02*
X169450000Y-56705001I0J249999D01*
G01*
X169450000Y-56054999D01*
G75*
G02*
X169699999Y-55805000I249999J0D01*
G01*
G37*
%TD.AperFunction*%
%TO.P,C7,1*%
%TO.N,+3V3*%
%TA.AperFunction,SMDPad,CuDef*%
G36*
G01*
X169699999Y-53755000D02*
X170600001Y-53755000D01*
G75*
G02*
X170850000Y-54004999I0J-249999D01*
G01*
X170850000Y-54655001D01*
G75*
G02*
X170600001Y-54905000I-249999J0D01*
G01*
X169699999Y-54905000D01*
G75*
G02*
X169450000Y-54655001I0J249999D01*
G01*
X169450000Y-54004999D01*
G75*
G02*
X169699999Y-53755000I249999J0D01*
G01*
G37*
%TD.AperFunction*%
%TD*%
%TO.P,C6,2*%
%TO.N,GND*%
%TA.AperFunction,SMDPad,CuDef*%
G36*
G01*
X166649999Y-51825000D02*
X167550001Y-51825000D01*
G75*
G02*
X167800000Y-52074999I0J-249999D01*
G01*
X167800000Y-52725001D01*
G75*
G02*
X167550001Y-52975000I-249999J0D01*
G01*
X166649999Y-52975000D01*
G75*
G02*
X166400000Y-52725001I0J249999D01*
G01*
X166400000Y-52074999D01*
G75*
G02*
X166649999Y-51825000I249999J0D01*
G01*
G37*
%TD.AperFunction*%
%TO.P,C6,1*%
%TO.N,+5V*%
%TA.AperFunction,SMDPad,CuDef*%
G36*
G01*
X166649999Y-49775000D02*
X167550001Y-49775000D01*
G75*
G02*
X167800000Y-50024999I0J-249999D01*
G01*
X167800000Y-50675001D01*
G75*
G02*
X167550001Y-50925000I-249999J0D01*
G01*
X166649999Y-50925000D01*
G75*
G02*
X166400000Y-50675001I0J249999D01*
G01*
X166400000Y-50024999D01*
G75*
G02*
X166649999Y-49775000I249999J0D01*
G01*
G37*
%TD.AperFunction*%
%TD*%
%TO.P,C4,2*%
%TO.N,/CHIP_PU*%
%TA.AperFunction,SMDPad,CuDef*%
G36*
G01*
X155500000Y-48249999D02*
X155500000Y-49150001D01*
G75*
G02*
X155250001Y-49400000I-249999J0D01*
G01*
X154599999Y-49400000D01*
G75*
G02*
X154350000Y-49150001I0J249999D01*
G01*
X154350000Y-48249999D01*
G75*
G02*
X154599999Y-48000000I249999J0D01*
G01*
X155250001Y-48000000D01*
G75*
G02*
X155500000Y-48249999I0J-249999D01*
G01*
G37*
%TD.AperFunction*%
%TO.P,C4,1*%
%TO.N,GND*%
%TA.AperFunction,SMDPad,CuDef*%
G36*
G01*
X157550000Y-48249999D02*
X157550000Y-49150001D01*
G75*
G02*
X157300001Y-49400000I-249999J0D01*
G01*
X156649999Y-49400000D01*
G75*
G02*
X156400000Y-49150001I0J249999D01*
G01*
X156400000Y-48249999D01*
G75*
G02*
X156649999Y-48000000I249999J0D01*
G01*
X157300001Y-48000000D01*
G75*
G02*
X157550000Y-48249999I0J-249999D01*
G01*
G37*
%TD.AperFunction*%
%TD*%
%TO.P,C3,2*%
%TO.N,GND*%
%TA.AperFunction,SMDPad,CuDef*%
G36*
G01*
X151349999Y-97150000D02*
X152250001Y-97150000D01*
G75*
G02*
X152500000Y-97399999I0J-249999D01*
G01*
X152500000Y-98050001D01*
G75*
G02*
X152250001Y-98300000I-249999J0D01*
G01*
X151349999Y-98300000D01*
G75*
G02*
X151100000Y-98050001I0J249999D01*
G01*
X151100000Y-97399999D01*
G75*
G02*
X151349999Y-97150000I249999J0D01*
G01*
G37*
%TD.AperFunction*%
%TO.P,C3,1*%
%TO.N,/CHIP_PU*%
%TA.AperFunction,SMDPad,CuDef*%
G36*
G01*
X151349999Y-95100000D02*
X152250001Y-95100000D01*
G75*
G02*
X152500000Y-95349999I0J-249999D01*
G01*
X152500000Y-96000001D01*
G75*
G02*
X152250001Y-96250000I-249999J0D01*
G01*
X151349999Y-96250000D01*
G75*
G02*
X151100000Y-96000001I0J249999D01*
G01*
X151100000Y-95349999D01*
G75*
G02*
X151349999Y-95100000I249999J0D01*
G01*
G37*
%TD.AperFunction*%
%TD*%
%TO.P,C2,2*%
%TO.N,GND*%
%TA.AperFunction,SMDPad,CuDef*%
G36*
G01*
X176850000Y-98750001D02*
X176850000Y-97849999D01*
G75*
G02*
X177099999Y-97600000I249999J0D01*
G01*
X177750001Y-97600000D01*
G75*
G02*
X178000000Y-97849999I0J-249999D01*
G01*
X178000000Y-98750001D01*
G75*
G02*
X177750001Y-99000000I-249999J0D01*
G01*
X177099999Y-99000000D01*
G75*
G02*
X176850000Y-98750001I0J249999D01*
G01*
G37*
%TD.AperFunction*%
%TO.P,C2,1*%
%TO.N,+3V3*%
%TA.AperFunction,SMDPad,CuDef*%
G36*
G01*
X174800000Y-98750001D02*
X174800000Y-97849999D01*
G75*
G02*
X175049999Y-97600000I249999J0D01*
G01*
X175700001Y-97600000D01*
G75*
G02*
X175950000Y-97849999I0J-249999D01*
G01*
X175950000Y-98750001D01*
G75*
G02*
X175700001Y-99000000I-249999J0D01*
G01*
X175049999Y-99000000D01*
G75*
G02*
X174800000Y-98750001I0J249999D01*
G01*
G37*
%TD.AperFunction*%
%TD*%
%TO.P,C1,2*%
%TO.N,GND*%
%TA.AperFunction,SMDPad,CuDef*%
G36*
G01*
X176850000Y-96550001D02*
X176850000Y-95649999D01*
G75*
G02*
X177099999Y-95400000I249999J0D01*
G01*
X177750001Y-95400000D01*
G75*
G02*
X178000000Y-95649999I0J-249999D01*
G01*
X178000000Y-96550001D01*
G75*
G02*
X177750001Y-96800000I-249999J0D01*
G01*
X177099999Y-96800000D01*
G75*
G02*
X176850000Y-96550001I0J249999D01*
G01*
G37*
%TD.AperFunction*%
%TO.P,C1,1*%
%TO.N,+3V3*%
%TA.AperFunction,SMDPad,CuDef*%
G36*
G01*
X174800000Y-96550001D02*
X174800000Y-95649999D01*
G75*
G02*
X175049999Y-95400000I249999J0D01*
G01*
X175700001Y-95400000D01*
G75*
G02*
X175950000Y-95649999I0J-249999D01*
G01*
X175950000Y-96550001D01*
G75*
G02*
X175700001Y-96800000I-249999J0D01*
G01*
X175049999Y-96800000D01*
G75*
G02*
X174800000Y-96550001I0J249999D01*
G01*
G37*
%TD.AperFunction*%
%TD*%
D24*
%TO.N,GND*%
X187230000Y-46970000D03*
X185330000Y-46970000D03*
X179830000Y-46970000D03*
X159530000Y-46970000D03*
X161430000Y-46970000D03*
X166930000Y-46970000D03*
X170200000Y-49100000D03*
X177750000Y-51750000D03*
X177750000Y-57350000D03*
X177750000Y-62950000D03*
X177750000Y-68550000D03*
X151800000Y-98900000D03*
X182580000Y-42620000D03*
X164180000Y-42620000D03*
X168830000Y-46970000D03*
X187400000Y-41700000D03*
X169000000Y-41700000D03*
X159625000Y-41900000D03*
X177200000Y-41962500D03*
X178600000Y-96100000D03*
X178600000Y-98300000D03*
X177750000Y-74150000D03*
X171300000Y-98800000D03*
X170150000Y-57550000D03*
X179950000Y-76650000D03*
X186600000Y-80850000D03*
X175600000Y-85000000D03*
X156300000Y-98800000D03*
X174750000Y-45750000D03*
X167100000Y-53500000D03*
%TO.N,+3V3*%
X151800000Y-90400000D03*
X168000000Y-68275000D03*
X186600000Y-89400000D03*
X179100000Y-82000000D03*
X176825000Y-78075000D03*
X168900000Y-83600000D03*
X157100000Y-90400000D03*
%TO.N,/GPIO_0*%
X159000000Y-78000000D03*
%TO.N,Net-(C8-Pad1)*%
X167390000Y-42330000D03*
X164180000Y-44760000D03*
%TO.N,Net-(C9-Pad1)*%
X182580000Y-47010000D03*
X185790000Y-42330000D03*
%TO.N,/ROW5*%
X174000000Y-50000000D03*
X171200000Y-86800000D03*
%TO.N,/ROW4*%
X171200000Y-85300000D03*
X173399990Y-55500000D03*
%TO.N,/ROW3*%
X171200000Y-83800000D03*
X173399990Y-61000000D03*
%TO.N,/ROW2*%
X171200000Y-82300000D03*
X172499990Y-65800000D03*
%TO.N,/ROW1*%
X171600000Y-70800000D03*
X171200000Y-80800000D03*
%TO.N,/AMP_REF*%
X185950000Y-83650000D03*
X180600000Y-80125000D03*
X186600000Y-86517876D03*
%TD*%
D25*
%TO.N,GND*%
X182600000Y-43600000D02*
X182580000Y-43620000D01*
X187230000Y-45750000D02*
X187230000Y-46970000D01*
X185330000Y-45750000D02*
X185330000Y-46970000D01*
X179830000Y-45750000D02*
X179830000Y-46970000D01*
D26*
X185830000Y-40595000D02*
X185830000Y-40830000D01*
X185830000Y-40830000D02*
X186700000Y-41700000D01*
X186700000Y-41700000D02*
X186700000Y-41700000D01*
X168300000Y-41700000D02*
X168300000Y-41700000D01*
X167430000Y-40830000D02*
X168300000Y-41700000D01*
D25*
X159530000Y-45750000D02*
X159530000Y-46970000D01*
X164200000Y-43600000D02*
X164180000Y-43620000D01*
X166930000Y-45750000D02*
X166930000Y-46970000D01*
D26*
X167430000Y-40595000D02*
X167430000Y-40830000D01*
D25*
X161430000Y-45750000D02*
X161430000Y-46970000D01*
D26*
X170200000Y-50300000D02*
X170200000Y-49100000D01*
X158300000Y-51200000D02*
X158200000Y-51300000D01*
X158200000Y-51300000D02*
X158200000Y-57800000D01*
X177750000Y-69900000D02*
X177750000Y-68550000D01*
X177750000Y-64300000D02*
X177750000Y-62950000D01*
X177750000Y-58700000D02*
X177750000Y-57350000D01*
X177750000Y-53100000D02*
X177750000Y-51750000D01*
X177425000Y-98300000D02*
X178600000Y-98300000D01*
X151800000Y-97725000D02*
X151800000Y-98900000D01*
D25*
X182580000Y-43620000D02*
X182580000Y-42620000D01*
X164180000Y-43620000D02*
X164180000Y-42620000D01*
X168830000Y-45750000D02*
X168830000Y-46970000D01*
D26*
X186700000Y-41700000D02*
X187400000Y-41700000D01*
X187400000Y-41700000D02*
X187400000Y-41700000D01*
X168300000Y-41700000D02*
X169000000Y-41700000D01*
X169000000Y-41700000D02*
X169000000Y-41700000D01*
X160930000Y-40595000D02*
X159625000Y-41900000D01*
X159625000Y-41900000D02*
X159625000Y-41900000D01*
X179330000Y-40595000D02*
X177962500Y-41962500D01*
X177962500Y-41962500D02*
X177200000Y-41962500D01*
X177200000Y-41962500D02*
X177200000Y-41962500D01*
X177425000Y-96100000D02*
X178600000Y-96100000D01*
X177750000Y-75500000D02*
X177750000Y-74150000D01*
X172800000Y-98800000D02*
X171300000Y-98800000D01*
X170150000Y-56380000D02*
X170150000Y-57550000D01*
X179950000Y-78037500D02*
X179950000Y-76650000D01*
X186600000Y-82237500D02*
X186600000Y-80850000D01*
X175600000Y-83825000D02*
X175600000Y-85000000D01*
X154800000Y-98800000D02*
X156300000Y-98800000D01*
X158200000Y-62300000D02*
X158200000Y-68800000D01*
X156975000Y-70025000D02*
X158200000Y-68800000D01*
X156975000Y-71300000D02*
X156975000Y-70025000D01*
X156975000Y-50075000D02*
X158200000Y-51300000D01*
X156975000Y-48700000D02*
X156975000Y-50075000D01*
X176030000Y-45750000D02*
X174750000Y-45750000D01*
X167100000Y-52400000D02*
X167100000Y-53500000D01*
%TO.N,+3V3*%
X171150000Y-52500000D02*
X171150000Y-53330000D01*
X189600000Y-73500000D02*
X189600000Y-54300000D01*
D25*
X151800000Y-91675000D02*
X151800000Y-90400000D01*
D26*
X189500000Y-73500000D02*
X189600000Y-73500000D01*
X171150000Y-53330000D02*
X170150000Y-54330000D01*
X168000000Y-68275000D02*
X165200000Y-71075000D01*
X168000000Y-68275000D02*
X168000000Y-68275000D01*
X186600000Y-87962500D02*
X186600000Y-89400000D01*
X179950000Y-83762500D02*
X179950000Y-82850000D01*
X179950000Y-82850000D02*
X179100000Y-82000000D01*
X179100000Y-82000000D02*
X179100000Y-82000000D01*
X175600000Y-78075000D02*
X176825000Y-78075000D01*
X168000000Y-56480000D02*
X168000000Y-68275000D01*
X170150000Y-54330000D02*
X168000000Y-56480000D01*
X170900000Y-97300000D02*
X168900000Y-95300000D01*
X172800000Y-97300000D02*
X170900000Y-97300000D01*
X168900000Y-95300000D02*
X168900000Y-83600000D01*
X168900000Y-95300000D02*
X162000000Y-95300000D01*
X162000000Y-95300000D02*
X157100000Y-90400000D01*
X157100000Y-90400000D02*
X157100000Y-90400000D01*
X172800000Y-97300000D02*
X173400000Y-97300000D01*
X174400000Y-98300000D02*
X175375000Y-98300000D01*
X173400000Y-97300000D02*
X174400000Y-98300000D01*
X175375000Y-96100000D02*
X175375000Y-98300000D01*
%TO.N,/CHIP_PU*%
X151800000Y-93725000D02*
X151800000Y-95675000D01*
D25*
X153700000Y-57800000D02*
X154500000Y-58600000D01*
D26*
X153700000Y-51300000D02*
X153700000Y-57800000D01*
X154925000Y-50075000D02*
X153700000Y-51300000D01*
X154925000Y-48700000D02*
X154925000Y-50075000D01*
X153425000Y-97300000D02*
X154800000Y-97300000D01*
X151800000Y-95675000D02*
X153425000Y-97300000D01*
X152900010Y-92624990D02*
X151800000Y-93725000D01*
X152900010Y-90316008D02*
X152900010Y-92624990D01*
X151800000Y-89215998D02*
X152900010Y-90316008D01*
X153700000Y-57800000D02*
X151800000Y-59700000D01*
X151800000Y-59700000D02*
X151800000Y-89215998D01*
%TO.N,/GPIO_0*%
X153700000Y-62300000D02*
X153700000Y-68800000D01*
X154925000Y-70025000D02*
X154925000Y-70025000D01*
X154925000Y-71300000D02*
X154925000Y-70025000D01*
X154925000Y-70025000D02*
X153700000Y-68800000D01*
X163500000Y-82500000D02*
X159000000Y-78000000D01*
X169100000Y-82500000D02*
X163500000Y-82500000D01*
X169900000Y-83300000D02*
X169100000Y-82500000D01*
X172800000Y-95800000D02*
X171400000Y-95800000D01*
X169900000Y-94300000D02*
X169900000Y-83300000D01*
X171400000Y-95800000D02*
X169900000Y-94300000D01*
%TO.N,+5V*%
X167150000Y-50300000D02*
X167100000Y-50350000D01*
X169250000Y-50300000D02*
X167150000Y-50300000D01*
X170799999Y-45819999D02*
X170730000Y-45750000D01*
X171150000Y-48865998D02*
X171150000Y-50300000D01*
X170584001Y-48299999D02*
X171150000Y-48865998D01*
X169250000Y-48865998D02*
X169815999Y-48299999D01*
X169250000Y-50300000D02*
X169250000Y-48865998D01*
X170200001Y-48299999D02*
X170584001Y-48299999D01*
X169815999Y-48299999D02*
X170200001Y-48299999D01*
X170200001Y-48299999D02*
X170200001Y-47899999D01*
X170200001Y-47899999D02*
X170730000Y-47370000D01*
X170799989Y-47199989D02*
X170730000Y-47130000D01*
X170730000Y-47370000D02*
X170730000Y-47130000D01*
X177930000Y-45750000D02*
X176480011Y-47199989D01*
X170730000Y-47130000D02*
X170730000Y-45750000D01*
X176480011Y-47199989D02*
X170799989Y-47199989D01*
%TO.N,Net-(FB1-Pad1)*%
X168500000Y-35500000D02*
X159860000Y-35500000D01*
X159860000Y-35500000D02*
X159860000Y-39680000D01*
X168500000Y-35500000D02*
X168500000Y-39680000D01*
X158599999Y-42769999D02*
X159530000Y-43700000D01*
X158599999Y-40940001D02*
X158599999Y-42769999D01*
X159860000Y-39680000D02*
X158599999Y-40940001D01*
%TO.N,Net-(FB3-Pad1)*%
X186900000Y-35500000D02*
X186900000Y-39680000D01*
X186900000Y-35500000D02*
X178260000Y-35500000D01*
X178260000Y-35500000D02*
X178260000Y-39680000D01*
X178260000Y-39680000D02*
X177190000Y-39680000D01*
X177190000Y-39680000D02*
X176030000Y-40840000D01*
X176030000Y-40840000D02*
X176030000Y-43700000D01*
%TO.N,Net-(J1-Pad7)*%
X177600000Y-50100000D02*
X180600000Y-53100000D01*
X180600000Y-53100000D02*
X180600000Y-54300000D01*
X176800000Y-50100000D02*
X177600000Y-50100000D01*
%TO.N,/COL5*%
X182100000Y-54300000D02*
X182100000Y-73500000D01*
X179507124Y-86300000D02*
X179175000Y-86300000D01*
X181250000Y-83762500D02*
X181250000Y-84557124D01*
X181250000Y-84557124D02*
X180807124Y-85000000D01*
X179175000Y-86300000D02*
X179175000Y-85325000D01*
X179500000Y-85000000D02*
X180807124Y-85000000D01*
X179175000Y-85325000D02*
X179500000Y-85000000D01*
X181250000Y-82150000D02*
X181250000Y-83762500D01*
X182600000Y-76448542D02*
X182600000Y-80800000D01*
X182100000Y-73500000D02*
X182100000Y-75948542D01*
X182600000Y-80800000D02*
X181250000Y-82150000D01*
X182100000Y-75948542D02*
X182600000Y-76448542D01*
%TO.N,/COL4*%
X183600000Y-73500000D02*
X183600000Y-54300000D01*
X185300000Y-79825000D02*
X185725000Y-79400000D01*
X185300000Y-82237500D02*
X185300000Y-79825000D01*
X183600000Y-77275000D02*
X185725000Y-79400000D01*
X183600000Y-73500000D02*
X183600000Y-77275000D01*
%TO.N,/COL3*%
X187900000Y-79925000D02*
X187375000Y-79400000D01*
X187900000Y-82237500D02*
X187900000Y-79925000D01*
X185100000Y-54300000D02*
X185100000Y-73500000D01*
X187375000Y-79355744D02*
X187375000Y-79400000D01*
X185100000Y-77080744D02*
X187375000Y-79355744D01*
X185100000Y-73500000D02*
X185100000Y-77080744D01*
%TO.N,/COL2*%
X186600000Y-73500000D02*
X186600000Y-54300000D01*
X185300000Y-90375000D02*
X185725000Y-90800000D01*
X185300000Y-87962500D02*
X185300000Y-90375000D01*
X190400010Y-82499990D02*
X187500000Y-85400000D01*
X186348542Y-85400000D02*
X185300000Y-86448542D01*
X190400010Y-78635010D02*
X190400010Y-82499990D01*
X186600000Y-73500000D02*
X186600000Y-74835000D01*
X185300000Y-86448542D02*
X185300000Y-87962500D01*
X187500000Y-85400000D02*
X186348542Y-85400000D01*
X186600000Y-74835000D02*
X190400010Y-78635010D01*
%TO.N,/COL1*%
X188100000Y-68943014D02*
X188100000Y-73500000D01*
X188100000Y-54300000D02*
X188100000Y-68943014D01*
X187900000Y-90275000D02*
X187375000Y-90800000D01*
X187900000Y-87962500D02*
X187900000Y-90275000D01*
X187900000Y-87167876D02*
X187900000Y-87962500D01*
X191000020Y-84067856D02*
X187900000Y-87167876D01*
X191000020Y-78386478D02*
X191000020Y-84067856D01*
X188100000Y-75486458D02*
X191000020Y-78386478D01*
X188100000Y-73500000D02*
X188100000Y-75486458D01*
%TO.N,Net-(J2-Pad7)*%
X180400000Y-59300000D02*
X180600000Y-59100000D01*
X180600000Y-58700000D02*
X180600000Y-59100000D01*
X180600000Y-57900000D02*
X180600000Y-59100000D01*
X176800000Y-55700000D02*
X178400000Y-55700000D01*
X178400000Y-55700000D02*
X180600000Y-57900000D01*
%TO.N,Net-(J3-Pad7)*%
X180600000Y-62700000D02*
X180600000Y-63900000D01*
X176800000Y-61300000D02*
X179200000Y-61300000D01*
X179200000Y-61300000D02*
X180600000Y-62700000D01*
%TO.N,Net-(J4-Pad7)*%
X176800000Y-66900000D02*
X180000000Y-66900000D01*
X180600000Y-67500000D02*
X180600000Y-68700000D01*
X180000000Y-66900000D02*
X180600000Y-67500000D01*
%TO.N,Net-(J5-Pad7)*%
X179600000Y-72500000D02*
X180600000Y-73500000D01*
X176800000Y-72500000D02*
X179600000Y-72500000D01*
%TO.N,Net-(Q1-Pad1)*%
X175825000Y-53125000D02*
X175850000Y-53100000D01*
X174000000Y-53125000D02*
X175825000Y-53125000D01*
%TO.N,Net-(Q2-Pad1)*%
X175775000Y-58625000D02*
X175850000Y-58700000D01*
X174000000Y-58625000D02*
X175775000Y-58625000D01*
%TO.N,Net-(Q3-Pad1)*%
X175675000Y-64125000D02*
X175850000Y-64300000D01*
X173900000Y-64125000D02*
X175675000Y-64125000D01*
%TO.N,Net-(Q4-Pad1)*%
X174875000Y-68925000D02*
X175850000Y-69900000D01*
X173900000Y-68925000D02*
X174875000Y-68925000D01*
%TO.N,Net-(Q5-Pad1)*%
X173900000Y-73550000D02*
X175850000Y-75500000D01*
X173900000Y-72825000D02*
X173900000Y-73550000D01*
%TO.N,Net-(R1-Pad1)*%
X165200000Y-73125000D02*
X165200000Y-73400000D01*
X164550000Y-74050000D02*
X164550000Y-75300000D01*
X165200000Y-73400000D02*
X164550000Y-74050000D01*
D25*
%TO.N,Net-(J6-PadB5)*%
X161430000Y-42770000D02*
X161430000Y-43700000D01*
X162430000Y-40595000D02*
X162430000Y-41770000D01*
X162430000Y-41770000D02*
X161430000Y-42770000D01*
%TO.N,Net-(J6-PadA5)*%
X165430000Y-40595000D02*
X165430000Y-41475001D01*
X166930000Y-42975001D02*
X166930000Y-43700000D01*
X165430000Y-41475001D02*
X166930000Y-42975001D01*
%TO.N,Net-(J7-PadB5)*%
X180830000Y-40595000D02*
X180830000Y-41770000D01*
X179830000Y-42770000D02*
X179830000Y-43700000D01*
X180830000Y-41770000D02*
X179830000Y-42770000D01*
%TO.N,Net-(J7-PadA5)*%
X185330000Y-42975001D02*
X185330000Y-43700000D01*
X183830000Y-41475001D02*
X185330000Y-42975001D01*
X183830000Y-40595000D02*
X183830000Y-41475001D01*
D27*
%TO.N,/D+*%
X163230000Y-46615001D02*
X163955000Y-47340001D01*
X163230000Y-45820000D02*
X163230000Y-46615001D01*
X163955000Y-47340001D02*
X163955000Y-68520000D01*
X163955000Y-68520000D02*
X162981802Y-69493198D01*
X162981802Y-69493198D02*
X161400000Y-71075000D01*
%TO.N,/D-*%
X163300000Y-69811397D02*
X163300000Y-71075000D01*
X164405000Y-68706397D02*
X163300000Y-69811397D01*
X165130000Y-46615001D02*
X164405000Y-47340001D01*
X164405000Y-47340001D02*
X164405000Y-68706397D01*
X165130000Y-45820000D02*
X165130000Y-46615001D01*
D26*
%TO.N,/U1TX*%
X181630000Y-46354002D02*
X181630000Y-45820000D01*
X180184002Y-47800000D02*
X181630000Y-46354002D01*
X173300000Y-47800000D02*
X180184002Y-47800000D01*
X172100000Y-53714271D02*
X172100000Y-49000000D01*
X171699989Y-54114282D02*
X172100000Y-53714271D01*
X172100000Y-49000000D02*
X173300000Y-47800000D01*
X170100000Y-71800000D02*
X170100000Y-62100000D01*
X170100000Y-62100000D02*
X171699989Y-60500011D01*
X171699989Y-60500011D02*
X171699989Y-54114282D01*
X172800000Y-74500000D02*
X170100000Y-71800000D01*
X172800000Y-76300000D02*
X172800000Y-74500000D01*
%TO.N,/U1RX*%
X173350000Y-77800000D02*
X172800000Y-77800000D01*
X174200000Y-76950000D02*
X173350000Y-77800000D01*
X170799999Y-71599999D02*
X174200001Y-75000001D01*
X170799999Y-62400001D02*
X170799999Y-71599999D01*
X172299999Y-60900001D02*
X170799999Y-62400001D01*
X172299999Y-54500001D02*
X172299999Y-60900001D01*
X183530000Y-47244002D02*
X182374002Y-48400000D01*
X182374002Y-48400000D02*
X173600000Y-48400000D01*
X173600000Y-48400000D02*
X172700010Y-49299990D01*
X172700010Y-49299990D02*
X172700010Y-54099990D01*
X174200001Y-75000001D02*
X174200000Y-76950000D01*
X183530000Y-45820000D02*
X183530000Y-47244002D01*
X172700010Y-54099990D02*
X172299999Y-54500001D01*
D25*
%TO.N,/RD-*%
X165130000Y-42230000D02*
X165130000Y-43620000D01*
X164930000Y-42030000D02*
X165130000Y-42230000D01*
X164930000Y-40595000D02*
X164930000Y-42030000D01*
X164930000Y-39634998D02*
X164930000Y-40595000D01*
X164019999Y-39544999D02*
X164840001Y-39544999D01*
X164840001Y-39544999D02*
X164930000Y-39634998D01*
X163930000Y-39634998D02*
X164019999Y-39544999D01*
X163930000Y-40595000D02*
X163930000Y-39634998D01*
%TO.N,/RD+*%
X163430000Y-42370000D02*
X163230000Y-42570000D01*
X164430000Y-41555002D02*
X164295002Y-41690000D01*
X164295002Y-41690000D02*
X163430000Y-41690000D01*
X163430000Y-41690000D02*
X163430000Y-42370000D01*
X163430000Y-40595000D02*
X163430000Y-41690000D01*
X163230000Y-42570000D02*
X163230000Y-43620000D01*
X164430000Y-40595000D02*
X164430000Y-41555002D01*
%TO.N,/U1RX_raw*%
X183330000Y-40595000D02*
X183330000Y-42030000D01*
X183530000Y-42230000D02*
X183530000Y-43620000D01*
X183330000Y-42030000D02*
X183530000Y-42230000D01*
X183240001Y-39544999D02*
X183330000Y-39634998D01*
X183330000Y-39634998D02*
X183330000Y-40595000D01*
X182419999Y-39544999D02*
X183240001Y-39544999D01*
X182330000Y-39634998D02*
X182419999Y-39544999D01*
X182330000Y-40595000D02*
X182330000Y-39634998D01*
%TO.N,/U1TX_raw*%
X182695002Y-41690000D02*
X181830000Y-41690000D01*
X182830000Y-41555002D02*
X182695002Y-41690000D01*
X181830000Y-40595000D02*
X181830000Y-41690000D01*
X182830000Y-40595000D02*
X182830000Y-41555002D01*
X181630000Y-42570000D02*
X181630000Y-43620000D01*
X181830000Y-41690000D02*
X181830000Y-42370000D01*
X181830000Y-42370000D02*
X181630000Y-42570000D01*
D26*
%TO.N,Net-(C8-Pad1)*%
X167385000Y-42325000D02*
X167390000Y-42330000D01*
X166630000Y-40595000D02*
X166630000Y-41570000D01*
X166630000Y-41570000D02*
X167385000Y-42325000D01*
X167460000Y-42330000D02*
X168830000Y-43700000D01*
X167390000Y-42330000D02*
X167460000Y-42330000D01*
X168830000Y-43700000D02*
X170730000Y-43700000D01*
X164180000Y-45820000D02*
X164180000Y-44760000D01*
X166630000Y-39834998D02*
X166630000Y-40595000D01*
X165795002Y-39000000D02*
X166630000Y-39834998D01*
X161730000Y-40595000D02*
X161730000Y-39834998D01*
X162564998Y-39000000D02*
X165795002Y-39000000D01*
X161730000Y-39834998D02*
X162564998Y-39000000D01*
%TO.N,Net-(C9-Pad1)*%
X185030000Y-41570000D02*
X185785000Y-42325000D01*
X187160000Y-43700000D02*
X187230000Y-43700000D01*
X185030000Y-40595000D02*
X185030000Y-41570000D01*
X185785000Y-42325000D02*
X185790000Y-42330000D01*
X182580000Y-45820000D02*
X182580000Y-47010000D01*
X185790000Y-42330000D02*
X187160000Y-43700000D01*
X177930000Y-42970000D02*
X177930000Y-43700000D01*
X179000000Y-41900000D02*
X177930000Y-42970000D01*
X180130000Y-40595000D02*
X180130000Y-41570000D01*
X179800000Y-41900000D02*
X179000000Y-41900000D01*
X180130000Y-41570000D02*
X179800000Y-41900000D01*
X185030000Y-39834998D02*
X185030000Y-40595000D01*
X184165002Y-38970000D02*
X185030000Y-39834998D01*
X180994998Y-38970000D02*
X184165002Y-38970000D01*
X180130000Y-40595000D02*
X180130000Y-39834998D01*
X180130000Y-39834998D02*
X180994998Y-38970000D01*
%TO.N,/ROW5*%
X174000000Y-51075000D02*
X174000000Y-50000000D01*
X172800000Y-86800000D02*
X171200000Y-86800000D01*
%TO.N,/ROW4*%
X172800000Y-85300000D02*
X171200000Y-85300000D01*
X174000000Y-56100010D02*
X173399990Y-55500000D01*
X174000000Y-56575000D02*
X174000000Y-56100010D01*
%TO.N,/ROW3*%
X172800000Y-83800000D02*
X171200000Y-83800000D01*
X173900000Y-61500010D02*
X173399990Y-61000000D01*
X173900000Y-62075000D02*
X173900000Y-61500010D01*
%TO.N,/ROW2*%
X172800000Y-82300000D02*
X171200000Y-82300000D01*
X172825000Y-65800000D02*
X172499990Y-65800000D01*
X173900000Y-66875000D02*
X172825000Y-65800000D01*
%TO.N,/ROW1*%
X172800000Y-80800000D02*
X171200000Y-80800000D01*
X173875000Y-70800000D02*
X173900000Y-70775000D01*
X171600000Y-70800000D02*
X173875000Y-70800000D01*
%TO.N,/AMP_REF*%
X178007124Y-80125000D02*
X178107104Y-80125000D01*
X185950000Y-82237500D02*
X185950000Y-83650000D01*
X187250000Y-83132104D02*
X187250000Y-82237500D01*
X186732104Y-83650000D02*
X187250000Y-83132104D01*
X185950000Y-83650000D02*
X186732104Y-83650000D01*
X175600000Y-80125000D02*
X178107104Y-80125000D01*
X175600000Y-80125000D02*
X175600000Y-81775000D01*
X187250000Y-87167876D02*
X187250000Y-87962500D01*
X186600000Y-86517876D02*
X186600000Y-86517876D01*
X185950000Y-87962500D02*
X185950000Y-87167876D01*
X185950000Y-87167876D02*
X186600000Y-86517876D01*
X186600000Y-86517876D02*
X187250000Y-87167876D01*
X180600000Y-81400000D02*
X180600000Y-81400000D01*
X180600000Y-80125000D02*
X180600000Y-80125000D01*
X178107104Y-80125000D02*
X180600000Y-80125000D01*
X180600000Y-80125000D02*
X180600000Y-83762500D01*
%TO.N,/COL1_AMP*%
X189425000Y-88837500D02*
X188550000Y-87962500D01*
X189425000Y-90800000D02*
X189425000Y-88837500D01*
X185200000Y-92600000D02*
X183500000Y-94300000D01*
X183500000Y-94300000D02*
X172800000Y-94300000D01*
X188300000Y-92600000D02*
X185200000Y-92600000D01*
X189425000Y-90800000D02*
X189425000Y-91475000D01*
X189425000Y-91475000D02*
X188300000Y-92600000D01*
%TO.N,/COL2_AMP*%
X184650000Y-89825000D02*
X184650000Y-87962500D01*
X183675000Y-90800000D02*
X184650000Y-89825000D01*
X181675000Y-92800000D02*
X172800000Y-92800000D01*
X183675000Y-90800000D02*
X181675000Y-92800000D01*
%TO.N,/COL3_AMP*%
X189425000Y-81362500D02*
X188550000Y-82237500D01*
X189425000Y-79400000D02*
X189425000Y-81362500D01*
X180200000Y-91300000D02*
X172800000Y-91300000D01*
X188550000Y-83032124D02*
X186982124Y-84600000D01*
X186000000Y-84600000D02*
X183600000Y-87000000D01*
X188550000Y-82237500D02*
X188550000Y-83032124D01*
X186982124Y-84600000D02*
X186000000Y-84600000D01*
X183600000Y-87000000D02*
X183600000Y-87900000D01*
X183600000Y-87900000D02*
X180200000Y-91300000D01*
%TO.N,/COL4_AMP*%
X183675000Y-81262500D02*
X184650000Y-82237500D01*
X183675000Y-79400000D02*
X183675000Y-81262500D01*
X179700000Y-89800000D02*
X172800000Y-89800000D01*
X184650000Y-82237500D02*
X184650000Y-84850000D01*
X184650000Y-84850000D02*
X179700000Y-89800000D01*
%TO.N,/COL5_AMP*%
X181900000Y-85625000D02*
X181900000Y-83762500D01*
X181225000Y-86300000D02*
X181900000Y-85625000D01*
X179225000Y-88300000D02*
X172800000Y-88300000D01*
X181225000Y-86300000D02*
X179225000Y-88300000D01*
%TO.N,Net-(R19-Pad1)*%
X163300000Y-75050000D02*
X163050000Y-75300000D01*
X163300000Y-73125000D02*
X163300000Y-75050000D01*
%TO.N,Net-(R20-Pad1)*%
X161400000Y-75150000D02*
X161550000Y-75300000D01*
X161400000Y-73125000D02*
X161400000Y-75150000D01*
%TD*%
M02*
