%TF.GenerationSoftware,KiCad,Pcbnew,5.1.6-c6e7f7d~86~ubuntu18.04.1*%
%TF.CreationDate,2021-04-26T01:47:06-07:00*%
%TF.ProjectId,main_board,6d61696e-5f62-46f6-9172-642e6b696361,rev?*%
%TF.SameCoordinates,Original*%
%TF.FileFunction,Paste,Top*%
%TF.FilePolarity,Positive*%
%FSLAX46Y46*%
G04 Gerber Fmt 4.6, Leading zero omitted, Abs format (unit mm)*
G04 Created by KiCad (PCBNEW 5.1.6-c6e7f7d~86~ubuntu18.04.1) date 2021-04-26 01:47:06*
%MOMM*%
%LPD*%
G01*
G04 APERTURE LIST*
%ADD10R,2.000000X0.900000*%
%ADD11R,0.900000X2.000000*%
%ADD12R,4.100000X4.100000*%
%ADD13R,0.800000X1.900000*%
%ADD14R,0.600000X1.450000*%
%ADD15R,0.300000X1.450000*%
%ADD16R,0.650000X1.060000*%
G04 APERTURE END LIST*
%TO.C,U6*%
G36*
G01*
X178100000Y-78775000D02*
X177900000Y-78775000D01*
G75*
G02*
X177800000Y-78675000I0J100000D01*
G01*
X177800000Y-77400000D01*
G75*
G02*
X177900000Y-77300000I100000J0D01*
G01*
X178100000Y-77300000D01*
G75*
G02*
X178200000Y-77400000I0J-100000D01*
G01*
X178200000Y-78675000D01*
G75*
G02*
X178100000Y-78775000I-100000J0D01*
G01*
G37*
G36*
G01*
X178750000Y-78775000D02*
X178550000Y-78775000D01*
G75*
G02*
X178450000Y-78675000I0J100000D01*
G01*
X178450000Y-77400000D01*
G75*
G02*
X178550000Y-77300000I100000J0D01*
G01*
X178750000Y-77300000D01*
G75*
G02*
X178850000Y-77400000I0J-100000D01*
G01*
X178850000Y-78675000D01*
G75*
G02*
X178750000Y-78775000I-100000J0D01*
G01*
G37*
G36*
G01*
X179400000Y-78775000D02*
X179200000Y-78775000D01*
G75*
G02*
X179100000Y-78675000I0J100000D01*
G01*
X179100000Y-77400000D01*
G75*
G02*
X179200000Y-77300000I100000J0D01*
G01*
X179400000Y-77300000D01*
G75*
G02*
X179500000Y-77400000I0J-100000D01*
G01*
X179500000Y-78675000D01*
G75*
G02*
X179400000Y-78775000I-100000J0D01*
G01*
G37*
G36*
G01*
X180050000Y-78775000D02*
X179850000Y-78775000D01*
G75*
G02*
X179750000Y-78675000I0J100000D01*
G01*
X179750000Y-77400000D01*
G75*
G02*
X179850000Y-77300000I100000J0D01*
G01*
X180050000Y-77300000D01*
G75*
G02*
X180150000Y-77400000I0J-100000D01*
G01*
X180150000Y-78675000D01*
G75*
G02*
X180050000Y-78775000I-100000J0D01*
G01*
G37*
G36*
G01*
X180700000Y-78775000D02*
X180500000Y-78775000D01*
G75*
G02*
X180400000Y-78675000I0J100000D01*
G01*
X180400000Y-77400000D01*
G75*
G02*
X180500000Y-77300000I100000J0D01*
G01*
X180700000Y-77300000D01*
G75*
G02*
X180800000Y-77400000I0J-100000D01*
G01*
X180800000Y-78675000D01*
G75*
G02*
X180700000Y-78775000I-100000J0D01*
G01*
G37*
G36*
G01*
X181350000Y-78775000D02*
X181150000Y-78775000D01*
G75*
G02*
X181050000Y-78675000I0J100000D01*
G01*
X181050000Y-77400000D01*
G75*
G02*
X181150000Y-77300000I100000J0D01*
G01*
X181350000Y-77300000D01*
G75*
G02*
X181450000Y-77400000I0J-100000D01*
G01*
X181450000Y-78675000D01*
G75*
G02*
X181350000Y-78775000I-100000J0D01*
G01*
G37*
G36*
G01*
X182000000Y-78775000D02*
X181800000Y-78775000D01*
G75*
G02*
X181700000Y-78675000I0J100000D01*
G01*
X181700000Y-77400000D01*
G75*
G02*
X181800000Y-77300000I100000J0D01*
G01*
X182000000Y-77300000D01*
G75*
G02*
X182100000Y-77400000I0J-100000D01*
G01*
X182100000Y-78675000D01*
G75*
G02*
X182000000Y-78775000I-100000J0D01*
G01*
G37*
G36*
G01*
X182000000Y-84500000D02*
X181800000Y-84500000D01*
G75*
G02*
X181700000Y-84400000I0J100000D01*
G01*
X181700000Y-83125000D01*
G75*
G02*
X181800000Y-83025000I100000J0D01*
G01*
X182000000Y-83025000D01*
G75*
G02*
X182100000Y-83125000I0J-100000D01*
G01*
X182100000Y-84400000D01*
G75*
G02*
X182000000Y-84500000I-100000J0D01*
G01*
G37*
G36*
G01*
X181350000Y-84500000D02*
X181150000Y-84500000D01*
G75*
G02*
X181050000Y-84400000I0J100000D01*
G01*
X181050000Y-83125000D01*
G75*
G02*
X181150000Y-83025000I100000J0D01*
G01*
X181350000Y-83025000D01*
G75*
G02*
X181450000Y-83125000I0J-100000D01*
G01*
X181450000Y-84400000D01*
G75*
G02*
X181350000Y-84500000I-100000J0D01*
G01*
G37*
G36*
G01*
X180700000Y-84500000D02*
X180500000Y-84500000D01*
G75*
G02*
X180400000Y-84400000I0J100000D01*
G01*
X180400000Y-83125000D01*
G75*
G02*
X180500000Y-83025000I100000J0D01*
G01*
X180700000Y-83025000D01*
G75*
G02*
X180800000Y-83125000I0J-100000D01*
G01*
X180800000Y-84400000D01*
G75*
G02*
X180700000Y-84500000I-100000J0D01*
G01*
G37*
G36*
G01*
X180050000Y-84500000D02*
X179850000Y-84500000D01*
G75*
G02*
X179750000Y-84400000I0J100000D01*
G01*
X179750000Y-83125000D01*
G75*
G02*
X179850000Y-83025000I100000J0D01*
G01*
X180050000Y-83025000D01*
G75*
G02*
X180150000Y-83125000I0J-100000D01*
G01*
X180150000Y-84400000D01*
G75*
G02*
X180050000Y-84500000I-100000J0D01*
G01*
G37*
G36*
G01*
X179400000Y-84500000D02*
X179200000Y-84500000D01*
G75*
G02*
X179100000Y-84400000I0J100000D01*
G01*
X179100000Y-83125000D01*
G75*
G02*
X179200000Y-83025000I100000J0D01*
G01*
X179400000Y-83025000D01*
G75*
G02*
X179500000Y-83125000I0J-100000D01*
G01*
X179500000Y-84400000D01*
G75*
G02*
X179400000Y-84500000I-100000J0D01*
G01*
G37*
G36*
G01*
X178750000Y-84500000D02*
X178550000Y-84500000D01*
G75*
G02*
X178450000Y-84400000I0J100000D01*
G01*
X178450000Y-83125000D01*
G75*
G02*
X178550000Y-83025000I100000J0D01*
G01*
X178750000Y-83025000D01*
G75*
G02*
X178850000Y-83125000I0J-100000D01*
G01*
X178850000Y-84400000D01*
G75*
G02*
X178750000Y-84500000I-100000J0D01*
G01*
G37*
G36*
G01*
X178100000Y-84500000D02*
X177900000Y-84500000D01*
G75*
G02*
X177800000Y-84400000I0J100000D01*
G01*
X177800000Y-83125000D01*
G75*
G02*
X177900000Y-83025000I100000J0D01*
G01*
X178100000Y-83025000D01*
G75*
G02*
X178200000Y-83125000I0J-100000D01*
G01*
X178200000Y-84400000D01*
G75*
G02*
X178100000Y-84500000I-100000J0D01*
G01*
G37*
%TD*%
%TO.C,U5*%
G36*
G01*
X184750000Y-82975000D02*
X184550000Y-82975000D01*
G75*
G02*
X184450000Y-82875000I0J100000D01*
G01*
X184450000Y-81600000D01*
G75*
G02*
X184550000Y-81500000I100000J0D01*
G01*
X184750000Y-81500000D01*
G75*
G02*
X184850000Y-81600000I0J-100000D01*
G01*
X184850000Y-82875000D01*
G75*
G02*
X184750000Y-82975000I-100000J0D01*
G01*
G37*
G36*
G01*
X185400000Y-82975000D02*
X185200000Y-82975000D01*
G75*
G02*
X185100000Y-82875000I0J100000D01*
G01*
X185100000Y-81600000D01*
G75*
G02*
X185200000Y-81500000I100000J0D01*
G01*
X185400000Y-81500000D01*
G75*
G02*
X185500000Y-81600000I0J-100000D01*
G01*
X185500000Y-82875000D01*
G75*
G02*
X185400000Y-82975000I-100000J0D01*
G01*
G37*
G36*
G01*
X186050000Y-82975000D02*
X185850000Y-82975000D01*
G75*
G02*
X185750000Y-82875000I0J100000D01*
G01*
X185750000Y-81600000D01*
G75*
G02*
X185850000Y-81500000I100000J0D01*
G01*
X186050000Y-81500000D01*
G75*
G02*
X186150000Y-81600000I0J-100000D01*
G01*
X186150000Y-82875000D01*
G75*
G02*
X186050000Y-82975000I-100000J0D01*
G01*
G37*
G36*
G01*
X186700000Y-82975000D02*
X186500000Y-82975000D01*
G75*
G02*
X186400000Y-82875000I0J100000D01*
G01*
X186400000Y-81600000D01*
G75*
G02*
X186500000Y-81500000I100000J0D01*
G01*
X186700000Y-81500000D01*
G75*
G02*
X186800000Y-81600000I0J-100000D01*
G01*
X186800000Y-82875000D01*
G75*
G02*
X186700000Y-82975000I-100000J0D01*
G01*
G37*
G36*
G01*
X187350000Y-82975000D02*
X187150000Y-82975000D01*
G75*
G02*
X187050000Y-82875000I0J100000D01*
G01*
X187050000Y-81600000D01*
G75*
G02*
X187150000Y-81500000I100000J0D01*
G01*
X187350000Y-81500000D01*
G75*
G02*
X187450000Y-81600000I0J-100000D01*
G01*
X187450000Y-82875000D01*
G75*
G02*
X187350000Y-82975000I-100000J0D01*
G01*
G37*
G36*
G01*
X188000000Y-82975000D02*
X187800000Y-82975000D01*
G75*
G02*
X187700000Y-82875000I0J100000D01*
G01*
X187700000Y-81600000D01*
G75*
G02*
X187800000Y-81500000I100000J0D01*
G01*
X188000000Y-81500000D01*
G75*
G02*
X188100000Y-81600000I0J-100000D01*
G01*
X188100000Y-82875000D01*
G75*
G02*
X188000000Y-82975000I-100000J0D01*
G01*
G37*
G36*
G01*
X188650000Y-82975000D02*
X188450000Y-82975000D01*
G75*
G02*
X188350000Y-82875000I0J100000D01*
G01*
X188350000Y-81600000D01*
G75*
G02*
X188450000Y-81500000I100000J0D01*
G01*
X188650000Y-81500000D01*
G75*
G02*
X188750000Y-81600000I0J-100000D01*
G01*
X188750000Y-82875000D01*
G75*
G02*
X188650000Y-82975000I-100000J0D01*
G01*
G37*
G36*
G01*
X188650000Y-88700000D02*
X188450000Y-88700000D01*
G75*
G02*
X188350000Y-88600000I0J100000D01*
G01*
X188350000Y-87325000D01*
G75*
G02*
X188450000Y-87225000I100000J0D01*
G01*
X188650000Y-87225000D01*
G75*
G02*
X188750000Y-87325000I0J-100000D01*
G01*
X188750000Y-88600000D01*
G75*
G02*
X188650000Y-88700000I-100000J0D01*
G01*
G37*
G36*
G01*
X188000000Y-88700000D02*
X187800000Y-88700000D01*
G75*
G02*
X187700000Y-88600000I0J100000D01*
G01*
X187700000Y-87325000D01*
G75*
G02*
X187800000Y-87225000I100000J0D01*
G01*
X188000000Y-87225000D01*
G75*
G02*
X188100000Y-87325000I0J-100000D01*
G01*
X188100000Y-88600000D01*
G75*
G02*
X188000000Y-88700000I-100000J0D01*
G01*
G37*
G36*
G01*
X187350000Y-88700000D02*
X187150000Y-88700000D01*
G75*
G02*
X187050000Y-88600000I0J100000D01*
G01*
X187050000Y-87325000D01*
G75*
G02*
X187150000Y-87225000I100000J0D01*
G01*
X187350000Y-87225000D01*
G75*
G02*
X187450000Y-87325000I0J-100000D01*
G01*
X187450000Y-88600000D01*
G75*
G02*
X187350000Y-88700000I-100000J0D01*
G01*
G37*
G36*
G01*
X186700000Y-88700000D02*
X186500000Y-88700000D01*
G75*
G02*
X186400000Y-88600000I0J100000D01*
G01*
X186400000Y-87325000D01*
G75*
G02*
X186500000Y-87225000I100000J0D01*
G01*
X186700000Y-87225000D01*
G75*
G02*
X186800000Y-87325000I0J-100000D01*
G01*
X186800000Y-88600000D01*
G75*
G02*
X186700000Y-88700000I-100000J0D01*
G01*
G37*
G36*
G01*
X186050000Y-88700000D02*
X185850000Y-88700000D01*
G75*
G02*
X185750000Y-88600000I0J100000D01*
G01*
X185750000Y-87325000D01*
G75*
G02*
X185850000Y-87225000I100000J0D01*
G01*
X186050000Y-87225000D01*
G75*
G02*
X186150000Y-87325000I0J-100000D01*
G01*
X186150000Y-88600000D01*
G75*
G02*
X186050000Y-88700000I-100000J0D01*
G01*
G37*
G36*
G01*
X185400000Y-88700000D02*
X185200000Y-88700000D01*
G75*
G02*
X185100000Y-88600000I0J100000D01*
G01*
X185100000Y-87325000D01*
G75*
G02*
X185200000Y-87225000I100000J0D01*
G01*
X185400000Y-87225000D01*
G75*
G02*
X185500000Y-87325000I0J-100000D01*
G01*
X185500000Y-88600000D01*
G75*
G02*
X185400000Y-88700000I-100000J0D01*
G01*
G37*
G36*
G01*
X184750000Y-88700000D02*
X184550000Y-88700000D01*
G75*
G02*
X184450000Y-88600000I0J100000D01*
G01*
X184450000Y-87325000D01*
G75*
G02*
X184550000Y-87225000I100000J0D01*
G01*
X184750000Y-87225000D01*
G75*
G02*
X184850000Y-87325000I0J-100000D01*
G01*
X184850000Y-88600000D01*
G75*
G02*
X184750000Y-88700000I-100000J0D01*
G01*
G37*
%TD*%
%TO.C,C5*%
G36*
G01*
X154350000Y-71750001D02*
X154350000Y-70849999D01*
G75*
G02*
X154599999Y-70600000I249999J0D01*
G01*
X155250001Y-70600000D01*
G75*
G02*
X155500000Y-70849999I0J-249999D01*
G01*
X155500000Y-71750001D01*
G75*
G02*
X155250001Y-72000000I-249999J0D01*
G01*
X154599999Y-72000000D01*
G75*
G02*
X154350000Y-71750001I0J249999D01*
G01*
G37*
G36*
G01*
X156400000Y-71750001D02*
X156400000Y-70849999D01*
G75*
G02*
X156649999Y-70600000I249999J0D01*
G01*
X157300001Y-70600000D01*
G75*
G02*
X157550000Y-70849999I0J-249999D01*
G01*
X157550000Y-71750001D01*
G75*
G02*
X157300001Y-72000000I-249999J0D01*
G01*
X156649999Y-72000000D01*
G75*
G02*
X156400000Y-71750001I0J249999D01*
G01*
G37*
%TD*%
D10*
%TO.C,U1*%
X154800000Y-98800000D03*
X154800000Y-97300000D03*
X154800000Y-95800000D03*
X154800000Y-94300000D03*
X154800000Y-92800000D03*
X154800000Y-91300000D03*
X154800000Y-89800000D03*
X154800000Y-88300000D03*
X154800000Y-86800000D03*
X154800000Y-85300000D03*
X154800000Y-83800000D03*
X154800000Y-82300000D03*
X154800000Y-80800000D03*
X154800000Y-79300000D03*
X154800000Y-77800000D03*
D11*
X157050000Y-75300000D03*
X158550000Y-75300000D03*
X160050000Y-75300000D03*
X161550000Y-75300000D03*
X163050000Y-75300000D03*
X164550000Y-75300000D03*
X166050000Y-75300000D03*
X167550000Y-75300000D03*
X169050000Y-75300000D03*
D10*
X172800000Y-76300000D03*
X172800000Y-77800000D03*
X172800000Y-79300000D03*
X172800000Y-80800000D03*
X172800000Y-82300000D03*
X172800000Y-83800000D03*
X172800000Y-85300000D03*
X172800000Y-86800000D03*
X172800000Y-88300000D03*
X172800000Y-89800000D03*
X172800000Y-91300000D03*
X172800000Y-92800000D03*
X172800000Y-94300000D03*
X172800000Y-95800000D03*
X172800000Y-97300000D03*
X172800000Y-98800000D03*
D12*
X164990000Y-90750000D03*
D10*
X154800000Y-76300000D03*
D11*
X170550000Y-75300000D03*
%TD*%
D13*
%TO.C,Q5*%
X176800000Y-72500000D03*
X177750000Y-75500000D03*
X175850000Y-75500000D03*
%TD*%
%TO.C,R9*%
G36*
G01*
X179750000Y-85849999D02*
X179750000Y-86750001D01*
G75*
G02*
X179500001Y-87000000I-249999J0D01*
G01*
X178849999Y-87000000D01*
G75*
G02*
X178600000Y-86750001I0J249999D01*
G01*
X178600000Y-85849999D01*
G75*
G02*
X178849999Y-85600000I249999J0D01*
G01*
X179500001Y-85600000D01*
G75*
G02*
X179750000Y-85849999I0J-249999D01*
G01*
G37*
G36*
G01*
X181800000Y-85849999D02*
X181800000Y-86750001D01*
G75*
G02*
X181550001Y-87000000I-249999J0D01*
G01*
X180899999Y-87000000D01*
G75*
G02*
X180650000Y-86750001I0J249999D01*
G01*
X180650000Y-85849999D01*
G75*
G02*
X180899999Y-85600000I249999J0D01*
G01*
X181550001Y-85600000D01*
G75*
G02*
X181800000Y-85849999I0J-249999D01*
G01*
G37*
%TD*%
%TO.C,R7*%
G36*
G01*
X187950000Y-78949999D02*
X187950000Y-79850001D01*
G75*
G02*
X187700001Y-80100000I-249999J0D01*
G01*
X187049999Y-80100000D01*
G75*
G02*
X186800000Y-79850001I0J249999D01*
G01*
X186800000Y-78949999D01*
G75*
G02*
X187049999Y-78700000I249999J0D01*
G01*
X187700001Y-78700000D01*
G75*
G02*
X187950000Y-78949999I0J-249999D01*
G01*
G37*
G36*
G01*
X190000000Y-78949999D02*
X190000000Y-79850001D01*
G75*
G02*
X189750001Y-80100000I-249999J0D01*
G01*
X189099999Y-80100000D01*
G75*
G02*
X188850000Y-79850001I0J249999D01*
G01*
X188850000Y-78949999D01*
G75*
G02*
X189099999Y-78700000I249999J0D01*
G01*
X189750001Y-78700000D01*
G75*
G02*
X190000000Y-78949999I0J-249999D01*
G01*
G37*
%TD*%
%TO.C,R8*%
G36*
G01*
X185150000Y-79850001D02*
X185150000Y-78949999D01*
G75*
G02*
X185399999Y-78700000I249999J0D01*
G01*
X186050001Y-78700000D01*
G75*
G02*
X186300000Y-78949999I0J-249999D01*
G01*
X186300000Y-79850001D01*
G75*
G02*
X186050001Y-80100000I-249999J0D01*
G01*
X185399999Y-80100000D01*
G75*
G02*
X185150000Y-79850001I0J249999D01*
G01*
G37*
G36*
G01*
X183100000Y-79850001D02*
X183100000Y-78949999D01*
G75*
G02*
X183349999Y-78700000I249999J0D01*
G01*
X184000001Y-78700000D01*
G75*
G02*
X184250000Y-78949999I0J-249999D01*
G01*
X184250000Y-79850001D01*
G75*
G02*
X184000001Y-80100000I-249999J0D01*
G01*
X183349999Y-80100000D01*
G75*
G02*
X183100000Y-79850001I0J249999D01*
G01*
G37*
%TD*%
%TO.C,R6*%
G36*
G01*
X185150000Y-91250001D02*
X185150000Y-90349999D01*
G75*
G02*
X185399999Y-90100000I249999J0D01*
G01*
X186050001Y-90100000D01*
G75*
G02*
X186300000Y-90349999I0J-249999D01*
G01*
X186300000Y-91250001D01*
G75*
G02*
X186050001Y-91500000I-249999J0D01*
G01*
X185399999Y-91500000D01*
G75*
G02*
X185150000Y-91250001I0J249999D01*
G01*
G37*
G36*
G01*
X183100000Y-91250001D02*
X183100000Y-90349999D01*
G75*
G02*
X183349999Y-90100000I249999J0D01*
G01*
X184000001Y-90100000D01*
G75*
G02*
X184250000Y-90349999I0J-249999D01*
G01*
X184250000Y-91250001D01*
G75*
G02*
X184000001Y-91500000I-249999J0D01*
G01*
X183349999Y-91500000D01*
G75*
G02*
X183100000Y-91250001I0J249999D01*
G01*
G37*
%TD*%
%TO.C,R5*%
G36*
G01*
X187950000Y-90349999D02*
X187950000Y-91250001D01*
G75*
G02*
X187700001Y-91500000I-249999J0D01*
G01*
X187049999Y-91500000D01*
G75*
G02*
X186800000Y-91250001I0J249999D01*
G01*
X186800000Y-90349999D01*
G75*
G02*
X187049999Y-90100000I249999J0D01*
G01*
X187700001Y-90100000D01*
G75*
G02*
X187950000Y-90349999I0J-249999D01*
G01*
G37*
G36*
G01*
X190000000Y-90349999D02*
X190000000Y-91250001D01*
G75*
G02*
X189750001Y-91500000I-249999J0D01*
G01*
X189099999Y-91500000D01*
G75*
G02*
X188850000Y-91250001I0J249999D01*
G01*
X188850000Y-90349999D01*
G75*
G02*
X189099999Y-90100000I249999J0D01*
G01*
X189750001Y-90100000D01*
G75*
G02*
X190000000Y-90349999I0J-249999D01*
G01*
G37*
%TD*%
%TO.C,R4*%
G36*
G01*
X175149999Y-83250000D02*
X176050001Y-83250000D01*
G75*
G02*
X176300000Y-83499999I0J-249999D01*
G01*
X176300000Y-84150001D01*
G75*
G02*
X176050001Y-84400000I-249999J0D01*
G01*
X175149999Y-84400000D01*
G75*
G02*
X174900000Y-84150001I0J249999D01*
G01*
X174900000Y-83499999D01*
G75*
G02*
X175149999Y-83250000I249999J0D01*
G01*
G37*
G36*
G01*
X175149999Y-81200000D02*
X176050001Y-81200000D01*
G75*
G02*
X176300000Y-81449999I0J-249999D01*
G01*
X176300000Y-82100001D01*
G75*
G02*
X176050001Y-82350000I-249999J0D01*
G01*
X175149999Y-82350000D01*
G75*
G02*
X174900000Y-82100001I0J249999D01*
G01*
X174900000Y-81449999D01*
G75*
G02*
X175149999Y-81200000I249999J0D01*
G01*
G37*
%TD*%
%TO.C,R3*%
G36*
G01*
X175149999Y-79550000D02*
X176050001Y-79550000D01*
G75*
G02*
X176300000Y-79799999I0J-249999D01*
G01*
X176300000Y-80450001D01*
G75*
G02*
X176050001Y-80700000I-249999J0D01*
G01*
X175149999Y-80700000D01*
G75*
G02*
X174900000Y-80450001I0J249999D01*
G01*
X174900000Y-79799999D01*
G75*
G02*
X175149999Y-79550000I249999J0D01*
G01*
G37*
G36*
G01*
X175149999Y-77500000D02*
X176050001Y-77500000D01*
G75*
G02*
X176300000Y-77749999I0J-249999D01*
G01*
X176300000Y-78400001D01*
G75*
G02*
X176050001Y-78650000I-249999J0D01*
G01*
X175149999Y-78650000D01*
G75*
G02*
X174900000Y-78400001I0J249999D01*
G01*
X174900000Y-77749999D01*
G75*
G02*
X175149999Y-77500000I249999J0D01*
G01*
G37*
%TD*%
%TO.C,R14*%
G36*
G01*
X174350001Y-71350000D02*
X173449999Y-71350000D01*
G75*
G02*
X173200000Y-71100001I0J249999D01*
G01*
X173200000Y-70449999D01*
G75*
G02*
X173449999Y-70200000I249999J0D01*
G01*
X174350001Y-70200000D01*
G75*
G02*
X174600000Y-70449999I0J-249999D01*
G01*
X174600000Y-71100001D01*
G75*
G02*
X174350001Y-71350000I-249999J0D01*
G01*
G37*
G36*
G01*
X174350001Y-73400000D02*
X173449999Y-73400000D01*
G75*
G02*
X173200000Y-73150001I0J249999D01*
G01*
X173200000Y-72499999D01*
G75*
G02*
X173449999Y-72250000I249999J0D01*
G01*
X174350001Y-72250000D01*
G75*
G02*
X174600000Y-72499999I0J-249999D01*
G01*
X174600000Y-73150001D01*
G75*
G02*
X174350001Y-73400000I-249999J0D01*
G01*
G37*
%TD*%
%TO.C,R13*%
G36*
G01*
X174350001Y-67450000D02*
X173449999Y-67450000D01*
G75*
G02*
X173200000Y-67200001I0J249999D01*
G01*
X173200000Y-66549999D01*
G75*
G02*
X173449999Y-66300000I249999J0D01*
G01*
X174350001Y-66300000D01*
G75*
G02*
X174600000Y-66549999I0J-249999D01*
G01*
X174600000Y-67200001D01*
G75*
G02*
X174350001Y-67450000I-249999J0D01*
G01*
G37*
G36*
G01*
X174350001Y-69500000D02*
X173449999Y-69500000D01*
G75*
G02*
X173200000Y-69250001I0J249999D01*
G01*
X173200000Y-68599999D01*
G75*
G02*
X173449999Y-68350000I249999J0D01*
G01*
X174350001Y-68350000D01*
G75*
G02*
X174600000Y-68599999I0J-249999D01*
G01*
X174600000Y-69250001D01*
G75*
G02*
X174350001Y-69500000I-249999J0D01*
G01*
G37*
%TD*%
%TO.C,R12*%
G36*
G01*
X174350001Y-62650000D02*
X173449999Y-62650000D01*
G75*
G02*
X173200000Y-62400001I0J249999D01*
G01*
X173200000Y-61749999D01*
G75*
G02*
X173449999Y-61500000I249999J0D01*
G01*
X174350001Y-61500000D01*
G75*
G02*
X174600000Y-61749999I0J-249999D01*
G01*
X174600000Y-62400001D01*
G75*
G02*
X174350001Y-62650000I-249999J0D01*
G01*
G37*
G36*
G01*
X174350001Y-64700000D02*
X173449999Y-64700000D01*
G75*
G02*
X173200000Y-64450001I0J249999D01*
G01*
X173200000Y-63799999D01*
G75*
G02*
X173449999Y-63550000I249999J0D01*
G01*
X174350001Y-63550000D01*
G75*
G02*
X174600000Y-63799999I0J-249999D01*
G01*
X174600000Y-64450001D01*
G75*
G02*
X174350001Y-64700000I-249999J0D01*
G01*
G37*
%TD*%
%TO.C,R11*%
G36*
G01*
X174450001Y-57150000D02*
X173549999Y-57150000D01*
G75*
G02*
X173300000Y-56900001I0J249999D01*
G01*
X173300000Y-56249999D01*
G75*
G02*
X173549999Y-56000000I249999J0D01*
G01*
X174450001Y-56000000D01*
G75*
G02*
X174700000Y-56249999I0J-249999D01*
G01*
X174700000Y-56900001D01*
G75*
G02*
X174450001Y-57150000I-249999J0D01*
G01*
G37*
G36*
G01*
X174450001Y-59200000D02*
X173549999Y-59200000D01*
G75*
G02*
X173300000Y-58950001I0J249999D01*
G01*
X173300000Y-58299999D01*
G75*
G02*
X173549999Y-58050000I249999J0D01*
G01*
X174450001Y-58050000D01*
G75*
G02*
X174700000Y-58299999I0J-249999D01*
G01*
X174700000Y-58950001D01*
G75*
G02*
X174450001Y-59200000I-249999J0D01*
G01*
G37*
%TD*%
%TO.C,R10*%
G36*
G01*
X174450001Y-51650000D02*
X173549999Y-51650000D01*
G75*
G02*
X173300000Y-51400001I0J249999D01*
G01*
X173300000Y-50749999D01*
G75*
G02*
X173549999Y-50500000I249999J0D01*
G01*
X174450001Y-50500000D01*
G75*
G02*
X174700000Y-50749999I0J-249999D01*
G01*
X174700000Y-51400001D01*
G75*
G02*
X174450001Y-51650000I-249999J0D01*
G01*
G37*
G36*
G01*
X174450001Y-53700000D02*
X173549999Y-53700000D01*
G75*
G02*
X173300000Y-53450001I0J249999D01*
G01*
X173300000Y-52799999D01*
G75*
G02*
X173549999Y-52550000I249999J0D01*
G01*
X174450001Y-52550000D01*
G75*
G02*
X174700000Y-52799999I0J-249999D01*
G01*
X174700000Y-53450001D01*
G75*
G02*
X174450001Y-53700000I-249999J0D01*
G01*
G37*
%TD*%
%TO.C,R20*%
G36*
G01*
X161850001Y-71650000D02*
X160949999Y-71650000D01*
G75*
G02*
X160700000Y-71400001I0J249999D01*
G01*
X160700000Y-70749999D01*
G75*
G02*
X160949999Y-70500000I249999J0D01*
G01*
X161850001Y-70500000D01*
G75*
G02*
X162100000Y-70749999I0J-249999D01*
G01*
X162100000Y-71400001D01*
G75*
G02*
X161850001Y-71650000I-249999J0D01*
G01*
G37*
G36*
G01*
X161850001Y-73700000D02*
X160949999Y-73700000D01*
G75*
G02*
X160700000Y-73450001I0J249999D01*
G01*
X160700000Y-72799999D01*
G75*
G02*
X160949999Y-72550000I249999J0D01*
G01*
X161850001Y-72550000D01*
G75*
G02*
X162100000Y-72799999I0J-249999D01*
G01*
X162100000Y-73450001D01*
G75*
G02*
X161850001Y-73700000I-249999J0D01*
G01*
G37*
%TD*%
%TO.C,R19*%
G36*
G01*
X163750001Y-71650000D02*
X162849999Y-71650000D01*
G75*
G02*
X162600000Y-71400001I0J249999D01*
G01*
X162600000Y-70749999D01*
G75*
G02*
X162849999Y-70500000I249999J0D01*
G01*
X163750001Y-70500000D01*
G75*
G02*
X164000000Y-70749999I0J-249999D01*
G01*
X164000000Y-71400001D01*
G75*
G02*
X163750001Y-71650000I-249999J0D01*
G01*
G37*
G36*
G01*
X163750001Y-73700000D02*
X162849999Y-73700000D01*
G75*
G02*
X162600000Y-73450001I0J249999D01*
G01*
X162600000Y-72799999D01*
G75*
G02*
X162849999Y-72550000I249999J0D01*
G01*
X163750001Y-72550000D01*
G75*
G02*
X164000000Y-72799999I0J-249999D01*
G01*
X164000000Y-73450001D01*
G75*
G02*
X163750001Y-73700000I-249999J0D01*
G01*
G37*
%TD*%
D14*
%TO.C,J7*%
X179330000Y-40595000D03*
X180130000Y-40595000D03*
X185030000Y-40595000D03*
X185830000Y-40595000D03*
X185830000Y-40595000D03*
X185030000Y-40595000D03*
X180130000Y-40595000D03*
X179330000Y-40595000D03*
D15*
X184330000Y-40595000D03*
X183830000Y-40595000D03*
X183330000Y-40595000D03*
X182330000Y-40595000D03*
X181830000Y-40595000D03*
X181330000Y-40595000D03*
X180830000Y-40595000D03*
X182830000Y-40595000D03*
%TD*%
D14*
%TO.C,J6*%
X160930000Y-40595000D03*
X161730000Y-40595000D03*
X166630000Y-40595000D03*
X167430000Y-40595000D03*
X167430000Y-40595000D03*
X166630000Y-40595000D03*
X161730000Y-40595000D03*
X160930000Y-40595000D03*
D15*
X165930000Y-40595000D03*
X165430000Y-40595000D03*
X164930000Y-40595000D03*
X163930000Y-40595000D03*
X163430000Y-40595000D03*
X162930000Y-40595000D03*
X162430000Y-40595000D03*
X164430000Y-40595000D03*
%TD*%
%TO.C,C8*%
G36*
G01*
X168379999Y-45175000D02*
X169280001Y-45175000D01*
G75*
G02*
X169530000Y-45424999I0J-249999D01*
G01*
X169530000Y-46075001D01*
G75*
G02*
X169280001Y-46325000I-249999J0D01*
G01*
X168379999Y-46325000D01*
G75*
G02*
X168130000Y-46075001I0J249999D01*
G01*
X168130000Y-45424999D01*
G75*
G02*
X168379999Y-45175000I249999J0D01*
G01*
G37*
G36*
G01*
X168379999Y-43125000D02*
X169280001Y-43125000D01*
G75*
G02*
X169530000Y-43374999I0J-249999D01*
G01*
X169530000Y-44025001D01*
G75*
G02*
X169280001Y-44275000I-249999J0D01*
G01*
X168379999Y-44275000D01*
G75*
G02*
X168130000Y-44025001I0J249999D01*
G01*
X168130000Y-43374999D01*
G75*
G02*
X168379999Y-43125000I249999J0D01*
G01*
G37*
%TD*%
%TO.C,FB1*%
G36*
G01*
X159079999Y-45175000D02*
X159980001Y-45175000D01*
G75*
G02*
X160230000Y-45424999I0J-249999D01*
G01*
X160230000Y-46075001D01*
G75*
G02*
X159980001Y-46325000I-249999J0D01*
G01*
X159079999Y-46325000D01*
G75*
G02*
X158830000Y-46075001I0J249999D01*
G01*
X158830000Y-45424999D01*
G75*
G02*
X159079999Y-45175000I249999J0D01*
G01*
G37*
G36*
G01*
X159079999Y-43125000D02*
X159980001Y-43125000D01*
G75*
G02*
X160230000Y-43374999I0J-249999D01*
G01*
X160230000Y-44025001D01*
G75*
G02*
X159980001Y-44275000I-249999J0D01*
G01*
X159079999Y-44275000D01*
G75*
G02*
X158830000Y-44025001I0J249999D01*
G01*
X158830000Y-43374999D01*
G75*
G02*
X159079999Y-43125000I249999J0D01*
G01*
G37*
%TD*%
%TO.C,FB2*%
G36*
G01*
X171180001Y-44275000D02*
X170279999Y-44275000D01*
G75*
G02*
X170030000Y-44025001I0J249999D01*
G01*
X170030000Y-43374999D01*
G75*
G02*
X170279999Y-43125000I249999J0D01*
G01*
X171180001Y-43125000D01*
G75*
G02*
X171430000Y-43374999I0J-249999D01*
G01*
X171430000Y-44025001D01*
G75*
G02*
X171180001Y-44275000I-249999J0D01*
G01*
G37*
G36*
G01*
X171180001Y-46325000D02*
X170279999Y-46325000D01*
G75*
G02*
X170030000Y-46075001I0J249999D01*
G01*
X170030000Y-45424999D01*
G75*
G02*
X170279999Y-45175000I249999J0D01*
G01*
X171180001Y-45175000D01*
G75*
G02*
X171430000Y-45424999I0J-249999D01*
G01*
X171430000Y-46075001D01*
G75*
G02*
X171180001Y-46325000I-249999J0D01*
G01*
G37*
%TD*%
D16*
%TO.C,U3*%
X164180000Y-45820000D03*
X165130000Y-45820000D03*
X163230000Y-45820000D03*
X163230000Y-43620000D03*
X164180000Y-43620000D03*
X165130000Y-43620000D03*
%TD*%
%TO.C,R15*%
G36*
G01*
X160979999Y-45175000D02*
X161880001Y-45175000D01*
G75*
G02*
X162130000Y-45424999I0J-249999D01*
G01*
X162130000Y-46075001D01*
G75*
G02*
X161880001Y-46325000I-249999J0D01*
G01*
X160979999Y-46325000D01*
G75*
G02*
X160730000Y-46075001I0J249999D01*
G01*
X160730000Y-45424999D01*
G75*
G02*
X160979999Y-45175000I249999J0D01*
G01*
G37*
G36*
G01*
X160979999Y-43125000D02*
X161880001Y-43125000D01*
G75*
G02*
X162130000Y-43374999I0J-249999D01*
G01*
X162130000Y-44025001D01*
G75*
G02*
X161880001Y-44275000I-249999J0D01*
G01*
X160979999Y-44275000D01*
G75*
G02*
X160730000Y-44025001I0J249999D01*
G01*
X160730000Y-43374999D01*
G75*
G02*
X160979999Y-43125000I249999J0D01*
G01*
G37*
%TD*%
%TO.C,R16*%
G36*
G01*
X166479999Y-45175000D02*
X167380001Y-45175000D01*
G75*
G02*
X167630000Y-45424999I0J-249999D01*
G01*
X167630000Y-46075001D01*
G75*
G02*
X167380001Y-46325000I-249999J0D01*
G01*
X166479999Y-46325000D01*
G75*
G02*
X166230000Y-46075001I0J249999D01*
G01*
X166230000Y-45424999D01*
G75*
G02*
X166479999Y-45175000I249999J0D01*
G01*
G37*
G36*
G01*
X166479999Y-43125000D02*
X167380001Y-43125000D01*
G75*
G02*
X167630000Y-43374999I0J-249999D01*
G01*
X167630000Y-44025001D01*
G75*
G02*
X167380001Y-44275000I-249999J0D01*
G01*
X166479999Y-44275000D01*
G75*
G02*
X166230000Y-44025001I0J249999D01*
G01*
X166230000Y-43374999D01*
G75*
G02*
X166479999Y-43125000I249999J0D01*
G01*
G37*
%TD*%
%TO.C,R18*%
G36*
G01*
X184879999Y-45175000D02*
X185780001Y-45175000D01*
G75*
G02*
X186030000Y-45424999I0J-249999D01*
G01*
X186030000Y-46075001D01*
G75*
G02*
X185780001Y-46325000I-249999J0D01*
G01*
X184879999Y-46325000D01*
G75*
G02*
X184630000Y-46075001I0J249999D01*
G01*
X184630000Y-45424999D01*
G75*
G02*
X184879999Y-45175000I249999J0D01*
G01*
G37*
G36*
G01*
X184879999Y-43125000D02*
X185780001Y-43125000D01*
G75*
G02*
X186030000Y-43374999I0J-249999D01*
G01*
X186030000Y-44025001D01*
G75*
G02*
X185780001Y-44275000I-249999J0D01*
G01*
X184879999Y-44275000D01*
G75*
G02*
X184630000Y-44025001I0J249999D01*
G01*
X184630000Y-43374999D01*
G75*
G02*
X184879999Y-43125000I249999J0D01*
G01*
G37*
%TD*%
%TO.C,R17*%
G36*
G01*
X179379999Y-45175000D02*
X180280001Y-45175000D01*
G75*
G02*
X180530000Y-45424999I0J-249999D01*
G01*
X180530000Y-46075001D01*
G75*
G02*
X180280001Y-46325000I-249999J0D01*
G01*
X179379999Y-46325000D01*
G75*
G02*
X179130000Y-46075001I0J249999D01*
G01*
X179130000Y-45424999D01*
G75*
G02*
X179379999Y-45175000I249999J0D01*
G01*
G37*
G36*
G01*
X179379999Y-43125000D02*
X180280001Y-43125000D01*
G75*
G02*
X180530000Y-43374999I0J-249999D01*
G01*
X180530000Y-44025001D01*
G75*
G02*
X180280001Y-44275000I-249999J0D01*
G01*
X179379999Y-44275000D01*
G75*
G02*
X179130000Y-44025001I0J249999D01*
G01*
X179130000Y-43374999D01*
G75*
G02*
X179379999Y-43125000I249999J0D01*
G01*
G37*
%TD*%
%TO.C,C9*%
G36*
G01*
X186779999Y-45175000D02*
X187680001Y-45175000D01*
G75*
G02*
X187930000Y-45424999I0J-249999D01*
G01*
X187930000Y-46075001D01*
G75*
G02*
X187680001Y-46325000I-249999J0D01*
G01*
X186779999Y-46325000D01*
G75*
G02*
X186530000Y-46075001I0J249999D01*
G01*
X186530000Y-45424999D01*
G75*
G02*
X186779999Y-45175000I249999J0D01*
G01*
G37*
G36*
G01*
X186779999Y-43125000D02*
X187680001Y-43125000D01*
G75*
G02*
X187930000Y-43374999I0J-249999D01*
G01*
X187930000Y-44025001D01*
G75*
G02*
X187680001Y-44275000I-249999J0D01*
G01*
X186779999Y-44275000D01*
G75*
G02*
X186530000Y-44025001I0J249999D01*
G01*
X186530000Y-43374999D01*
G75*
G02*
X186779999Y-43125000I249999J0D01*
G01*
G37*
%TD*%
%TO.C,R2*%
G36*
G01*
X151349999Y-93150000D02*
X152250001Y-93150000D01*
G75*
G02*
X152500000Y-93399999I0J-249999D01*
G01*
X152500000Y-94050001D01*
G75*
G02*
X152250001Y-94300000I-249999J0D01*
G01*
X151349999Y-94300000D01*
G75*
G02*
X151100000Y-94050001I0J249999D01*
G01*
X151100000Y-93399999D01*
G75*
G02*
X151349999Y-93150000I249999J0D01*
G01*
G37*
G36*
G01*
X151349999Y-91100000D02*
X152250001Y-91100000D01*
G75*
G02*
X152500000Y-91349999I0J-249999D01*
G01*
X152500000Y-92000001D01*
G75*
G02*
X152250001Y-92250000I-249999J0D01*
G01*
X151349999Y-92250000D01*
G75*
G02*
X151100000Y-92000001I0J249999D01*
G01*
X151100000Y-91349999D01*
G75*
G02*
X151349999Y-91100000I249999J0D01*
G01*
G37*
%TD*%
%TO.C,U4*%
X182580000Y-45820000D03*
X183530000Y-45820000D03*
X181630000Y-45820000D03*
X181630000Y-43620000D03*
X182580000Y-43620000D03*
X183530000Y-43620000D03*
%TD*%
%TO.C,U2*%
X171150000Y-52500000D03*
X169250000Y-52500000D03*
X169250000Y-50300000D03*
X170200000Y-50300000D03*
X171150000Y-50300000D03*
%TD*%
%TO.C,R1*%
G36*
G01*
X165650001Y-71650000D02*
X164749999Y-71650000D01*
G75*
G02*
X164500000Y-71400001I0J249999D01*
G01*
X164500000Y-70749999D01*
G75*
G02*
X164749999Y-70500000I249999J0D01*
G01*
X165650001Y-70500000D01*
G75*
G02*
X165900000Y-70749999I0J-249999D01*
G01*
X165900000Y-71400001D01*
G75*
G02*
X165650001Y-71650000I-249999J0D01*
G01*
G37*
G36*
G01*
X165650001Y-73700000D02*
X164749999Y-73700000D01*
G75*
G02*
X164500000Y-73450001I0J249999D01*
G01*
X164500000Y-72799999D01*
G75*
G02*
X164749999Y-72550000I249999J0D01*
G01*
X165650001Y-72550000D01*
G75*
G02*
X165900000Y-72799999I0J-249999D01*
G01*
X165900000Y-73450001D01*
G75*
G02*
X165650001Y-73700000I-249999J0D01*
G01*
G37*
%TD*%
D13*
%TO.C,Q4*%
X176800000Y-66900000D03*
X177750000Y-69900000D03*
X175850000Y-69900000D03*
%TD*%
%TO.C,Q3*%
X176800000Y-61300000D03*
X177750000Y-64300000D03*
X175850000Y-64300000D03*
%TD*%
%TO.C,Q2*%
X176800000Y-55700000D03*
X177750000Y-58700000D03*
X175850000Y-58700000D03*
%TD*%
%TO.C,Q1*%
X176800000Y-50100000D03*
X177750000Y-53100000D03*
X175850000Y-53100000D03*
%TD*%
%TO.C,FB4*%
G36*
G01*
X178380001Y-44275000D02*
X177479999Y-44275000D01*
G75*
G02*
X177230000Y-44025001I0J249999D01*
G01*
X177230000Y-43374999D01*
G75*
G02*
X177479999Y-43125000I249999J0D01*
G01*
X178380001Y-43125000D01*
G75*
G02*
X178630000Y-43374999I0J-249999D01*
G01*
X178630000Y-44025001D01*
G75*
G02*
X178380001Y-44275000I-249999J0D01*
G01*
G37*
G36*
G01*
X178380001Y-46325000D02*
X177479999Y-46325000D01*
G75*
G02*
X177230000Y-46075001I0J249999D01*
G01*
X177230000Y-45424999D01*
G75*
G02*
X177479999Y-45175000I249999J0D01*
G01*
X178380001Y-45175000D01*
G75*
G02*
X178630000Y-45424999I0J-249999D01*
G01*
X178630000Y-46075001D01*
G75*
G02*
X178380001Y-46325000I-249999J0D01*
G01*
G37*
%TD*%
%TO.C,FB3*%
G36*
G01*
X175579999Y-45175000D02*
X176480001Y-45175000D01*
G75*
G02*
X176730000Y-45424999I0J-249999D01*
G01*
X176730000Y-46075001D01*
G75*
G02*
X176480001Y-46325000I-249999J0D01*
G01*
X175579999Y-46325000D01*
G75*
G02*
X175330000Y-46075001I0J249999D01*
G01*
X175330000Y-45424999D01*
G75*
G02*
X175579999Y-45175000I249999J0D01*
G01*
G37*
G36*
G01*
X175579999Y-43125000D02*
X176480001Y-43125000D01*
G75*
G02*
X176730000Y-43374999I0J-249999D01*
G01*
X176730000Y-44025001D01*
G75*
G02*
X176480001Y-44275000I-249999J0D01*
G01*
X175579999Y-44275000D01*
G75*
G02*
X175330000Y-44025001I0J249999D01*
G01*
X175330000Y-43374999D01*
G75*
G02*
X175579999Y-43125000I249999J0D01*
G01*
G37*
%TD*%
%TO.C,C7*%
G36*
G01*
X169699999Y-55805000D02*
X170600001Y-55805000D01*
G75*
G02*
X170850000Y-56054999I0J-249999D01*
G01*
X170850000Y-56705001D01*
G75*
G02*
X170600001Y-56955000I-249999J0D01*
G01*
X169699999Y-56955000D01*
G75*
G02*
X169450000Y-56705001I0J249999D01*
G01*
X169450000Y-56054999D01*
G75*
G02*
X169699999Y-55805000I249999J0D01*
G01*
G37*
G36*
G01*
X169699999Y-53755000D02*
X170600001Y-53755000D01*
G75*
G02*
X170850000Y-54004999I0J-249999D01*
G01*
X170850000Y-54655001D01*
G75*
G02*
X170600001Y-54905000I-249999J0D01*
G01*
X169699999Y-54905000D01*
G75*
G02*
X169450000Y-54655001I0J249999D01*
G01*
X169450000Y-54004999D01*
G75*
G02*
X169699999Y-53755000I249999J0D01*
G01*
G37*
%TD*%
%TO.C,C6*%
G36*
G01*
X166649999Y-51825000D02*
X167550001Y-51825000D01*
G75*
G02*
X167800000Y-52074999I0J-249999D01*
G01*
X167800000Y-52725001D01*
G75*
G02*
X167550001Y-52975000I-249999J0D01*
G01*
X166649999Y-52975000D01*
G75*
G02*
X166400000Y-52725001I0J249999D01*
G01*
X166400000Y-52074999D01*
G75*
G02*
X166649999Y-51825000I249999J0D01*
G01*
G37*
G36*
G01*
X166649999Y-49775000D02*
X167550001Y-49775000D01*
G75*
G02*
X167800000Y-50024999I0J-249999D01*
G01*
X167800000Y-50675001D01*
G75*
G02*
X167550001Y-50925000I-249999J0D01*
G01*
X166649999Y-50925000D01*
G75*
G02*
X166400000Y-50675001I0J249999D01*
G01*
X166400000Y-50024999D01*
G75*
G02*
X166649999Y-49775000I249999J0D01*
G01*
G37*
%TD*%
%TO.C,C4*%
G36*
G01*
X155500000Y-48249999D02*
X155500000Y-49150001D01*
G75*
G02*
X155250001Y-49400000I-249999J0D01*
G01*
X154599999Y-49400000D01*
G75*
G02*
X154350000Y-49150001I0J249999D01*
G01*
X154350000Y-48249999D01*
G75*
G02*
X154599999Y-48000000I249999J0D01*
G01*
X155250001Y-48000000D01*
G75*
G02*
X155500000Y-48249999I0J-249999D01*
G01*
G37*
G36*
G01*
X157550000Y-48249999D02*
X157550000Y-49150001D01*
G75*
G02*
X157300001Y-49400000I-249999J0D01*
G01*
X156649999Y-49400000D01*
G75*
G02*
X156400000Y-49150001I0J249999D01*
G01*
X156400000Y-48249999D01*
G75*
G02*
X156649999Y-48000000I249999J0D01*
G01*
X157300001Y-48000000D01*
G75*
G02*
X157550000Y-48249999I0J-249999D01*
G01*
G37*
%TD*%
%TO.C,C3*%
G36*
G01*
X151349999Y-97150000D02*
X152250001Y-97150000D01*
G75*
G02*
X152500000Y-97399999I0J-249999D01*
G01*
X152500000Y-98050001D01*
G75*
G02*
X152250001Y-98300000I-249999J0D01*
G01*
X151349999Y-98300000D01*
G75*
G02*
X151100000Y-98050001I0J249999D01*
G01*
X151100000Y-97399999D01*
G75*
G02*
X151349999Y-97150000I249999J0D01*
G01*
G37*
G36*
G01*
X151349999Y-95100000D02*
X152250001Y-95100000D01*
G75*
G02*
X152500000Y-95349999I0J-249999D01*
G01*
X152500000Y-96000001D01*
G75*
G02*
X152250001Y-96250000I-249999J0D01*
G01*
X151349999Y-96250000D01*
G75*
G02*
X151100000Y-96000001I0J249999D01*
G01*
X151100000Y-95349999D01*
G75*
G02*
X151349999Y-95100000I249999J0D01*
G01*
G37*
%TD*%
%TO.C,C2*%
G36*
G01*
X176850000Y-98750001D02*
X176850000Y-97849999D01*
G75*
G02*
X177099999Y-97600000I249999J0D01*
G01*
X177750001Y-97600000D01*
G75*
G02*
X178000000Y-97849999I0J-249999D01*
G01*
X178000000Y-98750001D01*
G75*
G02*
X177750001Y-99000000I-249999J0D01*
G01*
X177099999Y-99000000D01*
G75*
G02*
X176850000Y-98750001I0J249999D01*
G01*
G37*
G36*
G01*
X174800000Y-98750001D02*
X174800000Y-97849999D01*
G75*
G02*
X175049999Y-97600000I249999J0D01*
G01*
X175700001Y-97600000D01*
G75*
G02*
X175950000Y-97849999I0J-249999D01*
G01*
X175950000Y-98750001D01*
G75*
G02*
X175700001Y-99000000I-249999J0D01*
G01*
X175049999Y-99000000D01*
G75*
G02*
X174800000Y-98750001I0J249999D01*
G01*
G37*
%TD*%
%TO.C,C1*%
G36*
G01*
X176850000Y-96550001D02*
X176850000Y-95649999D01*
G75*
G02*
X177099999Y-95400000I249999J0D01*
G01*
X177750001Y-95400000D01*
G75*
G02*
X178000000Y-95649999I0J-249999D01*
G01*
X178000000Y-96550001D01*
G75*
G02*
X177750001Y-96800000I-249999J0D01*
G01*
X177099999Y-96800000D01*
G75*
G02*
X176850000Y-96550001I0J249999D01*
G01*
G37*
G36*
G01*
X174800000Y-96550001D02*
X174800000Y-95649999D01*
G75*
G02*
X175049999Y-95400000I249999J0D01*
G01*
X175700001Y-95400000D01*
G75*
G02*
X175950000Y-95649999I0J-249999D01*
G01*
X175950000Y-96550001D01*
G75*
G02*
X175700001Y-96800000I-249999J0D01*
G01*
X175049999Y-96800000D01*
G75*
G02*
X174800000Y-96550001I0J249999D01*
G01*
G37*
%TD*%
M02*
