%TF.GenerationSoftware,KiCad,Pcbnew,(6.0.7)*%
%TF.CreationDate,2022-08-28T13:45:58-07:00*%
%TF.ProjectId,cluster,636c7573-7465-4722-9e6b-696361645f70,rev?*%
%TF.SameCoordinates,Original*%
%TF.FileFunction,Legend,Top*%
%TF.FilePolarity,Positive*%
%FSLAX46Y46*%
G04 Gerber Fmt 4.6, Leading zero omitted, Abs format (unit mm)*
G04 Created by KiCad (PCBNEW (6.0.7)) date 2022-08-28 13:45:58*
%MOMM*%
%LPD*%
G01*
G04 APERTURE LIST*
%ADD10C,0.150000*%
%ADD11C,0.120000*%
%ADD12C,0.100000*%
G04 APERTURE END LIST*
D10*
%TO.C,PT3*%
X158947380Y-80919047D02*
X157947380Y-80919047D01*
X157947380Y-80538095D01*
X157995000Y-80442857D01*
X158042619Y-80395238D01*
X158137857Y-80347619D01*
X158280714Y-80347619D01*
X158375952Y-80395238D01*
X158423571Y-80442857D01*
X158471190Y-80538095D01*
X158471190Y-80919047D01*
X157947380Y-80061904D02*
X157947380Y-79490476D01*
X158947380Y-79776190D02*
X157947380Y-79776190D01*
X157947380Y-79252380D02*
X157947380Y-78633333D01*
X158328333Y-78966666D01*
X158328333Y-78823809D01*
X158375952Y-78728571D01*
X158423571Y-78680952D01*
X158518809Y-78633333D01*
X158756904Y-78633333D01*
X158852142Y-78680952D01*
X158899761Y-78728571D01*
X158947380Y-78823809D01*
X158947380Y-79109523D01*
X158899761Y-79204761D01*
X158852142Y-79252380D01*
%TO.C,IR3*%
X167002380Y-81276190D02*
X166002380Y-81276190D01*
X167002380Y-80228571D02*
X166526190Y-80561904D01*
X167002380Y-80800000D02*
X166002380Y-80800000D01*
X166002380Y-80419047D01*
X166050000Y-80323809D01*
X166097619Y-80276190D01*
X166192857Y-80228571D01*
X166335714Y-80228571D01*
X166430952Y-80276190D01*
X166478571Y-80323809D01*
X166526190Y-80419047D01*
X166526190Y-80800000D01*
X166002380Y-79895238D02*
X166002380Y-79276190D01*
X166383333Y-79609523D01*
X166383333Y-79466666D01*
X166430952Y-79371428D01*
X166478571Y-79323809D01*
X166573809Y-79276190D01*
X166811904Y-79276190D01*
X166907142Y-79323809D01*
X166954761Y-79371428D01*
X167002380Y-79466666D01*
X167002380Y-79752380D01*
X166954761Y-79847619D01*
X166907142Y-79895238D01*
%TO.C,IR4*%
X155047380Y-65831190D02*
X154047380Y-65831190D01*
X155047380Y-64783571D02*
X154571190Y-65116904D01*
X155047380Y-65355000D02*
X154047380Y-65355000D01*
X154047380Y-64974047D01*
X154095000Y-64878809D01*
X154142619Y-64831190D01*
X154237857Y-64783571D01*
X154380714Y-64783571D01*
X154475952Y-64831190D01*
X154523571Y-64878809D01*
X154571190Y-64974047D01*
X154571190Y-65355000D01*
X154380714Y-63926428D02*
X155047380Y-63926428D01*
X153999761Y-64164523D02*
X154714047Y-64402619D01*
X154714047Y-63783571D01*
%TO.C,PT4*%
X170847380Y-66014047D02*
X169847380Y-66014047D01*
X169847380Y-65633095D01*
X169895000Y-65537857D01*
X169942619Y-65490238D01*
X170037857Y-65442619D01*
X170180714Y-65442619D01*
X170275952Y-65490238D01*
X170323571Y-65537857D01*
X170371190Y-65633095D01*
X170371190Y-66014047D01*
X169847380Y-65156904D02*
X169847380Y-64585476D01*
X170847380Y-64871190D02*
X169847380Y-64871190D01*
X170180714Y-63823571D02*
X170847380Y-63823571D01*
X169799761Y-64061666D02*
X170514047Y-64299761D01*
X170514047Y-63680714D01*
%TO.C,PT2*%
X153787380Y-86924047D02*
X152787380Y-86924047D01*
X152787380Y-86543095D01*
X152835000Y-86447857D01*
X152882619Y-86400238D01*
X152977857Y-86352619D01*
X153120714Y-86352619D01*
X153215952Y-86400238D01*
X153263571Y-86447857D01*
X153311190Y-86543095D01*
X153311190Y-86924047D01*
X152787380Y-86066904D02*
X152787380Y-85495476D01*
X153787380Y-85781190D02*
X152787380Y-85781190D01*
X152882619Y-85209761D02*
X152835000Y-85162142D01*
X152787380Y-85066904D01*
X152787380Y-84828809D01*
X152835000Y-84733571D01*
X152882619Y-84685952D01*
X152977857Y-84638333D01*
X153073095Y-84638333D01*
X153215952Y-84685952D01*
X153787380Y-85257380D01*
X153787380Y-84638333D01*
%TO.C,IR2*%
X172037380Y-87221190D02*
X171037380Y-87221190D01*
X172037380Y-86173571D02*
X171561190Y-86506904D01*
X172037380Y-86745000D02*
X171037380Y-86745000D01*
X171037380Y-86364047D01*
X171085000Y-86268809D01*
X171132619Y-86221190D01*
X171227857Y-86173571D01*
X171370714Y-86173571D01*
X171465952Y-86221190D01*
X171513571Y-86268809D01*
X171561190Y-86364047D01*
X171561190Y-86745000D01*
X171132619Y-85792619D02*
X171085000Y-85745000D01*
X171037380Y-85649761D01*
X171037380Y-85411666D01*
X171085000Y-85316428D01*
X171132619Y-85268809D01*
X171227857Y-85221190D01*
X171323095Y-85221190D01*
X171465952Y-85268809D01*
X172037380Y-85840238D01*
X172037380Y-85221190D01*
%TO.C,PT5*%
X170755952Y-68117380D02*
X170755952Y-67117380D01*
X171136904Y-67117380D01*
X171232142Y-67165000D01*
X171279761Y-67212619D01*
X171327380Y-67307857D01*
X171327380Y-67450714D01*
X171279761Y-67545952D01*
X171232142Y-67593571D01*
X171136904Y-67641190D01*
X170755952Y-67641190D01*
X171613095Y-67117380D02*
X172184523Y-67117380D01*
X171898809Y-68117380D02*
X171898809Y-67117380D01*
X172994047Y-67117380D02*
X172517857Y-67117380D01*
X172470238Y-67593571D01*
X172517857Y-67545952D01*
X172613095Y-67498333D01*
X172851190Y-67498333D01*
X172946428Y-67545952D01*
X172994047Y-67593571D01*
X173041666Y-67688809D01*
X173041666Y-67926904D01*
X172994047Y-68022142D01*
X172946428Y-68069761D01*
X172851190Y-68117380D01*
X172613095Y-68117380D01*
X172517857Y-68069761D01*
X172470238Y-68022142D01*
%TO.C,PT1*%
X150930951Y-83952380D02*
X150930951Y-82952380D01*
X151311903Y-82952380D01*
X151407141Y-83000000D01*
X151454760Y-83047619D01*
X151502379Y-83142857D01*
X151502379Y-83285714D01*
X151454760Y-83380952D01*
X151407141Y-83428571D01*
X151311903Y-83476190D01*
X150930951Y-83476190D01*
X151788094Y-82952380D02*
X152359522Y-82952380D01*
X152073808Y-83952380D02*
X152073808Y-82952380D01*
X153216665Y-83952380D02*
X152645237Y-83952380D01*
X152930951Y-83952380D02*
X152930951Y-82952380D01*
X152835713Y-83095238D01*
X152740475Y-83190476D01*
X152645237Y-83238095D01*
%TO.C,IR5*%
X171873808Y-83852380D02*
X171873808Y-82852380D01*
X172921427Y-83852380D02*
X172588094Y-83376190D01*
X172349999Y-83852380D02*
X172349999Y-82852380D01*
X172730951Y-82852380D01*
X172826189Y-82900000D01*
X172873808Y-82947619D01*
X172921427Y-83042857D01*
X172921427Y-83185714D01*
X172873808Y-83280952D01*
X172826189Y-83328571D01*
X172730951Y-83376190D01*
X172349999Y-83376190D01*
X173826189Y-82852380D02*
X173349999Y-82852380D01*
X173302379Y-83328571D01*
X173349999Y-83280952D01*
X173445237Y-83233333D01*
X173683332Y-83233333D01*
X173778570Y-83280952D01*
X173826189Y-83328571D01*
X173873808Y-83423809D01*
X173873808Y-83661904D01*
X173826189Y-83757142D01*
X173778570Y-83804761D01*
X173683332Y-83852380D01*
X173445237Y-83852380D01*
X173349999Y-83804761D01*
X173302379Y-83757142D01*
%TO.C,IR1*%
X152048809Y-68117380D02*
X152048809Y-67117380D01*
X153096428Y-68117380D02*
X152763095Y-67641190D01*
X152525000Y-68117380D02*
X152525000Y-67117380D01*
X152905952Y-67117380D01*
X153001190Y-67165000D01*
X153048809Y-67212619D01*
X153096428Y-67307857D01*
X153096428Y-67450714D01*
X153048809Y-67545952D01*
X153001190Y-67593571D01*
X152905952Y-67641190D01*
X152525000Y-67641190D01*
X154048809Y-68117380D02*
X153477380Y-68117380D01*
X153763095Y-68117380D02*
X153763095Y-67117380D01*
X153667857Y-67260238D01*
X153572619Y-67355476D01*
X153477380Y-67403095D01*
D11*
%TO.C,PT3*%
X155564000Y-80165000D02*
X155564000Y-79434000D01*
X155564000Y-77975000D02*
X155564000Y-77665000D01*
X157286000Y-80165000D02*
X157286000Y-79434000D01*
X157286000Y-77975000D02*
X157286000Y-77665000D01*
X155564000Y-77665000D02*
X155870000Y-77665000D01*
X156980000Y-77665000D02*
X157286000Y-77665000D01*
X157286000Y-80165000D02*
X157286000Y-79445000D01*
G36*
X157546000Y-79675000D02*
G01*
X157546000Y-79965000D01*
X157356000Y-80085000D01*
X157346000Y-80085000D01*
X157346000Y-79515000D01*
X157546000Y-79675000D01*
G37*
D12*
X157546000Y-79675000D02*
X157546000Y-79965000D01*
X157356000Y-80085000D01*
X157346000Y-80085000D01*
X157346000Y-79515000D01*
X157546000Y-79675000D01*
D11*
X157286000Y-80165000D02*
G75*
G03*
X157286000Y-79445000I0J360000D01*
G01*
%TO.C,IR3*%
X169336000Y-79785000D02*
X169336000Y-80516000D01*
X169336000Y-81975000D02*
X169336000Y-82285000D01*
X167614000Y-79785000D02*
X167614000Y-80516000D01*
X167614000Y-81975000D02*
X167614000Y-82285000D01*
X169336000Y-82285000D02*
X169030000Y-82285000D01*
X167920000Y-82285000D02*
X167614000Y-82285000D01*
X167614000Y-79785000D02*
X167614000Y-80505000D01*
X167614000Y-79785000D02*
G75*
G03*
X167614000Y-80505000I0J-360000D01*
G01*
%TO.C,IR4*%
X155564000Y-66315000D02*
X155564000Y-65584000D01*
X155564000Y-64125000D02*
X155564000Y-63815000D01*
X157286000Y-66315000D02*
X157286000Y-65584000D01*
X157286000Y-64125000D02*
X157286000Y-63815000D01*
X155564000Y-63815000D02*
X155870000Y-63815000D01*
X156980000Y-63815000D02*
X157286000Y-63815000D01*
X157286000Y-66315000D02*
X157286000Y-65595000D01*
X157286000Y-66315000D02*
G75*
G03*
X157286000Y-65595000I0J360000D01*
G01*
%TO.C,PT4*%
X169336000Y-65935000D02*
X169336000Y-66666000D01*
X169336000Y-68125000D02*
X169336000Y-68435000D01*
X167614000Y-65935000D02*
X167614000Y-66666000D01*
X167614000Y-68125000D02*
X167614000Y-68435000D01*
X169336000Y-68435000D02*
X169030000Y-68435000D01*
X167920000Y-68435000D02*
X167614000Y-68435000D01*
X167614000Y-65935000D02*
X167614000Y-66655000D01*
G36*
X167554000Y-66585000D02*
G01*
X167354000Y-66425000D01*
X167354000Y-66135000D01*
X167544000Y-66015000D01*
X167554000Y-66015000D01*
X167554000Y-66585000D01*
G37*
D12*
X167554000Y-66585000D02*
X167354000Y-66425000D01*
X167354000Y-66135000D01*
X167544000Y-66015000D01*
X167554000Y-66015000D01*
X167554000Y-66585000D01*
D11*
X167614000Y-65935000D02*
G75*
G03*
X167614000Y-66655000I0J-360000D01*
G01*
%TO.C,PT2*%
X154314000Y-85165000D02*
X154314000Y-84434000D01*
X154314000Y-82975000D02*
X154314000Y-82665000D01*
X156036000Y-85165000D02*
X156036000Y-84434000D01*
X156036000Y-82975000D02*
X156036000Y-82665000D01*
X154314000Y-82665000D02*
X154620000Y-82665000D01*
X155730000Y-82665000D02*
X156036000Y-82665000D01*
X156036000Y-85165000D02*
X156036000Y-84445000D01*
G36*
X156296000Y-84675000D02*
G01*
X156296000Y-84965000D01*
X156106000Y-85085000D01*
X156096000Y-85085000D01*
X156096000Y-84515000D01*
X156296000Y-84675000D01*
G37*
D12*
X156296000Y-84675000D02*
X156296000Y-84965000D01*
X156106000Y-85085000D01*
X156096000Y-85085000D01*
X156096000Y-84515000D01*
X156296000Y-84675000D01*
D11*
X156036000Y-85165000D02*
G75*
G03*
X156036000Y-84445000I0J360000D01*
G01*
%TO.C,IR2*%
X170586000Y-84785000D02*
X170586000Y-85516000D01*
X170586000Y-86975000D02*
X170586000Y-87285000D01*
X168864000Y-84785000D02*
X168864000Y-85516000D01*
X168864000Y-86975000D02*
X168864000Y-87285000D01*
X170586000Y-87285000D02*
X170280000Y-87285000D01*
X169170000Y-87285000D02*
X168864000Y-87285000D01*
X168864000Y-84785000D02*
X168864000Y-85505000D01*
X168864000Y-84785000D02*
G75*
G03*
X168864000Y-85505000I0J-360000D01*
G01*
%TO.C,PT5*%
X171685000Y-68664000D02*
X172416000Y-68664000D01*
X173875000Y-68664000D02*
X174185000Y-68664000D01*
X171685000Y-70386000D02*
X172416000Y-70386000D01*
X173875000Y-70386000D02*
X174185000Y-70386000D01*
X174185000Y-68664000D02*
X174185000Y-68970000D01*
X174185000Y-70080000D02*
X174185000Y-70386000D01*
X171685000Y-70386000D02*
X172405000Y-70386000D01*
G36*
X172175000Y-70646000D02*
G01*
X171885000Y-70646000D01*
X171765000Y-70456000D01*
X171765000Y-70446000D01*
X172335000Y-70446000D01*
X172175000Y-70646000D01*
G37*
D12*
X172175000Y-70646000D02*
X171885000Y-70646000D01*
X171765000Y-70456000D01*
X171765000Y-70446000D01*
X172335000Y-70446000D01*
X172175000Y-70646000D01*
D11*
X171685000Y-70386000D02*
G75*
G03*
X172405000Y-70386000I360000J0D01*
G01*
%TO.C,PT1*%
X153215000Y-82436000D02*
X152484000Y-82436000D01*
X151025000Y-82436000D02*
X150715000Y-82436000D01*
X153215000Y-80714000D02*
X152484000Y-80714000D01*
X151025000Y-80714000D02*
X150715000Y-80714000D01*
X150715000Y-82436000D02*
X150715000Y-82130000D01*
X150715000Y-81020000D02*
X150715000Y-80714000D01*
X153215000Y-80714000D02*
X152495000Y-80714000D01*
G36*
X153135000Y-80644000D02*
G01*
X153135000Y-80654000D01*
X152565000Y-80654000D01*
X152725000Y-80454000D01*
X153015000Y-80454000D01*
X153135000Y-80644000D01*
G37*
D12*
X153135000Y-80644000D02*
X153135000Y-80654000D01*
X152565000Y-80654000D01*
X152725000Y-80454000D01*
X153015000Y-80454000D01*
X153135000Y-80644000D01*
D11*
X153215000Y-80714000D02*
G75*
G03*
X152495000Y-80714000I-360000J0D01*
G01*
%TO.C,IR5*%
X172065000Y-82436000D02*
X171334000Y-82436000D01*
X169875000Y-82436000D02*
X169565000Y-82436000D01*
X172065000Y-80714000D02*
X171334000Y-80714000D01*
X169875000Y-80714000D02*
X169565000Y-80714000D01*
X169565000Y-82436000D02*
X169565000Y-82130000D01*
X169565000Y-81020000D02*
X169565000Y-80714000D01*
X172065000Y-80714000D02*
X171345000Y-80714000D01*
X172065000Y-80714000D02*
G75*
G03*
X171345000Y-80714000I-360000J0D01*
G01*
%TO.C,IR1*%
X152835000Y-68664000D02*
X153566000Y-68664000D01*
X155025000Y-68664000D02*
X155335000Y-68664000D01*
X152835000Y-70386000D02*
X153566000Y-70386000D01*
X155025000Y-70386000D02*
X155335000Y-70386000D01*
X155335000Y-68664000D02*
X155335000Y-68970000D01*
X155335000Y-70080000D02*
X155335000Y-70386000D01*
X152835000Y-70386000D02*
X153555000Y-70386000D01*
X152835000Y-70386000D02*
G75*
G03*
X153555000Y-70386000I360000J0D01*
G01*
%TD*%
M02*
