%TF.GenerationSoftware,KiCad,Pcbnew,(6.0.7)*%
%TF.CreationDate,2022-08-28T13:45:58-07:00*%
%TF.ProjectId,cluster,636c7573-7465-4722-9e6b-696361645f70,rev?*%
%TF.SameCoordinates,Original*%
%TF.FileFunction,Profile,NP*%
%FSLAX46Y46*%
G04 Gerber Fmt 4.6, Leading zero omitted, Abs format (unit mm)*
G04 Created by KiCad (PCBNEW (6.0.7)) date 2022-08-28 13:45:58*
%MOMM*%
%LPD*%
G01*
G04 APERTURE LIST*
%TA.AperFunction,Profile*%
%ADD10C,0.200000*%
%TD*%
G04 APERTURE END LIST*
D10*
X153950000Y-71025000D02*
X150200000Y-71025000D01*
X150200000Y-71025000D02*
X150200000Y-68160134D01*
X153950000Y-80075000D02*
G75*
G03*
X154950000Y-79075000I0J1000000D01*
G01*
X154950000Y-79075000D02*
X154950000Y-72025000D01*
X154950000Y-72025000D02*
G75*
G03*
X153950000Y-71025000I-1000000J0D01*
G01*
X171486911Y-63300000D02*
X174700000Y-68160134D01*
X160750000Y-72850000D02*
G75*
G03*
X159750000Y-73850000I0J-1000000D01*
G01*
X167250000Y-92800000D02*
G75*
G03*
X166250000Y-93800000I0J-1000000D01*
G01*
X157925000Y-87200000D02*
G75*
G03*
X158925000Y-88200000I1000000J0D01*
G01*
X165975000Y-88200000D02*
X158925000Y-88200000D01*
X166975000Y-63300000D02*
X171486911Y-63300000D01*
X169950000Y-79075000D02*
G75*
G03*
X170950000Y-80075000I1000000J0D01*
G01*
X170950000Y-80075000D02*
X174700000Y-80075000D01*
X174700000Y-92800000D02*
X167250000Y-92800000D01*
X166975000Y-84050000D02*
G75*
G03*
X165975000Y-83050000I-1000000J0D01*
G01*
X174700000Y-80075000D02*
X174700000Y-92800000D01*
X166975000Y-84050000D02*
X166975000Y-87200000D01*
X169950000Y-72025000D02*
X169950000Y-79075000D01*
X158925000Y-68050000D02*
X165975000Y-68050000D01*
X165975000Y-68050000D02*
G75*
G03*
X166975000Y-67050000I0J1000000D01*
G01*
X166975000Y-67050000D02*
X166975000Y-63300000D01*
X153413088Y-63300000D02*
X157925000Y-63300000D01*
X157925000Y-63300000D02*
X157925000Y-67050000D01*
X157925000Y-67050000D02*
G75*
G03*
X158925000Y-68050000I1000000J0D01*
G01*
X164150000Y-78250000D02*
X160750000Y-78250000D01*
X174700000Y-68160134D02*
X174700000Y-71025000D01*
X157650000Y-92800000D02*
X150200000Y-92800000D01*
X150200000Y-92800000D02*
X150200000Y-80075000D01*
X150200000Y-80075000D02*
X153950000Y-80075000D01*
X160750000Y-72850000D02*
X164150000Y-72850000D01*
X165150000Y-73850000D02*
G75*
G03*
X164150000Y-72850000I-1000000J0D01*
G01*
X165150000Y-73850000D02*
X165150000Y-77250000D01*
X158650000Y-93800000D02*
G75*
G03*
X157650000Y-92800000I-1000000J0D01*
G01*
X158650000Y-99800000D02*
X158650000Y-93800000D01*
X170950000Y-71025000D02*
G75*
G03*
X169950000Y-72025000I0J-1000000D01*
G01*
X166250000Y-99800000D02*
X158650000Y-99800000D01*
X158925000Y-83050000D02*
X165975000Y-83050000D01*
X165975000Y-88200000D02*
G75*
G03*
X166975000Y-87200000I0J1000000D01*
G01*
X150200000Y-68160134D02*
X153413088Y-63300000D01*
X157925000Y-87200000D02*
X157925000Y-84050000D01*
X166250000Y-93800000D02*
X166250000Y-99800000D01*
X159750000Y-77250000D02*
G75*
G03*
X160750000Y-78250000I1000000J0D01*
G01*
X164150000Y-78250000D02*
G75*
G03*
X165150000Y-77250000I0J1000000D01*
G01*
X158925000Y-83050000D02*
G75*
G03*
X157925000Y-84050000I0J-1000000D01*
G01*
X174700000Y-71025000D02*
X170950000Y-71025000D01*
X159750000Y-77250000D02*
X159750000Y-73850000D01*
M02*
