M48
; DRILL file {KiCad (6.0.7)} date Sun Aug 28 13:46:29 2022
; FORMAT={-:-/ absolute / inch / decimal}
; #@! TF.CreationDate,2022-08-28T13:46:29-07:00
; #@! TF.GenerationSoftware,Kicad,Pcbnew,(6.0.7)
; #@! TF.FileFunction,Plated,1,2,PTH
FMAT,2
INCH
; #@! TA.AperFunction,Plated,PTH,ViaDrill
T1C0.0157
; #@! TA.AperFunction,Plated,PTH,ComponentDrill
T2C0.0295
; #@! TA.AperFunction,Plated,PTH,ComponentDrill
T3C0.0354
%
G90
G05
T1
X6.4911Y-3.1986
T2
X6.2185Y-3.5992
X6.2776Y-3.5992
X6.3366Y-3.5992
X6.3957Y-3.5992
X6.4547Y-3.5992
X6.5138Y-3.5992
X6.5728Y-3.5992
T3
X5.9746Y-2.7372
X5.9746Y-3.2116
X6.0746Y-2.7372
X6.0746Y-3.2116
X6.1093Y-3.2955
X6.1093Y-3.3955
X6.1585Y-2.5533
X6.1585Y-2.6533
X6.1585Y-3.0986
X6.1585Y-3.1986
X6.6329Y-2.5533
X6.6329Y-2.6533
X6.6329Y-3.0986
X6.6329Y-3.1986
X6.6821Y-3.2955
X6.6821Y-3.3955
X6.7167Y-2.7372
X6.7167Y-3.2116
X6.8167Y-2.7372
X6.8167Y-3.2116
T0
M30
