%TF.GenerationSoftware,KiCad,Pcbnew,(6.0.7)*%
%TF.CreationDate,2022-08-28T13:45:58-07:00*%
%TF.ProjectId,cluster,636c7573-7465-4722-9e6b-696361645f70,rev?*%
%TF.SameCoordinates,Original*%
%TF.FileFunction,Copper,L2,Bot*%
%TF.FilePolarity,Positive*%
%FSLAX46Y46*%
G04 Gerber Fmt 4.6, Leading zero omitted, Abs format (unit mm)*
G04 Created by KiCad (PCBNEW (6.0.7)) date 2022-08-28 13:45:58*
%MOMM*%
%LPD*%
G01*
G04 APERTURE LIST*
G04 Aperture macros list*
%AMRoundRect*
0 Rectangle with rounded corners*
0 $1 Rounding radius*
0 $2 $3 $4 $5 $6 $7 $8 $9 X,Y pos of 4 corners*
0 Add a 4 corners polygon primitive as box body*
4,1,4,$2,$3,$4,$5,$6,$7,$8,$9,$2,$3,0*
0 Add four circle primitives for the rounded corners*
1,1,$1+$1,$2,$3*
1,1,$1+$1,$4,$5*
1,1,$1+$1,$6,$7*
1,1,$1+$1,$8,$9*
0 Add four rect primitives between the rounded corners*
20,1,$1+$1,$2,$3,$4,$5,0*
20,1,$1+$1,$4,$5,$6,$7,0*
20,1,$1+$1,$6,$7,$8,$9,0*
20,1,$1+$1,$8,$9,$2,$3,0*%
G04 Aperture macros list end*
%TA.AperFunction,SMDPad,CuDef*%
%ADD10RoundRect,0.250001X0.462499X0.624999X-0.462499X0.624999X-0.462499X-0.624999X0.462499X-0.624999X0*%
%TD*%
%TA.AperFunction,ComponentPad*%
%ADD11C,1.800000*%
%TD*%
%TA.AperFunction,ComponentPad*%
%ADD12R,1.400000X1.800000*%
%TD*%
%TA.AperFunction,ComponentPad*%
%ADD13O,1.170000X1.870000*%
%TD*%
%TA.AperFunction,ComponentPad*%
%ADD14RoundRect,0.250380X-0.334620X-0.684620X0.334620X-0.684620X0.334620X0.684620X-0.334620X0.684620X0*%
%TD*%
%TA.AperFunction,ComponentPad*%
%ADD15R,1.800000X1.800000*%
%TD*%
%TA.AperFunction,SMDPad,CuDef*%
%ADD16RoundRect,0.250001X-0.624999X0.462499X-0.624999X-0.462499X0.624999X-0.462499X0.624999X0.462499X0*%
%TD*%
%TA.AperFunction,SMDPad,CuDef*%
%ADD17RoundRect,0.250001X0.624999X-0.462499X0.624999X0.462499X-0.624999X0.462499X-0.624999X-0.462499X0*%
%TD*%
%TA.AperFunction,ComponentPad*%
%ADD18O,1.400000X1.800000*%
%TD*%
%TA.AperFunction,ComponentPad*%
%ADD19R,1.800000X1.400000*%
%TD*%
%TA.AperFunction,ComponentPad*%
%ADD20O,1.800000X1.800000*%
%TD*%
%TA.AperFunction,ViaPad*%
%ADD21C,0.800000*%
%TD*%
%TA.AperFunction,Conductor*%
%ADD22C,0.500000*%
%TD*%
%TA.AperFunction,Conductor*%
%ADD23C,0.350000*%
%TD*%
%TA.AperFunction,Conductor*%
%ADD24C,0.250000*%
%TD*%
G04 APERTURE END LIST*
D10*
%TO.P,R4,1*%
%TO.N,GND*%
X161940000Y-69935000D03*
%TO.P,R4,2*%
%TO.N,Net-(IR4-Pad1)*%
X158965000Y-69935000D03*
%TD*%
D11*
%TO.P,PT3,2*%
%TO.N,+5V*%
X156425000Y-78705000D03*
D12*
%TO.P,PT3,1*%
%TO.N,C3*%
X156425000Y-81245000D03*
%TD*%
D13*
%TO.P,J1,2*%
%TO.N,C1*%
X159450000Y-91420000D03*
%TO.P,J1,3*%
%TO.N,C2*%
X160950000Y-91420000D03*
%TO.P,J1,5*%
%TO.N,C4*%
X163950000Y-91420000D03*
%TO.P,J1,4*%
%TO.N,C3*%
X162450000Y-91420000D03*
%TO.P,J1,6*%
%TO.N,C5*%
X165450000Y-91420000D03*
D14*
%TO.P,J1,1*%
%TO.N,+5V*%
X157950000Y-91420000D03*
D13*
%TO.P,J1,7*%
%TO.N,GND*%
X166950000Y-91420000D03*
%TD*%
D11*
%TO.P,IR3,2*%
%TO.N,+5V*%
X168475000Y-81245000D03*
D15*
%TO.P,IR3,1*%
%TO.N,Net-(IR3-Pad1)*%
X168475000Y-78705000D03*
%TD*%
D11*
%TO.P,IR4,2*%
%TO.N,+5V*%
X156425000Y-64855000D03*
D15*
%TO.P,IR4,1*%
%TO.N,Net-(IR4-Pad1)*%
X156425000Y-67395000D03*
%TD*%
D16*
%TO.P,R3,2*%
%TO.N,Net-(IR3-Pad1)*%
X167855000Y-76382500D03*
%TO.P,R3,1*%
%TO.N,GND*%
X167855000Y-73407500D03*
%TD*%
D11*
%TO.P,PT4,2*%
%TO.N,+5V*%
X168475000Y-67395000D03*
D15*
%TO.P,PT4,1*%
%TO.N,C4*%
X168475000Y-64855000D03*
%TD*%
D11*
%TO.P,PT2,2*%
%TO.N,+5V*%
X155175000Y-83705000D03*
D15*
%TO.P,PT2,1*%
%TO.N,C2*%
X155175000Y-86245000D03*
%TD*%
D17*
%TO.P,R1,2*%
%TO.N,Net-(IR1-Pad1)*%
X157449999Y-73300000D03*
%TO.P,R1,1*%
%TO.N,GND*%
X157449999Y-76275000D03*
%TD*%
D10*
%TO.P,R2,1*%
%TO.N,GND*%
X173135000Y-88955000D03*
%TO.P,R2,2*%
%TO.N,Net-(IR2-Pad1)*%
X170160000Y-88955000D03*
%TD*%
D18*
%TO.P,IR2,2*%
%TO.N,+5V*%
X169725000Y-86245000D03*
D19*
%TO.P,IR2,1*%
%TO.N,Net-(IR2-Pad1)*%
X169725000Y-83705000D03*
%TD*%
D11*
%TO.P,PT5,2*%
%TO.N,+5V*%
X173145000Y-69525000D03*
D15*
%TO.P,PT5,1*%
%TO.N,C5*%
X170605000Y-69525000D03*
%TD*%
D11*
%TO.P,PT1,2*%
%TO.N,+5V*%
X151755000Y-81575000D03*
D19*
%TO.P,PT1,1*%
%TO.N,C1*%
X154295000Y-81575000D03*
%TD*%
D17*
%TO.P,R5,2*%
%TO.N,Net-(IR5-Pad1)*%
X173135000Y-83805000D03*
%TO.P,R5,1*%
%TO.N,GND*%
X173135000Y-86780000D03*
%TD*%
D18*
%TO.P,IR5,2*%
%TO.N,+5V*%
X170605000Y-81575000D03*
D15*
%TO.P,IR5,1*%
%TO.N,Net-(IR5-Pad1)*%
X173145000Y-81575000D03*
%TD*%
D20*
%TO.P,IR1,2*%
%TO.N,+5V*%
X154295000Y-69525000D03*
D15*
%TO.P,IR1,1*%
%TO.N,Net-(IR1-Pad1)*%
X151755000Y-69525000D03*
%TD*%
D21*
%TO.N,+5V*%
X164875008Y-81245000D03*
%TD*%
D22*
%TO.N,+5V*%
X171015000Y-67395000D02*
X173145000Y-69525000D01*
X168475000Y-67395000D02*
X171015000Y-67395000D01*
X168475000Y-81245000D02*
X164875008Y-81245000D01*
D23*
%TO.N,Net-(IR1-Pad1)*%
X157849999Y-71220000D02*
X157849999Y-73300000D01*
X154829999Y-68200000D02*
X157849999Y-71220000D01*
X153080000Y-68200000D02*
X154829999Y-68200000D01*
X151755000Y-69525000D02*
X153080000Y-68200000D01*
D22*
%TO.N,Net-(IR2-Pad1)*%
X171350000Y-84400001D02*
X171350000Y-87765000D01*
X169725000Y-83705000D02*
X170654999Y-83705000D01*
X170654999Y-83705000D02*
X171350000Y-84400001D01*
X171350000Y-87765000D02*
X170160000Y-88955000D01*
D24*
%TO.N,Net-(IR3-Pad1)*%
X167855000Y-78085000D02*
X168475000Y-78705000D01*
D22*
X167855000Y-76382500D02*
X167855000Y-78085000D01*
%TO.N,Net-(IR4-Pad1)*%
X156425000Y-67395000D02*
X158965000Y-69935000D01*
D24*
%TO.N,Net-(IR5-Pad1)*%
X173135000Y-81585000D02*
X173145000Y-81575000D01*
D22*
X173135000Y-83805000D02*
X173135000Y-81585000D01*
D24*
%TO.N,C1*%
X154295000Y-81575000D02*
X153675000Y-82195000D01*
X155775000Y-89845000D02*
X159060000Y-89845000D01*
X159060000Y-89845000D02*
X159450000Y-90235000D01*
X153675000Y-82195000D02*
X153675000Y-87745000D01*
X159450000Y-90235000D02*
X159450000Y-91420000D01*
X159449999Y-90610000D02*
X159449999Y-90619999D01*
X153675000Y-87745000D02*
X155775000Y-89845000D01*
%TO.N,C2*%
X156645000Y-89245000D02*
X159927500Y-89245000D01*
X155175000Y-86245000D02*
X155175000Y-87775000D01*
X160950000Y-90267500D02*
X160950000Y-91420000D01*
X155175000Y-87775000D02*
X156645000Y-89245000D01*
X159927500Y-89245000D02*
X160950000Y-90267500D01*
%TO.N,C3*%
X157895000Y-88745000D02*
X160895000Y-88745000D01*
X156425000Y-81975000D02*
X156750000Y-82300000D01*
X156750000Y-82300000D02*
X156750000Y-87600000D01*
X162450000Y-90300000D02*
X162450000Y-91420000D01*
X160895000Y-88745000D02*
X162450000Y-90300000D01*
X156750000Y-87600000D02*
X157895000Y-88745000D01*
D22*
%TO.N,GND*%
X162550000Y-96270000D02*
X162450000Y-96270000D01*
D24*
X156835000Y-75875000D02*
X156874999Y-75875000D01*
D22*
X166950000Y-91770000D02*
X166950000Y-91870000D01*
X166950000Y-92000000D02*
X162450000Y-96500000D01*
D24*
X166950000Y-91420000D02*
X166950000Y-92000000D01*
%TD*%
%TA.AperFunction,Conductor*%
%TO.N,GND*%
G36*
X164762776Y-92624452D02*
G01*
X164782156Y-92638290D01*
X164812113Y-92664285D01*
X164992726Y-92768772D01*
X165066732Y-92794471D01*
X165184182Y-92835257D01*
X165184186Y-92835258D01*
X165189839Y-92837221D01*
X165309597Y-92854586D01*
X165390400Y-92866302D01*
X165390403Y-92866302D01*
X165396340Y-92867163D01*
X165604776Y-92857515D01*
X165743549Y-92824071D01*
X165801795Y-92810034D01*
X165801797Y-92810033D01*
X165807628Y-92808628D01*
X165816797Y-92804459D01*
X165887087Y-92794471D01*
X165951619Y-92824071D01*
X165989904Y-92883860D01*
X165989787Y-92954857D01*
X165977305Y-92982129D01*
X165977728Y-92982360D01*
X165874315Y-93171746D01*
X165851546Y-93232792D01*
X165821373Y-93313691D01*
X165798908Y-93373921D01*
X165753041Y-93584770D01*
X165745470Y-93690631D01*
X165739988Y-93767275D01*
X165738808Y-93777675D01*
X165737690Y-93784851D01*
X165737690Y-93784855D01*
X165736309Y-93793724D01*
X165737473Y-93802626D01*
X165737473Y-93802628D01*
X165740436Y-93825283D01*
X165741500Y-93841621D01*
X165741500Y-97119000D01*
X165721498Y-97187121D01*
X165667842Y-97233614D01*
X165615500Y-97245000D01*
X159284500Y-97245000D01*
X159216379Y-97224998D01*
X159169886Y-97171342D01*
X159158500Y-97119000D01*
X159158500Y-93853250D01*
X159160246Y-93832345D01*
X159162770Y-93817344D01*
X159162770Y-93817341D01*
X159163576Y-93812552D01*
X159163729Y-93800000D01*
X159161611Y-93785210D01*
X159160662Y-93776357D01*
X159147280Y-93589258D01*
X159146959Y-93584770D01*
X159101092Y-93373921D01*
X159078628Y-93313691D01*
X159048454Y-93232792D01*
X159025685Y-93171746D01*
X158922272Y-92982360D01*
X158921735Y-92981643D01*
X158901991Y-92914397D01*
X158921994Y-92846277D01*
X158975650Y-92799785D01*
X159045924Y-92789682D01*
X159069322Y-92795370D01*
X159189839Y-92837221D01*
X159309597Y-92854586D01*
X159390400Y-92866302D01*
X159390403Y-92866302D01*
X159396340Y-92867163D01*
X159604776Y-92857515D01*
X159743549Y-92824071D01*
X159801795Y-92810034D01*
X159801797Y-92810033D01*
X159807628Y-92808628D01*
X159813086Y-92806146D01*
X159813090Y-92806145D01*
X159978144Y-92731099D01*
X159997576Y-92722264D01*
X160088398Y-92657839D01*
X160126677Y-92630686D01*
X160193811Y-92607588D01*
X160262776Y-92624452D01*
X160282156Y-92638290D01*
X160312113Y-92664285D01*
X160492726Y-92768772D01*
X160566732Y-92794471D01*
X160684182Y-92835257D01*
X160684186Y-92835258D01*
X160689839Y-92837221D01*
X160809597Y-92854586D01*
X160890400Y-92866302D01*
X160890403Y-92866302D01*
X160896340Y-92867163D01*
X161104776Y-92857515D01*
X161243549Y-92824071D01*
X161301795Y-92810034D01*
X161301797Y-92810033D01*
X161307628Y-92808628D01*
X161313086Y-92806146D01*
X161313090Y-92806145D01*
X161478144Y-92731099D01*
X161497576Y-92722264D01*
X161588398Y-92657839D01*
X161626677Y-92630686D01*
X161693811Y-92607588D01*
X161762776Y-92624452D01*
X161782156Y-92638290D01*
X161812113Y-92664285D01*
X161992726Y-92768772D01*
X162066732Y-92794471D01*
X162184182Y-92835257D01*
X162184186Y-92835258D01*
X162189839Y-92837221D01*
X162309597Y-92854586D01*
X162390400Y-92866302D01*
X162390403Y-92866302D01*
X162396340Y-92867163D01*
X162604776Y-92857515D01*
X162743549Y-92824071D01*
X162801795Y-92810034D01*
X162801797Y-92810033D01*
X162807628Y-92808628D01*
X162813086Y-92806146D01*
X162813090Y-92806145D01*
X162978144Y-92731099D01*
X162997576Y-92722264D01*
X163088398Y-92657839D01*
X163126677Y-92630686D01*
X163193811Y-92607588D01*
X163262776Y-92624452D01*
X163282156Y-92638290D01*
X163312113Y-92664285D01*
X163492726Y-92768772D01*
X163566732Y-92794471D01*
X163684182Y-92835257D01*
X163684186Y-92835258D01*
X163689839Y-92837221D01*
X163809597Y-92854586D01*
X163890400Y-92866302D01*
X163890403Y-92866302D01*
X163896340Y-92867163D01*
X164104776Y-92857515D01*
X164243549Y-92824071D01*
X164301795Y-92810034D01*
X164301797Y-92810033D01*
X164307628Y-92808628D01*
X164313086Y-92806146D01*
X164313090Y-92806145D01*
X164478144Y-92731099D01*
X164497576Y-92722264D01*
X164588398Y-92657839D01*
X164626677Y-92630686D01*
X164693811Y-92607588D01*
X164762776Y-92624452D01*
G37*
%TD.AperFunction*%
%TA.AperFunction,Conductor*%
G36*
X167200393Y-68062114D02*
G01*
X167257229Y-68104661D01*
X167263791Y-68114330D01*
X167334501Y-68229719D01*
X167486147Y-68404784D01*
X167664349Y-68552730D01*
X167864322Y-68669584D01*
X168080694Y-68752209D01*
X168085760Y-68753240D01*
X168085761Y-68753240D01*
X168138846Y-68764040D01*
X168307656Y-68798385D01*
X168438324Y-68803176D01*
X168533949Y-68806683D01*
X168533953Y-68806683D01*
X168539113Y-68806872D01*
X168544233Y-68806216D01*
X168544235Y-68806216D01*
X168617270Y-68796860D01*
X168768847Y-68777442D01*
X168773795Y-68775957D01*
X168773802Y-68775956D01*
X168985747Y-68712369D01*
X168990690Y-68710886D01*
X169015067Y-68698944D01*
X169085040Y-68686937D01*
X169150398Y-68714666D01*
X169190388Y-68773329D01*
X169196500Y-68812095D01*
X169196500Y-70473134D01*
X169203255Y-70535316D01*
X169254385Y-70671705D01*
X169341739Y-70788261D01*
X169458295Y-70875615D01*
X169594684Y-70926745D01*
X169602536Y-70927598D01*
X169602540Y-70927599D01*
X169646059Y-70932326D01*
X169711622Y-70959568D01*
X169752048Y-71017931D01*
X169754504Y-71088885D01*
X169733321Y-71133097D01*
X169677728Y-71207360D01*
X169574315Y-71396746D01*
X169551546Y-71457792D01*
X169521373Y-71538691D01*
X169498908Y-71598921D01*
X169453041Y-71809770D01*
X169445470Y-71915631D01*
X169439988Y-71992275D01*
X169438808Y-72002675D01*
X169437690Y-72009851D01*
X169437690Y-72009855D01*
X169436309Y-72018724D01*
X169437473Y-72027626D01*
X169437473Y-72027628D01*
X169440436Y-72050283D01*
X169441500Y-72066621D01*
X169441500Y-72655975D01*
X169421498Y-72724096D01*
X169367842Y-72770589D01*
X169297568Y-72780693D01*
X169232988Y-72751199D01*
X169195976Y-72695850D01*
X169173413Y-72628219D01*
X169167238Y-72615038D01*
X169081937Y-72477193D01*
X169072901Y-72465792D01*
X168958170Y-72351261D01*
X168946759Y-72342249D01*
X168808755Y-72257182D01*
X168795577Y-72251038D01*
X168641284Y-72199861D01*
X168627919Y-72196995D01*
X168533561Y-72187328D01*
X168527144Y-72187000D01*
X168127115Y-72187000D01*
X168111876Y-72191475D01*
X168110671Y-72192865D01*
X168109000Y-72200548D01*
X168109000Y-74609885D01*
X168113475Y-74625124D01*
X168114865Y-74626329D01*
X168122548Y-74628000D01*
X168527096Y-74628000D01*
X168533611Y-74627663D01*
X168629203Y-74617744D01*
X168642602Y-74614850D01*
X168796783Y-74563412D01*
X168809962Y-74557238D01*
X168947807Y-74471937D01*
X168959208Y-74462901D01*
X169073739Y-74348170D01*
X169082751Y-74336759D01*
X169167818Y-74198755D01*
X169173962Y-74185577D01*
X169195907Y-74119417D01*
X169236338Y-74061057D01*
X169301902Y-74033820D01*
X169371784Y-74046354D01*
X169423795Y-74094678D01*
X169441500Y-74159084D01*
X169441500Y-75629392D01*
X169421498Y-75697513D01*
X169367842Y-75744006D01*
X169297568Y-75754110D01*
X169232988Y-75724616D01*
X169195977Y-75669269D01*
X169173870Y-75603008D01*
X169173869Y-75603006D01*
X169171550Y-75596055D01*
X169078478Y-75445652D01*
X168953303Y-75320695D01*
X168947072Y-75316854D01*
X168808968Y-75231725D01*
X168808966Y-75231724D01*
X168802738Y-75227885D01*
X168642254Y-75174655D01*
X168641389Y-75174368D01*
X168641387Y-75174368D01*
X168634861Y-75172203D01*
X168628025Y-75171503D01*
X168628022Y-75171502D01*
X168584969Y-75167091D01*
X168530400Y-75161500D01*
X167179600Y-75161500D01*
X167176354Y-75161837D01*
X167176350Y-75161837D01*
X167080693Y-75171762D01*
X167080689Y-75171763D01*
X167073835Y-75172474D01*
X167067299Y-75174655D01*
X167067297Y-75174655D01*
X166959669Y-75210563D01*
X166906055Y-75228450D01*
X166755652Y-75321522D01*
X166630695Y-75446697D01*
X166626855Y-75452927D01*
X166626854Y-75452928D01*
X166600479Y-75495717D01*
X166537885Y-75597262D01*
X166482203Y-75765139D01*
X166471500Y-75869600D01*
X166471500Y-76895400D01*
X166482474Y-77001165D01*
X166484655Y-77007701D01*
X166484655Y-77007703D01*
X166504190Y-77066255D01*
X166538450Y-77168945D01*
X166631522Y-77319348D01*
X166756697Y-77444305D01*
X166762927Y-77448145D01*
X166762928Y-77448146D01*
X166892167Y-77527810D01*
X166907262Y-77537115D01*
X166987419Y-77563702D01*
X167045778Y-77604131D01*
X167073015Y-77669695D01*
X167073014Y-77696902D01*
X167066500Y-77756866D01*
X167066500Y-79653134D01*
X167073255Y-79715316D01*
X167124385Y-79851705D01*
X167211739Y-79968261D01*
X167328295Y-80055615D01*
X167336704Y-80058767D01*
X167336705Y-80058768D01*
X167396164Y-80081058D01*
X167452929Y-80123699D01*
X167477629Y-80190261D01*
X167462422Y-80259609D01*
X167443029Y-80286091D01*
X167376639Y-80355564D01*
X167360726Y-80378891D01*
X167324835Y-80431505D01*
X167269923Y-80476507D01*
X167220747Y-80486500D01*
X165417595Y-80486500D01*
X165343536Y-80462437D01*
X165337106Y-80457765D01*
X165337099Y-80457761D01*
X165331760Y-80453882D01*
X165325732Y-80451198D01*
X165325730Y-80451197D01*
X165163327Y-80378891D01*
X165163326Y-80378891D01*
X165157296Y-80376206D01*
X165060184Y-80355564D01*
X164976952Y-80337872D01*
X164976947Y-80337872D01*
X164970495Y-80336500D01*
X164779521Y-80336500D01*
X164773069Y-80337872D01*
X164773064Y-80337872D01*
X164689832Y-80355564D01*
X164592720Y-80376206D01*
X164586690Y-80378891D01*
X164586689Y-80378891D01*
X164424286Y-80451197D01*
X164424284Y-80451198D01*
X164418256Y-80453882D01*
X164412915Y-80457762D01*
X164412914Y-80457763D01*
X164387115Y-80476507D01*
X164263755Y-80566134D01*
X164259334Y-80571044D01*
X164259333Y-80571045D01*
X164248119Y-80583500D01*
X164135968Y-80708056D01*
X164040481Y-80873444D01*
X163981466Y-81055072D01*
X163961504Y-81245000D01*
X163981466Y-81434928D01*
X164040481Y-81616556D01*
X164135968Y-81781944D01*
X164263755Y-81923866D01*
X164362851Y-81995864D01*
X164412912Y-82032235D01*
X164418256Y-82036118D01*
X164424284Y-82038802D01*
X164424286Y-82038803D01*
X164524952Y-82083622D01*
X164592720Y-82113794D01*
X164686120Y-82133647D01*
X164773064Y-82152128D01*
X164773069Y-82152128D01*
X164779521Y-82153500D01*
X164970495Y-82153500D01*
X164976947Y-82152128D01*
X164976952Y-82152128D01*
X165063895Y-82133647D01*
X165157296Y-82113794D01*
X165225064Y-82083622D01*
X165325730Y-82038803D01*
X165325732Y-82038802D01*
X165331760Y-82036118D01*
X165337099Y-82032239D01*
X165337106Y-82032235D01*
X165343536Y-82027563D01*
X165417595Y-82003500D01*
X167217230Y-82003500D01*
X167285351Y-82023502D01*
X167324662Y-82063665D01*
X167331798Y-82075309D01*
X167331801Y-82075314D01*
X167334501Y-82079719D01*
X167486147Y-82254784D01*
X167664349Y-82402730D01*
X167864322Y-82519584D01*
X167869147Y-82521426D01*
X167869148Y-82521427D01*
X167915471Y-82539116D01*
X168080694Y-82602209D01*
X168085755Y-82603239D01*
X168085770Y-82603243D01*
X168263246Y-82639351D01*
X168326011Y-82672532D01*
X168360873Y-82734380D01*
X168356107Y-82807050D01*
X168326029Y-82887282D01*
X168326027Y-82887288D01*
X168323255Y-82894684D01*
X168316500Y-82956866D01*
X168316500Y-84453134D01*
X168323255Y-84515316D01*
X168374385Y-84651705D01*
X168461739Y-84768261D01*
X168578295Y-84855615D01*
X168714684Y-84906745D01*
X168776866Y-84913500D01*
X168843105Y-84913500D01*
X168911226Y-84933502D01*
X168957719Y-84987158D01*
X168967823Y-85057432D01*
X168938329Y-85122012D01*
X168919811Y-85139460D01*
X168903689Y-85151831D01*
X168758503Y-85311389D01*
X168755522Y-85316141D01*
X168648063Y-85487445D01*
X168643866Y-85494135D01*
X168563403Y-85694293D01*
X168519656Y-85905537D01*
X168516500Y-85960275D01*
X168516500Y-86499735D01*
X168530792Y-86659872D01*
X168587716Y-86867952D01*
X168680589Y-87062663D01*
X168806474Y-87237851D01*
X168961392Y-87387977D01*
X169140447Y-87508297D01*
X169184239Y-87527520D01*
X169238572Y-87573215D01*
X169259577Y-87641033D01*
X169240583Y-87709441D01*
X169222764Y-87731910D01*
X169103366Y-87851516D01*
X169103362Y-87851521D01*
X169098195Y-87856697D01*
X169094355Y-87862927D01*
X169094354Y-87862928D01*
X169010729Y-87998593D01*
X169005385Y-88007262D01*
X169001943Y-88017640D01*
X168957815Y-88150683D01*
X168949703Y-88175139D01*
X168949003Y-88181975D01*
X168949002Y-88181978D01*
X168948312Y-88188715D01*
X168939000Y-88279600D01*
X168939000Y-89630400D01*
X168939337Y-89633646D01*
X168939337Y-89633650D01*
X168949252Y-89729203D01*
X168949974Y-89736165D01*
X169005950Y-89903945D01*
X169099022Y-90054348D01*
X169224197Y-90179305D01*
X169230427Y-90183145D01*
X169230428Y-90183146D01*
X169367590Y-90267694D01*
X169374762Y-90272115D01*
X169397362Y-90279611D01*
X169536111Y-90325632D01*
X169536113Y-90325632D01*
X169542639Y-90327797D01*
X169549475Y-90328497D01*
X169549478Y-90328498D01*
X169592531Y-90332909D01*
X169647100Y-90338500D01*
X170672900Y-90338500D01*
X170676146Y-90338163D01*
X170676150Y-90338163D01*
X170771807Y-90328238D01*
X170771811Y-90328237D01*
X170778665Y-90327526D01*
X170785201Y-90325345D01*
X170785203Y-90325345D01*
X170922283Y-90279611D01*
X170946445Y-90271550D01*
X171096848Y-90178478D01*
X171221805Y-90053303D01*
X171235324Y-90031372D01*
X171310775Y-89908968D01*
X171310776Y-89908966D01*
X171314615Y-89902738D01*
X171367696Y-89742703D01*
X171368132Y-89741389D01*
X171368132Y-89741387D01*
X171370297Y-89734861D01*
X171381000Y-89630400D01*
X171381000Y-89627096D01*
X171914500Y-89627096D01*
X171914837Y-89633611D01*
X171924756Y-89729203D01*
X171927650Y-89742602D01*
X171979088Y-89896783D01*
X171985262Y-89909962D01*
X172070563Y-90047807D01*
X172079599Y-90059208D01*
X172194330Y-90173739D01*
X172205741Y-90182751D01*
X172343745Y-90267818D01*
X172356923Y-90273962D01*
X172511216Y-90325139D01*
X172524581Y-90328005D01*
X172618939Y-90337672D01*
X172625355Y-90338000D01*
X172862885Y-90338000D01*
X172878124Y-90333525D01*
X172879329Y-90332135D01*
X172881000Y-90324452D01*
X172881000Y-89227115D01*
X172876525Y-89211876D01*
X172875135Y-89210671D01*
X172867452Y-89209000D01*
X171932615Y-89209000D01*
X171917376Y-89213475D01*
X171916171Y-89214865D01*
X171914500Y-89222548D01*
X171914500Y-89627096D01*
X171381000Y-89627096D01*
X171381000Y-88858871D01*
X171401002Y-88790750D01*
X171417905Y-88769776D01*
X171699405Y-88488276D01*
X171761717Y-88454250D01*
X171832532Y-88459315D01*
X171889368Y-88501862D01*
X171914179Y-88568382D01*
X171914500Y-88577371D01*
X171914500Y-88682885D01*
X171918975Y-88698124D01*
X171920365Y-88699329D01*
X171928048Y-88701000D01*
X172862885Y-88701000D01*
X172878124Y-88696525D01*
X172879329Y-88695135D01*
X172881000Y-88687452D01*
X172881000Y-85577615D01*
X172876525Y-85562376D01*
X172875135Y-85561171D01*
X172867452Y-85559500D01*
X172462904Y-85559500D01*
X172456389Y-85559837D01*
X172360797Y-85569756D01*
X172347398Y-85572650D01*
X172274376Y-85597012D01*
X172203427Y-85599596D01*
X172142343Y-85563413D01*
X172110518Y-85499948D01*
X172108500Y-85477488D01*
X172108500Y-85108033D01*
X172128502Y-85039912D01*
X172182158Y-84993419D01*
X172252432Y-84983315D01*
X172274167Y-84988440D01*
X172348611Y-85013132D01*
X172348613Y-85013132D01*
X172355139Y-85015297D01*
X172361975Y-85015997D01*
X172361978Y-85015998D01*
X172405031Y-85020409D01*
X172459600Y-85026000D01*
X173810400Y-85026000D01*
X173813646Y-85025663D01*
X173813650Y-85025663D01*
X173909307Y-85015738D01*
X173909311Y-85015737D01*
X173916165Y-85015026D01*
X173922707Y-85012843D01*
X173922709Y-85012843D01*
X174025623Y-84978508D01*
X174096573Y-84975922D01*
X174157657Y-85012106D01*
X174189482Y-85075570D01*
X174191500Y-85098031D01*
X174191500Y-85487445D01*
X174171498Y-85555566D01*
X174117842Y-85602059D01*
X174047568Y-85612163D01*
X174025833Y-85607038D01*
X173921284Y-85572361D01*
X173907919Y-85569495D01*
X173813561Y-85559828D01*
X173807144Y-85559500D01*
X173407115Y-85559500D01*
X173391876Y-85563975D01*
X173390671Y-85565365D01*
X173389000Y-85573048D01*
X173389000Y-90319885D01*
X173393475Y-90335124D01*
X173394865Y-90336329D01*
X173402548Y-90338000D01*
X173644596Y-90338000D01*
X173651111Y-90337663D01*
X173746703Y-90327744D01*
X173760102Y-90324850D01*
X173914283Y-90273412D01*
X173927461Y-90267238D01*
X173999197Y-90222847D01*
X174067649Y-90204009D01*
X174135419Y-90225170D01*
X174180990Y-90279611D01*
X174191500Y-90329991D01*
X174191500Y-92165500D01*
X174171498Y-92233621D01*
X174117842Y-92280114D01*
X174065500Y-92291500D01*
X168104889Y-92291500D01*
X168036768Y-92271498D01*
X167990275Y-92217842D01*
X167980171Y-92147568D01*
X167988023Y-92118402D01*
X168000514Y-92087409D01*
X168003907Y-92075955D01*
X168041864Y-91881589D01*
X168042935Y-91872769D01*
X168043000Y-91870111D01*
X168043000Y-91692115D01*
X168038525Y-91676876D01*
X168037135Y-91675671D01*
X168029452Y-91674000D01*
X166822000Y-91674000D01*
X166753879Y-91653998D01*
X166707386Y-91600342D01*
X166696000Y-91548000D01*
X166696000Y-91147885D01*
X167204000Y-91147885D01*
X167208475Y-91163124D01*
X167209865Y-91164329D01*
X167217548Y-91166000D01*
X168024885Y-91166000D01*
X168040124Y-91161525D01*
X168041329Y-91160135D01*
X168043000Y-91152452D01*
X168043000Y-91020880D01*
X168042715Y-91014903D01*
X168028733Y-90868355D01*
X168026473Y-90856617D01*
X167971142Y-90668013D01*
X167966701Y-90656910D01*
X167876701Y-90482162D01*
X167870251Y-90472116D01*
X167748826Y-90317534D01*
X167740589Y-90308885D01*
X167592127Y-90180055D01*
X167582403Y-90173120D01*
X167412261Y-90074690D01*
X167401397Y-90069716D01*
X167217022Y-90005690D01*
X167207992Y-90006977D01*
X167204000Y-90020544D01*
X167204000Y-91147885D01*
X166696000Y-91147885D01*
X166696000Y-90025027D01*
X166692027Y-90011496D01*
X166682601Y-90010141D01*
X166598368Y-90030441D01*
X166587073Y-90034330D01*
X166408129Y-90115692D01*
X166397787Y-90121639D01*
X166273712Y-90209651D01*
X166206578Y-90232749D01*
X166137613Y-90215885D01*
X166118232Y-90202047D01*
X166092417Y-90179646D01*
X166087887Y-90175715D01*
X165907274Y-90071228D01*
X165799651Y-90033855D01*
X165715818Y-90004743D01*
X165715814Y-90004742D01*
X165710161Y-90002779D01*
X165579889Y-89983890D01*
X165509600Y-89973698D01*
X165509597Y-89973698D01*
X165503660Y-89972837D01*
X165295224Y-89982485D01*
X165193597Y-90006977D01*
X165098205Y-90029966D01*
X165098203Y-90029967D01*
X165092372Y-90031372D01*
X165086914Y-90033854D01*
X165086910Y-90033855D01*
X165004713Y-90071228D01*
X164902424Y-90117736D01*
X164896922Y-90121639D01*
X164773323Y-90209314D01*
X164706189Y-90232412D01*
X164637224Y-90215548D01*
X164617842Y-90201709D01*
X164592417Y-90179646D01*
X164587887Y-90175715D01*
X164407274Y-90071228D01*
X164299651Y-90033855D01*
X164215818Y-90004743D01*
X164215814Y-90004742D01*
X164210161Y-90002779D01*
X164079889Y-89983890D01*
X164009600Y-89973698D01*
X164009597Y-89973698D01*
X164003660Y-89972837D01*
X163795224Y-89982485D01*
X163693597Y-90006977D01*
X163598205Y-90029966D01*
X163598203Y-90029967D01*
X163592372Y-90031372D01*
X163586914Y-90033854D01*
X163586910Y-90033855D01*
X163504713Y-90071228D01*
X163402424Y-90117736D01*
X163396922Y-90121639D01*
X163273323Y-90209314D01*
X163206189Y-90232412D01*
X163137224Y-90215548D01*
X163117840Y-90201707D01*
X163102370Y-90188282D01*
X163067801Y-90139502D01*
X163052200Y-90100098D01*
X163048355Y-90088870D01*
X163044235Y-90074690D01*
X163036018Y-90046407D01*
X163026576Y-90030441D01*
X163025707Y-90028972D01*
X163017012Y-90011224D01*
X163009552Y-89992383D01*
X162983564Y-89956613D01*
X162977048Y-89946693D01*
X162958580Y-89915465D01*
X162958578Y-89915462D01*
X162954542Y-89908638D01*
X162940221Y-89894317D01*
X162927380Y-89879283D01*
X162920131Y-89869306D01*
X162915472Y-89862893D01*
X162881395Y-89834702D01*
X162872626Y-89826722D01*
X161969498Y-88923593D01*
X161935474Y-88861283D01*
X161940539Y-88790467D01*
X161983086Y-88733632D01*
X162049606Y-88708821D01*
X162058595Y-88708500D01*
X165921750Y-88708500D01*
X165942655Y-88710246D01*
X165957656Y-88712770D01*
X165957659Y-88712770D01*
X165962448Y-88713576D01*
X165968687Y-88713652D01*
X165970140Y-88713670D01*
X165970143Y-88713670D01*
X165975000Y-88713729D01*
X165989790Y-88711611D01*
X165998643Y-88710662D01*
X166185742Y-88697280D01*
X166190230Y-88696959D01*
X166254928Y-88682885D01*
X166396682Y-88652049D01*
X166396689Y-88652047D01*
X166401079Y-88651092D01*
X166405294Y-88649520D01*
X166405297Y-88649519D01*
X166502167Y-88613388D01*
X166603254Y-88575685D01*
X166792640Y-88472272D01*
X166965381Y-88342960D01*
X167117960Y-88190381D01*
X167247272Y-88017640D01*
X167350685Y-87828254D01*
X167402657Y-87688910D01*
X167424519Y-87630297D01*
X167424520Y-87630294D01*
X167426092Y-87626079D01*
X167447533Y-87527518D01*
X167471003Y-87419624D01*
X167471959Y-87415230D01*
X167484459Y-87240465D01*
X167485884Y-87228554D01*
X167487769Y-87217352D01*
X167487770Y-87217345D01*
X167488576Y-87212552D01*
X167488729Y-87200000D01*
X167484773Y-87172376D01*
X167483500Y-87154514D01*
X167483500Y-84103250D01*
X167485246Y-84082345D01*
X167487770Y-84067344D01*
X167487770Y-84067341D01*
X167488576Y-84062552D01*
X167488729Y-84050000D01*
X167486611Y-84035210D01*
X167485662Y-84026357D01*
X167472280Y-83839258D01*
X167471959Y-83834770D01*
X167426092Y-83623921D01*
X167403628Y-83563691D01*
X167352258Y-83425964D01*
X167350685Y-83421746D01*
X167247272Y-83232360D01*
X167117960Y-83059619D01*
X166965381Y-82907040D01*
X166792640Y-82777728D01*
X166603254Y-82674315D01*
X166412702Y-82603243D01*
X166405297Y-82600481D01*
X166405294Y-82600480D01*
X166401079Y-82598908D01*
X166396689Y-82597953D01*
X166396682Y-82597951D01*
X166241771Y-82564253D01*
X166190230Y-82553041D01*
X166015465Y-82540541D01*
X166003554Y-82539116D01*
X165992352Y-82537231D01*
X165992345Y-82537230D01*
X165987552Y-82536424D01*
X165981276Y-82536348D01*
X165979860Y-82536330D01*
X165979857Y-82536330D01*
X165975000Y-82536271D01*
X165955134Y-82539116D01*
X165947376Y-82540227D01*
X165929514Y-82541500D01*
X158978250Y-82541500D01*
X158957345Y-82539754D01*
X158942344Y-82537230D01*
X158942341Y-82537230D01*
X158937552Y-82536424D01*
X158931313Y-82536348D01*
X158929860Y-82536330D01*
X158929857Y-82536330D01*
X158925000Y-82536271D01*
X158910210Y-82538389D01*
X158901357Y-82539338D01*
X158714258Y-82552720D01*
X158709770Y-82553041D01*
X158658229Y-82564253D01*
X158503318Y-82597951D01*
X158503311Y-82597953D01*
X158498921Y-82598908D01*
X158494706Y-82600480D01*
X158494703Y-82600481D01*
X158487298Y-82603243D01*
X158296746Y-82674315D01*
X158107360Y-82777728D01*
X157934619Y-82907040D01*
X157782040Y-83059619D01*
X157652728Y-83232360D01*
X157650569Y-83236314D01*
X157620087Y-83292137D01*
X157569885Y-83342339D01*
X157500511Y-83357430D01*
X157433991Y-83332619D01*
X157391444Y-83275783D01*
X157383500Y-83231751D01*
X157383500Y-82649802D01*
X157403502Y-82581681D01*
X157433935Y-82548976D01*
X157443910Y-82541500D01*
X157488261Y-82508261D01*
X157575615Y-82391705D01*
X157626745Y-82255316D01*
X157633500Y-82193134D01*
X157633500Y-80296866D01*
X157626745Y-80234684D01*
X157575615Y-80098295D01*
X157488261Y-79981739D01*
X157405596Y-79919785D01*
X157363081Y-79862926D01*
X157358055Y-79792107D01*
X157392221Y-79729709D01*
X157497636Y-79624660D01*
X157497640Y-79624655D01*
X157501303Y-79621005D01*
X157510183Y-79608648D01*
X157540811Y-79566024D01*
X157636458Y-79432917D01*
X157707955Y-79288254D01*
X157736784Y-79229922D01*
X157736785Y-79229920D01*
X157739078Y-79225280D01*
X157806408Y-79003671D01*
X157836640Y-78774041D01*
X157836892Y-78763729D01*
X157838245Y-78708365D01*
X157838245Y-78708361D01*
X157838327Y-78705000D01*
X157831629Y-78623526D01*
X157819773Y-78479318D01*
X157819772Y-78479312D01*
X157819349Y-78474167D01*
X157762925Y-78249533D01*
X157760866Y-78244797D01*
X157672630Y-78041868D01*
X157672628Y-78041865D01*
X157670570Y-78037131D01*
X157544764Y-77842665D01*
X157388887Y-77671358D01*
X157384836Y-77668159D01*
X157384832Y-77668155D01*
X157243907Y-77556860D01*
X157202844Y-77498943D01*
X157199242Y-77477385D01*
X157703999Y-77477385D01*
X157708474Y-77492624D01*
X157709864Y-77493829D01*
X157717547Y-77495500D01*
X158122095Y-77495500D01*
X158128610Y-77495163D01*
X158224202Y-77485244D01*
X158237601Y-77482350D01*
X158391782Y-77430912D01*
X158404961Y-77424738D01*
X158542806Y-77339437D01*
X158554207Y-77330401D01*
X158640733Y-77243724D01*
X159236309Y-77243724D01*
X159237792Y-77255062D01*
X159238535Y-77262406D01*
X159253041Y-77465230D01*
X159259626Y-77495500D01*
X159289467Y-77632678D01*
X159298908Y-77676079D01*
X159300480Y-77680294D01*
X159300481Y-77680297D01*
X159322343Y-77738910D01*
X159374315Y-77878254D01*
X159477728Y-78067640D01*
X159607040Y-78240381D01*
X159759619Y-78392960D01*
X159932360Y-78522272D01*
X160121746Y-78625685D01*
X160222833Y-78663388D01*
X160319703Y-78699519D01*
X160319706Y-78699520D01*
X160323921Y-78701092D01*
X160328311Y-78702047D01*
X160328318Y-78702049D01*
X160483229Y-78735747D01*
X160534770Y-78746959D01*
X160709535Y-78759459D01*
X160721446Y-78760884D01*
X160732648Y-78762769D01*
X160732655Y-78762770D01*
X160737448Y-78763576D01*
X160743724Y-78763653D01*
X160745140Y-78763670D01*
X160745143Y-78763670D01*
X160750000Y-78763729D01*
X160777624Y-78759773D01*
X160795486Y-78758500D01*
X164096750Y-78758500D01*
X164117655Y-78760246D01*
X164132656Y-78762770D01*
X164132659Y-78762770D01*
X164137448Y-78763576D01*
X164143687Y-78763652D01*
X164145140Y-78763670D01*
X164145143Y-78763670D01*
X164150000Y-78763729D01*
X164164790Y-78761611D01*
X164173643Y-78760662D01*
X164360742Y-78747280D01*
X164365230Y-78746959D01*
X164416771Y-78735747D01*
X164571682Y-78702049D01*
X164571689Y-78702047D01*
X164576079Y-78701092D01*
X164580294Y-78699520D01*
X164580297Y-78699519D01*
X164677167Y-78663388D01*
X164778254Y-78625685D01*
X164967640Y-78522272D01*
X165140381Y-78392960D01*
X165292960Y-78240381D01*
X165422272Y-78067640D01*
X165525685Y-77878254D01*
X165577657Y-77738910D01*
X165599519Y-77680297D01*
X165599520Y-77680294D01*
X165601092Y-77676079D01*
X165610534Y-77632678D01*
X165640374Y-77495500D01*
X165646959Y-77465230D01*
X165659459Y-77290465D01*
X165660884Y-77278554D01*
X165662769Y-77267352D01*
X165662770Y-77267345D01*
X165663576Y-77262552D01*
X165663653Y-77256276D01*
X165663670Y-77254860D01*
X165663670Y-77254857D01*
X165663729Y-77250000D01*
X165659773Y-77222376D01*
X165658500Y-77204514D01*
X165658500Y-73917096D01*
X166472000Y-73917096D01*
X166472337Y-73923611D01*
X166482256Y-74019203D01*
X166485150Y-74032602D01*
X166536588Y-74186783D01*
X166542762Y-74199962D01*
X166628063Y-74337807D01*
X166637099Y-74349208D01*
X166751830Y-74463739D01*
X166763241Y-74472751D01*
X166901245Y-74557818D01*
X166914423Y-74563962D01*
X167068716Y-74615139D01*
X167082081Y-74618005D01*
X167176439Y-74627672D01*
X167182855Y-74628000D01*
X167582885Y-74628000D01*
X167598124Y-74623525D01*
X167599329Y-74622135D01*
X167601000Y-74614452D01*
X167601000Y-73679615D01*
X167596525Y-73664376D01*
X167595135Y-73663171D01*
X167587452Y-73661500D01*
X166490115Y-73661500D01*
X166474876Y-73665975D01*
X166473671Y-73667365D01*
X166472000Y-73675048D01*
X166472000Y-73917096D01*
X165658500Y-73917096D01*
X165658500Y-73903250D01*
X165660246Y-73882345D01*
X165662770Y-73867344D01*
X165662770Y-73867341D01*
X165663576Y-73862552D01*
X165663729Y-73850000D01*
X165661611Y-73835210D01*
X165660662Y-73826357D01*
X165647280Y-73639258D01*
X165646959Y-73634770D01*
X165601092Y-73423921D01*
X165578628Y-73363691D01*
X165527258Y-73225964D01*
X165525685Y-73221746D01*
X165478528Y-73135385D01*
X166472000Y-73135385D01*
X166476475Y-73150624D01*
X166477865Y-73151829D01*
X166485548Y-73153500D01*
X167582885Y-73153500D01*
X167598124Y-73149025D01*
X167599329Y-73147635D01*
X167601000Y-73139952D01*
X167601000Y-72205115D01*
X167596525Y-72189876D01*
X167595135Y-72188671D01*
X167587452Y-72187000D01*
X167182904Y-72187000D01*
X167176389Y-72187337D01*
X167080797Y-72197256D01*
X167067398Y-72200150D01*
X166913217Y-72251588D01*
X166900038Y-72257762D01*
X166762193Y-72343063D01*
X166750792Y-72352099D01*
X166636261Y-72466830D01*
X166627249Y-72478241D01*
X166542182Y-72616245D01*
X166536038Y-72629423D01*
X166484861Y-72783716D01*
X166481995Y-72797081D01*
X166472328Y-72891439D01*
X166472000Y-72897856D01*
X166472000Y-73135385D01*
X165478528Y-73135385D01*
X165422272Y-73032360D01*
X165292960Y-72859619D01*
X165140381Y-72707040D01*
X164967640Y-72577728D01*
X164778254Y-72474315D01*
X164677166Y-72436611D01*
X164580297Y-72400481D01*
X164580294Y-72400480D01*
X164576079Y-72398908D01*
X164571689Y-72397953D01*
X164571682Y-72397951D01*
X164392701Y-72359017D01*
X164365230Y-72353041D01*
X164190465Y-72340541D01*
X164178554Y-72339116D01*
X164167352Y-72337231D01*
X164167345Y-72337230D01*
X164162552Y-72336424D01*
X164156276Y-72336348D01*
X164154860Y-72336330D01*
X164154857Y-72336330D01*
X164150000Y-72336271D01*
X164130134Y-72339116D01*
X164122376Y-72340227D01*
X164104514Y-72341500D01*
X160803250Y-72341500D01*
X160782345Y-72339754D01*
X160767344Y-72337230D01*
X160767341Y-72337230D01*
X160762552Y-72336424D01*
X160756313Y-72336348D01*
X160754860Y-72336330D01*
X160754857Y-72336330D01*
X160750000Y-72336271D01*
X160735210Y-72338389D01*
X160726357Y-72339338D01*
X160539258Y-72352720D01*
X160534770Y-72353041D01*
X160507299Y-72359017D01*
X160328318Y-72397951D01*
X160328311Y-72397953D01*
X160323921Y-72398908D01*
X160319706Y-72400480D01*
X160319703Y-72400481D01*
X160222834Y-72436611D01*
X160121746Y-72474315D01*
X159932360Y-72577728D01*
X159759619Y-72707040D01*
X159607040Y-72859619D01*
X159477728Y-73032360D01*
X159374315Y-73221746D01*
X159372742Y-73225964D01*
X159321373Y-73363691D01*
X159298908Y-73423921D01*
X159253041Y-73634770D01*
X159240301Y-73812900D01*
X159239988Y-73817275D01*
X159238808Y-73827675D01*
X159237690Y-73834851D01*
X159237690Y-73834855D01*
X159236309Y-73843724D01*
X159237473Y-73852626D01*
X159237473Y-73852628D01*
X159240436Y-73875283D01*
X159241500Y-73891621D01*
X159241500Y-77200633D01*
X159240000Y-77220018D01*
X159237690Y-77234851D01*
X159237690Y-77234855D01*
X159236309Y-77243724D01*
X158640733Y-77243724D01*
X158668738Y-77215670D01*
X158677750Y-77204259D01*
X158762817Y-77066255D01*
X158768961Y-77053077D01*
X158820138Y-76898784D01*
X158823004Y-76885419D01*
X158832671Y-76791061D01*
X158832999Y-76784645D01*
X158832999Y-76547115D01*
X158828524Y-76531876D01*
X158827134Y-76530671D01*
X158819451Y-76529000D01*
X157722114Y-76529000D01*
X157706875Y-76533475D01*
X157705670Y-76534865D01*
X157703999Y-76542548D01*
X157703999Y-77477385D01*
X157199242Y-77477385D01*
X157195999Y-77457978D01*
X157195999Y-76547115D01*
X157191524Y-76531876D01*
X157190134Y-76530671D01*
X157182451Y-76529000D01*
X156085114Y-76529000D01*
X156069875Y-76533475D01*
X156068670Y-76534865D01*
X156066999Y-76542548D01*
X156066999Y-76784596D01*
X156067336Y-76791111D01*
X156077255Y-76886703D01*
X156080149Y-76900102D01*
X156131587Y-77054283D01*
X156137761Y-77067462D01*
X156182642Y-77139989D01*
X156201480Y-77208441D01*
X156180319Y-77276211D01*
X156125878Y-77321782D01*
X156104701Y-77328861D01*
X156102571Y-77329369D01*
X156097464Y-77330150D01*
X155877314Y-77402106D01*
X155872726Y-77404494D01*
X155872722Y-77404496D01*
X155697905Y-77495500D01*
X155671872Y-77509052D01*
X155660152Y-77517852D01*
X155593669Y-77542757D01*
X155524273Y-77527765D01*
X155473999Y-77477635D01*
X155458500Y-77417091D01*
X155458500Y-76002885D01*
X156066999Y-76002885D01*
X156071474Y-76018124D01*
X156072864Y-76019329D01*
X156080547Y-76021000D01*
X157177884Y-76021000D01*
X157193123Y-76016525D01*
X157194328Y-76015135D01*
X157195999Y-76007452D01*
X157195999Y-76002885D01*
X157703999Y-76002885D01*
X157708474Y-76018124D01*
X157709864Y-76019329D01*
X157717547Y-76021000D01*
X158814884Y-76021000D01*
X158830123Y-76016525D01*
X158831328Y-76015135D01*
X158832999Y-76007452D01*
X158832999Y-75765404D01*
X158832662Y-75758889D01*
X158822743Y-75663297D01*
X158819849Y-75649898D01*
X158768411Y-75495717D01*
X158762237Y-75482538D01*
X158676936Y-75344693D01*
X158667900Y-75333292D01*
X158553169Y-75218761D01*
X158541758Y-75209749D01*
X158403754Y-75124682D01*
X158390576Y-75118538D01*
X158236283Y-75067361D01*
X158222918Y-75064495D01*
X158128560Y-75054828D01*
X158122143Y-75054500D01*
X157722114Y-75054500D01*
X157706875Y-75058975D01*
X157705670Y-75060365D01*
X157703999Y-75068048D01*
X157703999Y-76002885D01*
X157195999Y-76002885D01*
X157195999Y-75072615D01*
X157191524Y-75057376D01*
X157190134Y-75056171D01*
X157182451Y-75054500D01*
X156777903Y-75054500D01*
X156771388Y-75054837D01*
X156675796Y-75064756D01*
X156662397Y-75067650D01*
X156508216Y-75119088D01*
X156495037Y-75125262D01*
X156357192Y-75210563D01*
X156345791Y-75219599D01*
X156231260Y-75334330D01*
X156222248Y-75345741D01*
X156137181Y-75483745D01*
X156131037Y-75496923D01*
X156079860Y-75651216D01*
X156076994Y-75664581D01*
X156067327Y-75758939D01*
X156066999Y-75765356D01*
X156066999Y-76002885D01*
X155458500Y-76002885D01*
X155458500Y-72078250D01*
X155460246Y-72057345D01*
X155462770Y-72042344D01*
X155462770Y-72042341D01*
X155463576Y-72037552D01*
X155463729Y-72025000D01*
X155461611Y-72010210D01*
X155460662Y-72001357D01*
X155447280Y-71814258D01*
X155446959Y-71809770D01*
X155401092Y-71598921D01*
X155378628Y-71538691D01*
X155348454Y-71457792D01*
X155325685Y-71396746D01*
X155222272Y-71207360D01*
X155092960Y-71034619D01*
X154994141Y-70935800D01*
X154960115Y-70873488D01*
X154965180Y-70802673D01*
X155007727Y-70745837D01*
X155015953Y-70740329D01*
X155018684Y-70738991D01*
X155207243Y-70604494D01*
X155371303Y-70441005D01*
X155506458Y-70252917D01*
X155558615Y-70147386D01*
X155564183Y-70136119D01*
X155612296Y-70083912D01*
X155680998Y-70066005D01*
X155748474Y-70088083D01*
X155766235Y-70102851D01*
X157129594Y-71466210D01*
X157163620Y-71528522D01*
X157166499Y-71555305D01*
X157166499Y-71953000D01*
X157146497Y-72021121D01*
X157092841Y-72067614D01*
X157040499Y-72079000D01*
X156774599Y-72079000D01*
X156771353Y-72079337D01*
X156771349Y-72079337D01*
X156675692Y-72089262D01*
X156675688Y-72089263D01*
X156668834Y-72089974D01*
X156662298Y-72092155D01*
X156662296Y-72092155D01*
X156530194Y-72136228D01*
X156501054Y-72145950D01*
X156350651Y-72239022D01*
X156225694Y-72364197D01*
X156221854Y-72370427D01*
X156221853Y-72370428D01*
X156158786Y-72472742D01*
X156132884Y-72514762D01*
X156077202Y-72682639D01*
X156076502Y-72689475D01*
X156076501Y-72689478D01*
X156072954Y-72724096D01*
X156066499Y-72787100D01*
X156066499Y-73812900D01*
X156066836Y-73816146D01*
X156066836Y-73816150D01*
X156075874Y-73903250D01*
X156077473Y-73918665D01*
X156079654Y-73925201D01*
X156079654Y-73925203D01*
X156115892Y-74033820D01*
X156133449Y-74086445D01*
X156226521Y-74236848D01*
X156351696Y-74361805D01*
X156357926Y-74365645D01*
X156357927Y-74365646D01*
X156495089Y-74450194D01*
X156502261Y-74454615D01*
X156554486Y-74471937D01*
X156663610Y-74508132D01*
X156663612Y-74508132D01*
X156670138Y-74510297D01*
X156676974Y-74510997D01*
X156676977Y-74510998D01*
X156720030Y-74515409D01*
X156774599Y-74521000D01*
X158125399Y-74521000D01*
X158128645Y-74520663D01*
X158128649Y-74520663D01*
X158224306Y-74510738D01*
X158224310Y-74510737D01*
X158231164Y-74510026D01*
X158237700Y-74507845D01*
X158237702Y-74507845D01*
X158372414Y-74462901D01*
X158398944Y-74454050D01*
X158549347Y-74360978D01*
X158674304Y-74235803D01*
X158697141Y-74198755D01*
X158763274Y-74091468D01*
X158763275Y-74091466D01*
X158767114Y-74085238D01*
X158822796Y-73917361D01*
X158825321Y-73892723D01*
X158828412Y-73862552D01*
X158833499Y-73812900D01*
X158833499Y-72787100D01*
X158825192Y-72707040D01*
X158823237Y-72688193D01*
X158823236Y-72688189D01*
X158822525Y-72681335D01*
X158766549Y-72513555D01*
X158673477Y-72363152D01*
X158650038Y-72339754D01*
X158570481Y-72260335D01*
X158536402Y-72198052D01*
X158533499Y-72171162D01*
X158533499Y-71444500D01*
X158553501Y-71376379D01*
X158607157Y-71329886D01*
X158659499Y-71318500D01*
X159477900Y-71318500D01*
X159481146Y-71318163D01*
X159481150Y-71318163D01*
X159576807Y-71308238D01*
X159576811Y-71308237D01*
X159583665Y-71307526D01*
X159590201Y-71305345D01*
X159590203Y-71305345D01*
X159744497Y-71253868D01*
X159751445Y-71251550D01*
X159901848Y-71158478D01*
X160026805Y-71033303D01*
X160030839Y-71026759D01*
X160115775Y-70888968D01*
X160115776Y-70888966D01*
X160119615Y-70882738D01*
X160165023Y-70745837D01*
X160173132Y-70721389D01*
X160173132Y-70721387D01*
X160175297Y-70714861D01*
X160176009Y-70707919D01*
X160185672Y-70613598D01*
X160186000Y-70610400D01*
X160186000Y-70607096D01*
X160719500Y-70607096D01*
X160719837Y-70613611D01*
X160729756Y-70709203D01*
X160732650Y-70722602D01*
X160784088Y-70876783D01*
X160790262Y-70889962D01*
X160875563Y-71027807D01*
X160884599Y-71039208D01*
X160999330Y-71153739D01*
X161010741Y-71162751D01*
X161148745Y-71247818D01*
X161161923Y-71253962D01*
X161316216Y-71305139D01*
X161329581Y-71308005D01*
X161423939Y-71317672D01*
X161430355Y-71318000D01*
X161667885Y-71318000D01*
X161683124Y-71313525D01*
X161684329Y-71312135D01*
X161686000Y-71304452D01*
X161686000Y-71299885D01*
X162194000Y-71299885D01*
X162198475Y-71315124D01*
X162199865Y-71316329D01*
X162207548Y-71318000D01*
X162449596Y-71318000D01*
X162456111Y-71317663D01*
X162551703Y-71307744D01*
X162565102Y-71304850D01*
X162719283Y-71253412D01*
X162732462Y-71247238D01*
X162870307Y-71161937D01*
X162881708Y-71152901D01*
X162996239Y-71038170D01*
X163005251Y-71026759D01*
X163090318Y-70888755D01*
X163096462Y-70875577D01*
X163147639Y-70721284D01*
X163150505Y-70707919D01*
X163160172Y-70613561D01*
X163160500Y-70607145D01*
X163160500Y-70207115D01*
X163156025Y-70191876D01*
X163154635Y-70190671D01*
X163146952Y-70189000D01*
X162212115Y-70189000D01*
X162196876Y-70193475D01*
X162195671Y-70194865D01*
X162194000Y-70202548D01*
X162194000Y-71299885D01*
X161686000Y-71299885D01*
X161686000Y-70207115D01*
X161681525Y-70191876D01*
X161680135Y-70190671D01*
X161672452Y-70189000D01*
X160737615Y-70189000D01*
X160722376Y-70193475D01*
X160721171Y-70194865D01*
X160719500Y-70202548D01*
X160719500Y-70607096D01*
X160186000Y-70607096D01*
X160186000Y-69259600D01*
X160175882Y-69162081D01*
X160175738Y-69160693D01*
X160175737Y-69160689D01*
X160175026Y-69153835D01*
X160119050Y-68986055D01*
X160025978Y-68835652D01*
X159997148Y-68806872D01*
X159963891Y-68773673D01*
X159929812Y-68711390D01*
X159934815Y-68640570D01*
X159977312Y-68583698D01*
X160043811Y-68558829D01*
X160052909Y-68558500D01*
X160852798Y-68558500D01*
X160920919Y-68578502D01*
X160967412Y-68632158D01*
X160977516Y-68702432D01*
X160948022Y-68767012D01*
X160941971Y-68773517D01*
X160883765Y-68831825D01*
X160874749Y-68843241D01*
X160789682Y-68981245D01*
X160783538Y-68994423D01*
X160732361Y-69148716D01*
X160729495Y-69162081D01*
X160719828Y-69256439D01*
X160719500Y-69262856D01*
X160719500Y-69662885D01*
X160723975Y-69678124D01*
X160725365Y-69679329D01*
X160733048Y-69681000D01*
X163142385Y-69681000D01*
X163157624Y-69676525D01*
X163158829Y-69675135D01*
X163160500Y-69667452D01*
X163160500Y-69262904D01*
X163160163Y-69256389D01*
X163150244Y-69160797D01*
X163147350Y-69147398D01*
X163095912Y-68993217D01*
X163089738Y-68980038D01*
X163004437Y-68842193D01*
X162995401Y-68830792D01*
X162938182Y-68773673D01*
X162904103Y-68711391D01*
X162909106Y-68640571D01*
X162951603Y-68583698D01*
X163018101Y-68558829D01*
X163027200Y-68558500D01*
X165921750Y-68558500D01*
X165942655Y-68560246D01*
X165957656Y-68562770D01*
X165957659Y-68562770D01*
X165962448Y-68563576D01*
X165968687Y-68563652D01*
X165970140Y-68563670D01*
X165970143Y-68563670D01*
X165975000Y-68563729D01*
X165989790Y-68561611D01*
X165998643Y-68560662D01*
X166185742Y-68547280D01*
X166190230Y-68546959D01*
X166241771Y-68535747D01*
X166396682Y-68502049D01*
X166396689Y-68502047D01*
X166401079Y-68501092D01*
X166405294Y-68499520D01*
X166405297Y-68499519D01*
X166502167Y-68463388D01*
X166603254Y-68425685D01*
X166792640Y-68322272D01*
X166965381Y-68192960D01*
X167067266Y-68091075D01*
X167129578Y-68057049D01*
X167200393Y-68062114D01*
G37*
%TD.AperFunction*%
%TD*%
M02*
