%TF.GenerationSoftware,KiCad,Pcbnew,5.1.6-c6e7f7d~86~ubuntu18.04.1*%
%TF.CreationDate,2021-04-26T01:41:27-07:00*%
%TF.ProjectId,thumb_cluster_left,7468756d-625f-4636-9c75-737465725f6c,rev?*%
%TF.SameCoordinates,Original*%
%TF.FileFunction,Copper,L2,Bot*%
%TF.FilePolarity,Positive*%
%FSLAX46Y46*%
G04 Gerber Fmt 4.6, Leading zero omitted, Abs format (unit mm)*
G04 Created by KiCad (PCBNEW 5.1.6-c6e7f7d~86~ubuntu18.04.1) date 2021-04-26 01:41:27*
%MOMM*%
%LPD*%
G01*
G04 APERTURE LIST*
%TA.AperFunction,ComponentPad*%
%ADD10C,4.500000*%
%TD*%
%TA.AperFunction,ComponentPad*%
%ADD11O,1.870000X1.170000*%
%TD*%
%TA.AperFunction,ComponentPad*%
%ADD12C,0.100000*%
%TD*%
%TA.AperFunction,ComponentPad*%
%ADD13C,1.800000*%
%TD*%
%TA.AperFunction,ComponentPad*%
%ADD14R,1.800000X1.800000*%
%TD*%
%TA.AperFunction,ViaPad*%
%ADD15C,0.800000*%
%TD*%
%TA.AperFunction,Conductor*%
%ADD16C,0.500000*%
%TD*%
%TA.AperFunction,Conductor*%
%ADD17C,0.250000*%
%TD*%
%TA.AperFunction,Conductor*%
%ADD18C,0.254000*%
%TD*%
G04 APERTURE END LIST*
D10*
%TO.P,H2,1*%
%TO.N,GND*%
X164268872Y-66312121D03*
%TD*%
%TO.P,H1,1*%
%TO.N,GND*%
X141845155Y-91366078D03*
%TD*%
D11*
%TO.P,J1,7*%
%TO.N,GND*%
X157250000Y-78200000D03*
%TO.P,J1,6*%
%TO.N,C5*%
X157250000Y-79700000D03*
%TO.P,J1,5*%
%TO.N,C4*%
X157250000Y-81200000D03*
%TO.P,J1,4*%
%TO.N,C3*%
X157250000Y-82700000D03*
%TO.P,J1,3*%
%TO.N,C2*%
X157250000Y-84200000D03*
%TO.P,J1,2*%
%TO.N,C1*%
X157250000Y-85700000D03*
%TO.P,J1,1*%
%TO.N,+5V*%
%TA.AperFunction,ComponentPad*%
G36*
G01*
X157935001Y-87785000D02*
X156564999Y-87785000D01*
G75*
G02*
X156315000Y-87535001I0J249999D01*
G01*
X156315000Y-86864999D01*
G75*
G02*
X156564999Y-86615000I249999J0D01*
G01*
X157935001Y-86615000D01*
G75*
G02*
X158185000Y-86864999I0J-249999D01*
G01*
X158185000Y-87535001D01*
G75*
G02*
X157935001Y-87785000I-249999J0D01*
G01*
G37*
%TD.AperFunction*%
%TD*%
%TO.P,R1,2*%
%TO.N,Net-(IR1-Pad1)*%
%TA.AperFunction,SMDPad,CuDef*%
G36*
G01*
X166705000Y-105760417D02*
X167955000Y-105760417D01*
G75*
G02*
X168205000Y-106010417I0J-250000D01*
G01*
X168205000Y-106935417D01*
G75*
G02*
X167955000Y-107185417I-250000J0D01*
G01*
X166705000Y-107185417D01*
G75*
G02*
X166455000Y-106935417I0J250000D01*
G01*
X166455000Y-106010417D01*
G75*
G02*
X166705000Y-105760417I250000J0D01*
G01*
G37*
%TD.AperFunction*%
%TO.P,R1,1*%
%TO.N,GND*%
%TA.AperFunction,SMDPad,CuDef*%
G36*
G01*
X166705000Y-102785417D02*
X167955000Y-102785417D01*
G75*
G02*
X168205000Y-103035417I0J-250000D01*
G01*
X168205000Y-103960417D01*
G75*
G02*
X167955000Y-104210417I-250000J0D01*
G01*
X166705000Y-104210417D01*
G75*
G02*
X166455000Y-103960417I0J250000D01*
G01*
X166455000Y-103035417D01*
G75*
G02*
X166705000Y-102785417I250000J0D01*
G01*
G37*
%TD.AperFunction*%
%TD*%
%TA.AperFunction,ComponentPad*%
D12*
%TO.P,IR4,1*%
%TO.N,Net-(IR4-Pad1)*%
G36*
X144275062Y-79441739D02*
G01*
X143659426Y-81133185D01*
X141967980Y-80517549D01*
X142583616Y-78826103D01*
X144275062Y-79441739D01*
G37*
%TD.AperFunction*%
D13*
%TO.P,IR4,2*%
%TO.N,+5V*%
X140734702Y-79110913D03*
%TD*%
%TO.P,R5,2*%
%TO.N,Net-(IR5-Pad1)*%
%TA.AperFunction,SMDPad,CuDef*%
G36*
G01*
X137665345Y-80095510D02*
X137237819Y-81270126D01*
G75*
G02*
X136917391Y-81419544I-234923J85505D01*
G01*
X136048176Y-81103176D01*
G75*
G02*
X135898758Y-80782748I85505J234923D01*
G01*
X136326283Y-79608132D01*
G75*
G02*
X136646711Y-79458714I234923J-85505D01*
G01*
X137515926Y-79775082D01*
G75*
G02*
X137665344Y-80095510I-85505J-234923D01*
G01*
G37*
%TD.AperFunction*%
%TO.P,R5,1*%
%TO.N,GND*%
%TA.AperFunction,SMDPad,CuDef*%
G36*
G01*
X140460931Y-81113020D02*
X140033405Y-82287636D01*
G75*
G02*
X139712977Y-82437054I-234923J85505D01*
G01*
X138843762Y-82120686D01*
G75*
G02*
X138694344Y-81800258I85505J234923D01*
G01*
X139121869Y-80625642D01*
G75*
G02*
X139442297Y-80476224I234923J-85505D01*
G01*
X140311512Y-80792592D01*
G75*
G02*
X140460930Y-81113020I-85505J-234923D01*
G01*
G37*
%TD.AperFunction*%
%TD*%
%TA.AperFunction,ComponentPad*%
D12*
%TO.P,PT4,1*%
%TO.N,C4*%
G36*
X143702505Y-68325523D02*
G01*
X144318141Y-66634077D01*
X146009587Y-67249713D01*
X145393951Y-68941159D01*
X143702505Y-68325523D01*
G37*
%TD.AperFunction*%
D13*
%TO.P,PT4,2*%
%TO.N,+5V*%
X147242865Y-68656349D03*
%TD*%
%TA.AperFunction,ComponentPad*%
D12*
%TO.P,PT5,1*%
%TO.N,C5*%
G36*
X138252286Y-66341805D02*
G01*
X138867922Y-64650359D01*
X140559368Y-65265995D01*
X139943732Y-66957441D01*
X138252286Y-66341805D01*
G37*
%TD.AperFunction*%
D13*
%TO.P,PT5,2*%
%TO.N,+5V*%
X141792646Y-66672631D03*
%TD*%
%TA.AperFunction,ComponentPad*%
D12*
%TO.P,IR5,1*%
%TO.N,Net-(IR5-Pad1)*%
G36*
X138824845Y-77458024D02*
G01*
X138209209Y-79149470D01*
X136517763Y-78533834D01*
X137133399Y-76842388D01*
X138824845Y-77458024D01*
G37*
%TD.AperFunction*%
D13*
%TO.P,IR5,2*%
%TO.N,+5V*%
X135284485Y-77127198D03*
%TD*%
D14*
%TO.P,PT1,1*%
%TO.N,C1*%
X170429999Y-94422918D03*
D13*
%TO.P,PT1,2*%
%TO.N,+5V*%
X172969999Y-94422918D03*
%TD*%
%TO.P,R2,2*%
%TO.N,Net-(IR2-Pad1)*%
%TA.AperFunction,SMDPad,CuDef*%
G36*
G01*
X165624999Y-83552098D02*
X164374999Y-83552098D01*
G75*
G02*
X164124999Y-83302098I0J250000D01*
G01*
X164124999Y-82377098D01*
G75*
G02*
X164374999Y-82127098I250000J0D01*
G01*
X165624999Y-82127098D01*
G75*
G02*
X165874999Y-82377098I0J-250000D01*
G01*
X165874999Y-83302098D01*
G75*
G02*
X165624999Y-83552098I-250000J0D01*
G01*
G37*
%TD.AperFunction*%
%TO.P,R2,1*%
%TO.N,GND*%
%TA.AperFunction,SMDPad,CuDef*%
G36*
G01*
X165624999Y-86527098D02*
X164374999Y-86527098D01*
G75*
G02*
X164124999Y-86277098I0J250000D01*
G01*
X164124999Y-85352098D01*
G75*
G02*
X164374999Y-85102098I250000J0D01*
G01*
X165624999Y-85102098D01*
G75*
G02*
X165874999Y-85352098I0J-250000D01*
G01*
X165874999Y-86277098D01*
G75*
G02*
X165624999Y-86527098I-250000J0D01*
G01*
G37*
%TD.AperFunction*%
%TD*%
%TO.P,R3,2*%
%TO.N,Net-(IR3-Pad1)*%
%TA.AperFunction,SMDPad,CuDef*%
G36*
G01*
X165613979Y-78242500D02*
X164363979Y-78242500D01*
G75*
G02*
X164113979Y-77992500I0J250000D01*
G01*
X164113979Y-77067500D01*
G75*
G02*
X164363979Y-76817500I250000J0D01*
G01*
X165613979Y-76817500D01*
G75*
G02*
X165863979Y-77067500I0J-250000D01*
G01*
X165863979Y-77992500D01*
G75*
G02*
X165613979Y-78242500I-250000J0D01*
G01*
G37*
%TD.AperFunction*%
%TO.P,R3,1*%
%TO.N,GND*%
%TA.AperFunction,SMDPad,CuDef*%
G36*
G01*
X165613979Y-81217500D02*
X164363979Y-81217500D01*
G75*
G02*
X164113979Y-80967500I0J250000D01*
G01*
X164113979Y-80042500D01*
G75*
G02*
X164363979Y-79792500I250000J0D01*
G01*
X165613979Y-79792500D01*
G75*
G02*
X165863979Y-80042500I0J-250000D01*
G01*
X165863979Y-80967500D01*
G75*
G02*
X165613979Y-81217500I-250000J0D01*
G01*
G37*
%TD.AperFunction*%
%TD*%
D14*
%TO.P,IR2,1*%
%TO.N,Net-(IR2-Pad1)*%
X172969999Y-80574999D03*
D13*
%TO.P,IR2,2*%
%TO.N,+5V*%
X170429999Y-80574999D03*
%TD*%
D14*
%TO.P,PT3,1*%
%TO.N,C3*%
X147000000Y-80070000D03*
D13*
%TO.P,PT3,2*%
%TO.N,+5V*%
X147000000Y-77530000D03*
%TD*%
D14*
%TO.P,IR3,1*%
%TO.N,Net-(IR3-Pad1)*%
X167499999Y-77530000D03*
D13*
%TO.P,IR3,2*%
%TO.N,+5V*%
X167499999Y-80070000D03*
%TD*%
%TO.P,R4,2*%
%TO.N,Net-(IR4-Pad1)*%
%TA.AperFunction,SMDPad,CuDef*%
G36*
G01*
X143115564Y-82079226D02*
X142688038Y-83253842D01*
G75*
G02*
X142367610Y-83403260I-234923J85505D01*
G01*
X141498395Y-83086892D01*
G75*
G02*
X141348977Y-82766464I85505J234923D01*
G01*
X141776502Y-81591848D01*
G75*
G02*
X142096930Y-81442430I234923J-85505D01*
G01*
X142966145Y-81758798D01*
G75*
G02*
X143115563Y-82079226I-85505J-234923D01*
G01*
G37*
%TD.AperFunction*%
%TO.P,R4,1*%
%TO.N,GND*%
%TA.AperFunction,SMDPad,CuDef*%
G36*
G01*
X145911150Y-83096736D02*
X145483624Y-84271352D01*
G75*
G02*
X145163196Y-84420770I-234923J85505D01*
G01*
X144293981Y-84104402D01*
G75*
G02*
X144144563Y-83783974I85505J234923D01*
G01*
X144572088Y-82609358D01*
G75*
G02*
X144892516Y-82459940I234923J-85505D01*
G01*
X145761731Y-82776308D01*
G75*
G02*
X145911149Y-83096736I-85505J-234923D01*
G01*
G37*
%TD.AperFunction*%
%TD*%
D14*
%TO.P,IR1,1*%
%TO.N,Net-(IR1-Pad1)*%
X172969999Y-106472918D03*
D13*
%TO.P,IR1,2*%
%TO.N,+5V*%
X170429999Y-106472918D03*
%TD*%
D14*
%TO.P,PT2,1*%
%TO.N,C2*%
X170429998Y-68524999D03*
D13*
%TO.P,PT2,2*%
%TO.N,+5V*%
X172969998Y-68524999D03*
%TD*%
D15*
%TO.N,C2*%
X163345154Y-73466079D03*
%TD*%
D16*
%TO.N,Net-(IR1-Pad1)*%
X168896679Y-108039597D02*
X167330000Y-106472918D01*
X172969999Y-107622918D02*
X172553319Y-108039598D01*
X172553319Y-108039598D02*
X168896679Y-108039597D01*
X172969999Y-106472918D02*
X172969999Y-107622918D01*
%TO.N,Net-(IR2-Pad1)*%
X172970000Y-81758578D02*
X171888979Y-82839598D01*
X171888979Y-82839598D02*
X164999999Y-82839597D01*
X172969999Y-80574999D02*
X172970000Y-81758578D01*
%TO.N,Net-(IR3-Pad1)*%
X164988979Y-77529999D02*
X167499999Y-77530000D01*
%TO.N,Net-(IR4-Pad1)*%
X142232270Y-82422845D02*
X143121521Y-79979644D01*
%TO.N,Net-(IR5-Pad1)*%
X136782051Y-80439129D02*
X137671305Y-77995928D01*
D17*
%TO.N,C5*%
X140896310Y-64164828D02*
X149363898Y-67246778D01*
X149363898Y-67246778D02*
X149363900Y-67246777D01*
X139405827Y-65803900D02*
X139819671Y-64666874D01*
X139819671Y-64666874D02*
X140896310Y-64164828D01*
X149900000Y-67782880D02*
X149363898Y-67246778D01*
X149900000Y-75035001D02*
X149900000Y-67782880D01*
X154564999Y-79700000D02*
X149900000Y-75035001D01*
X157250000Y-79700000D02*
X154564999Y-79700000D01*
%TO.N,C3*%
X147000000Y-80070000D02*
X153070000Y-80070000D01*
X155700000Y-82700000D02*
X157250000Y-82700000D01*
X153070000Y-80070000D02*
X155700000Y-82700000D01*
%TO.N,C4*%
X155140000Y-81200000D02*
X149200000Y-75260000D01*
X157250000Y-81200000D02*
X155140000Y-81200000D01*
X149200000Y-75260000D02*
X149200000Y-68090975D01*
X145577500Y-66507148D02*
X145269890Y-66650588D01*
X145269890Y-66650588D02*
X144856047Y-67787617D01*
X149200000Y-68090975D02*
X148782811Y-67673786D01*
X148782811Y-67673786D02*
X145577500Y-66507148D01*
%TO.N,C2*%
X168286234Y-68524999D02*
X163345154Y-73466079D01*
X163345154Y-73466079D02*
X163345154Y-73466079D01*
X170429998Y-68524999D02*
X168286234Y-68524999D01*
%TO.N,C1*%
X157670000Y-85700000D02*
X157249999Y-85699999D01*
%TD*%
D18*
%TO.N,GND*%
G36*
X152814999Y-67836103D02*
G01*
X152818092Y-67867502D01*
X152818049Y-67873597D01*
X152819050Y-67883811D01*
X152839451Y-68077907D01*
X152852843Y-68143148D01*
X152865328Y-68208597D01*
X152868294Y-68218422D01*
X152926006Y-68404860D01*
X152951838Y-68466312D01*
X152976778Y-68528039D01*
X152981595Y-68537101D01*
X153074421Y-68708778D01*
X153111690Y-68764031D01*
X153148148Y-68819745D01*
X153154634Y-68827698D01*
X153279037Y-68978076D01*
X153326344Y-69025054D01*
X153372916Y-69072612D01*
X153380823Y-69079154D01*
X153532066Y-69202505D01*
X153587589Y-69239395D01*
X153642519Y-69277006D01*
X153651541Y-69281884D01*
X153651545Y-69281887D01*
X153651549Y-69281889D01*
X153823867Y-69373512D01*
X153885499Y-69398915D01*
X153946688Y-69425141D01*
X153956487Y-69428175D01*
X153956493Y-69428177D01*
X154143327Y-69484585D01*
X154208687Y-69497527D01*
X154273835Y-69511374D01*
X154284041Y-69512447D01*
X154478276Y-69531492D01*
X154478277Y-69531492D01*
X154513895Y-69535000D01*
X159986105Y-69534997D01*
X160017495Y-69531905D01*
X160023599Y-69531948D01*
X160033812Y-69530947D01*
X160227908Y-69510546D01*
X160293156Y-69497153D01*
X160358597Y-69484669D01*
X160368422Y-69481703D01*
X160554860Y-69423991D01*
X160616312Y-69398159D01*
X160678039Y-69373219D01*
X160687101Y-69368402D01*
X160858778Y-69275576D01*
X160914059Y-69238288D01*
X160969746Y-69201847D01*
X160977699Y-69195362D01*
X161128076Y-69070959D01*
X161175054Y-69023652D01*
X161222611Y-68977081D01*
X161229153Y-68969174D01*
X161352503Y-68817932D01*
X161389382Y-68762424D01*
X161427004Y-68707479D01*
X161431885Y-68698452D01*
X161523510Y-68526131D01*
X161548909Y-68464510D01*
X161575140Y-68403307D01*
X161578175Y-68393504D01*
X161634583Y-68206668D01*
X161647529Y-68141283D01*
X161661371Y-68076163D01*
X161662444Y-68065957D01*
X161681071Y-67875988D01*
X161684999Y-67836105D01*
X161684999Y-63435564D01*
X173667277Y-66028450D01*
X173680904Y-66030023D01*
X173741611Y-66040811D01*
X173752792Y-66045165D01*
X173762911Y-66051606D01*
X173771586Y-66059889D01*
X173778492Y-66069707D01*
X173783357Y-66080674D01*
X173786000Y-66092376D01*
X173787099Y-66133733D01*
X173786253Y-66142685D01*
X173789999Y-67101740D01*
X173789999Y-67226778D01*
X173697093Y-67164700D01*
X173417741Y-67048988D01*
X173121182Y-66989999D01*
X172818814Y-66989999D01*
X172522255Y-67048988D01*
X172242903Y-67164700D01*
X171991493Y-67332687D01*
X171925054Y-67399126D01*
X171919500Y-67380819D01*
X171860535Y-67270505D01*
X171781183Y-67173814D01*
X171684492Y-67094462D01*
X171574178Y-67035497D01*
X171454480Y-66999187D01*
X171329998Y-66986927D01*
X169529998Y-66986927D01*
X169405516Y-66999187D01*
X169285818Y-67035497D01*
X169175504Y-67094462D01*
X169078813Y-67173814D01*
X168999461Y-67270505D01*
X168940496Y-67380819D01*
X168904186Y-67500517D01*
X168891926Y-67624999D01*
X168891926Y-67764999D01*
X168323556Y-67764999D01*
X168286233Y-67761323D01*
X168248910Y-67764999D01*
X168248901Y-67764999D01*
X168137248Y-67775996D01*
X167993987Y-67819453D01*
X167861958Y-67890025D01*
X167746233Y-67984998D01*
X167722435Y-68013996D01*
X163305353Y-72431079D01*
X163243215Y-72431079D01*
X163043256Y-72470853D01*
X162854898Y-72548874D01*
X162685380Y-72662142D01*
X162541217Y-72806305D01*
X162427949Y-72975823D01*
X162349928Y-73164181D01*
X162310154Y-73364140D01*
X162310154Y-73568018D01*
X162349928Y-73767977D01*
X162427949Y-73956335D01*
X162541217Y-74125853D01*
X162685380Y-74270016D01*
X162854898Y-74383284D01*
X163043256Y-74461305D01*
X163243215Y-74501079D01*
X163447093Y-74501079D01*
X163647052Y-74461305D01*
X163835410Y-74383284D01*
X164004928Y-74270016D01*
X164149091Y-74125853D01*
X164262359Y-73956335D01*
X164340380Y-73767977D01*
X164380154Y-73568018D01*
X164380154Y-73505880D01*
X168601036Y-69284999D01*
X168891926Y-69284999D01*
X168891926Y-69424999D01*
X168904186Y-69549481D01*
X168940496Y-69669179D01*
X168999461Y-69779493D01*
X169078813Y-69876184D01*
X169175504Y-69955536D01*
X169285818Y-70014501D01*
X169353844Y-70035136D01*
X169335605Y-70062589D01*
X169297991Y-70117523D01*
X169293109Y-70126550D01*
X169201485Y-70298870D01*
X169176087Y-70360491D01*
X169149858Y-70421689D01*
X169146823Y-70431492D01*
X169090414Y-70618328D01*
X169077471Y-70683696D01*
X169063625Y-70748837D01*
X169062552Y-70759043D01*
X169043507Y-70953277D01*
X169043507Y-70953286D01*
X169040000Y-70988894D01*
X169039999Y-78111103D01*
X169043092Y-78142502D01*
X169043049Y-78148597D01*
X169044050Y-78158811D01*
X169064451Y-78352907D01*
X169077848Y-78418172D01*
X169090329Y-78483598D01*
X169093295Y-78493423D01*
X169151006Y-78679860D01*
X169176840Y-78741317D01*
X169201776Y-78803035D01*
X169206592Y-78812093D01*
X169206594Y-78812098D01*
X169206597Y-78812102D01*
X169299419Y-78983773D01*
X169336659Y-79038984D01*
X169373147Y-79094744D01*
X169379633Y-79102697D01*
X169504036Y-79253075D01*
X169551328Y-79300038D01*
X169560765Y-79309675D01*
X169451494Y-79382687D01*
X169237687Y-79596494D01*
X169069700Y-79847904D01*
X169034999Y-79931679D01*
X169034999Y-79918816D01*
X168976010Y-79622257D01*
X168860298Y-79342905D01*
X168692311Y-79091495D01*
X168625872Y-79025056D01*
X168644179Y-79019502D01*
X168754493Y-78960537D01*
X168851184Y-78881185D01*
X168930536Y-78784494D01*
X168989501Y-78674180D01*
X169025811Y-78554482D01*
X169038071Y-78430000D01*
X169038071Y-76630000D01*
X169025811Y-76505518D01*
X168989501Y-76385820D01*
X168930536Y-76275506D01*
X168851184Y-76178815D01*
X168754493Y-76099463D01*
X168644179Y-76040498D01*
X168524481Y-76004188D01*
X168399999Y-75991928D01*
X166599999Y-75991928D01*
X166475517Y-76004188D01*
X166355819Y-76040498D01*
X166245505Y-76099463D01*
X166148814Y-76178815D01*
X166069462Y-76275506D01*
X166055606Y-76301429D01*
X165953829Y-76247028D01*
X165787233Y-76196492D01*
X165613979Y-76179428D01*
X164363979Y-76179428D01*
X164190725Y-76196492D01*
X164024129Y-76247028D01*
X163870593Y-76329095D01*
X163736017Y-76439538D01*
X163625574Y-76574114D01*
X163543507Y-76727650D01*
X163492971Y-76894246D01*
X163475907Y-77067500D01*
X163475907Y-77992500D01*
X163492971Y-78165754D01*
X163543507Y-78332350D01*
X163625574Y-78485886D01*
X163736017Y-78620462D01*
X163870593Y-78730905D01*
X164024129Y-78812972D01*
X164190725Y-78863508D01*
X164363979Y-78880572D01*
X165613979Y-78880572D01*
X165787233Y-78863508D01*
X165953829Y-78812972D01*
X166055606Y-78758571D01*
X166069462Y-78784494D01*
X166148814Y-78881185D01*
X166245505Y-78960537D01*
X166355819Y-79019502D01*
X166374126Y-79025056D01*
X166307687Y-79091495D01*
X166200281Y-79252239D01*
X166108159Y-79202998D01*
X165988461Y-79166688D01*
X165863979Y-79154428D01*
X165274729Y-79157500D01*
X165115979Y-79316250D01*
X165115979Y-80378000D01*
X165135979Y-80378000D01*
X165135979Y-80632000D01*
X165115979Y-80632000D01*
X165115979Y-80652000D01*
X164861979Y-80652000D01*
X164861979Y-80632000D01*
X163637729Y-80632000D01*
X163478979Y-80790750D01*
X163475907Y-81217500D01*
X163488167Y-81341982D01*
X163524477Y-81461680D01*
X163583442Y-81571994D01*
X163662794Y-81668685D01*
X163753931Y-81743479D01*
X163747037Y-81749136D01*
X163636594Y-81883712D01*
X163554527Y-82037248D01*
X163503991Y-82203844D01*
X163486927Y-82377098D01*
X163486927Y-83302098D01*
X163503991Y-83475352D01*
X163554527Y-83641948D01*
X163636594Y-83795484D01*
X163747037Y-83930060D01*
X163881613Y-84040503D01*
X164035149Y-84122570D01*
X164201745Y-84173106D01*
X164374999Y-84190170D01*
X165624999Y-84190170D01*
X165798253Y-84173106D01*
X165964849Y-84122570D01*
X166118385Y-84040503D01*
X166252961Y-83930060D01*
X166363404Y-83795484D01*
X166401294Y-83724596D01*
X167168517Y-83724597D01*
X167122495Y-83781025D01*
X167085608Y-83836544D01*
X167047994Y-83891479D01*
X167043112Y-83900506D01*
X166951487Y-84072828D01*
X166926086Y-84134455D01*
X166899859Y-84195648D01*
X166896824Y-84205451D01*
X166840415Y-84392287D01*
X166827467Y-84457679D01*
X166813626Y-84522795D01*
X166812553Y-84533001D01*
X166793508Y-84727235D01*
X166790000Y-84762854D01*
X166789999Y-90235063D01*
X166793092Y-90266462D01*
X166793049Y-90272557D01*
X166794050Y-90282771D01*
X166814451Y-90476867D01*
X166827844Y-90542111D01*
X166840327Y-90607554D01*
X166843293Y-90617378D01*
X166901004Y-90803816D01*
X166926836Y-90865270D01*
X166951777Y-90926999D01*
X166956594Y-90936061D01*
X167049420Y-91107738D01*
X167086689Y-91162991D01*
X167123147Y-91218705D01*
X167129633Y-91226658D01*
X167254036Y-91377036D01*
X167301343Y-91424014D01*
X167347915Y-91471572D01*
X167355822Y-91478114D01*
X167507065Y-91601465D01*
X167562588Y-91638355D01*
X167617518Y-91675966D01*
X167626540Y-91680844D01*
X167626544Y-91680847D01*
X167626548Y-91680849D01*
X167798866Y-91772472D01*
X167860498Y-91797875D01*
X167921687Y-91824101D01*
X167931486Y-91827135D01*
X167931492Y-91827137D01*
X168118326Y-91883545D01*
X168183718Y-91896493D01*
X168248834Y-91910334D01*
X168259040Y-91911407D01*
X168453273Y-91930452D01*
X168453287Y-91930452D01*
X168488895Y-91933959D01*
X173789999Y-91933957D01*
X173790000Y-93124697D01*
X173697094Y-93062619D01*
X173417742Y-92946907D01*
X173121183Y-92887918D01*
X172818815Y-92887918D01*
X172522256Y-92946907D01*
X172242904Y-93062619D01*
X171991494Y-93230606D01*
X171925055Y-93297045D01*
X171919501Y-93278738D01*
X171860536Y-93168424D01*
X171781184Y-93071733D01*
X171684493Y-92992381D01*
X171574179Y-92933416D01*
X171454481Y-92897106D01*
X171329999Y-92884846D01*
X169529999Y-92884846D01*
X169405517Y-92897106D01*
X169285819Y-92933416D01*
X169175505Y-92992381D01*
X169078814Y-93071733D01*
X168999462Y-93168424D01*
X168940497Y-93278738D01*
X168904187Y-93398436D01*
X168891927Y-93522918D01*
X168891927Y-95322918D01*
X168904187Y-95447400D01*
X168940497Y-95567098D01*
X168999462Y-95677412D01*
X169078814Y-95774103D01*
X169175505Y-95853455D01*
X169285819Y-95912420D01*
X169353844Y-95933055D01*
X169335607Y-95960503D01*
X169297993Y-96015438D01*
X169293111Y-96024465D01*
X169201486Y-96196787D01*
X169176085Y-96258414D01*
X169149858Y-96319607D01*
X169146823Y-96329410D01*
X169090414Y-96516246D01*
X169077466Y-96581638D01*
X169063625Y-96646754D01*
X169062552Y-96656960D01*
X169043507Y-96851194D01*
X169043507Y-96851226D01*
X169040002Y-96886813D01*
X169040001Y-104009022D01*
X169043094Y-104040421D01*
X169043051Y-104046516D01*
X169044052Y-104056730D01*
X169064453Y-104250826D01*
X169077850Y-104316091D01*
X169090331Y-104381517D01*
X169093297Y-104391342D01*
X169151008Y-104577779D01*
X169176842Y-104639236D01*
X169201778Y-104700954D01*
X169206594Y-104710012D01*
X169206596Y-104710017D01*
X169206599Y-104710021D01*
X169299421Y-104881692D01*
X169336680Y-104936932D01*
X169373151Y-104992664D01*
X169379636Y-105000617D01*
X169504039Y-105150994D01*
X169551346Y-105197972D01*
X169560767Y-105207592D01*
X169451494Y-105280606D01*
X169237687Y-105494413D01*
X169069700Y-105745823D01*
X168953988Y-106025175D01*
X168894999Y-106321734D01*
X168894999Y-106624102D01*
X168935283Y-106826622D01*
X168843072Y-106734411D01*
X168843072Y-106010417D01*
X168826008Y-105837163D01*
X168775472Y-105670567D01*
X168693405Y-105517031D01*
X168582962Y-105382455D01*
X168448386Y-105272012D01*
X168294850Y-105189945D01*
X168128254Y-105139409D01*
X167955000Y-105122345D01*
X166705000Y-105122345D01*
X166531746Y-105139409D01*
X166365150Y-105189945D01*
X166211614Y-105272012D01*
X166077038Y-105382455D01*
X165966595Y-105517031D01*
X165884528Y-105670567D01*
X165833992Y-105837163D01*
X165816928Y-106010417D01*
X165816928Y-106935417D01*
X165833992Y-107108671D01*
X165884528Y-107275267D01*
X165966595Y-107428803D01*
X166077038Y-107563379D01*
X166211614Y-107673822D01*
X166365150Y-107755889D01*
X166531746Y-107806425D01*
X166705000Y-107823489D01*
X167428993Y-107823489D01*
X167566111Y-107960608D01*
X162334998Y-107958645D01*
X162334998Y-104210417D01*
X165816928Y-104210417D01*
X165829188Y-104334899D01*
X165865498Y-104454597D01*
X165924463Y-104564911D01*
X166003815Y-104661602D01*
X166100506Y-104740954D01*
X166210820Y-104799919D01*
X166330518Y-104836229D01*
X166455000Y-104848489D01*
X167044250Y-104845417D01*
X167203000Y-104686667D01*
X167203000Y-103624917D01*
X167457000Y-103624917D01*
X167457000Y-104686667D01*
X167615750Y-104845417D01*
X168205000Y-104848489D01*
X168329482Y-104836229D01*
X168449180Y-104799919D01*
X168559494Y-104740954D01*
X168656185Y-104661602D01*
X168735537Y-104564911D01*
X168794502Y-104454597D01*
X168830812Y-104334899D01*
X168843072Y-104210417D01*
X168840000Y-103783667D01*
X168681250Y-103624917D01*
X167457000Y-103624917D01*
X167203000Y-103624917D01*
X165978750Y-103624917D01*
X165820000Y-103783667D01*
X165816928Y-104210417D01*
X162334998Y-104210417D01*
X162334998Y-102785417D01*
X165816928Y-102785417D01*
X165820000Y-103212167D01*
X165978750Y-103370917D01*
X167203000Y-103370917D01*
X167203000Y-102309167D01*
X167457000Y-102309167D01*
X167457000Y-103370917D01*
X168681250Y-103370917D01*
X168840000Y-103212167D01*
X168843072Y-102785417D01*
X168830812Y-102660935D01*
X168794502Y-102541237D01*
X168735537Y-102430923D01*
X168656185Y-102334232D01*
X168559494Y-102254880D01*
X168449180Y-102195915D01*
X168329482Y-102159605D01*
X168205000Y-102147345D01*
X167615750Y-102150417D01*
X167457000Y-102309167D01*
X167203000Y-102309167D01*
X167044250Y-102150417D01*
X166455000Y-102147345D01*
X166330518Y-102159605D01*
X166210820Y-102195915D01*
X166100506Y-102254880D01*
X166003815Y-102334232D01*
X165924463Y-102430923D01*
X165865498Y-102541237D01*
X165829188Y-102660935D01*
X165816928Y-102785417D01*
X162334998Y-102785417D01*
X162335000Y-95563896D01*
X162331907Y-95532497D01*
X162331950Y-95526402D01*
X162330949Y-95516188D01*
X162310548Y-95322091D01*
X162297155Y-95256843D01*
X162284671Y-95191402D01*
X162281705Y-95181577D01*
X162223993Y-94995139D01*
X162198156Y-94933676D01*
X162173221Y-94871960D01*
X162168404Y-94862899D01*
X162075578Y-94691221D01*
X162038297Y-94635951D01*
X162001851Y-94580255D01*
X161995365Y-94572302D01*
X161870962Y-94421923D01*
X161823655Y-94374945D01*
X161777083Y-94327387D01*
X161769176Y-94320845D01*
X161617933Y-94197494D01*
X161562458Y-94160637D01*
X161507481Y-94122993D01*
X161498454Y-94118112D01*
X161326132Y-94026487D01*
X161264529Y-94001096D01*
X161203311Y-93974858D01*
X161193508Y-93971823D01*
X161006672Y-93915414D01*
X160941304Y-93902471D01*
X160876163Y-93888625D01*
X160865957Y-93887552D01*
X160671723Y-93868507D01*
X160671712Y-93868507D01*
X160636104Y-93865000D01*
X140419822Y-93865000D01*
X134050963Y-78287018D01*
X134028022Y-78223038D01*
X134026243Y-78211172D01*
X134026803Y-78199185D01*
X134037607Y-78155445D01*
X134068569Y-78070377D01*
X134092173Y-78105703D01*
X134305980Y-78319510D01*
X134557390Y-78487497D01*
X134836742Y-78603209D01*
X135133301Y-78662198D01*
X135435669Y-78662198D01*
X135732228Y-78603209D01*
X135881403Y-78541418D01*
X135880298Y-78561666D01*
X135897977Y-78685495D01*
X135939473Y-78803495D01*
X136003193Y-78911132D01*
X136053438Y-78967180D01*
X136036080Y-78977456D01*
X135906451Y-79093664D01*
X135801983Y-79232929D01*
X135726691Y-79389899D01*
X135299166Y-80564515D01*
X135255945Y-80733157D01*
X135246454Y-80906991D01*
X135271059Y-81079336D01*
X135328815Y-81243569D01*
X135417500Y-81393379D01*
X135533709Y-81523009D01*
X135672973Y-81627476D01*
X135829943Y-81702768D01*
X136699158Y-82019136D01*
X136867800Y-82062357D01*
X137041633Y-82071848D01*
X137103517Y-82063013D01*
X137971373Y-82063013D01*
X137989053Y-82186842D01*
X138030549Y-82304842D01*
X138094269Y-82412478D01*
X138177763Y-82505617D01*
X138277823Y-82580676D01*
X138390605Y-82634772D01*
X138792669Y-82777843D01*
X138809842Y-82769835D01*
X139234823Y-82769835D01*
X139329704Y-82973307D01*
X139729667Y-83122151D01*
X139850835Y-83153206D01*
X139975733Y-83160025D01*
X140099561Y-83142345D01*
X140217561Y-83100849D01*
X140325198Y-83037129D01*
X140418337Y-82953635D01*
X140493396Y-82853575D01*
X140547492Y-82740793D01*
X140746141Y-82186028D01*
X140651260Y-81982556D01*
X139653541Y-81619417D01*
X139234823Y-82769835D01*
X138809842Y-82769835D01*
X138996141Y-82682962D01*
X139414859Y-81532543D01*
X138417141Y-81169404D01*
X138213669Y-81264284D01*
X138009247Y-81816947D01*
X137978192Y-81938115D01*
X137971373Y-82063013D01*
X137103517Y-82063013D01*
X137213978Y-82047243D01*
X137378212Y-81989487D01*
X137528022Y-81900802D01*
X137657651Y-81784594D01*
X137762119Y-81645329D01*
X137837411Y-81488359D01*
X138264936Y-80313743D01*
X138308157Y-80145101D01*
X138317648Y-79971267D01*
X138293043Y-79798922D01*
X138286352Y-79779895D01*
X138360870Y-79769256D01*
X138478870Y-79727760D01*
X138586507Y-79664040D01*
X138679645Y-79580545D01*
X138754704Y-79480485D01*
X138808801Y-79367703D01*
X139378265Y-77803114D01*
X139740017Y-77934781D01*
X139542390Y-78132408D01*
X139374403Y-78383818D01*
X139258691Y-78663170D01*
X139199702Y-78959729D01*
X139199702Y-79262097D01*
X139258691Y-79558656D01*
X139346596Y-79770877D01*
X139304439Y-79760072D01*
X139179541Y-79753253D01*
X139055713Y-79770933D01*
X138937713Y-79812429D01*
X138830076Y-79876149D01*
X138736937Y-79959643D01*
X138661878Y-80059703D01*
X138607782Y-80172485D01*
X138409133Y-80727250D01*
X138504014Y-80930722D01*
X139501733Y-81293861D01*
X139508573Y-81275068D01*
X139747256Y-81361941D01*
X139740415Y-81380735D01*
X140738133Y-81743874D01*
X140941605Y-81648994D01*
X141146027Y-81096331D01*
X141177082Y-80975163D01*
X141183901Y-80850265D01*
X141166221Y-80726436D01*
X141124725Y-80608436D01*
X141119412Y-80599462D01*
X141182445Y-80586924D01*
X141331620Y-80525133D01*
X141330515Y-80545381D01*
X141348194Y-80669210D01*
X141389690Y-80787210D01*
X141453410Y-80894847D01*
X141503657Y-80950897D01*
X141486299Y-80961172D01*
X141356670Y-81077380D01*
X141252202Y-81216645D01*
X141176910Y-81373615D01*
X140749385Y-82548231D01*
X140706164Y-82716873D01*
X140696673Y-82890707D01*
X140721278Y-83063052D01*
X140779034Y-83227285D01*
X140867719Y-83377095D01*
X140983928Y-83506725D01*
X141123192Y-83611192D01*
X141280162Y-83686484D01*
X142149377Y-84002852D01*
X142318019Y-84046073D01*
X142491852Y-84055564D01*
X142553736Y-84046729D01*
X143421592Y-84046729D01*
X143439272Y-84170558D01*
X143480768Y-84288558D01*
X143544488Y-84396194D01*
X143627982Y-84489333D01*
X143728042Y-84564392D01*
X143840824Y-84618488D01*
X144242888Y-84761559D01*
X144260061Y-84753551D01*
X144685042Y-84753551D01*
X144779923Y-84957023D01*
X145179886Y-85105867D01*
X145301054Y-85136922D01*
X145425952Y-85143741D01*
X145549780Y-85126061D01*
X145667780Y-85084565D01*
X145775417Y-85020845D01*
X145868556Y-84937351D01*
X145943615Y-84837291D01*
X145997711Y-84724509D01*
X146196360Y-84169744D01*
X146101479Y-83966272D01*
X145103760Y-83603133D01*
X144685042Y-84753551D01*
X144260061Y-84753551D01*
X144446360Y-84666678D01*
X144865078Y-83516259D01*
X144447989Y-83364451D01*
X145190634Y-83364451D01*
X146188352Y-83727590D01*
X146391824Y-83632710D01*
X146596246Y-83080047D01*
X146627301Y-82958879D01*
X146634120Y-82833981D01*
X146616440Y-82710152D01*
X146574944Y-82592152D01*
X146511224Y-82484516D01*
X146427730Y-82391377D01*
X146327670Y-82316318D01*
X146214888Y-82262222D01*
X145812824Y-82119151D01*
X145609352Y-82214032D01*
X145190634Y-83364451D01*
X144447989Y-83364451D01*
X143867360Y-83153120D01*
X143663888Y-83248000D01*
X143459466Y-83800663D01*
X143428411Y-83921831D01*
X143421592Y-84046729D01*
X142553736Y-84046729D01*
X142664197Y-84030959D01*
X142828431Y-83973203D01*
X142978241Y-83884518D01*
X143107870Y-83768310D01*
X143212338Y-83629045D01*
X143287630Y-83472075D01*
X143564650Y-82710966D01*
X143859352Y-82710966D01*
X143954233Y-82914438D01*
X144951952Y-83277577D01*
X145370670Y-82127159D01*
X145275789Y-81923687D01*
X144875826Y-81774843D01*
X144754658Y-81743788D01*
X144629760Y-81736969D01*
X144505932Y-81754649D01*
X144387932Y-81796145D01*
X144280295Y-81859865D01*
X144187156Y-81943359D01*
X144112097Y-82043419D01*
X144058001Y-82156201D01*
X143859352Y-82710966D01*
X143564650Y-82710966D01*
X143715155Y-82297459D01*
X143758376Y-82128817D01*
X143767867Y-81954983D01*
X143743262Y-81782638D01*
X143736570Y-81763610D01*
X143811087Y-81752971D01*
X143929087Y-81711475D01*
X144036724Y-81647755D01*
X144129862Y-81564260D01*
X144204921Y-81464200D01*
X144259018Y-81351418D01*
X144874654Y-79659972D01*
X144905708Y-79538805D01*
X144912527Y-79413907D01*
X144894848Y-79290078D01*
X144853352Y-79172078D01*
X144789632Y-79064441D01*
X144706137Y-78971303D01*
X144649274Y-78928647D01*
X144675752Y-78909126D01*
X144729935Y-78870335D01*
X144737609Y-78863521D01*
X144882645Y-78732931D01*
X144927614Y-78683684D01*
X144973167Y-78635174D01*
X144979368Y-78627005D01*
X144979371Y-78627002D01*
X144979373Y-78626999D01*
X145096281Y-78470725D01*
X145130809Y-78413712D01*
X145166090Y-78357251D01*
X145170589Y-78348028D01*
X145254918Y-78172021D01*
X145254927Y-78171996D01*
X145270395Y-78139748D01*
X145465000Y-77605075D01*
X145465000Y-77681184D01*
X145523989Y-77977743D01*
X145639701Y-78257095D01*
X145807688Y-78508505D01*
X145874127Y-78574944D01*
X145855820Y-78580498D01*
X145745506Y-78639463D01*
X145648815Y-78718815D01*
X145569463Y-78815506D01*
X145510498Y-78925820D01*
X145474188Y-79045518D01*
X145461928Y-79170000D01*
X145461928Y-80970000D01*
X145474188Y-81094482D01*
X145510498Y-81214180D01*
X145569463Y-81324494D01*
X145648815Y-81421185D01*
X145745506Y-81500537D01*
X145855820Y-81559502D01*
X145975518Y-81595812D01*
X146100000Y-81608072D01*
X147900000Y-81608072D01*
X148024482Y-81595812D01*
X148144180Y-81559502D01*
X148254494Y-81500537D01*
X148351185Y-81421185D01*
X148430537Y-81324494D01*
X148489502Y-81214180D01*
X148525812Y-81094482D01*
X148538072Y-80970000D01*
X148538072Y-80830000D01*
X152755199Y-80830000D01*
X155136201Y-83211003D01*
X155159999Y-83240001D01*
X155275724Y-83334974D01*
X155407753Y-83405546D01*
X155551014Y-83449003D01*
X155662667Y-83460000D01*
X155662675Y-83460000D01*
X155700000Y-83463676D01*
X155737325Y-83460000D01*
X155929058Y-83460000D01*
X155880699Y-83518925D01*
X155767413Y-83730867D01*
X155697652Y-83960838D01*
X155674097Y-84200000D01*
X155697652Y-84439162D01*
X155767413Y-84669133D01*
X155880699Y-84881075D01*
X155937264Y-84950000D01*
X155880699Y-85018925D01*
X155767413Y-85230867D01*
X155697652Y-85460838D01*
X155674097Y-85700000D01*
X155697652Y-85939162D01*
X155767413Y-86169133D01*
X155856297Y-86335422D01*
X155826595Y-86371613D01*
X155744528Y-86525149D01*
X155693992Y-86691745D01*
X155676928Y-86864999D01*
X155676928Y-87535001D01*
X155693992Y-87708255D01*
X155744528Y-87874851D01*
X155826595Y-88028387D01*
X155937038Y-88162962D01*
X156071613Y-88273405D01*
X156225149Y-88355472D01*
X156391745Y-88406008D01*
X156564999Y-88423072D01*
X157935001Y-88423072D01*
X158108255Y-88406008D01*
X158274851Y-88355472D01*
X158428387Y-88273405D01*
X158562962Y-88162962D01*
X158673405Y-88028387D01*
X158755472Y-87874851D01*
X158806008Y-87708255D01*
X158823072Y-87535001D01*
X158823072Y-86864999D01*
X158806008Y-86691745D01*
X158756064Y-86527098D01*
X163486927Y-86527098D01*
X163499187Y-86651580D01*
X163535497Y-86771278D01*
X163594462Y-86881592D01*
X163673814Y-86978283D01*
X163770505Y-87057635D01*
X163880819Y-87116600D01*
X164000517Y-87152910D01*
X164124999Y-87165170D01*
X164714249Y-87162098D01*
X164872999Y-87003348D01*
X164872999Y-85941598D01*
X165126999Y-85941598D01*
X165126999Y-87003348D01*
X165285749Y-87162098D01*
X165874999Y-87165170D01*
X165999481Y-87152910D01*
X166119179Y-87116600D01*
X166229493Y-87057635D01*
X166326184Y-86978283D01*
X166405536Y-86881592D01*
X166464501Y-86771278D01*
X166500811Y-86651580D01*
X166513071Y-86527098D01*
X166509999Y-86100348D01*
X166351249Y-85941598D01*
X165126999Y-85941598D01*
X164872999Y-85941598D01*
X163648749Y-85941598D01*
X163489999Y-86100348D01*
X163486927Y-86527098D01*
X158756064Y-86527098D01*
X158755472Y-86525149D01*
X158673405Y-86371613D01*
X158643703Y-86335422D01*
X158732587Y-86169133D01*
X158802348Y-85939162D01*
X158825903Y-85700000D01*
X158802348Y-85460838D01*
X158732587Y-85230867D01*
X158663759Y-85102098D01*
X163486927Y-85102098D01*
X163489999Y-85528848D01*
X163648749Y-85687598D01*
X164872999Y-85687598D01*
X164872999Y-84625848D01*
X165126999Y-84625848D01*
X165126999Y-85687598D01*
X166351249Y-85687598D01*
X166509999Y-85528848D01*
X166513071Y-85102098D01*
X166500811Y-84977616D01*
X166464501Y-84857918D01*
X166405536Y-84747604D01*
X166326184Y-84650913D01*
X166229493Y-84571561D01*
X166119179Y-84512596D01*
X165999481Y-84476286D01*
X165874999Y-84464026D01*
X165285749Y-84467098D01*
X165126999Y-84625848D01*
X164872999Y-84625848D01*
X164714249Y-84467098D01*
X164124999Y-84464026D01*
X164000517Y-84476286D01*
X163880819Y-84512596D01*
X163770505Y-84571561D01*
X163673814Y-84650913D01*
X163594462Y-84747604D01*
X163535497Y-84857918D01*
X163499187Y-84977616D01*
X163486927Y-85102098D01*
X158663759Y-85102098D01*
X158619301Y-85018925D01*
X158562736Y-84950000D01*
X158619301Y-84881075D01*
X158732587Y-84669133D01*
X158802348Y-84439162D01*
X158825903Y-84200000D01*
X158802348Y-83960838D01*
X158732587Y-83730867D01*
X158619301Y-83518925D01*
X158562736Y-83450000D01*
X158619301Y-83381075D01*
X158732587Y-83169133D01*
X158802348Y-82939162D01*
X158825903Y-82700000D01*
X158802348Y-82460838D01*
X158732587Y-82230867D01*
X158619301Y-82018925D01*
X158562736Y-81950000D01*
X158619301Y-81881075D01*
X158732587Y-81669133D01*
X158802348Y-81439162D01*
X158825903Y-81200000D01*
X158802348Y-80960838D01*
X158732587Y-80730867D01*
X158619301Y-80518925D01*
X158562736Y-80450000D01*
X158619301Y-80381075D01*
X158732587Y-80169133D01*
X158802348Y-79939162D01*
X158816792Y-79792500D01*
X163475907Y-79792500D01*
X163478979Y-80219250D01*
X163637729Y-80378000D01*
X164861979Y-80378000D01*
X164861979Y-79316250D01*
X164703229Y-79157500D01*
X164113979Y-79154428D01*
X163989497Y-79166688D01*
X163869799Y-79202998D01*
X163759485Y-79261963D01*
X163662794Y-79341315D01*
X163583442Y-79438006D01*
X163524477Y-79548320D01*
X163488167Y-79668018D01*
X163475907Y-79792500D01*
X158816792Y-79792500D01*
X158825903Y-79700000D01*
X158802348Y-79460838D01*
X158732587Y-79230867D01*
X158619301Y-79018925D01*
X158565415Y-78953265D01*
X158684952Y-78772199D01*
X158775735Y-78549541D01*
X158778566Y-78515250D01*
X158653624Y-78327000D01*
X157377000Y-78327000D01*
X157377000Y-78347000D01*
X157123000Y-78347000D01*
X157123000Y-78327000D01*
X155846376Y-78327000D01*
X155721434Y-78515250D01*
X155724265Y-78549541D01*
X155815048Y-78772199D01*
X155925827Y-78940000D01*
X154879801Y-78940000D01*
X153824551Y-77884750D01*
X155721434Y-77884750D01*
X155846376Y-78073000D01*
X157123000Y-78073000D01*
X157123000Y-76980000D01*
X157377000Y-76980000D01*
X157377000Y-78073000D01*
X158653624Y-78073000D01*
X158778566Y-77884750D01*
X158775735Y-77850459D01*
X158684952Y-77627801D01*
X158552474Y-77427132D01*
X158383393Y-77256164D01*
X158184207Y-77121467D01*
X157962570Y-77028218D01*
X157727000Y-76980000D01*
X157377000Y-76980000D01*
X157123000Y-76980000D01*
X156773000Y-76980000D01*
X156537430Y-77028218D01*
X156315793Y-77121467D01*
X156116607Y-77256164D01*
X155947526Y-77427132D01*
X155815048Y-77627801D01*
X155724265Y-77850459D01*
X155721434Y-77884750D01*
X153824551Y-77884750D01*
X150660000Y-74720200D01*
X150660000Y-67820205D01*
X150663676Y-67782880D01*
X150660000Y-67745555D01*
X150660000Y-67745547D01*
X150649003Y-67633894D01*
X150605546Y-67490633D01*
X150534974Y-67358604D01*
X150440001Y-67242879D01*
X150411002Y-67219080D01*
X149915965Y-66724044D01*
X149879831Y-66683736D01*
X149871465Y-66677460D01*
X149864262Y-66669854D01*
X149825166Y-66642163D01*
X149788174Y-66611804D01*
X149773442Y-66603929D01*
X149760073Y-66593901D01*
X149750636Y-66589375D01*
X149742095Y-66583325D01*
X149698368Y-66563802D01*
X149656144Y-66541232D01*
X149630180Y-66533356D01*
X149605395Y-66522290D01*
X149578962Y-66516280D01*
X142296943Y-63865842D01*
X152815000Y-62922747D01*
X152814999Y-67836103D01*
G37*
X152814999Y-67836103D02*
X152818092Y-67867502D01*
X152818049Y-67873597D01*
X152819050Y-67883811D01*
X152839451Y-68077907D01*
X152852843Y-68143148D01*
X152865328Y-68208597D01*
X152868294Y-68218422D01*
X152926006Y-68404860D01*
X152951838Y-68466312D01*
X152976778Y-68528039D01*
X152981595Y-68537101D01*
X153074421Y-68708778D01*
X153111690Y-68764031D01*
X153148148Y-68819745D01*
X153154634Y-68827698D01*
X153279037Y-68978076D01*
X153326344Y-69025054D01*
X153372916Y-69072612D01*
X153380823Y-69079154D01*
X153532066Y-69202505D01*
X153587589Y-69239395D01*
X153642519Y-69277006D01*
X153651541Y-69281884D01*
X153651545Y-69281887D01*
X153651549Y-69281889D01*
X153823867Y-69373512D01*
X153885499Y-69398915D01*
X153946688Y-69425141D01*
X153956487Y-69428175D01*
X153956493Y-69428177D01*
X154143327Y-69484585D01*
X154208687Y-69497527D01*
X154273835Y-69511374D01*
X154284041Y-69512447D01*
X154478276Y-69531492D01*
X154478277Y-69531492D01*
X154513895Y-69535000D01*
X159986105Y-69534997D01*
X160017495Y-69531905D01*
X160023599Y-69531948D01*
X160033812Y-69530947D01*
X160227908Y-69510546D01*
X160293156Y-69497153D01*
X160358597Y-69484669D01*
X160368422Y-69481703D01*
X160554860Y-69423991D01*
X160616312Y-69398159D01*
X160678039Y-69373219D01*
X160687101Y-69368402D01*
X160858778Y-69275576D01*
X160914059Y-69238288D01*
X160969746Y-69201847D01*
X160977699Y-69195362D01*
X161128076Y-69070959D01*
X161175054Y-69023652D01*
X161222611Y-68977081D01*
X161229153Y-68969174D01*
X161352503Y-68817932D01*
X161389382Y-68762424D01*
X161427004Y-68707479D01*
X161431885Y-68698452D01*
X161523510Y-68526131D01*
X161548909Y-68464510D01*
X161575140Y-68403307D01*
X161578175Y-68393504D01*
X161634583Y-68206668D01*
X161647529Y-68141283D01*
X161661371Y-68076163D01*
X161662444Y-68065957D01*
X161681071Y-67875988D01*
X161684999Y-67836105D01*
X161684999Y-63435564D01*
X173667277Y-66028450D01*
X173680904Y-66030023D01*
X173741611Y-66040811D01*
X173752792Y-66045165D01*
X173762911Y-66051606D01*
X173771586Y-66059889D01*
X173778492Y-66069707D01*
X173783357Y-66080674D01*
X173786000Y-66092376D01*
X173787099Y-66133733D01*
X173786253Y-66142685D01*
X173789999Y-67101740D01*
X173789999Y-67226778D01*
X173697093Y-67164700D01*
X173417741Y-67048988D01*
X173121182Y-66989999D01*
X172818814Y-66989999D01*
X172522255Y-67048988D01*
X172242903Y-67164700D01*
X171991493Y-67332687D01*
X171925054Y-67399126D01*
X171919500Y-67380819D01*
X171860535Y-67270505D01*
X171781183Y-67173814D01*
X171684492Y-67094462D01*
X171574178Y-67035497D01*
X171454480Y-66999187D01*
X171329998Y-66986927D01*
X169529998Y-66986927D01*
X169405516Y-66999187D01*
X169285818Y-67035497D01*
X169175504Y-67094462D01*
X169078813Y-67173814D01*
X168999461Y-67270505D01*
X168940496Y-67380819D01*
X168904186Y-67500517D01*
X168891926Y-67624999D01*
X168891926Y-67764999D01*
X168323556Y-67764999D01*
X168286233Y-67761323D01*
X168248910Y-67764999D01*
X168248901Y-67764999D01*
X168137248Y-67775996D01*
X167993987Y-67819453D01*
X167861958Y-67890025D01*
X167746233Y-67984998D01*
X167722435Y-68013996D01*
X163305353Y-72431079D01*
X163243215Y-72431079D01*
X163043256Y-72470853D01*
X162854898Y-72548874D01*
X162685380Y-72662142D01*
X162541217Y-72806305D01*
X162427949Y-72975823D01*
X162349928Y-73164181D01*
X162310154Y-73364140D01*
X162310154Y-73568018D01*
X162349928Y-73767977D01*
X162427949Y-73956335D01*
X162541217Y-74125853D01*
X162685380Y-74270016D01*
X162854898Y-74383284D01*
X163043256Y-74461305D01*
X163243215Y-74501079D01*
X163447093Y-74501079D01*
X163647052Y-74461305D01*
X163835410Y-74383284D01*
X164004928Y-74270016D01*
X164149091Y-74125853D01*
X164262359Y-73956335D01*
X164340380Y-73767977D01*
X164380154Y-73568018D01*
X164380154Y-73505880D01*
X168601036Y-69284999D01*
X168891926Y-69284999D01*
X168891926Y-69424999D01*
X168904186Y-69549481D01*
X168940496Y-69669179D01*
X168999461Y-69779493D01*
X169078813Y-69876184D01*
X169175504Y-69955536D01*
X169285818Y-70014501D01*
X169353844Y-70035136D01*
X169335605Y-70062589D01*
X169297991Y-70117523D01*
X169293109Y-70126550D01*
X169201485Y-70298870D01*
X169176087Y-70360491D01*
X169149858Y-70421689D01*
X169146823Y-70431492D01*
X169090414Y-70618328D01*
X169077471Y-70683696D01*
X169063625Y-70748837D01*
X169062552Y-70759043D01*
X169043507Y-70953277D01*
X169043507Y-70953286D01*
X169040000Y-70988894D01*
X169039999Y-78111103D01*
X169043092Y-78142502D01*
X169043049Y-78148597D01*
X169044050Y-78158811D01*
X169064451Y-78352907D01*
X169077848Y-78418172D01*
X169090329Y-78483598D01*
X169093295Y-78493423D01*
X169151006Y-78679860D01*
X169176840Y-78741317D01*
X169201776Y-78803035D01*
X169206592Y-78812093D01*
X169206594Y-78812098D01*
X169206597Y-78812102D01*
X169299419Y-78983773D01*
X169336659Y-79038984D01*
X169373147Y-79094744D01*
X169379633Y-79102697D01*
X169504036Y-79253075D01*
X169551328Y-79300038D01*
X169560765Y-79309675D01*
X169451494Y-79382687D01*
X169237687Y-79596494D01*
X169069700Y-79847904D01*
X169034999Y-79931679D01*
X169034999Y-79918816D01*
X168976010Y-79622257D01*
X168860298Y-79342905D01*
X168692311Y-79091495D01*
X168625872Y-79025056D01*
X168644179Y-79019502D01*
X168754493Y-78960537D01*
X168851184Y-78881185D01*
X168930536Y-78784494D01*
X168989501Y-78674180D01*
X169025811Y-78554482D01*
X169038071Y-78430000D01*
X169038071Y-76630000D01*
X169025811Y-76505518D01*
X168989501Y-76385820D01*
X168930536Y-76275506D01*
X168851184Y-76178815D01*
X168754493Y-76099463D01*
X168644179Y-76040498D01*
X168524481Y-76004188D01*
X168399999Y-75991928D01*
X166599999Y-75991928D01*
X166475517Y-76004188D01*
X166355819Y-76040498D01*
X166245505Y-76099463D01*
X166148814Y-76178815D01*
X166069462Y-76275506D01*
X166055606Y-76301429D01*
X165953829Y-76247028D01*
X165787233Y-76196492D01*
X165613979Y-76179428D01*
X164363979Y-76179428D01*
X164190725Y-76196492D01*
X164024129Y-76247028D01*
X163870593Y-76329095D01*
X163736017Y-76439538D01*
X163625574Y-76574114D01*
X163543507Y-76727650D01*
X163492971Y-76894246D01*
X163475907Y-77067500D01*
X163475907Y-77992500D01*
X163492971Y-78165754D01*
X163543507Y-78332350D01*
X163625574Y-78485886D01*
X163736017Y-78620462D01*
X163870593Y-78730905D01*
X164024129Y-78812972D01*
X164190725Y-78863508D01*
X164363979Y-78880572D01*
X165613979Y-78880572D01*
X165787233Y-78863508D01*
X165953829Y-78812972D01*
X166055606Y-78758571D01*
X166069462Y-78784494D01*
X166148814Y-78881185D01*
X166245505Y-78960537D01*
X166355819Y-79019502D01*
X166374126Y-79025056D01*
X166307687Y-79091495D01*
X166200281Y-79252239D01*
X166108159Y-79202998D01*
X165988461Y-79166688D01*
X165863979Y-79154428D01*
X165274729Y-79157500D01*
X165115979Y-79316250D01*
X165115979Y-80378000D01*
X165135979Y-80378000D01*
X165135979Y-80632000D01*
X165115979Y-80632000D01*
X165115979Y-80652000D01*
X164861979Y-80652000D01*
X164861979Y-80632000D01*
X163637729Y-80632000D01*
X163478979Y-80790750D01*
X163475907Y-81217500D01*
X163488167Y-81341982D01*
X163524477Y-81461680D01*
X163583442Y-81571994D01*
X163662794Y-81668685D01*
X163753931Y-81743479D01*
X163747037Y-81749136D01*
X163636594Y-81883712D01*
X163554527Y-82037248D01*
X163503991Y-82203844D01*
X163486927Y-82377098D01*
X163486927Y-83302098D01*
X163503991Y-83475352D01*
X163554527Y-83641948D01*
X163636594Y-83795484D01*
X163747037Y-83930060D01*
X163881613Y-84040503D01*
X164035149Y-84122570D01*
X164201745Y-84173106D01*
X164374999Y-84190170D01*
X165624999Y-84190170D01*
X165798253Y-84173106D01*
X165964849Y-84122570D01*
X166118385Y-84040503D01*
X166252961Y-83930060D01*
X166363404Y-83795484D01*
X166401294Y-83724596D01*
X167168517Y-83724597D01*
X167122495Y-83781025D01*
X167085608Y-83836544D01*
X167047994Y-83891479D01*
X167043112Y-83900506D01*
X166951487Y-84072828D01*
X166926086Y-84134455D01*
X166899859Y-84195648D01*
X166896824Y-84205451D01*
X166840415Y-84392287D01*
X166827467Y-84457679D01*
X166813626Y-84522795D01*
X166812553Y-84533001D01*
X166793508Y-84727235D01*
X166790000Y-84762854D01*
X166789999Y-90235063D01*
X166793092Y-90266462D01*
X166793049Y-90272557D01*
X166794050Y-90282771D01*
X166814451Y-90476867D01*
X166827844Y-90542111D01*
X166840327Y-90607554D01*
X166843293Y-90617378D01*
X166901004Y-90803816D01*
X166926836Y-90865270D01*
X166951777Y-90926999D01*
X166956594Y-90936061D01*
X167049420Y-91107738D01*
X167086689Y-91162991D01*
X167123147Y-91218705D01*
X167129633Y-91226658D01*
X167254036Y-91377036D01*
X167301343Y-91424014D01*
X167347915Y-91471572D01*
X167355822Y-91478114D01*
X167507065Y-91601465D01*
X167562588Y-91638355D01*
X167617518Y-91675966D01*
X167626540Y-91680844D01*
X167626544Y-91680847D01*
X167626548Y-91680849D01*
X167798866Y-91772472D01*
X167860498Y-91797875D01*
X167921687Y-91824101D01*
X167931486Y-91827135D01*
X167931492Y-91827137D01*
X168118326Y-91883545D01*
X168183718Y-91896493D01*
X168248834Y-91910334D01*
X168259040Y-91911407D01*
X168453273Y-91930452D01*
X168453287Y-91930452D01*
X168488895Y-91933959D01*
X173789999Y-91933957D01*
X173790000Y-93124697D01*
X173697094Y-93062619D01*
X173417742Y-92946907D01*
X173121183Y-92887918D01*
X172818815Y-92887918D01*
X172522256Y-92946907D01*
X172242904Y-93062619D01*
X171991494Y-93230606D01*
X171925055Y-93297045D01*
X171919501Y-93278738D01*
X171860536Y-93168424D01*
X171781184Y-93071733D01*
X171684493Y-92992381D01*
X171574179Y-92933416D01*
X171454481Y-92897106D01*
X171329999Y-92884846D01*
X169529999Y-92884846D01*
X169405517Y-92897106D01*
X169285819Y-92933416D01*
X169175505Y-92992381D01*
X169078814Y-93071733D01*
X168999462Y-93168424D01*
X168940497Y-93278738D01*
X168904187Y-93398436D01*
X168891927Y-93522918D01*
X168891927Y-95322918D01*
X168904187Y-95447400D01*
X168940497Y-95567098D01*
X168999462Y-95677412D01*
X169078814Y-95774103D01*
X169175505Y-95853455D01*
X169285819Y-95912420D01*
X169353844Y-95933055D01*
X169335607Y-95960503D01*
X169297993Y-96015438D01*
X169293111Y-96024465D01*
X169201486Y-96196787D01*
X169176085Y-96258414D01*
X169149858Y-96319607D01*
X169146823Y-96329410D01*
X169090414Y-96516246D01*
X169077466Y-96581638D01*
X169063625Y-96646754D01*
X169062552Y-96656960D01*
X169043507Y-96851194D01*
X169043507Y-96851226D01*
X169040002Y-96886813D01*
X169040001Y-104009022D01*
X169043094Y-104040421D01*
X169043051Y-104046516D01*
X169044052Y-104056730D01*
X169064453Y-104250826D01*
X169077850Y-104316091D01*
X169090331Y-104381517D01*
X169093297Y-104391342D01*
X169151008Y-104577779D01*
X169176842Y-104639236D01*
X169201778Y-104700954D01*
X169206594Y-104710012D01*
X169206596Y-104710017D01*
X169206599Y-104710021D01*
X169299421Y-104881692D01*
X169336680Y-104936932D01*
X169373151Y-104992664D01*
X169379636Y-105000617D01*
X169504039Y-105150994D01*
X169551346Y-105197972D01*
X169560767Y-105207592D01*
X169451494Y-105280606D01*
X169237687Y-105494413D01*
X169069700Y-105745823D01*
X168953988Y-106025175D01*
X168894999Y-106321734D01*
X168894999Y-106624102D01*
X168935283Y-106826622D01*
X168843072Y-106734411D01*
X168843072Y-106010417D01*
X168826008Y-105837163D01*
X168775472Y-105670567D01*
X168693405Y-105517031D01*
X168582962Y-105382455D01*
X168448386Y-105272012D01*
X168294850Y-105189945D01*
X168128254Y-105139409D01*
X167955000Y-105122345D01*
X166705000Y-105122345D01*
X166531746Y-105139409D01*
X166365150Y-105189945D01*
X166211614Y-105272012D01*
X166077038Y-105382455D01*
X165966595Y-105517031D01*
X165884528Y-105670567D01*
X165833992Y-105837163D01*
X165816928Y-106010417D01*
X165816928Y-106935417D01*
X165833992Y-107108671D01*
X165884528Y-107275267D01*
X165966595Y-107428803D01*
X166077038Y-107563379D01*
X166211614Y-107673822D01*
X166365150Y-107755889D01*
X166531746Y-107806425D01*
X166705000Y-107823489D01*
X167428993Y-107823489D01*
X167566111Y-107960608D01*
X162334998Y-107958645D01*
X162334998Y-104210417D01*
X165816928Y-104210417D01*
X165829188Y-104334899D01*
X165865498Y-104454597D01*
X165924463Y-104564911D01*
X166003815Y-104661602D01*
X166100506Y-104740954D01*
X166210820Y-104799919D01*
X166330518Y-104836229D01*
X166455000Y-104848489D01*
X167044250Y-104845417D01*
X167203000Y-104686667D01*
X167203000Y-103624917D01*
X167457000Y-103624917D01*
X167457000Y-104686667D01*
X167615750Y-104845417D01*
X168205000Y-104848489D01*
X168329482Y-104836229D01*
X168449180Y-104799919D01*
X168559494Y-104740954D01*
X168656185Y-104661602D01*
X168735537Y-104564911D01*
X168794502Y-104454597D01*
X168830812Y-104334899D01*
X168843072Y-104210417D01*
X168840000Y-103783667D01*
X168681250Y-103624917D01*
X167457000Y-103624917D01*
X167203000Y-103624917D01*
X165978750Y-103624917D01*
X165820000Y-103783667D01*
X165816928Y-104210417D01*
X162334998Y-104210417D01*
X162334998Y-102785417D01*
X165816928Y-102785417D01*
X165820000Y-103212167D01*
X165978750Y-103370917D01*
X167203000Y-103370917D01*
X167203000Y-102309167D01*
X167457000Y-102309167D01*
X167457000Y-103370917D01*
X168681250Y-103370917D01*
X168840000Y-103212167D01*
X168843072Y-102785417D01*
X168830812Y-102660935D01*
X168794502Y-102541237D01*
X168735537Y-102430923D01*
X168656185Y-102334232D01*
X168559494Y-102254880D01*
X168449180Y-102195915D01*
X168329482Y-102159605D01*
X168205000Y-102147345D01*
X167615750Y-102150417D01*
X167457000Y-102309167D01*
X167203000Y-102309167D01*
X167044250Y-102150417D01*
X166455000Y-102147345D01*
X166330518Y-102159605D01*
X166210820Y-102195915D01*
X166100506Y-102254880D01*
X166003815Y-102334232D01*
X165924463Y-102430923D01*
X165865498Y-102541237D01*
X165829188Y-102660935D01*
X165816928Y-102785417D01*
X162334998Y-102785417D01*
X162335000Y-95563896D01*
X162331907Y-95532497D01*
X162331950Y-95526402D01*
X162330949Y-95516188D01*
X162310548Y-95322091D01*
X162297155Y-95256843D01*
X162284671Y-95191402D01*
X162281705Y-95181577D01*
X162223993Y-94995139D01*
X162198156Y-94933676D01*
X162173221Y-94871960D01*
X162168404Y-94862899D01*
X162075578Y-94691221D01*
X162038297Y-94635951D01*
X162001851Y-94580255D01*
X161995365Y-94572302D01*
X161870962Y-94421923D01*
X161823655Y-94374945D01*
X161777083Y-94327387D01*
X161769176Y-94320845D01*
X161617933Y-94197494D01*
X161562458Y-94160637D01*
X161507481Y-94122993D01*
X161498454Y-94118112D01*
X161326132Y-94026487D01*
X161264529Y-94001096D01*
X161203311Y-93974858D01*
X161193508Y-93971823D01*
X161006672Y-93915414D01*
X160941304Y-93902471D01*
X160876163Y-93888625D01*
X160865957Y-93887552D01*
X160671723Y-93868507D01*
X160671712Y-93868507D01*
X160636104Y-93865000D01*
X140419822Y-93865000D01*
X134050963Y-78287018D01*
X134028022Y-78223038D01*
X134026243Y-78211172D01*
X134026803Y-78199185D01*
X134037607Y-78155445D01*
X134068569Y-78070377D01*
X134092173Y-78105703D01*
X134305980Y-78319510D01*
X134557390Y-78487497D01*
X134836742Y-78603209D01*
X135133301Y-78662198D01*
X135435669Y-78662198D01*
X135732228Y-78603209D01*
X135881403Y-78541418D01*
X135880298Y-78561666D01*
X135897977Y-78685495D01*
X135939473Y-78803495D01*
X136003193Y-78911132D01*
X136053438Y-78967180D01*
X136036080Y-78977456D01*
X135906451Y-79093664D01*
X135801983Y-79232929D01*
X135726691Y-79389899D01*
X135299166Y-80564515D01*
X135255945Y-80733157D01*
X135246454Y-80906991D01*
X135271059Y-81079336D01*
X135328815Y-81243569D01*
X135417500Y-81393379D01*
X135533709Y-81523009D01*
X135672973Y-81627476D01*
X135829943Y-81702768D01*
X136699158Y-82019136D01*
X136867800Y-82062357D01*
X137041633Y-82071848D01*
X137103517Y-82063013D01*
X137971373Y-82063013D01*
X137989053Y-82186842D01*
X138030549Y-82304842D01*
X138094269Y-82412478D01*
X138177763Y-82505617D01*
X138277823Y-82580676D01*
X138390605Y-82634772D01*
X138792669Y-82777843D01*
X138809842Y-82769835D01*
X139234823Y-82769835D01*
X139329704Y-82973307D01*
X139729667Y-83122151D01*
X139850835Y-83153206D01*
X139975733Y-83160025D01*
X140099561Y-83142345D01*
X140217561Y-83100849D01*
X140325198Y-83037129D01*
X140418337Y-82953635D01*
X140493396Y-82853575D01*
X140547492Y-82740793D01*
X140746141Y-82186028D01*
X140651260Y-81982556D01*
X139653541Y-81619417D01*
X139234823Y-82769835D01*
X138809842Y-82769835D01*
X138996141Y-82682962D01*
X139414859Y-81532543D01*
X138417141Y-81169404D01*
X138213669Y-81264284D01*
X138009247Y-81816947D01*
X137978192Y-81938115D01*
X137971373Y-82063013D01*
X137103517Y-82063013D01*
X137213978Y-82047243D01*
X137378212Y-81989487D01*
X137528022Y-81900802D01*
X137657651Y-81784594D01*
X137762119Y-81645329D01*
X137837411Y-81488359D01*
X138264936Y-80313743D01*
X138308157Y-80145101D01*
X138317648Y-79971267D01*
X138293043Y-79798922D01*
X138286352Y-79779895D01*
X138360870Y-79769256D01*
X138478870Y-79727760D01*
X138586507Y-79664040D01*
X138679645Y-79580545D01*
X138754704Y-79480485D01*
X138808801Y-79367703D01*
X139378265Y-77803114D01*
X139740017Y-77934781D01*
X139542390Y-78132408D01*
X139374403Y-78383818D01*
X139258691Y-78663170D01*
X139199702Y-78959729D01*
X139199702Y-79262097D01*
X139258691Y-79558656D01*
X139346596Y-79770877D01*
X139304439Y-79760072D01*
X139179541Y-79753253D01*
X139055713Y-79770933D01*
X138937713Y-79812429D01*
X138830076Y-79876149D01*
X138736937Y-79959643D01*
X138661878Y-80059703D01*
X138607782Y-80172485D01*
X138409133Y-80727250D01*
X138504014Y-80930722D01*
X139501733Y-81293861D01*
X139508573Y-81275068D01*
X139747256Y-81361941D01*
X139740415Y-81380735D01*
X140738133Y-81743874D01*
X140941605Y-81648994D01*
X141146027Y-81096331D01*
X141177082Y-80975163D01*
X141183901Y-80850265D01*
X141166221Y-80726436D01*
X141124725Y-80608436D01*
X141119412Y-80599462D01*
X141182445Y-80586924D01*
X141331620Y-80525133D01*
X141330515Y-80545381D01*
X141348194Y-80669210D01*
X141389690Y-80787210D01*
X141453410Y-80894847D01*
X141503657Y-80950897D01*
X141486299Y-80961172D01*
X141356670Y-81077380D01*
X141252202Y-81216645D01*
X141176910Y-81373615D01*
X140749385Y-82548231D01*
X140706164Y-82716873D01*
X140696673Y-82890707D01*
X140721278Y-83063052D01*
X140779034Y-83227285D01*
X140867719Y-83377095D01*
X140983928Y-83506725D01*
X141123192Y-83611192D01*
X141280162Y-83686484D01*
X142149377Y-84002852D01*
X142318019Y-84046073D01*
X142491852Y-84055564D01*
X142553736Y-84046729D01*
X143421592Y-84046729D01*
X143439272Y-84170558D01*
X143480768Y-84288558D01*
X143544488Y-84396194D01*
X143627982Y-84489333D01*
X143728042Y-84564392D01*
X143840824Y-84618488D01*
X144242888Y-84761559D01*
X144260061Y-84753551D01*
X144685042Y-84753551D01*
X144779923Y-84957023D01*
X145179886Y-85105867D01*
X145301054Y-85136922D01*
X145425952Y-85143741D01*
X145549780Y-85126061D01*
X145667780Y-85084565D01*
X145775417Y-85020845D01*
X145868556Y-84937351D01*
X145943615Y-84837291D01*
X145997711Y-84724509D01*
X146196360Y-84169744D01*
X146101479Y-83966272D01*
X145103760Y-83603133D01*
X144685042Y-84753551D01*
X144260061Y-84753551D01*
X144446360Y-84666678D01*
X144865078Y-83516259D01*
X144447989Y-83364451D01*
X145190634Y-83364451D01*
X146188352Y-83727590D01*
X146391824Y-83632710D01*
X146596246Y-83080047D01*
X146627301Y-82958879D01*
X146634120Y-82833981D01*
X146616440Y-82710152D01*
X146574944Y-82592152D01*
X146511224Y-82484516D01*
X146427730Y-82391377D01*
X146327670Y-82316318D01*
X146214888Y-82262222D01*
X145812824Y-82119151D01*
X145609352Y-82214032D01*
X145190634Y-83364451D01*
X144447989Y-83364451D01*
X143867360Y-83153120D01*
X143663888Y-83248000D01*
X143459466Y-83800663D01*
X143428411Y-83921831D01*
X143421592Y-84046729D01*
X142553736Y-84046729D01*
X142664197Y-84030959D01*
X142828431Y-83973203D01*
X142978241Y-83884518D01*
X143107870Y-83768310D01*
X143212338Y-83629045D01*
X143287630Y-83472075D01*
X143564650Y-82710966D01*
X143859352Y-82710966D01*
X143954233Y-82914438D01*
X144951952Y-83277577D01*
X145370670Y-82127159D01*
X145275789Y-81923687D01*
X144875826Y-81774843D01*
X144754658Y-81743788D01*
X144629760Y-81736969D01*
X144505932Y-81754649D01*
X144387932Y-81796145D01*
X144280295Y-81859865D01*
X144187156Y-81943359D01*
X144112097Y-82043419D01*
X144058001Y-82156201D01*
X143859352Y-82710966D01*
X143564650Y-82710966D01*
X143715155Y-82297459D01*
X143758376Y-82128817D01*
X143767867Y-81954983D01*
X143743262Y-81782638D01*
X143736570Y-81763610D01*
X143811087Y-81752971D01*
X143929087Y-81711475D01*
X144036724Y-81647755D01*
X144129862Y-81564260D01*
X144204921Y-81464200D01*
X144259018Y-81351418D01*
X144874654Y-79659972D01*
X144905708Y-79538805D01*
X144912527Y-79413907D01*
X144894848Y-79290078D01*
X144853352Y-79172078D01*
X144789632Y-79064441D01*
X144706137Y-78971303D01*
X144649274Y-78928647D01*
X144675752Y-78909126D01*
X144729935Y-78870335D01*
X144737609Y-78863521D01*
X144882645Y-78732931D01*
X144927614Y-78683684D01*
X144973167Y-78635174D01*
X144979368Y-78627005D01*
X144979371Y-78627002D01*
X144979373Y-78626999D01*
X145096281Y-78470725D01*
X145130809Y-78413712D01*
X145166090Y-78357251D01*
X145170589Y-78348028D01*
X145254918Y-78172021D01*
X145254927Y-78171996D01*
X145270395Y-78139748D01*
X145465000Y-77605075D01*
X145465000Y-77681184D01*
X145523989Y-77977743D01*
X145639701Y-78257095D01*
X145807688Y-78508505D01*
X145874127Y-78574944D01*
X145855820Y-78580498D01*
X145745506Y-78639463D01*
X145648815Y-78718815D01*
X145569463Y-78815506D01*
X145510498Y-78925820D01*
X145474188Y-79045518D01*
X145461928Y-79170000D01*
X145461928Y-80970000D01*
X145474188Y-81094482D01*
X145510498Y-81214180D01*
X145569463Y-81324494D01*
X145648815Y-81421185D01*
X145745506Y-81500537D01*
X145855820Y-81559502D01*
X145975518Y-81595812D01*
X146100000Y-81608072D01*
X147900000Y-81608072D01*
X148024482Y-81595812D01*
X148144180Y-81559502D01*
X148254494Y-81500537D01*
X148351185Y-81421185D01*
X148430537Y-81324494D01*
X148489502Y-81214180D01*
X148525812Y-81094482D01*
X148538072Y-80970000D01*
X148538072Y-80830000D01*
X152755199Y-80830000D01*
X155136201Y-83211003D01*
X155159999Y-83240001D01*
X155275724Y-83334974D01*
X155407753Y-83405546D01*
X155551014Y-83449003D01*
X155662667Y-83460000D01*
X155662675Y-83460000D01*
X155700000Y-83463676D01*
X155737325Y-83460000D01*
X155929058Y-83460000D01*
X155880699Y-83518925D01*
X155767413Y-83730867D01*
X155697652Y-83960838D01*
X155674097Y-84200000D01*
X155697652Y-84439162D01*
X155767413Y-84669133D01*
X155880699Y-84881075D01*
X155937264Y-84950000D01*
X155880699Y-85018925D01*
X155767413Y-85230867D01*
X155697652Y-85460838D01*
X155674097Y-85700000D01*
X155697652Y-85939162D01*
X155767413Y-86169133D01*
X155856297Y-86335422D01*
X155826595Y-86371613D01*
X155744528Y-86525149D01*
X155693992Y-86691745D01*
X155676928Y-86864999D01*
X155676928Y-87535001D01*
X155693992Y-87708255D01*
X155744528Y-87874851D01*
X155826595Y-88028387D01*
X155937038Y-88162962D01*
X156071613Y-88273405D01*
X156225149Y-88355472D01*
X156391745Y-88406008D01*
X156564999Y-88423072D01*
X157935001Y-88423072D01*
X158108255Y-88406008D01*
X158274851Y-88355472D01*
X158428387Y-88273405D01*
X158562962Y-88162962D01*
X158673405Y-88028387D01*
X158755472Y-87874851D01*
X158806008Y-87708255D01*
X158823072Y-87535001D01*
X158823072Y-86864999D01*
X158806008Y-86691745D01*
X158756064Y-86527098D01*
X163486927Y-86527098D01*
X163499187Y-86651580D01*
X163535497Y-86771278D01*
X163594462Y-86881592D01*
X163673814Y-86978283D01*
X163770505Y-87057635D01*
X163880819Y-87116600D01*
X164000517Y-87152910D01*
X164124999Y-87165170D01*
X164714249Y-87162098D01*
X164872999Y-87003348D01*
X164872999Y-85941598D01*
X165126999Y-85941598D01*
X165126999Y-87003348D01*
X165285749Y-87162098D01*
X165874999Y-87165170D01*
X165999481Y-87152910D01*
X166119179Y-87116600D01*
X166229493Y-87057635D01*
X166326184Y-86978283D01*
X166405536Y-86881592D01*
X166464501Y-86771278D01*
X166500811Y-86651580D01*
X166513071Y-86527098D01*
X166509999Y-86100348D01*
X166351249Y-85941598D01*
X165126999Y-85941598D01*
X164872999Y-85941598D01*
X163648749Y-85941598D01*
X163489999Y-86100348D01*
X163486927Y-86527098D01*
X158756064Y-86527098D01*
X158755472Y-86525149D01*
X158673405Y-86371613D01*
X158643703Y-86335422D01*
X158732587Y-86169133D01*
X158802348Y-85939162D01*
X158825903Y-85700000D01*
X158802348Y-85460838D01*
X158732587Y-85230867D01*
X158663759Y-85102098D01*
X163486927Y-85102098D01*
X163489999Y-85528848D01*
X163648749Y-85687598D01*
X164872999Y-85687598D01*
X164872999Y-84625848D01*
X165126999Y-84625848D01*
X165126999Y-85687598D01*
X166351249Y-85687598D01*
X166509999Y-85528848D01*
X166513071Y-85102098D01*
X166500811Y-84977616D01*
X166464501Y-84857918D01*
X166405536Y-84747604D01*
X166326184Y-84650913D01*
X166229493Y-84571561D01*
X166119179Y-84512596D01*
X165999481Y-84476286D01*
X165874999Y-84464026D01*
X165285749Y-84467098D01*
X165126999Y-84625848D01*
X164872999Y-84625848D01*
X164714249Y-84467098D01*
X164124999Y-84464026D01*
X164000517Y-84476286D01*
X163880819Y-84512596D01*
X163770505Y-84571561D01*
X163673814Y-84650913D01*
X163594462Y-84747604D01*
X163535497Y-84857918D01*
X163499187Y-84977616D01*
X163486927Y-85102098D01*
X158663759Y-85102098D01*
X158619301Y-85018925D01*
X158562736Y-84950000D01*
X158619301Y-84881075D01*
X158732587Y-84669133D01*
X158802348Y-84439162D01*
X158825903Y-84200000D01*
X158802348Y-83960838D01*
X158732587Y-83730867D01*
X158619301Y-83518925D01*
X158562736Y-83450000D01*
X158619301Y-83381075D01*
X158732587Y-83169133D01*
X158802348Y-82939162D01*
X158825903Y-82700000D01*
X158802348Y-82460838D01*
X158732587Y-82230867D01*
X158619301Y-82018925D01*
X158562736Y-81950000D01*
X158619301Y-81881075D01*
X158732587Y-81669133D01*
X158802348Y-81439162D01*
X158825903Y-81200000D01*
X158802348Y-80960838D01*
X158732587Y-80730867D01*
X158619301Y-80518925D01*
X158562736Y-80450000D01*
X158619301Y-80381075D01*
X158732587Y-80169133D01*
X158802348Y-79939162D01*
X158816792Y-79792500D01*
X163475907Y-79792500D01*
X163478979Y-80219250D01*
X163637729Y-80378000D01*
X164861979Y-80378000D01*
X164861979Y-79316250D01*
X164703229Y-79157500D01*
X164113979Y-79154428D01*
X163989497Y-79166688D01*
X163869799Y-79202998D01*
X163759485Y-79261963D01*
X163662794Y-79341315D01*
X163583442Y-79438006D01*
X163524477Y-79548320D01*
X163488167Y-79668018D01*
X163475907Y-79792500D01*
X158816792Y-79792500D01*
X158825903Y-79700000D01*
X158802348Y-79460838D01*
X158732587Y-79230867D01*
X158619301Y-79018925D01*
X158565415Y-78953265D01*
X158684952Y-78772199D01*
X158775735Y-78549541D01*
X158778566Y-78515250D01*
X158653624Y-78327000D01*
X157377000Y-78327000D01*
X157377000Y-78347000D01*
X157123000Y-78347000D01*
X157123000Y-78327000D01*
X155846376Y-78327000D01*
X155721434Y-78515250D01*
X155724265Y-78549541D01*
X155815048Y-78772199D01*
X155925827Y-78940000D01*
X154879801Y-78940000D01*
X153824551Y-77884750D01*
X155721434Y-77884750D01*
X155846376Y-78073000D01*
X157123000Y-78073000D01*
X157123000Y-76980000D01*
X157377000Y-76980000D01*
X157377000Y-78073000D01*
X158653624Y-78073000D01*
X158778566Y-77884750D01*
X158775735Y-77850459D01*
X158684952Y-77627801D01*
X158552474Y-77427132D01*
X158383393Y-77256164D01*
X158184207Y-77121467D01*
X157962570Y-77028218D01*
X157727000Y-76980000D01*
X157377000Y-76980000D01*
X157123000Y-76980000D01*
X156773000Y-76980000D01*
X156537430Y-77028218D01*
X156315793Y-77121467D01*
X156116607Y-77256164D01*
X155947526Y-77427132D01*
X155815048Y-77627801D01*
X155724265Y-77850459D01*
X155721434Y-77884750D01*
X153824551Y-77884750D01*
X150660000Y-74720200D01*
X150660000Y-67820205D01*
X150663676Y-67782880D01*
X150660000Y-67745555D01*
X150660000Y-67745547D01*
X150649003Y-67633894D01*
X150605546Y-67490633D01*
X150534974Y-67358604D01*
X150440001Y-67242879D01*
X150411002Y-67219080D01*
X149915965Y-66724044D01*
X149879831Y-66683736D01*
X149871465Y-66677460D01*
X149864262Y-66669854D01*
X149825166Y-66642163D01*
X149788174Y-66611804D01*
X149773442Y-66603929D01*
X149760073Y-66593901D01*
X149750636Y-66589375D01*
X149742095Y-66583325D01*
X149698368Y-66563802D01*
X149656144Y-66541232D01*
X149630180Y-66533356D01*
X149605395Y-66522290D01*
X149578962Y-66516280D01*
X142296943Y-63865842D01*
X152815000Y-62922747D01*
X152814999Y-67836103D01*
%TD*%
M02*
