%TF.GenerationSoftware,KiCad,Pcbnew,5.1.6-c6e7f7d~86~ubuntu18.04.1*%
%TF.CreationDate,2021-04-26T01:41:27-07:00*%
%TF.ProjectId,thumb_cluster_left,7468756d-625f-4636-9c75-737465725f6c,rev?*%
%TF.SameCoordinates,Original*%
%TF.FileFunction,Other,Fab,Top*%
%FSLAX46Y46*%
G04 Gerber Fmt 4.6, Leading zero omitted, Abs format (unit mm)*
G04 Created by KiCad (PCBNEW 5.1.6-c6e7f7d~86~ubuntu18.04.1) date 2021-04-26 01:41:27*
%MOMM*%
%LPD*%
G01*
G04 APERTURE LIST*
%ADD10C,0.125000*%
%ADD11C,0.100000*%
%ADD12C,0.150000*%
G04 APERTURE END LIST*
D10*
X151804540Y-71503220D02*
X151804540Y-71003220D01*
X151971207Y-71360363D01*
X152137873Y-71003220D01*
X152137873Y-71503220D01*
X152590254Y-71503220D02*
X152590254Y-71241315D01*
X152566445Y-71193696D01*
X152518826Y-71169887D01*
X152423588Y-71169887D01*
X152375969Y-71193696D01*
X152590254Y-71479410D02*
X152542635Y-71503220D01*
X152423588Y-71503220D01*
X152375969Y-71479410D01*
X152352159Y-71431791D01*
X152352159Y-71384172D01*
X152375969Y-71336553D01*
X152423588Y-71312744D01*
X152542635Y-71312744D01*
X152590254Y-71288934D01*
X152780730Y-71503220D02*
X153042635Y-71169887D01*
X152780730Y-71169887D02*
X153042635Y-71503220D01*
X153614064Y-71503220D02*
X153614064Y-71169887D01*
X153614064Y-71003220D02*
X153590254Y-71027030D01*
X153614064Y-71050839D01*
X153637873Y-71027030D01*
X153614064Y-71003220D01*
X153614064Y-71050839D01*
X153852159Y-71169887D02*
X153852159Y-71503220D01*
X153852159Y-71217506D02*
X153875969Y-71193696D01*
X153923588Y-71169887D01*
X153995016Y-71169887D01*
X154042635Y-71193696D01*
X154066445Y-71241315D01*
X154066445Y-71503220D01*
X154233111Y-71169887D02*
X154423588Y-71169887D01*
X154304540Y-71003220D02*
X154304540Y-71431791D01*
X154328350Y-71479410D01*
X154375969Y-71503220D01*
X154423588Y-71503220D01*
X154780730Y-71479410D02*
X154733111Y-71503220D01*
X154637873Y-71503220D01*
X154590254Y-71479410D01*
X154566445Y-71431791D01*
X154566445Y-71241315D01*
X154590254Y-71193696D01*
X154637873Y-71169887D01*
X154733111Y-71169887D01*
X154780730Y-71193696D01*
X154804540Y-71241315D01*
X154804540Y-71288934D01*
X154566445Y-71336553D01*
X155018826Y-71503220D02*
X155018826Y-71169887D01*
X155018826Y-71265125D02*
X155042635Y-71217506D01*
X155066445Y-71193696D01*
X155114064Y-71169887D01*
X155161683Y-71169887D01*
X155328350Y-71169887D02*
X155328350Y-71503220D01*
X155328350Y-71217506D02*
X155352159Y-71193696D01*
X155399778Y-71169887D01*
X155471207Y-71169887D01*
X155518826Y-71193696D01*
X155542635Y-71241315D01*
X155542635Y-71503220D01*
X155995016Y-71503220D02*
X155995016Y-71241315D01*
X155971207Y-71193696D01*
X155923588Y-71169887D01*
X155828350Y-71169887D01*
X155780730Y-71193696D01*
X155995016Y-71479410D02*
X155947397Y-71503220D01*
X155828350Y-71503220D01*
X155780730Y-71479410D01*
X155756921Y-71431791D01*
X155756921Y-71384172D01*
X155780730Y-71336553D01*
X155828350Y-71312744D01*
X155947397Y-71312744D01*
X155995016Y-71288934D01*
X156304540Y-71503220D02*
X156256921Y-71479410D01*
X156233111Y-71431791D01*
X156233111Y-71003220D01*
X157090254Y-71479410D02*
X157042635Y-71503220D01*
X156947397Y-71503220D01*
X156899778Y-71479410D01*
X156875969Y-71455601D01*
X156852159Y-71407982D01*
X156852159Y-71265125D01*
X156875969Y-71217506D01*
X156899778Y-71193696D01*
X156947397Y-71169887D01*
X157042635Y-71169887D01*
X157090254Y-71193696D01*
X157375969Y-71503220D02*
X157328350Y-71479410D01*
X157304540Y-71455601D01*
X157280730Y-71407982D01*
X157280730Y-71265125D01*
X157304540Y-71217506D01*
X157328350Y-71193696D01*
X157375969Y-71169887D01*
X157447397Y-71169887D01*
X157495016Y-71193696D01*
X157518826Y-71217506D01*
X157542635Y-71265125D01*
X157542635Y-71407982D01*
X157518826Y-71455601D01*
X157495016Y-71479410D01*
X157447397Y-71503220D01*
X157375969Y-71503220D01*
X157756921Y-71503220D02*
X157756921Y-71169887D01*
X157756921Y-71265125D02*
X157780730Y-71217506D01*
X157804540Y-71193696D01*
X157852159Y-71169887D01*
X157899778Y-71169887D01*
X158066445Y-71169887D02*
X158066445Y-71503220D01*
X158066445Y-71217506D02*
X158090254Y-71193696D01*
X158137873Y-71169887D01*
X158209302Y-71169887D01*
X158256921Y-71193696D01*
X158280730Y-71241315D01*
X158280730Y-71503220D01*
X158709302Y-71479410D02*
X158661683Y-71503220D01*
X158566445Y-71503220D01*
X158518826Y-71479410D01*
X158495016Y-71431791D01*
X158495016Y-71241315D01*
X158518826Y-71193696D01*
X158566445Y-71169887D01*
X158661683Y-71169887D01*
X158709302Y-71193696D01*
X158733111Y-71241315D01*
X158733111Y-71288934D01*
X158495016Y-71336553D01*
X158947397Y-71503220D02*
X158947397Y-71169887D01*
X158947397Y-71265125D02*
X158971207Y-71217506D01*
X158995016Y-71193696D01*
X159042635Y-71169887D01*
X159090254Y-71169887D01*
X159637873Y-71503220D02*
X159637873Y-71169887D01*
X159637873Y-71265125D02*
X159661683Y-71217506D01*
X159685492Y-71193696D01*
X159733111Y-71169887D01*
X159780730Y-71169887D01*
X160161683Y-71503220D02*
X160161683Y-71241315D01*
X160137873Y-71193696D01*
X160090254Y-71169887D01*
X159995016Y-71169887D01*
X159947397Y-71193696D01*
X160161683Y-71479410D02*
X160114064Y-71503220D01*
X159995016Y-71503220D01*
X159947397Y-71479410D01*
X159923588Y-71431791D01*
X159923588Y-71384172D01*
X159947397Y-71336553D01*
X159995016Y-71312744D01*
X160114064Y-71312744D01*
X160161683Y-71288934D01*
X160614064Y-71503220D02*
X160614064Y-71003220D01*
X160614064Y-71479410D02*
X160566445Y-71503220D01*
X160471207Y-71503220D01*
X160423588Y-71479410D01*
X160399778Y-71455601D01*
X160375969Y-71407982D01*
X160375969Y-71265125D01*
X160399778Y-71217506D01*
X160423588Y-71193696D01*
X160471207Y-71169887D01*
X160566445Y-71169887D01*
X160614064Y-71193696D01*
X160852159Y-71503220D02*
X160852159Y-71169887D01*
X160852159Y-71003220D02*
X160828350Y-71027030D01*
X160852159Y-71050839D01*
X160875969Y-71027030D01*
X160852159Y-71003220D01*
X160852159Y-71050839D01*
X161304540Y-71169887D02*
X161304540Y-71503220D01*
X161090254Y-71169887D02*
X161090254Y-71431791D01*
X161114064Y-71479410D01*
X161161683Y-71503220D01*
X161233111Y-71503220D01*
X161280730Y-71479410D01*
X161304540Y-71455601D01*
X161518826Y-71479410D02*
X161566445Y-71503220D01*
X161661683Y-71503220D01*
X161709302Y-71479410D01*
X161733111Y-71431791D01*
X161733111Y-71407982D01*
X161709302Y-71360363D01*
X161661683Y-71336553D01*
X161590254Y-71336553D01*
X161542635Y-71312744D01*
X161518826Y-71265125D01*
X161518826Y-71241315D01*
X161542635Y-71193696D01*
X161590254Y-71169887D01*
X161661683Y-71169887D01*
X161709302Y-71193696D01*
X161947397Y-71455601D02*
X161971207Y-71479410D01*
X161947397Y-71503220D01*
X161923588Y-71479410D01*
X161947397Y-71455601D01*
X161947397Y-71503220D01*
X161947397Y-71193696D02*
X161971207Y-71217506D01*
X161947397Y-71241315D01*
X161923588Y-71217506D01*
X161947397Y-71193696D01*
X161947397Y-71241315D01*
X162828350Y-71503220D02*
X162542635Y-71503220D01*
X162685492Y-71503220D02*
X162685492Y-71003220D01*
X162637873Y-71074649D01*
X162590254Y-71122268D01*
X162542635Y-71146077D01*
X163042635Y-71455601D02*
X163066445Y-71479410D01*
X163042635Y-71503220D01*
X163018826Y-71479410D01*
X163042635Y-71455601D01*
X163042635Y-71503220D01*
X163375969Y-71003220D02*
X163423588Y-71003220D01*
X163471207Y-71027030D01*
X163495016Y-71050839D01*
X163518826Y-71098458D01*
X163542635Y-71193696D01*
X163542635Y-71312744D01*
X163518826Y-71407982D01*
X163495016Y-71455601D01*
X163471207Y-71479410D01*
X163423588Y-71503220D01*
X163375969Y-71503220D01*
X163328350Y-71479410D01*
X163304540Y-71455601D01*
X163280730Y-71407982D01*
X163256921Y-71312744D01*
X163256921Y-71193696D01*
X163280730Y-71098458D01*
X163304540Y-71050839D01*
X163328350Y-71027030D01*
X163375969Y-71003220D01*
X163756921Y-71503220D02*
X163756921Y-71169887D01*
X163756921Y-71217506D02*
X163780730Y-71193696D01*
X163828350Y-71169887D01*
X163899778Y-71169887D01*
X163947397Y-71193696D01*
X163971207Y-71241315D01*
X163971207Y-71503220D01*
X163971207Y-71241315D02*
X163995016Y-71193696D01*
X164042635Y-71169887D01*
X164114064Y-71169887D01*
X164161683Y-71193696D01*
X164185492Y-71241315D01*
X164185492Y-71503220D01*
X164423588Y-71503220D02*
X164423588Y-71169887D01*
X164423588Y-71217506D02*
X164447397Y-71193696D01*
X164495016Y-71169887D01*
X164566445Y-71169887D01*
X164614064Y-71193696D01*
X164637873Y-71241315D01*
X164637873Y-71503220D01*
X164637873Y-71241315D02*
X164661683Y-71193696D01*
X164709302Y-71169887D01*
X164780730Y-71169887D01*
X164828350Y-71193696D01*
X164852159Y-71241315D01*
X164852159Y-71503220D01*
X153840254Y-72568696D02*
X153816445Y-72544887D01*
X153768826Y-72473458D01*
X153745016Y-72425839D01*
X153721207Y-72354410D01*
X153697397Y-72235363D01*
X153697397Y-72140125D01*
X153721207Y-72021077D01*
X153745016Y-71949649D01*
X153768826Y-71902030D01*
X153816445Y-71830601D01*
X153840254Y-71806791D01*
X153959302Y-72044887D02*
X154149778Y-72044887D01*
X154030730Y-72378220D02*
X154030730Y-71949649D01*
X154054540Y-71902030D01*
X154102159Y-71878220D01*
X154149778Y-71878220D01*
X154387873Y-72378220D02*
X154340254Y-72354410D01*
X154316445Y-72330601D01*
X154292635Y-72282982D01*
X154292635Y-72140125D01*
X154316445Y-72092506D01*
X154340254Y-72068696D01*
X154387873Y-72044887D01*
X154459302Y-72044887D01*
X154506921Y-72068696D01*
X154530730Y-72092506D01*
X154554540Y-72140125D01*
X154554540Y-72282982D01*
X154530730Y-72330601D01*
X154506921Y-72354410D01*
X154459302Y-72378220D01*
X154387873Y-72378220D01*
X154768826Y-72378220D02*
X154768826Y-72044887D01*
X154768826Y-72140125D02*
X154792635Y-72092506D01*
X154816445Y-72068696D01*
X154864064Y-72044887D01*
X154911683Y-72044887D01*
X155673588Y-72378220D02*
X155673588Y-72116315D01*
X155649778Y-72068696D01*
X155602159Y-72044887D01*
X155506921Y-72044887D01*
X155459302Y-72068696D01*
X155673588Y-72354410D02*
X155625969Y-72378220D01*
X155506921Y-72378220D01*
X155459302Y-72354410D01*
X155435492Y-72306791D01*
X155435492Y-72259172D01*
X155459302Y-72211553D01*
X155506921Y-72187744D01*
X155625969Y-72187744D01*
X155673588Y-72163934D01*
X155983111Y-72378220D02*
X155935492Y-72354410D01*
X155911683Y-72306791D01*
X155911683Y-71878220D01*
X156245016Y-72378220D02*
X156197397Y-72354410D01*
X156173588Y-72306791D01*
X156173588Y-71878220D01*
X156816445Y-72378220D02*
X156816445Y-72044887D01*
X156816445Y-71878220D02*
X156792635Y-71902030D01*
X156816445Y-71925839D01*
X156840254Y-71902030D01*
X156816445Y-71878220D01*
X156816445Y-71925839D01*
X157054540Y-72044887D02*
X157054540Y-72378220D01*
X157054540Y-72092506D02*
X157078350Y-72068696D01*
X157125969Y-72044887D01*
X157197397Y-72044887D01*
X157245016Y-72068696D01*
X157268826Y-72116315D01*
X157268826Y-72378220D01*
X157435492Y-72044887D02*
X157625969Y-72044887D01*
X157506921Y-71878220D02*
X157506921Y-72306791D01*
X157530730Y-72354410D01*
X157578350Y-72378220D01*
X157625969Y-72378220D01*
X157983111Y-72354410D02*
X157935492Y-72378220D01*
X157840254Y-72378220D01*
X157792635Y-72354410D01*
X157768826Y-72306791D01*
X157768826Y-72116315D01*
X157792635Y-72068696D01*
X157840254Y-72044887D01*
X157935492Y-72044887D01*
X157983111Y-72068696D01*
X158006921Y-72116315D01*
X158006921Y-72163934D01*
X157768826Y-72211553D01*
X158221207Y-72378220D02*
X158221207Y-72044887D01*
X158221207Y-72140125D02*
X158245016Y-72092506D01*
X158268826Y-72068696D01*
X158316445Y-72044887D01*
X158364064Y-72044887D01*
X158530730Y-72044887D02*
X158530730Y-72378220D01*
X158530730Y-72092506D02*
X158554540Y-72068696D01*
X158602159Y-72044887D01*
X158673588Y-72044887D01*
X158721207Y-72068696D01*
X158745016Y-72116315D01*
X158745016Y-72378220D01*
X159197397Y-72378220D02*
X159197397Y-72116315D01*
X159173588Y-72068696D01*
X159125969Y-72044887D01*
X159030730Y-72044887D01*
X158983111Y-72068696D01*
X159197397Y-72354410D02*
X159149778Y-72378220D01*
X159030730Y-72378220D01*
X158983111Y-72354410D01*
X158959302Y-72306791D01*
X158959302Y-72259172D01*
X158983111Y-72211553D01*
X159030730Y-72187744D01*
X159149778Y-72187744D01*
X159197397Y-72163934D01*
X159506921Y-72378220D02*
X159459302Y-72354410D01*
X159435492Y-72306791D01*
X159435492Y-71878220D01*
X160292635Y-72354410D02*
X160245016Y-72378220D01*
X160149778Y-72378220D01*
X160102159Y-72354410D01*
X160078350Y-72330601D01*
X160054540Y-72282982D01*
X160054540Y-72140125D01*
X160078350Y-72092506D01*
X160102159Y-72068696D01*
X160149778Y-72044887D01*
X160245016Y-72044887D01*
X160292635Y-72068696D01*
X160578350Y-72378220D02*
X160530730Y-72354410D01*
X160506921Y-72330601D01*
X160483111Y-72282982D01*
X160483111Y-72140125D01*
X160506921Y-72092506D01*
X160530730Y-72068696D01*
X160578350Y-72044887D01*
X160649778Y-72044887D01*
X160697397Y-72068696D01*
X160721207Y-72092506D01*
X160745016Y-72140125D01*
X160745016Y-72282982D01*
X160721207Y-72330601D01*
X160697397Y-72354410D01*
X160649778Y-72378220D01*
X160578350Y-72378220D01*
X160959302Y-72378220D02*
X160959302Y-72044887D01*
X160959302Y-72140125D02*
X160983111Y-72092506D01*
X161006921Y-72068696D01*
X161054540Y-72044887D01*
X161102159Y-72044887D01*
X161268826Y-72044887D02*
X161268826Y-72378220D01*
X161268826Y-72092506D02*
X161292635Y-72068696D01*
X161340254Y-72044887D01*
X161411683Y-72044887D01*
X161459302Y-72068696D01*
X161483111Y-72116315D01*
X161483111Y-72378220D01*
X161911683Y-72354410D02*
X161864064Y-72378220D01*
X161768826Y-72378220D01*
X161721207Y-72354410D01*
X161697397Y-72306791D01*
X161697397Y-72116315D01*
X161721207Y-72068696D01*
X161768826Y-72044887D01*
X161864064Y-72044887D01*
X161911683Y-72068696D01*
X161935492Y-72116315D01*
X161935492Y-72163934D01*
X161697397Y-72211553D01*
X162149778Y-72378220D02*
X162149778Y-72044887D01*
X162149778Y-72140125D02*
X162173588Y-72092506D01*
X162197397Y-72068696D01*
X162245016Y-72044887D01*
X162292635Y-72044887D01*
X162435492Y-72354410D02*
X162483111Y-72378220D01*
X162578350Y-72378220D01*
X162625969Y-72354410D01*
X162649778Y-72306791D01*
X162649778Y-72282982D01*
X162625969Y-72235363D01*
X162578350Y-72211553D01*
X162506921Y-72211553D01*
X162459302Y-72187744D01*
X162435492Y-72140125D01*
X162435492Y-72116315D01*
X162459302Y-72068696D01*
X162506921Y-72044887D01*
X162578350Y-72044887D01*
X162625969Y-72068696D01*
X162816445Y-72568696D02*
X162840254Y-72544887D01*
X162887873Y-72473458D01*
X162911683Y-72425839D01*
X162935492Y-72354410D01*
X162959302Y-72235363D01*
X162959302Y-72140125D01*
X162935492Y-72021077D01*
X162911683Y-71949649D01*
X162887873Y-71902030D01*
X162840254Y-71830601D01*
X162816445Y-71806791D01*
D11*
%TO.C,IR4*%
X139540187Y-79527487D02*
X143768804Y-81066578D01*
X140087419Y-78023979D02*
X139540187Y-79527487D01*
X144316036Y-79563070D02*
X140087419Y-78023979D01*
X143768804Y-81066578D02*
X144316036Y-79563070D01*
%TO.C,PT4*%
X148437380Y-68239775D02*
X144208763Y-66700684D01*
X147890148Y-69743283D02*
X148437380Y-68239775D01*
X143661531Y-68204192D02*
X147890148Y-69743283D01*
X144208763Y-66700684D02*
X143661531Y-68204192D01*
%TO.C,PT5*%
X142987161Y-66256057D02*
X138758544Y-64716966D01*
X142439929Y-67759565D02*
X142987161Y-66256057D01*
X138211312Y-66220474D02*
X142439929Y-67759565D01*
X138758544Y-64716966D02*
X138211312Y-66220474D01*
%TO.C,IR5*%
X134089970Y-77543772D02*
X138318587Y-79082863D01*
X134637202Y-76040264D02*
X134089970Y-77543772D01*
X138865819Y-77579355D02*
X134637202Y-76040264D01*
X138318587Y-79082863D02*
X138865819Y-77579355D01*
%TO.C,PT1*%
X173949999Y-93622918D02*
X169449999Y-93622918D01*
X173949999Y-95222918D02*
X173949999Y-93622918D01*
X169449999Y-95222918D02*
X173949999Y-95222918D01*
X169449999Y-93622918D02*
X169449999Y-95222918D01*
%TO.C,IR2*%
X169449999Y-81374999D02*
X173949999Y-81374999D01*
X169449999Y-79774999D02*
X169449999Y-81374999D01*
X173949999Y-79774999D02*
X169449999Y-79774999D01*
X173949999Y-81374999D02*
X173949999Y-79774999D01*
%TO.C,PT3*%
X146200000Y-76550000D02*
X146200000Y-81050000D01*
X147800000Y-76550000D02*
X146200000Y-76550000D01*
X147800000Y-81050000D02*
X147800000Y-76550000D01*
X146200000Y-81050000D02*
X147800000Y-81050000D01*
%TO.C,IR3*%
X168299999Y-81050000D02*
X168299999Y-76550000D01*
X166699999Y-81050000D02*
X168299999Y-81050000D01*
X166699999Y-76550000D02*
X166699999Y-81050000D01*
X168299999Y-76550000D02*
X166699999Y-76550000D01*
%TO.C,IR1*%
X169449999Y-107272918D02*
X173949999Y-107272918D01*
X169449999Y-105672918D02*
X169449999Y-107272918D01*
X173949999Y-105672918D02*
X169449999Y-105672918D01*
X173949999Y-107272918D02*
X173949999Y-105672918D01*
%TO.C,PT2*%
X173949998Y-67724999D02*
X169449998Y-67724999D01*
X173949998Y-69324999D02*
X173949998Y-67724999D01*
X169449998Y-69324999D02*
X173949998Y-69324999D01*
X169449998Y-67724999D02*
X169449998Y-69324999D01*
%TD*%
%TO.C,H2*%
D12*
X157697443Y-62564501D02*
X157697443Y-61564501D01*
X158030776Y-62278787D01*
X158364110Y-61564501D01*
X158364110Y-62564501D01*
X158983157Y-62564501D02*
X158887919Y-62516882D01*
X158840300Y-62469263D01*
X158792681Y-62374025D01*
X158792681Y-62088311D01*
X158840300Y-61993073D01*
X158887919Y-61945454D01*
X158983157Y-61897835D01*
X159126014Y-61897835D01*
X159221252Y-61945454D01*
X159268872Y-61993073D01*
X159316491Y-62088311D01*
X159316491Y-62374025D01*
X159268872Y-62469263D01*
X159221252Y-62516882D01*
X159126014Y-62564501D01*
X158983157Y-62564501D01*
X160173633Y-61897835D02*
X160173633Y-62564501D01*
X159745062Y-61897835D02*
X159745062Y-62421644D01*
X159792681Y-62516882D01*
X159887919Y-62564501D01*
X160030776Y-62564501D01*
X160126014Y-62516882D01*
X160173633Y-62469263D01*
X160649824Y-61897835D02*
X160649824Y-62564501D01*
X160649824Y-61993073D02*
X160697443Y-61945454D01*
X160792681Y-61897835D01*
X160935538Y-61897835D01*
X161030776Y-61945454D01*
X161078395Y-62040692D01*
X161078395Y-62564501D01*
X161411729Y-61897835D02*
X161792681Y-61897835D01*
X161554586Y-61564501D02*
X161554586Y-62421644D01*
X161602205Y-62516882D01*
X161697443Y-62564501D01*
X161792681Y-62564501D01*
X162126014Y-62564501D02*
X162126014Y-61897835D01*
X162126014Y-61564501D02*
X162078395Y-61612121D01*
X162126014Y-61659740D01*
X162173633Y-61612121D01*
X162126014Y-61564501D01*
X162126014Y-61659740D01*
X162602205Y-61897835D02*
X162602205Y-62564501D01*
X162602205Y-61993073D02*
X162649824Y-61945454D01*
X162745062Y-61897835D01*
X162887919Y-61897835D01*
X162983157Y-61945454D01*
X163030776Y-62040692D01*
X163030776Y-62564501D01*
X163935538Y-61897835D02*
X163935538Y-62707359D01*
X163887919Y-62802597D01*
X163840300Y-62850216D01*
X163745062Y-62897835D01*
X163602205Y-62897835D01*
X163506967Y-62850216D01*
X163935538Y-62516882D02*
X163840300Y-62564501D01*
X163649824Y-62564501D01*
X163554586Y-62516882D01*
X163506967Y-62469263D01*
X163459348Y-62374025D01*
X163459348Y-62088311D01*
X163506967Y-61993073D01*
X163554586Y-61945454D01*
X163649824Y-61897835D01*
X163840300Y-61897835D01*
X163935538Y-61945454D01*
X164411729Y-62564501D02*
X164411729Y-61564501D01*
X164411729Y-62040692D02*
X164983157Y-62040692D01*
X164983157Y-62564501D02*
X164983157Y-61564501D01*
X165602205Y-62564501D02*
X165506967Y-62516882D01*
X165459348Y-62469263D01*
X165411729Y-62374025D01*
X165411729Y-62088311D01*
X165459348Y-61993073D01*
X165506967Y-61945454D01*
X165602205Y-61897835D01*
X165745062Y-61897835D01*
X165840300Y-61945454D01*
X165887919Y-61993073D01*
X165935538Y-62088311D01*
X165935538Y-62374025D01*
X165887919Y-62469263D01*
X165840300Y-62516882D01*
X165745062Y-62564501D01*
X165602205Y-62564501D01*
X166506967Y-62564501D02*
X166411729Y-62516882D01*
X166364110Y-62421644D01*
X166364110Y-61564501D01*
X167268872Y-62516882D02*
X167173633Y-62564501D01*
X166983157Y-62564501D01*
X166887919Y-62516882D01*
X166840300Y-62421644D01*
X166840300Y-62040692D01*
X166887919Y-61945454D01*
X166983157Y-61897835D01*
X167173633Y-61897835D01*
X167268872Y-61945454D01*
X167316491Y-62040692D01*
X167316491Y-62135930D01*
X166840300Y-62231168D01*
X167506967Y-62659740D02*
X168268872Y-62659740D01*
X168506967Y-62564501D02*
X168506967Y-61564501D01*
X168887919Y-61564501D01*
X168983157Y-61612121D01*
X169030776Y-61659740D01*
X169078395Y-61754978D01*
X169078395Y-61897835D01*
X169030776Y-61993073D01*
X168983157Y-62040692D01*
X168887919Y-62088311D01*
X168506967Y-62088311D01*
X169935538Y-62564501D02*
X169935538Y-62040692D01*
X169887919Y-61945454D01*
X169792681Y-61897835D01*
X169602205Y-61897835D01*
X169506967Y-61945454D01*
X169935538Y-62516882D02*
X169840300Y-62564501D01*
X169602205Y-62564501D01*
X169506967Y-62516882D01*
X169459348Y-62421644D01*
X169459348Y-62326406D01*
X169506967Y-62231168D01*
X169602205Y-62183549D01*
X169840300Y-62183549D01*
X169935538Y-62135930D01*
X170840300Y-62564501D02*
X170840300Y-61564501D01*
X170840300Y-62516882D02*
X170745062Y-62564501D01*
X170554586Y-62564501D01*
X170459348Y-62516882D01*
X170411729Y-62469263D01*
X170364110Y-62374025D01*
X170364110Y-62088311D01*
X170411729Y-61993073D01*
X170459348Y-61945454D01*
X170554586Y-61897835D01*
X170745062Y-61897835D01*
X170840300Y-61945454D01*
%TO.C,H1*%
X135273726Y-96018458D02*
X135273726Y-95018458D01*
X135607059Y-95732744D01*
X135940393Y-95018458D01*
X135940393Y-96018458D01*
X136559440Y-96018458D02*
X136464202Y-95970839D01*
X136416583Y-95923220D01*
X136368964Y-95827982D01*
X136368964Y-95542268D01*
X136416583Y-95447030D01*
X136464202Y-95399411D01*
X136559440Y-95351792D01*
X136702297Y-95351792D01*
X136797535Y-95399411D01*
X136845155Y-95447030D01*
X136892774Y-95542268D01*
X136892774Y-95827982D01*
X136845155Y-95923220D01*
X136797535Y-95970839D01*
X136702297Y-96018458D01*
X136559440Y-96018458D01*
X137749916Y-95351792D02*
X137749916Y-96018458D01*
X137321345Y-95351792D02*
X137321345Y-95875601D01*
X137368964Y-95970839D01*
X137464202Y-96018458D01*
X137607059Y-96018458D01*
X137702297Y-95970839D01*
X137749916Y-95923220D01*
X138226107Y-95351792D02*
X138226107Y-96018458D01*
X138226107Y-95447030D02*
X138273726Y-95399411D01*
X138368964Y-95351792D01*
X138511821Y-95351792D01*
X138607059Y-95399411D01*
X138654678Y-95494649D01*
X138654678Y-96018458D01*
X138988012Y-95351792D02*
X139368964Y-95351792D01*
X139130869Y-95018458D02*
X139130869Y-95875601D01*
X139178488Y-95970839D01*
X139273726Y-96018458D01*
X139368964Y-96018458D01*
X139702297Y-96018458D02*
X139702297Y-95351792D01*
X139702297Y-95018458D02*
X139654678Y-95066078D01*
X139702297Y-95113697D01*
X139749916Y-95066078D01*
X139702297Y-95018458D01*
X139702297Y-95113697D01*
X140178488Y-95351792D02*
X140178488Y-96018458D01*
X140178488Y-95447030D02*
X140226107Y-95399411D01*
X140321345Y-95351792D01*
X140464202Y-95351792D01*
X140559440Y-95399411D01*
X140607059Y-95494649D01*
X140607059Y-96018458D01*
X141511821Y-95351792D02*
X141511821Y-96161316D01*
X141464202Y-96256554D01*
X141416583Y-96304173D01*
X141321345Y-96351792D01*
X141178488Y-96351792D01*
X141083250Y-96304173D01*
X141511821Y-95970839D02*
X141416583Y-96018458D01*
X141226107Y-96018458D01*
X141130869Y-95970839D01*
X141083250Y-95923220D01*
X141035631Y-95827982D01*
X141035631Y-95542268D01*
X141083250Y-95447030D01*
X141130869Y-95399411D01*
X141226107Y-95351792D01*
X141416583Y-95351792D01*
X141511821Y-95399411D01*
X141988012Y-96018458D02*
X141988012Y-95018458D01*
X141988012Y-95494649D02*
X142559440Y-95494649D01*
X142559440Y-96018458D02*
X142559440Y-95018458D01*
X143178488Y-96018458D02*
X143083250Y-95970839D01*
X143035631Y-95923220D01*
X142988012Y-95827982D01*
X142988012Y-95542268D01*
X143035631Y-95447030D01*
X143083250Y-95399411D01*
X143178488Y-95351792D01*
X143321345Y-95351792D01*
X143416583Y-95399411D01*
X143464202Y-95447030D01*
X143511821Y-95542268D01*
X143511821Y-95827982D01*
X143464202Y-95923220D01*
X143416583Y-95970839D01*
X143321345Y-96018458D01*
X143178488Y-96018458D01*
X144083250Y-96018458D02*
X143988012Y-95970839D01*
X143940393Y-95875601D01*
X143940393Y-95018458D01*
X144845155Y-95970839D02*
X144749916Y-96018458D01*
X144559440Y-96018458D01*
X144464202Y-95970839D01*
X144416583Y-95875601D01*
X144416583Y-95494649D01*
X144464202Y-95399411D01*
X144559440Y-95351792D01*
X144749916Y-95351792D01*
X144845155Y-95399411D01*
X144892774Y-95494649D01*
X144892774Y-95589887D01*
X144416583Y-95685125D01*
X145083250Y-96113697D02*
X145845155Y-96113697D01*
X146083250Y-96018458D02*
X146083250Y-95018458D01*
X146464202Y-95018458D01*
X146559440Y-95066078D01*
X146607059Y-95113697D01*
X146654678Y-95208935D01*
X146654678Y-95351792D01*
X146607059Y-95447030D01*
X146559440Y-95494649D01*
X146464202Y-95542268D01*
X146083250Y-95542268D01*
X147511821Y-96018458D02*
X147511821Y-95494649D01*
X147464202Y-95399411D01*
X147368964Y-95351792D01*
X147178488Y-95351792D01*
X147083250Y-95399411D01*
X147511821Y-95970839D02*
X147416583Y-96018458D01*
X147178488Y-96018458D01*
X147083250Y-95970839D01*
X147035631Y-95875601D01*
X147035631Y-95780363D01*
X147083250Y-95685125D01*
X147178488Y-95637506D01*
X147416583Y-95637506D01*
X147511821Y-95589887D01*
X148416583Y-96018458D02*
X148416583Y-95018458D01*
X148416583Y-95970839D02*
X148321345Y-96018458D01*
X148130869Y-96018458D01*
X148035631Y-95970839D01*
X147988012Y-95923220D01*
X147940393Y-95827982D01*
X147940393Y-95542268D01*
X147988012Y-95447030D01*
X148035631Y-95399411D01*
X148130869Y-95351792D01*
X148321345Y-95351792D01*
X148416583Y-95399411D01*
%TO.C,IR4*%
X137027887Y-80276108D02*
X137369908Y-79336415D01*
X138012327Y-80634415D02*
X137861963Y-80072935D01*
X137475360Y-80438975D02*
X137817380Y-79499282D01*
X138175358Y-79629575D01*
X138248566Y-79706896D01*
X138277027Y-79767930D01*
X138289201Y-79873711D01*
X138240341Y-80007953D01*
X138163020Y-80081161D01*
X138101986Y-80109621D01*
X137996205Y-80121795D01*
X137638227Y-79991502D01*
X138459800Y-80797281D02*
X138638789Y-80862428D01*
X138744570Y-80850254D01*
X138805604Y-80821794D01*
X138943959Y-80720125D01*
X139053853Y-80557423D01*
X139184146Y-80199445D01*
X139171972Y-80093663D01*
X139143512Y-80032629D01*
X139070304Y-79955309D01*
X138891315Y-79890162D01*
X138785533Y-79902336D01*
X138724500Y-79930797D01*
X138647179Y-80004005D01*
X138565746Y-80227741D01*
X138577919Y-80333522D01*
X138606380Y-80394556D01*
X138679588Y-80471877D01*
X138858577Y-80537023D01*
X138964358Y-80524849D01*
X139025392Y-80496389D01*
X139102713Y-80423181D01*
X139831007Y-80232182D02*
X139920502Y-80264756D01*
X139993710Y-80342076D01*
X140022170Y-80403110D01*
X140034344Y-80508891D01*
X140013945Y-80704167D01*
X139932511Y-80927904D01*
X139822617Y-81090606D01*
X139745297Y-81163814D01*
X139684263Y-81192274D01*
X139578482Y-81204448D01*
X139488987Y-81171875D01*
X139415779Y-81094554D01*
X139387319Y-81033520D01*
X139375145Y-80927739D01*
X139395544Y-80732463D01*
X139476978Y-80508727D01*
X139586872Y-80346025D01*
X139664192Y-80272817D01*
X139725226Y-80244356D01*
X139831007Y-80232182D01*
X140534625Y-80944355D02*
X140461417Y-80867034D01*
X140432957Y-80806000D01*
X140420783Y-80700219D01*
X140437070Y-80655471D01*
X140514390Y-80582264D01*
X140575424Y-80553803D01*
X140681205Y-80541629D01*
X140860194Y-80606776D01*
X140933402Y-80684096D01*
X140961863Y-80745130D01*
X140974037Y-80850912D01*
X140957750Y-80895659D01*
X140880430Y-80968867D01*
X140819396Y-80997327D01*
X140713614Y-81009501D01*
X140534625Y-80944355D01*
X140428844Y-80956528D01*
X140367810Y-80984989D01*
X140290490Y-81058197D01*
X140225343Y-81237186D01*
X140237517Y-81342967D01*
X140265977Y-81404001D01*
X140339185Y-81481322D01*
X140518174Y-81546468D01*
X140623955Y-81534294D01*
X140684989Y-81505834D01*
X140762310Y-81432626D01*
X140827457Y-81253637D01*
X140815283Y-81147856D01*
X140786822Y-81086822D01*
X140713614Y-81009501D01*
X141230182Y-81400217D02*
X141946138Y-81660804D01*
X142515843Y-81209383D02*
X143142305Y-81437396D01*
X142397560Y-82230509D01*
X143727804Y-82613328D02*
X143666770Y-82641788D01*
X143516241Y-82637676D01*
X143426747Y-82605102D01*
X143308792Y-82511495D01*
X143251870Y-82389427D01*
X143239696Y-82283646D01*
X143260096Y-82088370D01*
X143308956Y-81954128D01*
X143418850Y-81791426D01*
X143496170Y-81718218D01*
X143618238Y-81661297D01*
X143768767Y-81665410D01*
X143858261Y-81697983D01*
X143976216Y-81791590D01*
X144004677Y-81852624D01*
X144228249Y-82491424D02*
X144944205Y-82752011D01*
X145753769Y-82894643D02*
X145440538Y-82780636D01*
X145261385Y-83272856D02*
X145603405Y-82333163D01*
X146050877Y-82496030D01*
%TO.C,PT4*%
X140828595Y-68782530D02*
X141170615Y-67842837D01*
X141528593Y-67973131D01*
X141601801Y-68050451D01*
X141630261Y-68111485D01*
X141642435Y-68217266D01*
X141593575Y-68351508D01*
X141516255Y-68424716D01*
X141455221Y-68453177D01*
X141349439Y-68465351D01*
X140991461Y-68335057D01*
X141976066Y-68135997D02*
X142513033Y-68331437D01*
X141902529Y-69173410D02*
X142244549Y-68233717D01*
X142528991Y-69401423D02*
X142707980Y-69466570D01*
X142813761Y-69454396D01*
X142874795Y-69425936D01*
X143013150Y-69324267D01*
X143123044Y-69161565D01*
X143253337Y-68803587D01*
X143241163Y-68697805D01*
X143212702Y-68636771D01*
X143139495Y-68559451D01*
X142960505Y-68494304D01*
X142854724Y-68506478D01*
X142793690Y-68534939D01*
X142716370Y-68608147D01*
X142634936Y-68831883D01*
X142647110Y-68937664D01*
X142675571Y-68998698D01*
X142748779Y-69076019D01*
X142927768Y-69141165D01*
X143033549Y-69128991D01*
X143094583Y-69100531D01*
X143171904Y-69027323D01*
X143900198Y-68836324D02*
X143989693Y-68868898D01*
X144062900Y-68946218D01*
X144091361Y-69007252D01*
X144103535Y-69113033D01*
X144083136Y-69308309D01*
X144001702Y-69532046D01*
X143891808Y-69694748D01*
X143814488Y-69767956D01*
X143753454Y-69796416D01*
X143647672Y-69808590D01*
X143558178Y-69776017D01*
X143484970Y-69698696D01*
X143456509Y-69637662D01*
X143444336Y-69531881D01*
X143464735Y-69336605D01*
X143546168Y-69112869D01*
X143656062Y-68950167D01*
X143733383Y-68876959D01*
X143794417Y-68848498D01*
X143900198Y-68836324D01*
X144603816Y-69548497D02*
X144530608Y-69471176D01*
X144502148Y-69410142D01*
X144489974Y-69304361D01*
X144506260Y-69259614D01*
X144583581Y-69186406D01*
X144644615Y-69157945D01*
X144750396Y-69145771D01*
X144929385Y-69210918D01*
X145002593Y-69288238D01*
X145031054Y-69349272D01*
X145043228Y-69455054D01*
X145026941Y-69499801D01*
X144949620Y-69573009D01*
X144888586Y-69601469D01*
X144782805Y-69613643D01*
X144603816Y-69548497D01*
X144498035Y-69560670D01*
X144437001Y-69589131D01*
X144359680Y-69662339D01*
X144294534Y-69841328D01*
X144306708Y-69947109D01*
X144335168Y-70008143D01*
X144408376Y-70085464D01*
X144587365Y-70150610D01*
X144693146Y-70138437D01*
X144754180Y-70109976D01*
X144831501Y-70036768D01*
X144896648Y-69857779D01*
X144884474Y-69751998D01*
X144856013Y-69690964D01*
X144782805Y-69613643D01*
X145299373Y-70004359D02*
X146015329Y-70264946D01*
X146585034Y-69813525D02*
X147211496Y-70041538D01*
X146466750Y-70834651D01*
X147719838Y-70733311D02*
X147837793Y-70826918D01*
X147866254Y-70887952D01*
X147878428Y-70993733D01*
X147829568Y-71127975D01*
X147752247Y-71201183D01*
X147691213Y-71229644D01*
X147585432Y-71241818D01*
X147227454Y-71111524D01*
X147569474Y-70171832D01*
X147882705Y-70285838D01*
X147955913Y-70363159D01*
X147984373Y-70424193D01*
X147996547Y-70529974D01*
X147963974Y-70619469D01*
X147886653Y-70692676D01*
X147825619Y-70721137D01*
X147719838Y-70733311D01*
X147406607Y-70619304D01*
X148297440Y-71095566D02*
X149013396Y-71356153D01*
X149822960Y-71498785D02*
X149509729Y-71384778D01*
X149330575Y-71876998D02*
X149672596Y-70937305D01*
X150120068Y-71100172D01*
%TO.C,PT5*%
X136693646Y-63427249D02*
X137035666Y-62487556D01*
X137393644Y-62617850D01*
X137466852Y-62695170D01*
X137495312Y-62756204D01*
X137507486Y-62861985D01*
X137458626Y-62996227D01*
X137381306Y-63069435D01*
X137320272Y-63097896D01*
X137214490Y-63110070D01*
X136856512Y-62979776D01*
X137841117Y-62780716D02*
X138378084Y-62976156D01*
X137767580Y-63818129D02*
X138109600Y-62878436D01*
X138394042Y-64046142D02*
X138573031Y-64111289D01*
X138678812Y-64099115D01*
X138739846Y-64070655D01*
X138878201Y-63968986D01*
X138988095Y-63806284D01*
X139118388Y-63448306D01*
X139106214Y-63342524D01*
X139077753Y-63281490D01*
X139004546Y-63204170D01*
X138825556Y-63139023D01*
X138719775Y-63151197D01*
X138658741Y-63179658D01*
X138581421Y-63252866D01*
X138499987Y-63476602D01*
X138512161Y-63582383D01*
X138540622Y-63643417D01*
X138613830Y-63720738D01*
X138792819Y-63785884D01*
X138898600Y-63773710D01*
X138959634Y-63745250D01*
X139036955Y-63672042D01*
X139765249Y-63481043D02*
X139854744Y-63513617D01*
X139927951Y-63590937D01*
X139956412Y-63651971D01*
X139968586Y-63757752D01*
X139948187Y-63953028D01*
X139866753Y-64176765D01*
X139756859Y-64339467D01*
X139679539Y-64412675D01*
X139618505Y-64441135D01*
X139512723Y-64453309D01*
X139423229Y-64420736D01*
X139350021Y-64343415D01*
X139321560Y-64282381D01*
X139309387Y-64176600D01*
X139329786Y-63981324D01*
X139411219Y-63757588D01*
X139521113Y-63594886D01*
X139598434Y-63521678D01*
X139659468Y-63493217D01*
X139765249Y-63481043D01*
X140468867Y-64193216D02*
X140395659Y-64115895D01*
X140367199Y-64054861D01*
X140355025Y-63949080D01*
X140371311Y-63904333D01*
X140448632Y-63831125D01*
X140509666Y-63802664D01*
X140615447Y-63790490D01*
X140794436Y-63855637D01*
X140867644Y-63932957D01*
X140896105Y-63993991D01*
X140908279Y-64099773D01*
X140891992Y-64144520D01*
X140814671Y-64217728D01*
X140753637Y-64246188D01*
X140647856Y-64258362D01*
X140468867Y-64193216D01*
X140363086Y-64205389D01*
X140302052Y-64233850D01*
X140224731Y-64307058D01*
X140159585Y-64486047D01*
X140171759Y-64591828D01*
X140200219Y-64652862D01*
X140273427Y-64730183D01*
X140452416Y-64795329D01*
X140558197Y-64783156D01*
X140619231Y-64754695D01*
X140696552Y-64681487D01*
X140761699Y-64502498D01*
X140749525Y-64396717D01*
X140721064Y-64335683D01*
X140647856Y-64258362D01*
X141164424Y-64649078D02*
X141880380Y-64909665D01*
X142450085Y-64458244D02*
X143076547Y-64686257D01*
X142331801Y-65479370D01*
X143584889Y-65378030D02*
X143702844Y-65471637D01*
X143731305Y-65532671D01*
X143743479Y-65638452D01*
X143694619Y-65772694D01*
X143617298Y-65845902D01*
X143556264Y-65874363D01*
X143450483Y-65886537D01*
X143092505Y-65756243D01*
X143434525Y-64816551D01*
X143747756Y-64930557D01*
X143820964Y-65007878D01*
X143849424Y-65068912D01*
X143861598Y-65174693D01*
X143829025Y-65264188D01*
X143751704Y-65337395D01*
X143690670Y-65365856D01*
X143584889Y-65378030D01*
X143271658Y-65264023D01*
X144162491Y-65740285D02*
X144878447Y-66000872D01*
X145688011Y-66143504D02*
X145374780Y-66029497D01*
X145195626Y-66521717D02*
X145537647Y-65582024D01*
X145985119Y-65744891D01*
%TO.C,IR5*%
X132527887Y-74176108D02*
X132869908Y-73236415D01*
X133512327Y-74534415D02*
X133361963Y-73972935D01*
X132975360Y-74338975D02*
X133317380Y-73399282D01*
X133675358Y-73529575D01*
X133748566Y-73606896D01*
X133777027Y-73667930D01*
X133789201Y-73773711D01*
X133740341Y-73907953D01*
X133663020Y-73981161D01*
X133601986Y-74009621D01*
X133496205Y-74021795D01*
X133138227Y-73891502D01*
X133959800Y-74697281D02*
X134138789Y-74762428D01*
X134244570Y-74750254D01*
X134305604Y-74721794D01*
X134443959Y-74620125D01*
X134553853Y-74457423D01*
X134684146Y-74099445D01*
X134671972Y-73993663D01*
X134643512Y-73932629D01*
X134570304Y-73855309D01*
X134391315Y-73790162D01*
X134285533Y-73802336D01*
X134224500Y-73830797D01*
X134147179Y-73904005D01*
X134065746Y-74127741D01*
X134077919Y-74233522D01*
X134106380Y-74294556D01*
X134179588Y-74371877D01*
X134358577Y-74437023D01*
X134464358Y-74424849D01*
X134525392Y-74396389D01*
X134602713Y-74323181D01*
X135331007Y-74132182D02*
X135420502Y-74164756D01*
X135493710Y-74242076D01*
X135522170Y-74303110D01*
X135534344Y-74408891D01*
X135513945Y-74604167D01*
X135432511Y-74827904D01*
X135322617Y-74990606D01*
X135245297Y-75063814D01*
X135184263Y-75092274D01*
X135078482Y-75104448D01*
X134988987Y-75071875D01*
X134915779Y-74994554D01*
X134887319Y-74933520D01*
X134875145Y-74827739D01*
X134895544Y-74632463D01*
X134976978Y-74408727D01*
X135086872Y-74246025D01*
X135164192Y-74172817D01*
X135225226Y-74144356D01*
X135331007Y-74132182D01*
X136034625Y-74844355D02*
X135961417Y-74767034D01*
X135932957Y-74706000D01*
X135920783Y-74600219D01*
X135937070Y-74555471D01*
X136014390Y-74482264D01*
X136075424Y-74453803D01*
X136181205Y-74441629D01*
X136360194Y-74506776D01*
X136433402Y-74584096D01*
X136461863Y-74645130D01*
X136474037Y-74750912D01*
X136457750Y-74795659D01*
X136380430Y-74868867D01*
X136319396Y-74897327D01*
X136213614Y-74909501D01*
X136034625Y-74844355D01*
X135928844Y-74856528D01*
X135867810Y-74884989D01*
X135790490Y-74958197D01*
X135725343Y-75137186D01*
X135737517Y-75242967D01*
X135765977Y-75304001D01*
X135839185Y-75381322D01*
X136018174Y-75446468D01*
X136123955Y-75434294D01*
X136184989Y-75405834D01*
X136262310Y-75332626D01*
X136327457Y-75153637D01*
X136315283Y-75047856D01*
X136286822Y-74986822D01*
X136213614Y-74909501D01*
X136730182Y-75300217D02*
X137446138Y-75560804D01*
X138015843Y-75109383D02*
X138642305Y-75337396D01*
X137897560Y-76130509D01*
X139227804Y-76513328D02*
X139166770Y-76541788D01*
X139016241Y-76537676D01*
X138926747Y-76505102D01*
X138808792Y-76411495D01*
X138751870Y-76289427D01*
X138739696Y-76183646D01*
X138760096Y-75988370D01*
X138808956Y-75854128D01*
X138918850Y-75691426D01*
X138996170Y-75618218D01*
X139118238Y-75561297D01*
X139268767Y-75565410D01*
X139358261Y-75597983D01*
X139476216Y-75691590D01*
X139504677Y-75752624D01*
X139728249Y-76391424D02*
X140444205Y-76652011D01*
X141253769Y-76794643D02*
X140940538Y-76680636D01*
X140761385Y-77172856D02*
X141103405Y-76233163D01*
X141550877Y-76396030D01*
%TO.C,PT1*%
X166985713Y-96735298D02*
X166985713Y-95735298D01*
X167366665Y-95735298D01*
X167461903Y-95782918D01*
X167509522Y-95830537D01*
X167557141Y-95925775D01*
X167557141Y-96068632D01*
X167509522Y-96163870D01*
X167461903Y-96211489D01*
X167366665Y-96259108D01*
X166985713Y-96259108D01*
X167842856Y-95735298D02*
X168414284Y-95735298D01*
X168128570Y-96735298D02*
X168128570Y-95735298D01*
X168795237Y-96735298D02*
X168985713Y-96735298D01*
X169080951Y-96687679D01*
X169128570Y-96640060D01*
X169223808Y-96497203D01*
X169271427Y-96306727D01*
X169271427Y-95925775D01*
X169223808Y-95830537D01*
X169176189Y-95782918D01*
X169080951Y-95735298D01*
X168890475Y-95735298D01*
X168795237Y-95782918D01*
X168747618Y-95830537D01*
X168699999Y-95925775D01*
X168699999Y-96163870D01*
X168747618Y-96259108D01*
X168795237Y-96306727D01*
X168890475Y-96354346D01*
X169080951Y-96354346D01*
X169176189Y-96306727D01*
X169223808Y-96259108D01*
X169271427Y-96163870D01*
X169890475Y-95735298D02*
X169985713Y-95735298D01*
X170080951Y-95782918D01*
X170128570Y-95830537D01*
X170176189Y-95925775D01*
X170223808Y-96116251D01*
X170223808Y-96354346D01*
X170176189Y-96544822D01*
X170128570Y-96640060D01*
X170080951Y-96687679D01*
X169985713Y-96735298D01*
X169890475Y-96735298D01*
X169795237Y-96687679D01*
X169747618Y-96640060D01*
X169699999Y-96544822D01*
X169652379Y-96354346D01*
X169652379Y-96116251D01*
X169699999Y-95925775D01*
X169747618Y-95830537D01*
X169795237Y-95782918D01*
X169890475Y-95735298D01*
X170795237Y-96163870D02*
X170699999Y-96116251D01*
X170652379Y-96068632D01*
X170604760Y-95973394D01*
X170604760Y-95925775D01*
X170652379Y-95830537D01*
X170699999Y-95782918D01*
X170795237Y-95735298D01*
X170985713Y-95735298D01*
X171080951Y-95782918D01*
X171128570Y-95830537D01*
X171176189Y-95925775D01*
X171176189Y-95973394D01*
X171128570Y-96068632D01*
X171080951Y-96116251D01*
X170985713Y-96163870D01*
X170795237Y-96163870D01*
X170699999Y-96211489D01*
X170652379Y-96259108D01*
X170604760Y-96354346D01*
X170604760Y-96544822D01*
X170652379Y-96640060D01*
X170699999Y-96687679D01*
X170795237Y-96735298D01*
X170985713Y-96735298D01*
X171080951Y-96687679D01*
X171128570Y-96640060D01*
X171176189Y-96544822D01*
X171176189Y-96354346D01*
X171128570Y-96259108D01*
X171080951Y-96211489D01*
X170985713Y-96163870D01*
X171604760Y-96354346D02*
X172366665Y-96354346D01*
X172747618Y-95735298D02*
X173414284Y-95735298D01*
X172985713Y-96735298D01*
X174128570Y-96211489D02*
X174271427Y-96259108D01*
X174319046Y-96306727D01*
X174366665Y-96401965D01*
X174366665Y-96544822D01*
X174319046Y-96640060D01*
X174271427Y-96687679D01*
X174176189Y-96735298D01*
X173795237Y-96735298D01*
X173795237Y-95735298D01*
X174128570Y-95735298D01*
X174223808Y-95782918D01*
X174271427Y-95830537D01*
X174319046Y-95925775D01*
X174319046Y-96021013D01*
X174271427Y-96116251D01*
X174223808Y-96163870D01*
X174128570Y-96211489D01*
X173795237Y-96211489D01*
X174795237Y-96354346D02*
X175557141Y-96354346D01*
X176366665Y-96211489D02*
X176033332Y-96211489D01*
X176033332Y-96735298D02*
X176033332Y-95735298D01*
X176509522Y-95735298D01*
%TO.C,IR2*%
X169506920Y-79066910D02*
X169506920Y-78066910D01*
X170554539Y-79066910D02*
X170221206Y-78590720D01*
X169983110Y-79066910D02*
X169983110Y-78066910D01*
X170364063Y-78066910D01*
X170459301Y-78114530D01*
X170506920Y-78162149D01*
X170554539Y-78257387D01*
X170554539Y-78400244D01*
X170506920Y-78495482D01*
X170459301Y-78543101D01*
X170364063Y-78590720D01*
X169983110Y-78590720D01*
X171030729Y-79066910D02*
X171221206Y-79066910D01*
X171316444Y-79019291D01*
X171364063Y-78971672D01*
X171459301Y-78828815D01*
X171506920Y-78638339D01*
X171506920Y-78257387D01*
X171459301Y-78162149D01*
X171411682Y-78114530D01*
X171316444Y-78066910D01*
X171125968Y-78066910D01*
X171030729Y-78114530D01*
X170983110Y-78162149D01*
X170935491Y-78257387D01*
X170935491Y-78495482D01*
X170983110Y-78590720D01*
X171030729Y-78638339D01*
X171125968Y-78685958D01*
X171316444Y-78685958D01*
X171411682Y-78638339D01*
X171459301Y-78590720D01*
X171506920Y-78495482D01*
X172125968Y-78066910D02*
X172221206Y-78066910D01*
X172316444Y-78114530D01*
X172364063Y-78162149D01*
X172411682Y-78257387D01*
X172459301Y-78447863D01*
X172459301Y-78685958D01*
X172411682Y-78876434D01*
X172364063Y-78971672D01*
X172316444Y-79019291D01*
X172221206Y-79066910D01*
X172125968Y-79066910D01*
X172030729Y-79019291D01*
X171983110Y-78971672D01*
X171935491Y-78876434D01*
X171887872Y-78685958D01*
X171887872Y-78447863D01*
X171935491Y-78257387D01*
X171983110Y-78162149D01*
X172030729Y-78114530D01*
X172125968Y-78066910D01*
X173030729Y-78495482D02*
X172935491Y-78447863D01*
X172887872Y-78400244D01*
X172840253Y-78305006D01*
X172840253Y-78257387D01*
X172887872Y-78162149D01*
X172935491Y-78114530D01*
X173030729Y-78066910D01*
X173221206Y-78066910D01*
X173316444Y-78114530D01*
X173364063Y-78162149D01*
X173411682Y-78257387D01*
X173411682Y-78305006D01*
X173364063Y-78400244D01*
X173316444Y-78447863D01*
X173221206Y-78495482D01*
X173030729Y-78495482D01*
X172935491Y-78543101D01*
X172887872Y-78590720D01*
X172840253Y-78685958D01*
X172840253Y-78876434D01*
X172887872Y-78971672D01*
X172935491Y-79019291D01*
X173030729Y-79066910D01*
X173221206Y-79066910D01*
X173316444Y-79019291D01*
X173364063Y-78971672D01*
X173411682Y-78876434D01*
X173411682Y-78685958D01*
X173364063Y-78590720D01*
X173316444Y-78543101D01*
X173221206Y-78495482D01*
X173840253Y-78685958D02*
X174602158Y-78685958D01*
X174983110Y-78066910D02*
X175649777Y-78066910D01*
X175221206Y-79066910D01*
X176602158Y-78971672D02*
X176554539Y-79019291D01*
X176411682Y-79066910D01*
X176316444Y-79066910D01*
X176173587Y-79019291D01*
X176078349Y-78924053D01*
X176030729Y-78828815D01*
X175983110Y-78638339D01*
X175983110Y-78495482D01*
X176030729Y-78305006D01*
X176078349Y-78209768D01*
X176173587Y-78114530D01*
X176316444Y-78066910D01*
X176411682Y-78066910D01*
X176554539Y-78114530D01*
X176602158Y-78162149D01*
X177030729Y-78685958D02*
X177792634Y-78685958D01*
X178602158Y-78543101D02*
X178268825Y-78543101D01*
X178268825Y-79066910D02*
X178268825Y-78066910D01*
X178745015Y-78066910D01*
%TO.C,PT3*%
X149312380Y-83514285D02*
X148312380Y-83514285D01*
X148312380Y-83133333D01*
X148360000Y-83038095D01*
X148407619Y-82990476D01*
X148502857Y-82942857D01*
X148645714Y-82942857D01*
X148740952Y-82990476D01*
X148788571Y-83038095D01*
X148836190Y-83133333D01*
X148836190Y-83514285D01*
X148312380Y-82657142D02*
X148312380Y-82085714D01*
X149312380Y-82371428D02*
X148312380Y-82371428D01*
X149312380Y-81704761D02*
X149312380Y-81514285D01*
X149264761Y-81419047D01*
X149217142Y-81371428D01*
X149074285Y-81276190D01*
X148883809Y-81228571D01*
X148502857Y-81228571D01*
X148407619Y-81276190D01*
X148360000Y-81323809D01*
X148312380Y-81419047D01*
X148312380Y-81609523D01*
X148360000Y-81704761D01*
X148407619Y-81752380D01*
X148502857Y-81800000D01*
X148740952Y-81800000D01*
X148836190Y-81752380D01*
X148883809Y-81704761D01*
X148931428Y-81609523D01*
X148931428Y-81419047D01*
X148883809Y-81323809D01*
X148836190Y-81276190D01*
X148740952Y-81228571D01*
X148312380Y-80609523D02*
X148312380Y-80514285D01*
X148360000Y-80419047D01*
X148407619Y-80371428D01*
X148502857Y-80323809D01*
X148693333Y-80276190D01*
X148931428Y-80276190D01*
X149121904Y-80323809D01*
X149217142Y-80371428D01*
X149264761Y-80419047D01*
X149312380Y-80514285D01*
X149312380Y-80609523D01*
X149264761Y-80704761D01*
X149217142Y-80752380D01*
X149121904Y-80800000D01*
X148931428Y-80847619D01*
X148693333Y-80847619D01*
X148502857Y-80800000D01*
X148407619Y-80752380D01*
X148360000Y-80704761D01*
X148312380Y-80609523D01*
X148740952Y-79704761D02*
X148693333Y-79800000D01*
X148645714Y-79847619D01*
X148550476Y-79895238D01*
X148502857Y-79895238D01*
X148407619Y-79847619D01*
X148360000Y-79800000D01*
X148312380Y-79704761D01*
X148312380Y-79514285D01*
X148360000Y-79419047D01*
X148407619Y-79371428D01*
X148502857Y-79323809D01*
X148550476Y-79323809D01*
X148645714Y-79371428D01*
X148693333Y-79419047D01*
X148740952Y-79514285D01*
X148740952Y-79704761D01*
X148788571Y-79800000D01*
X148836190Y-79847619D01*
X148931428Y-79895238D01*
X149121904Y-79895238D01*
X149217142Y-79847619D01*
X149264761Y-79800000D01*
X149312380Y-79704761D01*
X149312380Y-79514285D01*
X149264761Y-79419047D01*
X149217142Y-79371428D01*
X149121904Y-79323809D01*
X148931428Y-79323809D01*
X148836190Y-79371428D01*
X148788571Y-79419047D01*
X148740952Y-79514285D01*
X148931428Y-78895238D02*
X148931428Y-78133333D01*
X148312380Y-77752380D02*
X148312380Y-77085714D01*
X149312380Y-77514285D01*
X148788571Y-76371428D02*
X148836190Y-76228571D01*
X148883809Y-76180952D01*
X148979047Y-76133333D01*
X149121904Y-76133333D01*
X149217142Y-76180952D01*
X149264761Y-76228571D01*
X149312380Y-76323809D01*
X149312380Y-76704761D01*
X148312380Y-76704761D01*
X148312380Y-76371428D01*
X148360000Y-76276190D01*
X148407619Y-76228571D01*
X148502857Y-76180952D01*
X148598095Y-76180952D01*
X148693333Y-76228571D01*
X148740952Y-76276190D01*
X148788571Y-76371428D01*
X148788571Y-76704761D01*
X148931428Y-75704761D02*
X148931428Y-74942857D01*
X148788571Y-74133333D02*
X148788571Y-74466666D01*
X149312380Y-74466666D02*
X148312380Y-74466666D01*
X148312380Y-73990476D01*
%TO.C,IR3*%
X166092379Y-83371428D02*
X165092379Y-83371428D01*
X166092379Y-82323809D02*
X165616189Y-82657142D01*
X166092379Y-82895238D02*
X165092379Y-82895238D01*
X165092379Y-82514285D01*
X165139999Y-82419047D01*
X165187618Y-82371428D01*
X165282856Y-82323809D01*
X165425713Y-82323809D01*
X165520951Y-82371428D01*
X165568570Y-82419047D01*
X165616189Y-82514285D01*
X165616189Y-82895238D01*
X166092379Y-81847619D02*
X166092379Y-81657142D01*
X166044760Y-81561904D01*
X165997141Y-81514285D01*
X165854284Y-81419047D01*
X165663808Y-81371428D01*
X165282856Y-81371428D01*
X165187618Y-81419047D01*
X165139999Y-81466666D01*
X165092379Y-81561904D01*
X165092379Y-81752380D01*
X165139999Y-81847619D01*
X165187618Y-81895238D01*
X165282856Y-81942857D01*
X165520951Y-81942857D01*
X165616189Y-81895238D01*
X165663808Y-81847619D01*
X165711427Y-81752380D01*
X165711427Y-81561904D01*
X165663808Y-81466666D01*
X165616189Y-81419047D01*
X165520951Y-81371428D01*
X165092379Y-80752380D02*
X165092379Y-80657142D01*
X165139999Y-80561904D01*
X165187618Y-80514285D01*
X165282856Y-80466666D01*
X165473332Y-80419047D01*
X165711427Y-80419047D01*
X165901903Y-80466666D01*
X165997141Y-80514285D01*
X166044760Y-80561904D01*
X166092379Y-80657142D01*
X166092379Y-80752380D01*
X166044760Y-80847619D01*
X165997141Y-80895238D01*
X165901903Y-80942857D01*
X165711427Y-80990476D01*
X165473332Y-80990476D01*
X165282856Y-80942857D01*
X165187618Y-80895238D01*
X165139999Y-80847619D01*
X165092379Y-80752380D01*
X165520951Y-79847619D02*
X165473332Y-79942857D01*
X165425713Y-79990476D01*
X165330475Y-80038095D01*
X165282856Y-80038095D01*
X165187618Y-79990476D01*
X165139999Y-79942857D01*
X165092379Y-79847619D01*
X165092379Y-79657142D01*
X165139999Y-79561904D01*
X165187618Y-79514285D01*
X165282856Y-79466666D01*
X165330475Y-79466666D01*
X165425713Y-79514285D01*
X165473332Y-79561904D01*
X165520951Y-79657142D01*
X165520951Y-79847619D01*
X165568570Y-79942857D01*
X165616189Y-79990476D01*
X165711427Y-80038095D01*
X165901903Y-80038095D01*
X165997141Y-79990476D01*
X166044760Y-79942857D01*
X166092379Y-79847619D01*
X166092379Y-79657142D01*
X166044760Y-79561904D01*
X165997141Y-79514285D01*
X165901903Y-79466666D01*
X165711427Y-79466666D01*
X165616189Y-79514285D01*
X165568570Y-79561904D01*
X165520951Y-79657142D01*
X165711427Y-79038095D02*
X165711427Y-78276190D01*
X165092379Y-77895238D02*
X165092379Y-77228571D01*
X166092379Y-77657142D01*
X165997141Y-76276190D02*
X166044760Y-76323809D01*
X166092379Y-76466666D01*
X166092379Y-76561904D01*
X166044760Y-76704761D01*
X165949522Y-76800000D01*
X165854284Y-76847619D01*
X165663808Y-76895238D01*
X165520951Y-76895238D01*
X165330475Y-76847619D01*
X165235237Y-76800000D01*
X165139999Y-76704761D01*
X165092379Y-76561904D01*
X165092379Y-76466666D01*
X165139999Y-76323809D01*
X165187618Y-76276190D01*
X165711427Y-75847619D02*
X165711427Y-75085714D01*
X165568570Y-74276190D02*
X165568570Y-74609523D01*
X166092379Y-74609523D02*
X165092379Y-74609523D01*
X165092379Y-74133333D01*
%TO.C,IR1*%
X167128570Y-105065298D02*
X167128570Y-104065298D01*
X168176189Y-105065298D02*
X167842856Y-104589108D01*
X167604760Y-105065298D02*
X167604760Y-104065298D01*
X167985713Y-104065298D01*
X168080951Y-104112918D01*
X168128570Y-104160537D01*
X168176189Y-104255775D01*
X168176189Y-104398632D01*
X168128570Y-104493870D01*
X168080951Y-104541489D01*
X167985713Y-104589108D01*
X167604760Y-104589108D01*
X168652379Y-105065298D02*
X168842856Y-105065298D01*
X168938094Y-105017679D01*
X168985713Y-104970060D01*
X169080951Y-104827203D01*
X169128570Y-104636727D01*
X169128570Y-104255775D01*
X169080951Y-104160537D01*
X169033332Y-104112918D01*
X168938094Y-104065298D01*
X168747618Y-104065298D01*
X168652379Y-104112918D01*
X168604760Y-104160537D01*
X168557141Y-104255775D01*
X168557141Y-104493870D01*
X168604760Y-104589108D01*
X168652379Y-104636727D01*
X168747618Y-104684346D01*
X168938094Y-104684346D01*
X169033332Y-104636727D01*
X169080951Y-104589108D01*
X169128570Y-104493870D01*
X169747618Y-104065298D02*
X169842856Y-104065298D01*
X169938094Y-104112918D01*
X169985713Y-104160537D01*
X170033332Y-104255775D01*
X170080951Y-104446251D01*
X170080951Y-104684346D01*
X170033332Y-104874822D01*
X169985713Y-104970060D01*
X169938094Y-105017679D01*
X169842856Y-105065298D01*
X169747618Y-105065298D01*
X169652379Y-105017679D01*
X169604760Y-104970060D01*
X169557141Y-104874822D01*
X169509522Y-104684346D01*
X169509522Y-104446251D01*
X169557141Y-104255775D01*
X169604760Y-104160537D01*
X169652379Y-104112918D01*
X169747618Y-104065298D01*
X170652379Y-104493870D02*
X170557141Y-104446251D01*
X170509522Y-104398632D01*
X170461903Y-104303394D01*
X170461903Y-104255775D01*
X170509522Y-104160537D01*
X170557141Y-104112918D01*
X170652379Y-104065298D01*
X170842856Y-104065298D01*
X170938094Y-104112918D01*
X170985713Y-104160537D01*
X171033332Y-104255775D01*
X171033332Y-104303394D01*
X170985713Y-104398632D01*
X170938094Y-104446251D01*
X170842856Y-104493870D01*
X170652379Y-104493870D01*
X170557141Y-104541489D01*
X170509522Y-104589108D01*
X170461903Y-104684346D01*
X170461903Y-104874822D01*
X170509522Y-104970060D01*
X170557141Y-105017679D01*
X170652379Y-105065298D01*
X170842856Y-105065298D01*
X170938094Y-105017679D01*
X170985713Y-104970060D01*
X171033332Y-104874822D01*
X171033332Y-104684346D01*
X170985713Y-104589108D01*
X170938094Y-104541489D01*
X170842856Y-104493870D01*
X171461903Y-104684346D02*
X172223808Y-104684346D01*
X172604760Y-104065298D02*
X173271427Y-104065298D01*
X172842856Y-105065298D01*
X174223808Y-104970060D02*
X174176189Y-105017679D01*
X174033332Y-105065298D01*
X173938094Y-105065298D01*
X173795237Y-105017679D01*
X173699999Y-104922441D01*
X173652379Y-104827203D01*
X173604760Y-104636727D01*
X173604760Y-104493870D01*
X173652379Y-104303394D01*
X173699999Y-104208156D01*
X173795237Y-104112918D01*
X173938094Y-104065298D01*
X174033332Y-104065298D01*
X174176189Y-104112918D01*
X174223808Y-104160537D01*
X174652379Y-104684346D02*
X175414284Y-104684346D01*
X176223808Y-104541489D02*
X175890475Y-104541489D01*
X175890475Y-105065298D02*
X175890475Y-104065298D01*
X176366665Y-104065298D01*
%TO.C,PT2*%
X166985712Y-70837379D02*
X166985712Y-69837379D01*
X167366664Y-69837379D01*
X167461902Y-69884999D01*
X167509521Y-69932618D01*
X167557140Y-70027856D01*
X167557140Y-70170713D01*
X167509521Y-70265951D01*
X167461902Y-70313570D01*
X167366664Y-70361189D01*
X166985712Y-70361189D01*
X167842855Y-69837379D02*
X168414283Y-69837379D01*
X168128569Y-70837379D02*
X168128569Y-69837379D01*
X168795236Y-70837379D02*
X168985712Y-70837379D01*
X169080950Y-70789760D01*
X169128569Y-70742141D01*
X169223807Y-70599284D01*
X169271426Y-70408808D01*
X169271426Y-70027856D01*
X169223807Y-69932618D01*
X169176188Y-69884999D01*
X169080950Y-69837379D01*
X168890474Y-69837379D01*
X168795236Y-69884999D01*
X168747617Y-69932618D01*
X168699998Y-70027856D01*
X168699998Y-70265951D01*
X168747617Y-70361189D01*
X168795236Y-70408808D01*
X168890474Y-70456427D01*
X169080950Y-70456427D01*
X169176188Y-70408808D01*
X169223807Y-70361189D01*
X169271426Y-70265951D01*
X169890474Y-69837379D02*
X169985712Y-69837379D01*
X170080950Y-69884999D01*
X170128569Y-69932618D01*
X170176188Y-70027856D01*
X170223807Y-70218332D01*
X170223807Y-70456427D01*
X170176188Y-70646903D01*
X170128569Y-70742141D01*
X170080950Y-70789760D01*
X169985712Y-70837379D01*
X169890474Y-70837379D01*
X169795236Y-70789760D01*
X169747617Y-70742141D01*
X169699998Y-70646903D01*
X169652378Y-70456427D01*
X169652378Y-70218332D01*
X169699998Y-70027856D01*
X169747617Y-69932618D01*
X169795236Y-69884999D01*
X169890474Y-69837379D01*
X170795236Y-70265951D02*
X170699998Y-70218332D01*
X170652378Y-70170713D01*
X170604759Y-70075475D01*
X170604759Y-70027856D01*
X170652378Y-69932618D01*
X170699998Y-69884999D01*
X170795236Y-69837379D01*
X170985712Y-69837379D01*
X171080950Y-69884999D01*
X171128569Y-69932618D01*
X171176188Y-70027856D01*
X171176188Y-70075475D01*
X171128569Y-70170713D01*
X171080950Y-70218332D01*
X170985712Y-70265951D01*
X170795236Y-70265951D01*
X170699998Y-70313570D01*
X170652378Y-70361189D01*
X170604759Y-70456427D01*
X170604759Y-70646903D01*
X170652378Y-70742141D01*
X170699998Y-70789760D01*
X170795236Y-70837379D01*
X170985712Y-70837379D01*
X171080950Y-70789760D01*
X171128569Y-70742141D01*
X171176188Y-70646903D01*
X171176188Y-70456427D01*
X171128569Y-70361189D01*
X171080950Y-70313570D01*
X170985712Y-70265951D01*
X171604759Y-70456427D02*
X172366664Y-70456427D01*
X172747617Y-69837379D02*
X173414283Y-69837379D01*
X172985712Y-70837379D01*
X174128569Y-70313570D02*
X174271426Y-70361189D01*
X174319045Y-70408808D01*
X174366664Y-70504046D01*
X174366664Y-70646903D01*
X174319045Y-70742141D01*
X174271426Y-70789760D01*
X174176188Y-70837379D01*
X173795236Y-70837379D01*
X173795236Y-69837379D01*
X174128569Y-69837379D01*
X174223807Y-69884999D01*
X174271426Y-69932618D01*
X174319045Y-70027856D01*
X174319045Y-70123094D01*
X174271426Y-70218332D01*
X174223807Y-70265951D01*
X174128569Y-70313570D01*
X173795236Y-70313570D01*
X174795236Y-70456427D02*
X175557140Y-70456427D01*
X176366664Y-70313570D02*
X176033331Y-70313570D01*
X176033331Y-70837379D02*
X176033331Y-69837379D01*
X176509521Y-69837379D01*
%TD*%
M02*
