%TF.GenerationSoftware,KiCad,Pcbnew,5.1.6-c6e7f7d~86~ubuntu18.04.1*%
%TF.CreationDate,2021-04-26T01:41:27-07:00*%
%TF.ProjectId,thumb_cluster_left,7468756d-625f-4636-9c75-737465725f6c,rev?*%
%TF.SameCoordinates,Original*%
%TF.FileFunction,Soldermask,Top*%
%TF.FilePolarity,Negative*%
%FSLAX46Y46*%
G04 Gerber Fmt 4.6, Leading zero omitted, Abs format (unit mm)*
G04 Created by KiCad (PCBNEW 5.1.6-c6e7f7d~86~ubuntu18.04.1) date 2021-04-26 01:41:27*
%MOMM*%
%LPD*%
G01*
G04 APERTURE LIST*
%ADD10C,4.600000*%
%ADD11O,1.970000X1.270000*%
%ADD12C,0.100000*%
%ADD13C,1.900000*%
%ADD14R,1.900000X1.900000*%
G04 APERTURE END LIST*
D10*
%TO.C,H2*%
X164268872Y-66312121D03*
%TD*%
%TO.C,H1*%
X141845155Y-91366078D03*
%TD*%
D11*
%TO.C,J1*%
X157250000Y-78200000D03*
X157250000Y-79700000D03*
X157250000Y-81200000D03*
X157250000Y-82700000D03*
X157250000Y-84200000D03*
X157250000Y-85700000D03*
G36*
G01*
X157963633Y-87835000D02*
X156536367Y-87835000D01*
G75*
G02*
X156265000Y-87563633I0J271367D01*
G01*
X156265000Y-86836367D01*
G75*
G02*
X156536367Y-86565000I271367J0D01*
G01*
X157963633Y-86565000D01*
G75*
G02*
X158235000Y-86836367I0J-271367D01*
G01*
X158235000Y-87563633D01*
G75*
G02*
X157963633Y-87835000I-271367J0D01*
G01*
G37*
%TD*%
D12*
%TO.C,IR4*%
G36*
X144339148Y-79411855D02*
G01*
X143689310Y-81197271D01*
X141903894Y-80547433D01*
X142553732Y-78762017D01*
X144339148Y-79411855D01*
G37*
D13*
X140734702Y-79110913D03*
%TD*%
D12*
%TO.C,PT4*%
G36*
X143638419Y-68355407D02*
G01*
X144288257Y-66569991D01*
X146073673Y-67219829D01*
X145423835Y-69005245D01*
X143638419Y-68355407D01*
G37*
D13*
X147242865Y-68656349D03*
%TD*%
D12*
%TO.C,PT5*%
G36*
X138188200Y-66371689D02*
G01*
X138838038Y-64586273D01*
X140623454Y-65236111D01*
X139973616Y-67021527D01*
X138188200Y-66371689D01*
G37*
D13*
X141792646Y-66672631D03*
%TD*%
D12*
%TO.C,IR5*%
G36*
X138888931Y-77428140D02*
G01*
X138239093Y-79213556D01*
X136453677Y-78563718D01*
X137103515Y-76778302D01*
X138888931Y-77428140D01*
G37*
D13*
X135284485Y-77127198D03*
%TD*%
D14*
%TO.C,PT1*%
X170429999Y-94422918D03*
D13*
X172969999Y-94422918D03*
%TD*%
D14*
%TO.C,IR2*%
X172969999Y-80574999D03*
D13*
X170429999Y-80574999D03*
%TD*%
D14*
%TO.C,PT3*%
X147000000Y-80070000D03*
D13*
X147000000Y-77530000D03*
%TD*%
D14*
%TO.C,IR3*%
X167499999Y-77530000D03*
D13*
X167499999Y-80070000D03*
%TD*%
D14*
%TO.C,IR1*%
X172969999Y-106472918D03*
D13*
X170429999Y-106472918D03*
%TD*%
D14*
%TO.C,PT2*%
X170429998Y-68524999D03*
D13*
X172969998Y-68524999D03*
%TD*%
M02*
