M48
; DRILL file {KiCad 5.1.6-c6e7f7d~86~ubuntu18.04.1} date Mon Apr 26 01:41:18 2021
; FORMAT={-:-/ absolute / inch / decimal}
; #@! TF.CreationDate,2021-04-26T01:41:18-07:00
; #@! TF.GenerationSoftware,Kicad,Pcbnew,5.1.6-c6e7f7d~86~ubuntu18.04.1
FMAT,2
INCH
T1C0.0157
T2C0.0343
T3C0.0354
T4C0.1260
%
G90
G05
T1
X6.4309Y-2.8924
T2
X6.1909Y-3.0787
X6.1909Y-3.1378
X6.1909Y-3.1969
X6.1909Y-3.2559
X6.1909Y-3.315
X6.1909Y-3.374
X6.1909Y-3.4331
T3
X5.703Y-2.6688
X5.797Y-2.703
X5.4884Y-2.5907
X5.5824Y-2.6249
X6.5945Y-3.0524
X6.5945Y-3.1524
X5.3262Y-3.0365
X5.4201Y-3.0707
X6.7098Y-4.1918
X6.8098Y-4.1918
X5.5407Y-3.1146
X5.6347Y-3.1488
X6.7098Y-2.6978
X6.8098Y-2.6978
X6.7098Y-3.7174
X6.8098Y-3.7174
X6.7098Y-3.1722
X6.8098Y-3.1722
X5.7874Y-3.0524
X5.7874Y-3.1524
T4
X6.4673Y-2.6107
X5.5845Y-3.5971
T0
M30
