%TF.GenerationSoftware,KiCad,Pcbnew,5.1.6-c6e7f7d~86~ubuntu18.04.1*%
%TF.CreationDate,2021-04-26T01:41:27-07:00*%
%TF.ProjectId,thumb_cluster_left,7468756d-625f-4636-9c75-737465725f6c,rev?*%
%TF.SameCoordinates,Original*%
%TF.FileFunction,Profile,NP*%
%FSLAX46Y46*%
G04 Gerber Fmt 4.6, Leading zero omitted, Abs format (unit mm)*
G04 Created by KiCad (PCBNEW 5.1.6-c6e7f7d~86~ubuntu18.04.1) date 2021-04-26 01:41:27*
%MOMM*%
%LPD*%
G01*
G04 APERTURE LIST*
%TA.AperFunction,Profile*%
%ADD10C,0.200000*%
%TD*%
G04 APERTURE END LIST*
D10*
X174524999Y-91198958D02*
X168524999Y-91198959D01*
X168524998Y-91198960D02*
G75*
G02*
X167524999Y-90198959I1J1000000D01*
G01*
X138431984Y-63932997D02*
X137431575Y-66681598D01*
X137431575Y-66681598D02*
X146405641Y-69947890D01*
X146405641Y-69947892D02*
G75*
G02*
X147003312Y-71229603I-342020J-939691D01*
G01*
X147003312Y-71229603D02*
X144592070Y-77854436D01*
X173787440Y-65302441D02*
X160949999Y-62524504D01*
X160949999Y-62524504D02*
X160949999Y-67800000D01*
X160949997Y-67799999D02*
G75*
G02*
X159950000Y-68799998I-999998J-1D01*
G01*
X159950000Y-68799998D02*
X154549999Y-68800000D01*
X169775001Y-103972918D02*
X169775001Y-96922918D01*
X169774999Y-96922918D02*
G75*
G02*
X170774999Y-95922918I1000000J0D01*
G01*
X170774999Y-95922918D02*
X174525000Y-95922918D01*
X174525000Y-95922918D02*
X174524999Y-91198958D01*
X174524999Y-83798959D02*
X174524999Y-79074999D01*
X167524999Y-90198959D02*
X167524999Y-84798959D01*
X167525000Y-84798959D02*
G75*
G02*
X168525000Y-83798959I1000000J0D01*
G01*
X169774999Y-78074999D02*
X169774999Y-71024999D01*
X169774999Y-71025001D02*
G75*
G02*
X170774999Y-70024999I1000001J1D01*
G01*
X133364529Y-78550252D02*
X139926263Y-94600000D01*
X139926263Y-94600000D02*
X160599999Y-94600000D01*
X160599999Y-94599999D02*
G75*
G02*
X161600000Y-95600000I0J-1000001D01*
G01*
X161600000Y-95600000D02*
X161599999Y-108693369D01*
X161599999Y-108693369D02*
X173724892Y-108697918D01*
X154550000Y-68800000D02*
G75*
G02*
X153549999Y-67799999I0J1000001D01*
G01*
X153549999Y-67799999D02*
X153549999Y-62118895D01*
X153549999Y-62118895D02*
X139188327Y-63406626D01*
X138431984Y-63932996D02*
G75*
G02*
X139188327Y-63406626I751754J-273617D01*
G01*
X170774998Y-79074998D02*
G75*
G02*
X169774999Y-78074999I0J999999D01*
G01*
X168525000Y-83798959D02*
X174524999Y-83798959D01*
X170774999Y-70024999D02*
X174525001Y-70024999D01*
X174525001Y-70024999D02*
X174524999Y-67100390D01*
X174524999Y-67100390D02*
X174521388Y-66175918D01*
X173787440Y-65302441D02*
G75*
G02*
X174521388Y-66175918I-62441J-797558D01*
G01*
X174524999Y-79074999D02*
X170775000Y-79074998D01*
X144592072Y-77854436D02*
G75*
G02*
X143310357Y-78452109I-939694J342021D01*
G01*
X143310357Y-78452109D02*
X134336293Y-75185816D01*
X134336293Y-75185816D02*
X133335884Y-77934417D01*
X133364529Y-78550251D02*
G75*
G02*
X133335884Y-77934417I723109J342218D01*
G01*
X174525001Y-107897919D02*
G75*
G02*
X173724892Y-108697918I-800001J2D01*
G01*
X174525000Y-107897918D02*
X174524999Y-104972918D01*
X174524999Y-104972918D02*
X170775000Y-104972919D01*
X170774999Y-104972916D02*
G75*
G02*
X169775001Y-103972918I0J999998D01*
G01*
M02*
