%TF.GenerationSoftware,KiCad,Pcbnew,5.1.6-c6e7f7d~86~ubuntu18.04.1*%
%TF.CreationDate,2021-04-26T01:41:27-07:00*%
%TF.ProjectId,thumb_cluster_left,7468756d-625f-4636-9c75-737465725f6c,rev?*%
%TF.SameCoordinates,Original*%
%TF.FileFunction,Legend,Top*%
%TF.FilePolarity,Positive*%
%FSLAX46Y46*%
G04 Gerber Fmt 4.6, Leading zero omitted, Abs format (unit mm)*
G04 Created by KiCad (PCBNEW 5.1.6-c6e7f7d~86~ubuntu18.04.1) date 2021-04-26 01:41:27*
%MOMM*%
%LPD*%
G01*
G04 APERTURE LIST*
%ADD10C,0.120000*%
%ADD11C,0.100000*%
%ADD12C,0.150000*%
G04 APERTURE END LIST*
D10*
%TO.C,IR4*%
X142401132Y-78801187D02*
X141724554Y-78554932D01*
X139947243Y-78233682D02*
X140051901Y-77946137D01*
X139462942Y-79564287D02*
X139567600Y-79276741D01*
X140343205Y-78052163D02*
X140051901Y-77946137D01*
X142401132Y-78801187D02*
X141714217Y-78551170D01*
X139754247Y-79670313D02*
X139462942Y-79564287D01*
X141812174Y-80419338D02*
X141125258Y-80169321D01*
X141724554Y-78554933D02*
G75*
G02*
X142401132Y-78801187I338289J-123127D01*
G01*
D11*
%TO.C,PT4*%
G36*
X145947959Y-69377985D02*
G01*
X145675448Y-69278799D01*
X145627669Y-69059215D01*
X145631089Y-69049818D01*
X146166714Y-69244770D01*
X145947959Y-69377985D01*
G37*
X145947959Y-69377985D02*
X145675448Y-69278799D01*
X145627669Y-69059215D01*
X145631089Y-69049818D01*
X146166714Y-69244770D01*
X145947959Y-69377985D01*
D10*
X145576435Y-68966075D02*
X146253013Y-69212330D01*
X148030324Y-69533580D02*
X147925666Y-69821125D01*
X148514625Y-68202975D02*
X148409967Y-68490521D01*
X147634362Y-69715099D02*
X147925666Y-69821125D01*
X145576435Y-68966075D02*
X146263350Y-69216092D01*
X148223320Y-68096949D02*
X148514625Y-68202975D01*
X146165393Y-67347924D02*
X146852309Y-67597941D01*
X146253013Y-69212329D02*
G75*
G02*
X145576435Y-68966075I-338289J123127D01*
G01*
D11*
%TO.C,PT5*%
G36*
X140497740Y-67394267D02*
G01*
X140225229Y-67295081D01*
X140177450Y-67075497D01*
X140180870Y-67066100D01*
X140716495Y-67261052D01*
X140497740Y-67394267D01*
G37*
X140497740Y-67394267D02*
X140225229Y-67295081D01*
X140177450Y-67075497D01*
X140180870Y-67066100D01*
X140716495Y-67261052D01*
X140497740Y-67394267D01*
D10*
X140126216Y-66982357D02*
X140802794Y-67228612D01*
X142580105Y-67549862D02*
X142475447Y-67837407D01*
X143064406Y-66219257D02*
X142959748Y-66506803D01*
X142184143Y-67731381D02*
X142475447Y-67837407D01*
X140126216Y-66982357D02*
X140813131Y-67232374D01*
X142773101Y-66113231D02*
X143064406Y-66219257D01*
X140715174Y-65364206D02*
X141402090Y-65614223D01*
X140802794Y-67228611D02*
G75*
G02*
X140126216Y-66982357I-338289J123127D01*
G01*
%TO.C,IR5*%
X136950915Y-76817472D02*
X136274337Y-76571217D01*
X134497026Y-76249967D02*
X134601684Y-75962422D01*
X134012725Y-77580572D02*
X134117383Y-77293026D01*
X134892988Y-76068448D02*
X134601684Y-75962422D01*
X136950915Y-76817472D02*
X136264000Y-76567455D01*
X134304030Y-77686598D02*
X134012725Y-77580572D01*
X136361957Y-78435623D02*
X135675041Y-78185606D01*
X136274337Y-76571218D02*
G75*
G02*
X136950915Y-76817472I338289J-123127D01*
G01*
D11*
%TO.C,PT1*%
G36*
X171999999Y-95543918D02*
G01*
X171709999Y-95543918D01*
X171589999Y-95353918D01*
X171589999Y-95343918D01*
X172159999Y-95343918D01*
X171999999Y-95543918D01*
G37*
X171999999Y-95543918D02*
X171709999Y-95543918D01*
X171589999Y-95353918D01*
X171589999Y-95343918D01*
X172159999Y-95343918D01*
X171999999Y-95543918D01*
D10*
X171509999Y-95283918D02*
X172229999Y-95283918D01*
X174009999Y-94977918D02*
X174009999Y-95283918D01*
X174009999Y-93561918D02*
X174009999Y-93867918D01*
X173699999Y-95283918D02*
X174009999Y-95283918D01*
X171509999Y-95283918D02*
X172240999Y-95283918D01*
X173699999Y-93561918D02*
X174009999Y-93561918D01*
X171509999Y-93561918D02*
X172240999Y-93561918D01*
X172229999Y-95283918D02*
G75*
G02*
X171509999Y-95283918I-360000J0D01*
G01*
%TO.C,IR2*%
X171889999Y-79713999D02*
X171169999Y-79713999D01*
X169389999Y-80019999D02*
X169389999Y-79713999D01*
X169389999Y-81435999D02*
X169389999Y-81129999D01*
X169699999Y-79713999D02*
X169389999Y-79713999D01*
X171889999Y-79713999D02*
X171158999Y-79713999D01*
X169699999Y-81435999D02*
X169389999Y-81435999D01*
X171889999Y-81435999D02*
X171158999Y-81435999D01*
X171169999Y-79713999D02*
G75*
G02*
X171889999Y-79713999I360000J0D01*
G01*
D11*
%TO.C,PT3*%
G36*
X148121000Y-78500000D02*
G01*
X148121000Y-78790000D01*
X147931000Y-78910000D01*
X147921000Y-78910000D01*
X147921000Y-78340000D01*
X148121000Y-78500000D01*
G37*
X148121000Y-78500000D02*
X148121000Y-78790000D01*
X147931000Y-78910000D01*
X147921000Y-78910000D01*
X147921000Y-78340000D01*
X148121000Y-78500000D01*
D10*
X147861000Y-78990000D02*
X147861000Y-78270000D01*
X147555000Y-76490000D02*
X147861000Y-76490000D01*
X146139000Y-76490000D02*
X146445000Y-76490000D01*
X147861000Y-76800000D02*
X147861000Y-76490000D01*
X147861000Y-78990000D02*
X147861000Y-78259000D01*
X146139000Y-76800000D02*
X146139000Y-76490000D01*
X146139000Y-78990000D02*
X146139000Y-78259000D01*
X147861000Y-78270000D02*
G75*
G02*
X147861000Y-78990000I0J-360000D01*
G01*
%TO.C,IR3*%
X166638999Y-78610000D02*
X166638999Y-79330000D01*
X166944999Y-81110000D02*
X166638999Y-81110000D01*
X168360999Y-81110000D02*
X168054999Y-81110000D01*
X166638999Y-80800000D02*
X166638999Y-81110000D01*
X166638999Y-78610000D02*
X166638999Y-79341000D01*
X168360999Y-80800000D02*
X168360999Y-81110000D01*
X168360999Y-78610000D02*
X168360999Y-79341000D01*
X166638999Y-79330000D02*
G75*
G02*
X166638999Y-78610000I0J360000D01*
G01*
%TO.C,IR1*%
X171889999Y-105611918D02*
X171169999Y-105611918D01*
X169389999Y-105917918D02*
X169389999Y-105611918D01*
X169389999Y-107333918D02*
X169389999Y-107027918D01*
X169699999Y-105611918D02*
X169389999Y-105611918D01*
X171889999Y-105611918D02*
X171158999Y-105611918D01*
X169699999Y-107333918D02*
X169389999Y-107333918D01*
X171889999Y-107333918D02*
X171158999Y-107333918D01*
X171169999Y-105611918D02*
G75*
G02*
X171889999Y-105611918I360000J0D01*
G01*
D11*
%TO.C,PT2*%
G36*
X171999998Y-69645999D02*
G01*
X171709998Y-69645999D01*
X171589998Y-69455999D01*
X171589998Y-69445999D01*
X172159998Y-69445999D01*
X171999998Y-69645999D01*
G37*
X171999998Y-69645999D02*
X171709998Y-69645999D01*
X171589998Y-69455999D01*
X171589998Y-69445999D01*
X172159998Y-69445999D01*
X171999998Y-69645999D01*
D10*
X171509998Y-69385999D02*
X172229998Y-69385999D01*
X174009998Y-69079999D02*
X174009998Y-69385999D01*
X174009998Y-67663999D02*
X174009998Y-67969999D01*
X173699998Y-69385999D02*
X174009998Y-69385999D01*
X171509998Y-69385999D02*
X172240998Y-69385999D01*
X173699998Y-67663999D02*
X174009998Y-67663999D01*
X171509998Y-67663999D02*
X172240998Y-67663999D01*
X172229998Y-69385999D02*
G75*
G02*
X171509998Y-69385999I-360000J0D01*
G01*
%TO.C,IR4*%
D12*
X140219911Y-81384329D02*
X140561931Y-80444636D01*
X141204351Y-81742636D02*
X141053987Y-81181156D01*
X140667384Y-81547195D02*
X141009404Y-80607503D01*
X141367382Y-80737796D01*
X141440590Y-80815117D01*
X141469051Y-80876151D01*
X141481224Y-80981932D01*
X141432364Y-81116174D01*
X141355044Y-81189382D01*
X141294010Y-81217842D01*
X141188229Y-81230016D01*
X140830251Y-81099723D01*
X142237815Y-81409334D02*
X142009802Y-82035796D01*
X142144372Y-80969922D02*
X141676336Y-81559698D01*
X142258050Y-81771425D01*
%TO.C,PT4*%
X145479328Y-66516517D02*
X145821348Y-65576824D01*
X146179327Y-65707117D01*
X146252534Y-65784438D01*
X146280995Y-65845472D01*
X146293169Y-65951253D01*
X146244309Y-66085495D01*
X146166988Y-66158703D01*
X146105954Y-66187164D01*
X146000173Y-66199337D01*
X145642195Y-66069044D01*
X146626799Y-65869984D02*
X147163766Y-66065424D01*
X146553263Y-66907397D02*
X146895283Y-65967704D01*
X147765716Y-66639242D02*
X147537703Y-67265704D01*
X147672273Y-66199830D02*
X147204237Y-66789606D01*
X147785951Y-67001333D01*
%TO.C,PT5*%
X140772064Y-64856892D02*
X141114084Y-63917199D01*
X141472063Y-64047492D01*
X141545270Y-64124813D01*
X141573731Y-64185847D01*
X141585905Y-64291628D01*
X141537045Y-64425870D01*
X141459724Y-64499078D01*
X141398690Y-64527539D01*
X141292909Y-64539712D01*
X140934931Y-64409419D01*
X141919535Y-64210359D02*
X142456502Y-64405799D01*
X141845999Y-65247772D02*
X142188019Y-64308079D01*
X143217206Y-64682673D02*
X142769733Y-64519806D01*
X142562119Y-64950992D01*
X142623153Y-64922531D01*
X142728935Y-64910358D01*
X142952671Y-64991791D01*
X143025879Y-65069111D01*
X143054339Y-65130145D01*
X143066513Y-65235927D01*
X142985080Y-65459663D01*
X142907759Y-65532871D01*
X142846725Y-65561331D01*
X142740944Y-65573505D01*
X142517208Y-65492072D01*
X142444000Y-65414751D01*
X142415539Y-65353717D01*
%TO.C,IR5*%
X134769694Y-79400614D02*
X135111714Y-78460921D01*
X135754134Y-79758921D02*
X135603770Y-79197441D01*
X135217167Y-79563480D02*
X135559187Y-78623788D01*
X135917165Y-78754081D01*
X135990373Y-78831402D01*
X136018834Y-78892436D01*
X136031007Y-78998217D01*
X135982147Y-79132459D01*
X135904827Y-79205667D01*
X135843793Y-79234127D01*
X135738012Y-79246301D01*
X135380034Y-79116008D01*
X136946352Y-79128675D02*
X136498880Y-78965808D01*
X136291266Y-79396994D01*
X136352299Y-79368533D01*
X136458081Y-79356359D01*
X136681817Y-79437793D01*
X136755025Y-79515113D01*
X136783485Y-79576147D01*
X136795659Y-79681929D01*
X136714226Y-79905665D01*
X136636905Y-79978873D01*
X136575871Y-80007333D01*
X136470090Y-80019507D01*
X136246354Y-79938074D01*
X136173146Y-79860753D01*
X136144685Y-79799719D01*
%TO.C,PT1*%
X170580951Y-93015298D02*
X170580951Y-92015298D01*
X170961903Y-92015298D01*
X171057141Y-92062918D01*
X171104760Y-92110537D01*
X171152379Y-92205775D01*
X171152379Y-92348632D01*
X171104760Y-92443870D01*
X171057141Y-92491489D01*
X170961903Y-92539108D01*
X170580951Y-92539108D01*
X171438094Y-92015298D02*
X172009522Y-92015298D01*
X171723808Y-93015298D02*
X171723808Y-92015298D01*
X172866665Y-93015298D02*
X172295237Y-93015298D01*
X172580951Y-93015298D02*
X172580951Y-92015298D01*
X172485713Y-92158156D01*
X172390475Y-92253394D01*
X172295237Y-92301013D01*
%TO.C,IR2*%
X170723808Y-82887379D02*
X170723808Y-81887379D01*
X171771427Y-82887379D02*
X171438094Y-82411189D01*
X171199999Y-82887379D02*
X171199999Y-81887379D01*
X171580951Y-81887379D01*
X171676189Y-81934999D01*
X171723808Y-81982618D01*
X171771427Y-82077856D01*
X171771427Y-82220713D01*
X171723808Y-82315951D01*
X171676189Y-82363570D01*
X171580951Y-82411189D01*
X171199999Y-82411189D01*
X172152379Y-81982618D02*
X172199999Y-81934999D01*
X172295237Y-81887379D01*
X172533332Y-81887379D01*
X172628570Y-81934999D01*
X172676189Y-81982618D01*
X172723808Y-82077856D01*
X172723808Y-82173094D01*
X172676189Y-82315951D01*
X172104760Y-82887379D01*
X172723808Y-82887379D01*
%TO.C,PT3*%
X149630729Y-79933577D02*
X148630729Y-79933577D01*
X148630729Y-79552625D01*
X148678349Y-79457387D01*
X148725968Y-79409768D01*
X148821206Y-79362149D01*
X148964063Y-79362149D01*
X149059301Y-79409768D01*
X149106920Y-79457387D01*
X149154539Y-79552625D01*
X149154539Y-79933577D01*
X148630729Y-79076434D02*
X148630729Y-78505006D01*
X149630729Y-78790720D02*
X148630729Y-78790720D01*
X148630729Y-78266910D02*
X148630729Y-77647863D01*
X149011682Y-77981196D01*
X149011682Y-77838339D01*
X149059301Y-77743101D01*
X149106920Y-77695482D01*
X149202158Y-77647863D01*
X149440253Y-77647863D01*
X149535491Y-77695482D01*
X149583110Y-77743101D01*
X149630729Y-77838339D01*
X149630729Y-78124053D01*
X149583110Y-78219291D01*
X149535491Y-78266910D01*
%TO.C,IR3*%
X165930729Y-79790720D02*
X164930729Y-79790720D01*
X165930729Y-78743101D02*
X165454539Y-79076434D01*
X165930729Y-79314530D02*
X164930729Y-79314530D01*
X164930729Y-78933577D01*
X164978349Y-78838339D01*
X165025968Y-78790720D01*
X165121206Y-78743101D01*
X165264063Y-78743101D01*
X165359301Y-78790720D01*
X165406920Y-78838339D01*
X165454539Y-78933577D01*
X165454539Y-79314530D01*
X164930729Y-78409768D02*
X164930729Y-77790720D01*
X165311682Y-78124053D01*
X165311682Y-77981196D01*
X165359301Y-77885958D01*
X165406920Y-77838339D01*
X165502158Y-77790720D01*
X165740253Y-77790720D01*
X165835491Y-77838339D01*
X165883110Y-77885958D01*
X165930729Y-77981196D01*
X165930729Y-78266910D01*
X165883110Y-78362149D01*
X165835491Y-78409768D01*
%TO.C,IR1*%
X168930729Y-107390720D02*
X167930729Y-107390720D01*
X168930729Y-106343101D02*
X168454539Y-106676434D01*
X168930729Y-106914530D02*
X167930729Y-106914530D01*
X167930729Y-106533577D01*
X167978349Y-106438339D01*
X168025968Y-106390720D01*
X168121206Y-106343101D01*
X168264063Y-106343101D01*
X168359301Y-106390720D01*
X168406920Y-106438339D01*
X168454539Y-106533577D01*
X168454539Y-106914530D01*
X168930729Y-105390720D02*
X168930729Y-105962149D01*
X168930729Y-105676434D02*
X167930729Y-105676434D01*
X168073587Y-105771672D01*
X168168825Y-105866910D01*
X168216444Y-105962149D01*
%TO.C,PT2*%
X170580950Y-67117379D02*
X170580950Y-66117379D01*
X170961902Y-66117379D01*
X171057140Y-66164999D01*
X171104759Y-66212618D01*
X171152378Y-66307856D01*
X171152378Y-66450713D01*
X171104759Y-66545951D01*
X171057140Y-66593570D01*
X170961902Y-66641189D01*
X170580950Y-66641189D01*
X171438093Y-66117379D02*
X172009521Y-66117379D01*
X171723807Y-67117379D02*
X171723807Y-66117379D01*
X172295236Y-66212618D02*
X172342855Y-66164999D01*
X172438093Y-66117379D01*
X172676188Y-66117379D01*
X172771426Y-66164999D01*
X172819045Y-66212618D01*
X172866664Y-66307856D01*
X172866664Y-66403094D01*
X172819045Y-66545951D01*
X172247617Y-67117379D01*
X172866664Y-67117379D01*
%TD*%
M02*
