%TF.GenerationSoftware,KiCad,Pcbnew,5.1.6-c6e7f7d~86~ubuntu18.04.1*%
%TF.CreationDate,2021-04-26T01:41:27-07:00*%
%TF.ProjectId,thumb_cluster_left,7468756d-625f-4636-9c75-737465725f6c,rev?*%
%TF.SameCoordinates,Original*%
%TF.FileFunction,Legend,Bot*%
%TF.FilePolarity,Positive*%
%FSLAX46Y46*%
G04 Gerber Fmt 4.6, Leading zero omitted, Abs format (unit mm)*
G04 Created by KiCad (PCBNEW 5.1.6-c6e7f7d~86~ubuntu18.04.1) date 2021-04-26 01:41:27*
%MOMM*%
%LPD*%
G01*
G04 APERTURE LIST*
%ADD10C,0.150000*%
%ADD11C,0.120000*%
G04 APERTURE END LIST*
D10*
X143439923Y-85226123D02*
X143976890Y-85421563D01*
X143708406Y-85323843D02*
X144050427Y-84384150D01*
X144091061Y-84550966D01*
X144147982Y-84673033D01*
X144221190Y-84750354D01*
X142931745Y-83976984D02*
X143379218Y-84139850D01*
X143261098Y-84603610D01*
X143232638Y-84542576D01*
X143159430Y-84465255D01*
X142935693Y-84383822D01*
X142829912Y-84395996D01*
X142768878Y-84424456D01*
X142691558Y-84497664D01*
X142610124Y-84721400D01*
X142622298Y-84827182D01*
X142650759Y-84888216D01*
X142723967Y-84965536D01*
X142947703Y-85046970D01*
X143053484Y-85034796D01*
X143114518Y-85006335D01*
X142305283Y-83748970D02*
X142215789Y-83716397D01*
X142110007Y-83728571D01*
X142048973Y-83757031D01*
X141971653Y-83830239D01*
X141861759Y-83992942D01*
X141780326Y-84216678D01*
X141759926Y-84411954D01*
X141772100Y-84517735D01*
X141800561Y-84578769D01*
X141873768Y-84656089D01*
X141963263Y-84688663D01*
X142069044Y-84676489D01*
X142130078Y-84648028D01*
X142207399Y-84574820D01*
X142317293Y-84412118D01*
X142398726Y-84188382D01*
X142419126Y-83993106D01*
X142406952Y-83887325D01*
X142378491Y-83826291D01*
X142305283Y-83748970D01*
X159478348Y-71516910D02*
X159573586Y-71469291D01*
X159621205Y-71374053D01*
X159621205Y-70516910D01*
X158668824Y-71516910D02*
X158668824Y-70993101D01*
X158716443Y-70897863D01*
X158811681Y-70850244D01*
X159002157Y-70850244D01*
X159097395Y-70897863D01*
X158668824Y-71469291D02*
X158764062Y-71516910D01*
X159002157Y-71516910D01*
X159097395Y-71469291D01*
X159145014Y-71374053D01*
X159145014Y-71278815D01*
X159097395Y-71183577D01*
X159002157Y-71135958D01*
X158764062Y-71135958D01*
X158668824Y-71088339D01*
X158049776Y-71516910D02*
X158145014Y-71469291D01*
X158192633Y-71374053D01*
X158192633Y-70516910D01*
X157668824Y-71516910D02*
X157668824Y-70516910D01*
X157668824Y-70897863D02*
X157573586Y-70850244D01*
X157383109Y-70850244D01*
X157287871Y-70897863D01*
X157240252Y-70945482D01*
X157192633Y-71040720D01*
X157192633Y-71326434D01*
X157240252Y-71421672D01*
X157287871Y-71469291D01*
X157383109Y-71516910D01*
X157573586Y-71516910D01*
X157668824Y-71469291D01*
X156621205Y-71516910D02*
X156716443Y-71469291D01*
X156764062Y-71421672D01*
X156811681Y-71326434D01*
X156811681Y-71040720D01*
X156764062Y-70945482D01*
X156716443Y-70897863D01*
X156621205Y-70850244D01*
X156478348Y-70850244D01*
X156383109Y-70897863D01*
X156335490Y-70945482D01*
X156287871Y-71040720D01*
X156287871Y-71326434D01*
X156335490Y-71421672D01*
X156383109Y-71469291D01*
X156478348Y-71516910D01*
X156621205Y-71516910D01*
X155430728Y-71516910D02*
X155430728Y-70993101D01*
X155478348Y-70897863D01*
X155573586Y-70850244D01*
X155764062Y-70850244D01*
X155859300Y-70897863D01*
X155430728Y-71469291D02*
X155525967Y-71516910D01*
X155764062Y-71516910D01*
X155859300Y-71469291D01*
X155906919Y-71374053D01*
X155906919Y-71278815D01*
X155859300Y-71183577D01*
X155764062Y-71135958D01*
X155525967Y-71135958D01*
X155430728Y-71088339D01*
X154954538Y-71516910D02*
X154954538Y-70850244D01*
X154954538Y-71040720D02*
X154906919Y-70945482D01*
X154859300Y-70897863D01*
X154764062Y-70850244D01*
X154668824Y-70850244D01*
X153906919Y-71516910D02*
X153906919Y-70516910D01*
X153906919Y-71469291D02*
X154002157Y-71516910D01*
X154192633Y-71516910D01*
X154287871Y-71469291D01*
X154335490Y-71421672D01*
X154383109Y-71326434D01*
X154383109Y-71040720D01*
X154335490Y-70945482D01*
X154287871Y-70897863D01*
X154192633Y-70850244D01*
X154002157Y-70850244D01*
X153906919Y-70897863D01*
X153430728Y-71421672D02*
X153383109Y-71469291D01*
X153430728Y-71516910D01*
X153478348Y-71469291D01*
X153430728Y-71421672D01*
X153430728Y-71516910D01*
X152525967Y-71469291D02*
X152621205Y-71516910D01*
X152811681Y-71516910D01*
X152906919Y-71469291D01*
X152954538Y-71421672D01*
X153002157Y-71326434D01*
X153002157Y-71040720D01*
X152954538Y-70945482D01*
X152906919Y-70897863D01*
X152811681Y-70850244D01*
X152621205Y-70850244D01*
X152525967Y-70897863D01*
X151954538Y-71516910D02*
X152049776Y-71469291D01*
X152097395Y-71421672D01*
X152145014Y-71326434D01*
X152145014Y-71040720D01*
X152097395Y-70945482D01*
X152049776Y-70897863D01*
X151954538Y-70850244D01*
X151811681Y-70850244D01*
X151716443Y-70897863D01*
X151668824Y-70945482D01*
X151621205Y-71040720D01*
X151621205Y-71326434D01*
X151668824Y-71421672D01*
X151716443Y-71469291D01*
X151811681Y-71516910D01*
X151954538Y-71516910D01*
X151192633Y-71516910D02*
X151192633Y-70850244D01*
X151192633Y-70945482D02*
X151145014Y-70897863D01*
X151049776Y-70850244D01*
X150906919Y-70850244D01*
X150811681Y-70897863D01*
X150764062Y-70993101D01*
X150764062Y-71516910D01*
X150764062Y-70993101D02*
X150716443Y-70897863D01*
X150621205Y-70850244D01*
X150478348Y-70850244D01*
X150383109Y-70897863D01*
X150335490Y-70993101D01*
X150335490Y-71516910D01*
X161502157Y-73166910D02*
X161597395Y-73119291D01*
X161645014Y-73024053D01*
X161645014Y-72166910D01*
X160740252Y-73119291D02*
X160835490Y-73166910D01*
X161025967Y-73166910D01*
X161121205Y-73119291D01*
X161168824Y-73024053D01*
X161168824Y-72643101D01*
X161121205Y-72547863D01*
X161025967Y-72500244D01*
X160835490Y-72500244D01*
X160740252Y-72547863D01*
X160692633Y-72643101D01*
X160692633Y-72738339D01*
X161168824Y-72833577D01*
X160406919Y-72500244D02*
X160025967Y-72500244D01*
X160264062Y-73166910D02*
X160264062Y-72309768D01*
X160216443Y-72214530D01*
X160121205Y-72166910D01*
X160025967Y-72166910D01*
X159835490Y-72500244D02*
X159454538Y-72500244D01*
X159692633Y-72166910D02*
X159692633Y-73024053D01*
X159645014Y-73119291D01*
X159549776Y-73166910D01*
X159454538Y-73166910D01*
X158502157Y-72500244D02*
X158121205Y-72500244D01*
X158359300Y-72166910D02*
X158359300Y-73024053D01*
X158311681Y-73119291D01*
X158216443Y-73166910D01*
X158121205Y-73166910D01*
X157787871Y-73166910D02*
X157787871Y-72166910D01*
X157359300Y-73166910D02*
X157359300Y-72643101D01*
X157406919Y-72547863D01*
X157502157Y-72500244D01*
X157645014Y-72500244D01*
X157740252Y-72547863D01*
X157787871Y-72595482D01*
X156454538Y-72500244D02*
X156454538Y-73166910D01*
X156883109Y-72500244D02*
X156883109Y-73024053D01*
X156835490Y-73119291D01*
X156740252Y-73166910D01*
X156597395Y-73166910D01*
X156502157Y-73119291D01*
X156454538Y-73071672D01*
X155978348Y-73166910D02*
X155978348Y-72500244D01*
X155978348Y-72595482D02*
X155930728Y-72547863D01*
X155835490Y-72500244D01*
X155692633Y-72500244D01*
X155597395Y-72547863D01*
X155549776Y-72643101D01*
X155549776Y-73166910D01*
X155549776Y-72643101D02*
X155502157Y-72547863D01*
X155406919Y-72500244D01*
X155264062Y-72500244D01*
X155168824Y-72547863D01*
X155121205Y-72643101D01*
X155121205Y-73166910D01*
X154645014Y-73166910D02*
X154645014Y-72166910D01*
X154645014Y-72547863D02*
X154549776Y-72500244D01*
X154359300Y-72500244D01*
X154264062Y-72547863D01*
X154216443Y-72595482D01*
X154168824Y-72690720D01*
X154168824Y-72976434D01*
X154216443Y-73071672D01*
X154264062Y-73119291D01*
X154359300Y-73166910D01*
X154549776Y-73166910D01*
X154645014Y-73119291D01*
X152549776Y-73119291D02*
X152645014Y-73166910D01*
X152835490Y-73166910D01*
X152930728Y-73119291D01*
X152978348Y-73071672D01*
X153025967Y-72976434D01*
X153025967Y-72690720D01*
X152978348Y-72595482D01*
X152930728Y-72547863D01*
X152835490Y-72500244D01*
X152645014Y-72500244D01*
X152549776Y-72547863D01*
X151978348Y-73166910D02*
X152073586Y-73119291D01*
X152121205Y-73024053D01*
X152121205Y-72166910D01*
X151168824Y-72500244D02*
X151168824Y-73166910D01*
X151597395Y-72500244D02*
X151597395Y-73024053D01*
X151549776Y-73119291D01*
X151454538Y-73166910D01*
X151311681Y-73166910D01*
X151216443Y-73119291D01*
X151168824Y-73071672D01*
X150740252Y-73119291D02*
X150645014Y-73166910D01*
X150454538Y-73166910D01*
X150359300Y-73119291D01*
X150311681Y-73024053D01*
X150311681Y-72976434D01*
X150359300Y-72881196D01*
X150454538Y-72833577D01*
X150597395Y-72833577D01*
X150692633Y-72785958D01*
X150740252Y-72690720D01*
X150740252Y-72643101D01*
X150692633Y-72547863D01*
X150597395Y-72500244D01*
X150454538Y-72500244D01*
X150359300Y-72547863D01*
X150025967Y-72500244D02*
X149645014Y-72500244D01*
X149883109Y-72166910D02*
X149883109Y-73024053D01*
X149835490Y-73119291D01*
X149740252Y-73166910D01*
X149645014Y-73166910D01*
X148930728Y-73119291D02*
X149025967Y-73166910D01*
X149216443Y-73166910D01*
X149311681Y-73119291D01*
X149359300Y-73024053D01*
X149359300Y-72643101D01*
X149311681Y-72547863D01*
X149216443Y-72500244D01*
X149025967Y-72500244D01*
X148930728Y-72547863D01*
X148883109Y-72643101D01*
X148883109Y-72738339D01*
X149359300Y-72833577D01*
X148454538Y-73166910D02*
X148454538Y-72500244D01*
X148454538Y-72690720D02*
X148406919Y-72595482D01*
X148359300Y-72547863D01*
X148264062Y-72500244D01*
X148168824Y-72500244D01*
X156406919Y-74150244D02*
X156168824Y-74816910D01*
X155930728Y-74150244D01*
X155359300Y-73816910D02*
X155264062Y-73816910D01*
X155168824Y-73864530D01*
X155121205Y-73912149D01*
X155073586Y-74007387D01*
X155025967Y-74197863D01*
X155025967Y-74435958D01*
X155073586Y-74626434D01*
X155121205Y-74721672D01*
X155168824Y-74769291D01*
X155264062Y-74816910D01*
X155359300Y-74816910D01*
X155454538Y-74769291D01*
X155502157Y-74721672D01*
X155549776Y-74626434D01*
X155597395Y-74435958D01*
X155597395Y-74197863D01*
X155549776Y-74007387D01*
X155502157Y-73912149D01*
X155454538Y-73864530D01*
X155359300Y-73816910D01*
X154597395Y-74721672D02*
X154549776Y-74769291D01*
X154597395Y-74816910D01*
X154645014Y-74769291D01*
X154597395Y-74721672D01*
X154597395Y-74816910D01*
X154168824Y-73912149D02*
X154121205Y-73864530D01*
X154025967Y-73816910D01*
X153787871Y-73816910D01*
X153692633Y-73864530D01*
X153645014Y-73912149D01*
X153597395Y-74007387D01*
X153597395Y-74102625D01*
X153645014Y-74245482D01*
X154216443Y-74816910D01*
X153597395Y-74816910D01*
X165997534Y-104299412D02*
X165997534Y-103727983D01*
X165997534Y-104013698D02*
X164997534Y-104013698D01*
X165140392Y-103918459D01*
X165235630Y-103823221D01*
X165283249Y-103727983D01*
X164997534Y-104918459D02*
X164997534Y-105013698D01*
X165045154Y-105108936D01*
X165092773Y-105156555D01*
X165188011Y-105204174D01*
X165378487Y-105251793D01*
X165616582Y-105251793D01*
X165807058Y-105204174D01*
X165902296Y-105156555D01*
X165949915Y-105108936D01*
X165997534Y-105013698D01*
X165997534Y-104918459D01*
X165949915Y-104823221D01*
X165902296Y-104775602D01*
X165807058Y-104727983D01*
X165616582Y-104680364D01*
X165378487Y-104680364D01*
X165188011Y-104727983D01*
X165092773Y-104775602D01*
X165045154Y-104823221D01*
X164997534Y-104918459D01*
X164997534Y-105870840D02*
X164997534Y-105966079D01*
X165045154Y-106061317D01*
X165092773Y-106108936D01*
X165188011Y-106156555D01*
X165378487Y-106204174D01*
X165616582Y-106204174D01*
X165807058Y-106156555D01*
X165902296Y-106108936D01*
X165949915Y-106061317D01*
X165997534Y-105966079D01*
X165997534Y-105870840D01*
X165949915Y-105775602D01*
X165902296Y-105727983D01*
X165807058Y-105680364D01*
X165616582Y-105632745D01*
X165378487Y-105632745D01*
X165188011Y-105680364D01*
X165092773Y-105727983D01*
X165045154Y-105775602D01*
X164997534Y-105870840D01*
X163797535Y-83599412D02*
X163797535Y-83027983D01*
X163797535Y-83313698D02*
X162797535Y-83313698D01*
X162940393Y-83218459D01*
X163035631Y-83123221D01*
X163083250Y-83027983D01*
X162797535Y-84504174D02*
X162797535Y-84027983D01*
X163273726Y-83980364D01*
X163226107Y-84027983D01*
X163178488Y-84123221D01*
X163178488Y-84361317D01*
X163226107Y-84456555D01*
X163273726Y-84504174D01*
X163368964Y-84551793D01*
X163607059Y-84551793D01*
X163702297Y-84504174D01*
X163749916Y-84456555D01*
X163797535Y-84361317D01*
X163797535Y-84123221D01*
X163749916Y-84027983D01*
X163702297Y-83980364D01*
X162797535Y-85170840D02*
X162797535Y-85266079D01*
X162845155Y-85361317D01*
X162892774Y-85408936D01*
X162988012Y-85456555D01*
X163178488Y-85504174D01*
X163416583Y-85504174D01*
X163607059Y-85456555D01*
X163702297Y-85408936D01*
X163749916Y-85361317D01*
X163797535Y-85266079D01*
X163797535Y-85170840D01*
X163749916Y-85075602D01*
X163702297Y-85027983D01*
X163607059Y-84980364D01*
X163416583Y-84932745D01*
X163178488Y-84932745D01*
X162988012Y-84980364D01*
X162892774Y-85027983D01*
X162845155Y-85075602D01*
X162797535Y-85170840D01*
X163797534Y-78299411D02*
X163797534Y-77727982D01*
X163797534Y-78013697D02*
X162797534Y-78013697D01*
X162940392Y-77918458D01*
X163035630Y-77823220D01*
X163083249Y-77727982D01*
X162797534Y-79204173D02*
X162797534Y-78727982D01*
X163273725Y-78680363D01*
X163226106Y-78727982D01*
X163178487Y-78823220D01*
X163178487Y-79061316D01*
X163226106Y-79156554D01*
X163273725Y-79204173D01*
X163368963Y-79251792D01*
X163607058Y-79251792D01*
X163702296Y-79204173D01*
X163749915Y-79156554D01*
X163797534Y-79061316D01*
X163797534Y-78823220D01*
X163749915Y-78727982D01*
X163702296Y-78680363D01*
X162797534Y-79870839D02*
X162797534Y-79966078D01*
X162845154Y-80061316D01*
X162892773Y-80108935D01*
X162988011Y-80156554D01*
X163178487Y-80204173D01*
X163416582Y-80204173D01*
X163607058Y-80156554D01*
X163702296Y-80108935D01*
X163749915Y-80061316D01*
X163797534Y-79966078D01*
X163797534Y-79870839D01*
X163749915Y-79775601D01*
X163702296Y-79727982D01*
X163607058Y-79680363D01*
X163416582Y-79632744D01*
X163178487Y-79632744D01*
X162988011Y-79680363D01*
X162892773Y-79727982D01*
X162845154Y-79775601D01*
X162797534Y-79870839D01*
X137989706Y-83242405D02*
X138526673Y-83437845D01*
X138258189Y-83340125D02*
X138600210Y-82400432D01*
X138640844Y-82567248D01*
X138697765Y-82689315D01*
X138770973Y-82766636D01*
X137481528Y-81993266D02*
X137929001Y-82156132D01*
X137810881Y-82619892D01*
X137782421Y-82558858D01*
X137709213Y-82481537D01*
X137485476Y-82400104D01*
X137379695Y-82412278D01*
X137318661Y-82440738D01*
X137241341Y-82513946D01*
X137159907Y-82737682D01*
X137172081Y-82843464D01*
X137200542Y-82904498D01*
X137273750Y-82981818D01*
X137497486Y-83063252D01*
X137603267Y-83051078D01*
X137664301Y-83022617D01*
X136855066Y-81765252D02*
X136765572Y-81732679D01*
X136659790Y-81744853D01*
X136598756Y-81773313D01*
X136521436Y-81846521D01*
X136411542Y-82009224D01*
X136330109Y-82232960D01*
X136309709Y-82428236D01*
X136321883Y-82534017D01*
X136350344Y-82595051D01*
X136423551Y-82672371D01*
X136513046Y-82704945D01*
X136618827Y-82692771D01*
X136679861Y-82664310D01*
X136757182Y-82591102D01*
X136867076Y-82428400D01*
X136948509Y-82204664D01*
X136968909Y-82009388D01*
X136956735Y-81903607D01*
X136928274Y-81842573D01*
X136855066Y-81765252D01*
D11*
%TO.C,J1*%
X158960000Y-89110000D02*
X157710000Y-89110000D01*
X158960000Y-87860000D02*
X158960000Y-89110000D01*
X155140000Y-76790000D02*
X156900000Y-76790000D01*
X155140000Y-88610000D02*
X155140000Y-76790000D01*
X156900000Y-88610000D02*
X155140000Y-88610000D01*
X156900000Y-76790000D02*
X156900000Y-76590000D01*
X157600000Y-76790000D02*
X156900000Y-76790000D01*
X156900000Y-88610000D02*
X156900000Y-88810000D01*
X157600000Y-88610000D02*
X156900000Y-88610000D01*
X157600000Y-76790000D02*
X157600000Y-76590000D01*
X158460000Y-76790000D02*
X157600000Y-76790000D01*
X158460000Y-88610000D02*
X158460000Y-76790000D01*
X157600000Y-88610000D02*
X158460000Y-88610000D01*
X157600000Y-88810000D02*
X157600000Y-88610000D01*
X158660000Y-76590000D02*
X158660000Y-88810000D01*
X154940000Y-76590000D02*
X158660000Y-76590000D01*
X154940000Y-88810000D02*
X154940000Y-76590000D01*
X158660000Y-88810000D02*
X154940000Y-88810000D01*
%TO.C,R1*%
X168240000Y-104383353D02*
X168240000Y-105587481D01*
X166420000Y-104383353D02*
X166420000Y-105587481D01*
%TO.C,R5*%
X138434361Y-82008922D02*
X137302851Y-81597086D01*
X139056837Y-80298682D02*
X137925327Y-79886846D01*
%TO.C,R2*%
X164089999Y-84929162D02*
X164089999Y-83725034D01*
X165909999Y-84929162D02*
X165909999Y-83725034D01*
%TO.C,R3*%
X164078979Y-79619564D02*
X164078979Y-78415436D01*
X165898979Y-79619564D02*
X165898979Y-78415436D01*
%TO.C,R4*%
X143884580Y-83992638D02*
X142753070Y-83580802D01*
X144507056Y-82282398D02*
X143375546Y-81870562D01*
%TO.C,J1*%
D10*
X159202380Y-82366666D02*
X159916666Y-82366666D01*
X160059523Y-82319047D01*
X160154761Y-82223809D01*
X160202380Y-82080952D01*
X160202380Y-81985714D01*
X160202380Y-83366666D02*
X160202380Y-82795238D01*
X160202380Y-83080952D02*
X159202380Y-83080952D01*
X159345238Y-82985714D01*
X159440476Y-82890476D01*
X159488095Y-82795238D01*
%TO.C,R1*%
X164597535Y-104799411D02*
X164121345Y-104466078D01*
X164597535Y-104227982D02*
X163597535Y-104227982D01*
X163597535Y-104608935D01*
X163645155Y-104704173D01*
X163692774Y-104751792D01*
X163788012Y-104799411D01*
X163930869Y-104799411D01*
X164026107Y-104751792D01*
X164073726Y-104704173D01*
X164121345Y-104608935D01*
X164121345Y-104227982D01*
X164597535Y-105751792D02*
X164597535Y-105180363D01*
X164597535Y-105466078D02*
X163597535Y-105466078D01*
X163740393Y-105370839D01*
X163835631Y-105275601D01*
X163883250Y-105180363D01*
%TO.C,R5*%
X137132146Y-84313711D02*
X137608243Y-83980245D01*
X137669113Y-84509151D02*
X138011133Y-83569458D01*
X137653155Y-83439165D01*
X137547374Y-83451339D01*
X137486340Y-83479799D01*
X137409019Y-83553007D01*
X137360159Y-83687249D01*
X137372333Y-83793030D01*
X137400793Y-83854064D01*
X137474001Y-83931385D01*
X137831979Y-84061678D01*
X136623968Y-83064571D02*
X137071440Y-83227438D01*
X136953321Y-83691198D01*
X136924860Y-83630164D01*
X136851652Y-83552843D01*
X136627916Y-83471410D01*
X136522135Y-83483584D01*
X136461101Y-83512044D01*
X136383780Y-83585252D01*
X136302347Y-83808988D01*
X136314521Y-83914770D01*
X136342981Y-83975804D01*
X136416189Y-84053124D01*
X136639926Y-84134557D01*
X136745707Y-84122384D01*
X136806741Y-84093923D01*
%TO.C,R2*%
X162497534Y-84160431D02*
X162021344Y-83827098D01*
X162497534Y-83589002D02*
X161497534Y-83589002D01*
X161497534Y-83969955D01*
X161545154Y-84065193D01*
X161592773Y-84112812D01*
X161688011Y-84160431D01*
X161830868Y-84160431D01*
X161926106Y-84112812D01*
X161973725Y-84065193D01*
X162021344Y-83969955D01*
X162021344Y-83589002D01*
X161592773Y-84541383D02*
X161545154Y-84589002D01*
X161497534Y-84684240D01*
X161497534Y-84922336D01*
X161545154Y-85017574D01*
X161592773Y-85065193D01*
X161688011Y-85112812D01*
X161783249Y-85112812D01*
X161926106Y-85065193D01*
X162497534Y-84493764D01*
X162497534Y-85112812D01*
%TO.C,R3*%
X162497534Y-78799412D02*
X162021344Y-78466079D01*
X162497534Y-78227983D02*
X161497534Y-78227983D01*
X161497534Y-78608936D01*
X161545154Y-78704174D01*
X161592773Y-78751793D01*
X161688011Y-78799412D01*
X161830868Y-78799412D01*
X161926106Y-78751793D01*
X161973725Y-78704174D01*
X162021344Y-78608936D01*
X162021344Y-78227983D01*
X161497534Y-79132745D02*
X161497534Y-79751793D01*
X161878487Y-79418459D01*
X161878487Y-79561317D01*
X161926106Y-79656555D01*
X161973725Y-79704174D01*
X162068963Y-79751793D01*
X162307058Y-79751793D01*
X162402296Y-79704174D01*
X162449915Y-79656555D01*
X162497534Y-79561317D01*
X162497534Y-79275602D01*
X162449915Y-79180364D01*
X162402296Y-79132745D01*
%TO.C,R4*%
X142619420Y-86310915D02*
X143095517Y-85977449D01*
X143156387Y-86506355D02*
X143498407Y-85566662D01*
X143140429Y-85436369D01*
X143034648Y-85448543D01*
X142973614Y-85477003D01*
X142896293Y-85550211D01*
X142847433Y-85684453D01*
X142859607Y-85790234D01*
X142888067Y-85851268D01*
X142961275Y-85928589D01*
X143319253Y-86058882D01*
X142041982Y-85391293D02*
X141813969Y-86017755D01*
X142396012Y-85114748D02*
X142375448Y-85867391D01*
X141793734Y-85655664D01*
%TD*%
M02*
