%TF.GenerationSoftware,KiCad,Pcbnew,5.1.6-c6e7f7d~86~ubuntu18.04.1*%
%TF.CreationDate,2021-04-26T01:39:18-07:00*%
%TF.ProjectId,thumb_cluster_right,7468756d-625f-4636-9c75-737465725f72,rev?*%
%TF.SameCoordinates,Original*%
%TF.FileFunction,Copper,L2,Bot*%
%TF.FilePolarity,Positive*%
%FSLAX46Y46*%
G04 Gerber Fmt 4.6, Leading zero omitted, Abs format (unit mm)*
G04 Created by KiCad (PCBNEW 5.1.6-c6e7f7d~86~ubuntu18.04.1) date 2021-04-26 01:39:18*
%MOMM*%
%LPD*%
G01*
G04 APERTURE LIST*
%TA.AperFunction,ComponentPad*%
%ADD10C,4.500000*%
%TD*%
%TA.AperFunction,ComponentPad*%
%ADD11R,1.800000X1.800000*%
%TD*%
%TA.AperFunction,ComponentPad*%
%ADD12C,1.800000*%
%TD*%
%TA.AperFunction,ComponentPad*%
%ADD13C,0.100000*%
%TD*%
%TA.AperFunction,ComponentPad*%
%ADD14O,1.870000X1.170000*%
%TD*%
%TA.AperFunction,ViaPad*%
%ADD15C,0.800000*%
%TD*%
%TA.AperFunction,Conductor*%
%ADD16C,0.500000*%
%TD*%
%TA.AperFunction,Conductor*%
%ADD17C,0.250000*%
%TD*%
%TA.AperFunction,Conductor*%
%ADD18C,0.254000*%
%TD*%
G04 APERTURE END LIST*
D10*
%TO.P,H2,1*%
%TO.N,GND*%
X135731126Y-66312121D03*
%TD*%
%TO.P,H1,1*%
%TO.N,GND*%
X158154844Y-91366079D03*
%TD*%
%TO.P,R2,2*%
%TO.N,Net-(IR2-Pad1)*%
%TA.AperFunction,SMDPad,CuDef*%
G36*
G01*
X136195000Y-83285418D02*
X134945000Y-83285418D01*
G75*
G02*
X134695000Y-83035418I0J250000D01*
G01*
X134695000Y-82110418D01*
G75*
G02*
X134945000Y-81860418I250000J0D01*
G01*
X136195000Y-81860418D01*
G75*
G02*
X136445000Y-82110418I0J-250000D01*
G01*
X136445000Y-83035418D01*
G75*
G02*
X136195000Y-83285418I-250000J0D01*
G01*
G37*
%TD.AperFunction*%
%TO.P,R2,1*%
%TO.N,GND*%
%TA.AperFunction,SMDPad,CuDef*%
G36*
G01*
X136195000Y-86260418D02*
X134945000Y-86260418D01*
G75*
G02*
X134695000Y-86010418I0J250000D01*
G01*
X134695000Y-85085418D01*
G75*
G02*
X134945000Y-84835418I250000J0D01*
G01*
X136195000Y-84835418D01*
G75*
G02*
X136445000Y-85085418I0J-250000D01*
G01*
X136445000Y-86010418D01*
G75*
G02*
X136195000Y-86260418I-250000J0D01*
G01*
G37*
%TD.AperFunction*%
%TD*%
%TO.P,R5,2*%
%TO.N,Net-(IR5-Pad1)*%
%TA.AperFunction,SMDPad,CuDef*%
G36*
G01*
X160598432Y-84856881D02*
X160170907Y-83682265D01*
G75*
G02*
X160320325Y-83361837I234923J85505D01*
G01*
X161189540Y-83045469D01*
G75*
G02*
X161509968Y-83194887I85505J-234923D01*
G01*
X161937493Y-84369503D01*
G75*
G02*
X161788075Y-84689931I-234923J-85505D01*
G01*
X160918860Y-85006299D01*
G75*
G02*
X160598432Y-84856881I-85505J234923D01*
G01*
G37*
%TD.AperFunction*%
%TO.P,R5,1*%
%TO.N,GND*%
%TA.AperFunction,SMDPad,CuDef*%
G36*
G01*
X157802846Y-85874391D02*
X157375321Y-84699775D01*
G75*
G02*
X157524739Y-84379347I234923J85505D01*
G01*
X158393954Y-84062979D01*
G75*
G02*
X158714382Y-84212397I85505J-234923D01*
G01*
X159141907Y-85387013D01*
G75*
G02*
X158992489Y-85707441I-234923J-85505D01*
G01*
X158123274Y-86023809D01*
G75*
G02*
X157802846Y-85874391I-85505J234923D01*
G01*
G37*
%TD.AperFunction*%
%TD*%
%TO.P,R4,2*%
%TO.N,Net-(IR4-Pad1)*%
%TA.AperFunction,SMDPad,CuDef*%
G36*
G01*
X159715882Y-82432095D02*
X159288357Y-81257479D01*
G75*
G02*
X159437775Y-80937051I234923J85505D01*
G01*
X160306990Y-80620683D01*
G75*
G02*
X160627418Y-80770101I85505J-234923D01*
G01*
X161054943Y-81944717D01*
G75*
G02*
X160905525Y-82265145I-234923J-85505D01*
G01*
X160036310Y-82581513D01*
G75*
G02*
X159715882Y-82432095I-85505J234923D01*
G01*
G37*
%TD.AperFunction*%
%TO.P,R4,1*%
%TO.N,GND*%
%TA.AperFunction,SMDPad,CuDef*%
G36*
G01*
X156920296Y-83449605D02*
X156492771Y-82274989D01*
G75*
G02*
X156642189Y-81954561I234923J85505D01*
G01*
X157511404Y-81638193D01*
G75*
G02*
X157831832Y-81787611I85505J-234923D01*
G01*
X158259357Y-82962227D01*
G75*
G02*
X158109939Y-83282655I-234923J-85505D01*
G01*
X157240724Y-83599023D01*
G75*
G02*
X156920296Y-83449605I-85505J234923D01*
G01*
G37*
%TD.AperFunction*%
%TD*%
%TO.P,R3,2*%
%TO.N,Net-(IR3-Pad1)*%
%TA.AperFunction,SMDPad,CuDef*%
G36*
G01*
X134945000Y-79345000D02*
X136195000Y-79345000D01*
G75*
G02*
X136445000Y-79595000I0J-250000D01*
G01*
X136445000Y-80520000D01*
G75*
G02*
X136195000Y-80770000I-250000J0D01*
G01*
X134945000Y-80770000D01*
G75*
G02*
X134695000Y-80520000I0J250000D01*
G01*
X134695000Y-79595000D01*
G75*
G02*
X134945000Y-79345000I250000J0D01*
G01*
G37*
%TD.AperFunction*%
%TO.P,R3,1*%
%TO.N,GND*%
%TA.AperFunction,SMDPad,CuDef*%
G36*
G01*
X134945000Y-76370000D02*
X136195000Y-76370000D01*
G75*
G02*
X136445000Y-76620000I0J-250000D01*
G01*
X136445000Y-77545000D01*
G75*
G02*
X136195000Y-77795000I-250000J0D01*
G01*
X134945000Y-77795000D01*
G75*
G02*
X134695000Y-77545000I0J250000D01*
G01*
X134695000Y-76620000D01*
G75*
G02*
X134945000Y-76370000I250000J0D01*
G01*
G37*
%TD.AperFunction*%
%TD*%
%TO.P,R1,2*%
%TO.N,Net-(IR1-Pad1)*%
%TA.AperFunction,SMDPad,CuDef*%
G36*
G01*
X132045000Y-105760416D02*
X133295000Y-105760416D01*
G75*
G02*
X133545000Y-106010416I0J-250000D01*
G01*
X133545000Y-106935416D01*
G75*
G02*
X133295000Y-107185416I-250000J0D01*
G01*
X132045000Y-107185416D01*
G75*
G02*
X131795000Y-106935416I0J250000D01*
G01*
X131795000Y-106010416D01*
G75*
G02*
X132045000Y-105760416I250000J0D01*
G01*
G37*
%TD.AperFunction*%
%TO.P,R1,1*%
%TO.N,GND*%
%TA.AperFunction,SMDPad,CuDef*%
G36*
G01*
X132045000Y-102785416D02*
X133295000Y-102785416D01*
G75*
G02*
X133545000Y-103035416I0J-250000D01*
G01*
X133545000Y-103960416D01*
G75*
G02*
X133295000Y-104210416I-250000J0D01*
G01*
X132045000Y-104210416D01*
G75*
G02*
X131795000Y-103960416I0J250000D01*
G01*
X131795000Y-103035416D01*
G75*
G02*
X132045000Y-102785416I250000J0D01*
G01*
G37*
%TD.AperFunction*%
%TD*%
D11*
%TO.P,PT2,1*%
%TO.N,C2*%
X127030000Y-68524999D03*
D12*
%TO.P,PT2,2*%
%TO.N,+5V*%
X129570000Y-68524999D03*
%TD*%
%TA.AperFunction,ComponentPad*%
D13*
%TO.P,PT5,1*%
%TO.N,C5*%
G36*
X157669446Y-67826172D02*
G01*
X157053810Y-66134726D01*
X158745256Y-65519090D01*
X159360892Y-67210536D01*
X157669446Y-67826172D01*
G37*
%TD.AperFunction*%
D12*
%TO.P,PT5,2*%
%TO.N,+5V*%
X160594170Y-65803900D03*
%TD*%
%TA.AperFunction,ComponentPad*%
D13*
%TO.P,PT4,1*%
%TO.N,C4*%
G36*
X152219229Y-69809889D02*
G01*
X151603593Y-68118443D01*
X153295039Y-67502807D01*
X153910675Y-69194253D01*
X152219229Y-69809889D01*
G37*
%TD.AperFunction*%
D12*
%TO.P,PT4,2*%
%TO.N,+5V*%
X155143953Y-67787617D03*
%TD*%
D11*
%TO.P,PT3,1*%
%TO.N,C3*%
X152999999Y-77530000D03*
D12*
%TO.P,PT3,2*%
%TO.N,+5V*%
X152999999Y-80070000D03*
%TD*%
D11*
%TO.P,PT1,1*%
%TO.N,C1*%
X127030000Y-94422918D03*
D12*
%TO.P,PT1,2*%
%TO.N,+5V*%
X129570000Y-94422918D03*
%TD*%
D14*
%TO.P,J1,7*%
%TO.N,GND*%
X142750000Y-78200000D03*
%TO.P,J1,6*%
%TO.N,C5*%
X142750000Y-79700000D03*
%TO.P,J1,5*%
%TO.N,C4*%
X142750000Y-81200000D03*
%TO.P,J1,4*%
%TO.N,C3*%
X142750000Y-82700000D03*
%TO.P,J1,3*%
%TO.N,C2*%
X142750000Y-84200000D03*
%TO.P,J1,2*%
%TO.N,C1*%
X142750000Y-85700000D03*
%TO.P,J1,1*%
%TO.N,+5V*%
%TA.AperFunction,ComponentPad*%
G36*
G01*
X143435001Y-87785000D02*
X142064999Y-87785000D01*
G75*
G02*
X141815000Y-87535001I0J249999D01*
G01*
X141815000Y-86864999D01*
G75*
G02*
X142064999Y-86615000I249999J0D01*
G01*
X143435001Y-86615000D01*
G75*
G02*
X143685000Y-86864999I0J-249999D01*
G01*
X143685000Y-87535001D01*
G75*
G02*
X143435001Y-87785000I-249999J0D01*
G01*
G37*
%TD.AperFunction*%
%TD*%
D11*
%TO.P,IR2,1*%
%TO.N,Net-(IR2-Pad1)*%
X129570000Y-80574999D03*
D12*
%TO.P,IR2,2*%
%TO.N,+5V*%
X127030000Y-80574999D03*
%TD*%
%TA.AperFunction,ComponentPad*%
D13*
%TO.P,IR5,1*%
%TO.N,Net-(IR5-Pad1)*%
G36*
X165253418Y-75973655D02*
G01*
X165869054Y-77665101D01*
X164177608Y-78280737D01*
X163561972Y-76589291D01*
X165253418Y-75973655D01*
G37*
%TD.AperFunction*%
D12*
%TO.P,IR5,2*%
%TO.N,+5V*%
X162328694Y-77995927D03*
%TD*%
%TA.AperFunction,ComponentPad*%
D13*
%TO.P,IR4,1*%
%TO.N,Net-(IR4-Pad1)*%
G36*
X159803201Y-77957372D02*
G01*
X160418837Y-79648818D01*
X158727391Y-80264454D01*
X158111755Y-78573008D01*
X159803201Y-77957372D01*
G37*
%TD.AperFunction*%
D12*
%TO.P,IR4,2*%
%TO.N,+5V*%
X156878477Y-79979644D03*
%TD*%
D11*
%TO.P,IR3,1*%
%TO.N,Net-(IR3-Pad1)*%
X132500001Y-80070000D03*
D12*
%TO.P,IR3,2*%
%TO.N,+5V*%
X132500001Y-77530000D03*
%TD*%
D11*
%TO.P,IR1,1*%
%TO.N,Net-(IR1-Pad1)*%
X129570000Y-106472918D03*
D12*
%TO.P,IR1,2*%
%TO.N,+5V*%
X127030000Y-106472918D03*
%TD*%
D15*
%TO.N,C2*%
X136131126Y-73412123D03*
%TD*%
D16*
%TO.N,Net-(IR1-Pad1)*%
X129570000Y-106472918D02*
X132250000Y-106472918D01*
%TO.N,Net-(IR2-Pad1)*%
X131567920Y-82572918D02*
X135570000Y-82572918D01*
X129570000Y-80574999D02*
X131567920Y-82572918D01*
%TO.N,Net-(IR3-Pad1)*%
X134987501Y-80070000D02*
X135000001Y-80057500D01*
X132500001Y-80070000D02*
X134987501Y-80070000D01*
%TO.N,Net-(IR4-Pad1)*%
X159265296Y-79110913D02*
X160171651Y-81601098D01*
%TO.N,Net-(IR5-Pad1)*%
X164715513Y-77127196D02*
X165109624Y-78210006D01*
X162672255Y-83436960D02*
X161054199Y-84025884D01*
X165109624Y-78210006D02*
X162672255Y-83436960D01*
D17*
%TO.N,C3*%
X142750000Y-82700000D02*
X143913482Y-82700000D01*
X152999999Y-77530000D02*
X149083482Y-77530000D01*
X149083482Y-77530000D02*
X143913482Y-82700000D01*
%TO.N,C4*%
X150263299Y-69564030D02*
X150263298Y-69564029D01*
X152757134Y-68656348D02*
X150263299Y-69564030D01*
X149457134Y-70370195D02*
X150263299Y-69564030D01*
X142750000Y-81200000D02*
X143913482Y-81200000D01*
X149457134Y-75656348D02*
X149457134Y-70370195D01*
X143913482Y-81200000D02*
X149457134Y-75656348D01*
%TO.N,C5*%
X157796927Y-65545000D02*
X158207351Y-66672631D01*
X150024163Y-68125836D02*
X157497969Y-65405594D01*
X143935000Y-79700000D02*
X148357134Y-75277866D01*
X142750000Y-79700000D02*
X143935000Y-79700000D01*
X148357134Y-69792866D02*
X150024163Y-68125836D01*
X148357134Y-75277866D02*
X148357134Y-69792866D01*
X157497969Y-65405594D02*
X157796927Y-65545000D01*
%TO.N,C2*%
X127030000Y-68524999D02*
X128442878Y-67112121D01*
X130396809Y-67112121D02*
X136131126Y-72846438D01*
X128442878Y-67112121D02*
X130396809Y-67112121D01*
X136131126Y-72846438D02*
X136131126Y-73412123D01*
%TD*%
D18*
%TO.N,GND*%
G36*
X160744782Y-64138577D02*
G01*
X160827857Y-64146241D01*
X160839358Y-64149642D01*
X160849985Y-64155214D01*
X160859329Y-64162746D01*
X160867029Y-64171945D01*
X160884249Y-64203362D01*
X160920805Y-64303799D01*
X160745354Y-64268900D01*
X160442986Y-64268900D01*
X160146427Y-64327889D01*
X159867075Y-64443601D01*
X159615665Y-64611588D01*
X159401858Y-64825395D01*
X159233871Y-65076805D01*
X159224412Y-65099640D01*
X159215692Y-65088015D01*
X159122554Y-65004520D01*
X159014917Y-64940800D01*
X158896917Y-64899304D01*
X158773088Y-64881625D01*
X158648190Y-64888444D01*
X158527023Y-64919498D01*
X158321278Y-64994383D01*
X158248496Y-64929138D01*
X158248495Y-64929137D01*
X158197698Y-64899066D01*
X158119670Y-64852874D01*
X158084276Y-64840427D01*
X157852996Y-64732580D01*
X157820712Y-64713468D01*
X157679484Y-64663803D01*
X157531280Y-64642644D01*
X157531279Y-64642644D01*
X157382803Y-64650751D01*
X157381796Y-64650806D01*
X157273115Y-64678659D01*
X157273108Y-64678661D01*
X157236776Y-64687973D01*
X157202960Y-64704193D01*
X149783728Y-67404573D01*
X149731916Y-67420290D01*
X149680501Y-67447772D01*
X149627988Y-67472960D01*
X149614626Y-67482983D01*
X149599886Y-67490862D01*
X149554844Y-67527828D01*
X149508230Y-67562794D01*
X149472107Y-67603090D01*
X147846132Y-69229067D01*
X147817134Y-69252865D01*
X147793336Y-69281863D01*
X147793335Y-69281864D01*
X147722160Y-69368591D01*
X147651588Y-69500620D01*
X147621314Y-69600424D01*
X147608132Y-69643880D01*
X147603150Y-69694462D01*
X147593458Y-69792866D01*
X147597135Y-69830194D01*
X147597134Y-74963064D01*
X144185369Y-78374830D01*
X144153624Y-78327000D01*
X142877000Y-78327000D01*
X142877000Y-78347000D01*
X142623000Y-78347000D01*
X142623000Y-78327000D01*
X141346376Y-78327000D01*
X141221434Y-78515250D01*
X141224265Y-78549541D01*
X141315048Y-78772199D01*
X141434585Y-78953265D01*
X141380699Y-79018925D01*
X141267413Y-79230867D01*
X141197652Y-79460838D01*
X141174097Y-79700000D01*
X141197652Y-79939162D01*
X141267413Y-80169133D01*
X141380699Y-80381075D01*
X141437264Y-80450000D01*
X141380699Y-80518925D01*
X141267413Y-80730867D01*
X141197652Y-80960838D01*
X141174097Y-81200000D01*
X141197652Y-81439162D01*
X141267413Y-81669133D01*
X141380699Y-81881075D01*
X141437264Y-81950000D01*
X141380699Y-82018925D01*
X141267413Y-82230867D01*
X141197652Y-82460838D01*
X141174097Y-82700000D01*
X141197652Y-82939162D01*
X141267413Y-83169133D01*
X141380699Y-83381075D01*
X141437264Y-83450000D01*
X141380699Y-83518925D01*
X141267413Y-83730867D01*
X141197652Y-83960838D01*
X141174097Y-84200000D01*
X141197652Y-84439162D01*
X141267413Y-84669133D01*
X141380699Y-84881075D01*
X141437264Y-84950000D01*
X141380699Y-85018925D01*
X141267413Y-85230867D01*
X141197652Y-85460838D01*
X141174097Y-85700000D01*
X141197652Y-85939162D01*
X141267413Y-86169133D01*
X141356297Y-86335422D01*
X141326595Y-86371613D01*
X141244528Y-86525149D01*
X141193992Y-86691745D01*
X141176928Y-86864999D01*
X141176928Y-87535001D01*
X141193992Y-87708255D01*
X141244528Y-87874851D01*
X141326595Y-88028387D01*
X141437038Y-88162962D01*
X141571613Y-88273405D01*
X141725149Y-88355472D01*
X141891745Y-88406008D01*
X142064999Y-88423072D01*
X143435001Y-88423072D01*
X143608255Y-88406008D01*
X143774851Y-88355472D01*
X143928387Y-88273405D01*
X144062962Y-88162962D01*
X144173405Y-88028387D01*
X144255472Y-87874851D01*
X144306008Y-87708255D01*
X144323072Y-87535001D01*
X144323072Y-86864999D01*
X144306008Y-86691745D01*
X144255472Y-86525149D01*
X144173405Y-86371613D01*
X144143703Y-86335422D01*
X144232587Y-86169133D01*
X144302348Y-85939162D01*
X144318734Y-85772783D01*
X157090110Y-85772783D01*
X157288759Y-86327548D01*
X157342855Y-86440330D01*
X157417914Y-86540390D01*
X157511053Y-86623884D01*
X157618690Y-86687604D01*
X157736690Y-86729100D01*
X157860518Y-86746780D01*
X157985416Y-86739961D01*
X158106584Y-86708906D01*
X158506547Y-86560062D01*
X158601428Y-86356590D01*
X158182710Y-85206172D01*
X157184991Y-85569311D01*
X157090110Y-85772783D01*
X144318734Y-85772783D01*
X144325903Y-85700000D01*
X144302348Y-85460838D01*
X144232587Y-85230867D01*
X144119301Y-85018925D01*
X144062736Y-84950000D01*
X144119301Y-84881075D01*
X144232587Y-84669133D01*
X144302348Y-84439162D01*
X144325903Y-84200000D01*
X144302348Y-83960838D01*
X144232587Y-83730867D01*
X144119301Y-83518925D01*
X144062736Y-83450000D01*
X144063914Y-83448564D01*
X144205729Y-83405546D01*
X144313394Y-83347997D01*
X156207560Y-83347997D01*
X156406209Y-83902762D01*
X156460305Y-84015544D01*
X156535364Y-84115604D01*
X156628503Y-84199098D01*
X156696083Y-84239105D01*
X156670030Y-84313191D01*
X156652350Y-84437020D01*
X156659169Y-84561918D01*
X156690224Y-84683086D01*
X156894646Y-85235749D01*
X157098118Y-85330629D01*
X157678746Y-85119298D01*
X158421392Y-85119298D01*
X158840110Y-86269717D01*
X159043582Y-86364598D01*
X159445646Y-86221527D01*
X159558428Y-86167431D01*
X159658488Y-86092372D01*
X159741982Y-85999233D01*
X159805702Y-85891597D01*
X159847198Y-85773597D01*
X159864878Y-85649768D01*
X159858059Y-85524870D01*
X159827004Y-85403702D01*
X159622582Y-84851039D01*
X159419110Y-84756159D01*
X158421392Y-85119298D01*
X157678746Y-85119298D01*
X158095836Y-84967490D01*
X157718878Y-83931805D01*
X157718878Y-83931804D01*
X157300160Y-82781386D01*
X156302441Y-83144525D01*
X156207560Y-83347997D01*
X144313394Y-83347997D01*
X144337758Y-83334974D01*
X144453483Y-83240001D01*
X144477286Y-83210997D01*
X149398284Y-78290000D01*
X151461927Y-78290000D01*
X151461927Y-78430000D01*
X151474187Y-78554482D01*
X151510497Y-78674180D01*
X151569462Y-78784494D01*
X151648814Y-78881185D01*
X151745505Y-78960537D01*
X151855819Y-79019502D01*
X151874126Y-79025056D01*
X151807687Y-79091495D01*
X151639700Y-79342905D01*
X151523988Y-79622257D01*
X151464999Y-79918816D01*
X151464999Y-80221184D01*
X151523988Y-80517743D01*
X151639700Y-80797095D01*
X151807687Y-81048505D01*
X152021494Y-81262312D01*
X152272904Y-81430299D01*
X152552256Y-81546011D01*
X152848815Y-81605000D01*
X153151183Y-81605000D01*
X153447742Y-81546011D01*
X153727094Y-81430299D01*
X153978504Y-81262312D01*
X154192311Y-81048505D01*
X154360298Y-80797095D01*
X154476010Y-80517743D01*
X154534999Y-80221184D01*
X154534999Y-79918816D01*
X154476010Y-79622257D01*
X154360298Y-79342905D01*
X154192311Y-79091495D01*
X154125872Y-79025056D01*
X154144179Y-79019502D01*
X154254493Y-78960537D01*
X154351184Y-78881185D01*
X154430536Y-78784494D01*
X154489501Y-78674180D01*
X154525811Y-78554482D01*
X154538071Y-78430000D01*
X154538071Y-77613521D01*
X154729602Y-78139748D01*
X154743248Y-78168199D01*
X154745290Y-78173932D01*
X154749724Y-78183187D01*
X154835278Y-78358601D01*
X154870202Y-78415371D01*
X154904297Y-78472565D01*
X154910444Y-78480783D01*
X155028441Y-78636238D01*
X155073713Y-78685127D01*
X155118278Y-78734622D01*
X155125904Y-78741489D01*
X155271849Y-78871064D01*
X155325769Y-78910239D01*
X155379084Y-78950124D01*
X155387898Y-78955380D01*
X155556232Y-79054141D01*
X155616762Y-79082110D01*
X155628352Y-79087663D01*
X155518178Y-79252549D01*
X155402466Y-79531901D01*
X155343477Y-79828460D01*
X155343477Y-80130828D01*
X155402466Y-80427387D01*
X155518178Y-80706739D01*
X155686165Y-80958149D01*
X155899972Y-81171956D01*
X156151382Y-81339943D01*
X156299331Y-81401226D01*
X156189032Y-81440475D01*
X156076250Y-81494571D01*
X155976190Y-81569630D01*
X155892696Y-81662769D01*
X155828976Y-81770405D01*
X155787480Y-81888405D01*
X155769800Y-82012234D01*
X155776619Y-82137132D01*
X155807674Y-82258300D01*
X156012096Y-82810963D01*
X156215568Y-82905843D01*
X156796196Y-82694512D01*
X157538842Y-82694512D01*
X157915800Y-83730197D01*
X157915800Y-83730198D01*
X158334518Y-84880616D01*
X159332237Y-84517477D01*
X159427118Y-84314005D01*
X159228469Y-83759240D01*
X159174373Y-83646458D01*
X159099314Y-83546398D01*
X159006175Y-83462904D01*
X158938595Y-83422897D01*
X158964648Y-83348811D01*
X158982328Y-83224982D01*
X158975509Y-83100084D01*
X158944454Y-82978916D01*
X158740032Y-82426253D01*
X158536560Y-82331373D01*
X157538842Y-82694512D01*
X156796196Y-82694512D01*
X157213286Y-82542704D01*
X157206445Y-82523910D01*
X157445128Y-82437037D01*
X157451968Y-82455830D01*
X158449687Y-82092691D01*
X158544568Y-81889219D01*
X158345919Y-81334454D01*
X158291823Y-81221672D01*
X158216764Y-81121612D01*
X158123625Y-81038118D01*
X158040204Y-80988734D01*
X158070789Y-80958149D01*
X158238776Y-80706739D01*
X158248235Y-80683904D01*
X158256955Y-80695529D01*
X158350093Y-80779024D01*
X158457730Y-80842744D01*
X158575730Y-80884240D01*
X158682265Y-80899450D01*
X158660658Y-80960892D01*
X158636053Y-81133237D01*
X158645544Y-81307070D01*
X158688765Y-81475712D01*
X159116290Y-82650328D01*
X159191582Y-82807298D01*
X159296049Y-82946562D01*
X159425679Y-83062771D01*
X159575489Y-83151456D01*
X159630867Y-83170931D01*
X159600964Y-83221444D01*
X159543208Y-83385678D01*
X159518603Y-83558023D01*
X159528094Y-83731856D01*
X159571315Y-83900498D01*
X159998840Y-85075114D01*
X160074132Y-85232084D01*
X160178599Y-85371348D01*
X160308229Y-85487557D01*
X160458039Y-85576242D01*
X160622272Y-85633998D01*
X160794617Y-85658603D01*
X160968451Y-85649112D01*
X161137093Y-85605891D01*
X162006308Y-85289523D01*
X162163278Y-85214231D01*
X162302543Y-85109763D01*
X162418751Y-84980134D01*
X162507436Y-84830324D01*
X162565192Y-84666090D01*
X162589797Y-84493745D01*
X162585248Y-84410425D01*
X162934093Y-84283456D01*
X162976407Y-84272611D01*
X163015793Y-84253719D01*
X163015797Y-84253718D01*
X163133590Y-84197218D01*
X163273044Y-84092607D01*
X163389411Y-83962802D01*
X163435693Y-83884620D01*
X163455963Y-83850380D01*
X163455964Y-83850377D01*
X163478217Y-83812787D01*
X163492710Y-83771576D01*
X165229337Y-80047368D01*
X159580177Y-93865000D01*
X139363895Y-93865000D01*
X139332496Y-93868093D01*
X139326402Y-93868050D01*
X139316188Y-93869051D01*
X139122091Y-93889452D01*
X139056843Y-93902845D01*
X138991402Y-93915329D01*
X138981577Y-93918295D01*
X138795139Y-93976007D01*
X138733720Y-94001825D01*
X138671962Y-94026777D01*
X138662901Y-94031595D01*
X138491224Y-94124420D01*
X138435977Y-94161685D01*
X138380252Y-94198150D01*
X138372299Y-94204636D01*
X138221921Y-94329040D01*
X138174944Y-94376346D01*
X138127387Y-94422917D01*
X138120845Y-94430824D01*
X137997495Y-94582066D01*
X137960608Y-94637585D01*
X137922994Y-94692520D01*
X137918112Y-94701547D01*
X137826487Y-94873869D01*
X137801086Y-94935496D01*
X137774859Y-94996689D01*
X137771824Y-95006492D01*
X137715415Y-95193328D01*
X137702467Y-95258720D01*
X137688626Y-95323836D01*
X137687553Y-95334042D01*
X137668508Y-95528276D01*
X137668508Y-95528287D01*
X137665001Y-95563895D01*
X137665000Y-107958645D01*
X130716365Y-107961252D01*
X130824494Y-107903455D01*
X130921185Y-107824103D01*
X131000537Y-107727412D01*
X131059502Y-107617098D01*
X131095812Y-107497400D01*
X131108072Y-107372918D01*
X131108072Y-107357918D01*
X131268707Y-107357918D01*
X131306595Y-107428802D01*
X131417038Y-107563378D01*
X131551614Y-107673821D01*
X131705150Y-107755888D01*
X131871746Y-107806424D01*
X132045000Y-107823488D01*
X133295000Y-107823488D01*
X133468254Y-107806424D01*
X133634850Y-107755888D01*
X133788386Y-107673821D01*
X133922962Y-107563378D01*
X134033405Y-107428802D01*
X134115472Y-107275266D01*
X134166008Y-107108670D01*
X134183072Y-106935416D01*
X134183072Y-106010416D01*
X134166008Y-105837162D01*
X134115472Y-105670566D01*
X134033405Y-105517030D01*
X133922962Y-105382454D01*
X133788386Y-105272011D01*
X133634850Y-105189944D01*
X133468254Y-105139408D01*
X133295000Y-105122344D01*
X132045000Y-105122344D01*
X131871746Y-105139408D01*
X131705150Y-105189944D01*
X131551614Y-105272011D01*
X131417038Y-105382454D01*
X131306595Y-105517030D01*
X131268704Y-105587918D01*
X131108072Y-105587918D01*
X131108072Y-105572918D01*
X131095812Y-105448436D01*
X131059502Y-105328738D01*
X131000537Y-105218424D01*
X130921185Y-105121733D01*
X130824494Y-105042381D01*
X130714180Y-104983416D01*
X130646155Y-104962781D01*
X130664374Y-104935359D01*
X130702007Y-104880398D01*
X130706888Y-104871371D01*
X130798513Y-104699049D01*
X130823919Y-104637410D01*
X130850141Y-104576229D01*
X130853176Y-104566426D01*
X130909585Y-104379590D01*
X130922533Y-104314198D01*
X130936374Y-104249082D01*
X130937447Y-104238876D01*
X130940237Y-104210416D01*
X131156928Y-104210416D01*
X131169188Y-104334898D01*
X131205498Y-104454596D01*
X131264463Y-104564910D01*
X131343815Y-104661601D01*
X131440506Y-104740953D01*
X131550820Y-104799918D01*
X131670518Y-104836228D01*
X131795000Y-104848488D01*
X132384250Y-104845416D01*
X132543000Y-104686666D01*
X132543000Y-103624916D01*
X132797000Y-103624916D01*
X132797000Y-104686666D01*
X132955750Y-104845416D01*
X133545000Y-104848488D01*
X133669482Y-104836228D01*
X133789180Y-104799918D01*
X133899494Y-104740953D01*
X133996185Y-104661601D01*
X134075537Y-104564910D01*
X134134502Y-104454596D01*
X134170812Y-104334898D01*
X134183072Y-104210416D01*
X134180000Y-103783666D01*
X134021250Y-103624916D01*
X132797000Y-103624916D01*
X132543000Y-103624916D01*
X131318750Y-103624916D01*
X131160000Y-103783666D01*
X131156928Y-104210416D01*
X130940237Y-104210416D01*
X130956492Y-104044643D01*
X130956492Y-104044631D01*
X130959999Y-104009023D01*
X130959999Y-102785416D01*
X131156928Y-102785416D01*
X131160000Y-103212166D01*
X131318750Y-103370916D01*
X132543000Y-103370916D01*
X132543000Y-102309166D01*
X132797000Y-102309166D01*
X132797000Y-103370916D01*
X134021250Y-103370916D01*
X134180000Y-103212166D01*
X134183072Y-102785416D01*
X134170812Y-102660934D01*
X134134502Y-102541236D01*
X134075537Y-102430922D01*
X133996185Y-102334231D01*
X133899494Y-102254879D01*
X133789180Y-102195914D01*
X133669482Y-102159604D01*
X133545000Y-102147344D01*
X132955750Y-102150416D01*
X132797000Y-102309166D01*
X132543000Y-102309166D01*
X132384250Y-102150416D01*
X131795000Y-102147344D01*
X131670518Y-102159604D01*
X131550820Y-102195914D01*
X131440506Y-102254879D01*
X131343815Y-102334231D01*
X131264463Y-102430922D01*
X131205498Y-102541236D01*
X131169188Y-102660934D01*
X131156928Y-102785416D01*
X130959999Y-102785416D01*
X130959999Y-96886813D01*
X130956906Y-96855414D01*
X130956949Y-96849320D01*
X130955948Y-96839106D01*
X130935547Y-96645009D01*
X130922144Y-96579713D01*
X130909669Y-96514318D01*
X130906703Y-96504494D01*
X130848991Y-96318057D01*
X130823177Y-96256646D01*
X130798222Y-96194881D01*
X130793404Y-96185820D01*
X130793404Y-96185819D01*
X130793401Y-96185815D01*
X130700579Y-96014143D01*
X130663315Y-95958898D01*
X130626851Y-95903174D01*
X130620365Y-95895221D01*
X130495962Y-95744842D01*
X130448670Y-95697879D01*
X130439234Y-95688243D01*
X130548505Y-95615230D01*
X130762312Y-95401423D01*
X130930299Y-95150013D01*
X131046011Y-94870661D01*
X131105000Y-94574102D01*
X131105000Y-94271734D01*
X131046011Y-93975175D01*
X130930299Y-93695823D01*
X130762312Y-93444413D01*
X130548505Y-93230606D01*
X130297095Y-93062619D01*
X130017743Y-92946907D01*
X129721184Y-92887918D01*
X129418816Y-92887918D01*
X129122257Y-92946907D01*
X128842905Y-93062619D01*
X128591495Y-93230606D01*
X128525056Y-93297045D01*
X128519502Y-93278738D01*
X128460537Y-93168424D01*
X128381185Y-93071733D01*
X128284494Y-92992381D01*
X128174180Y-92933416D01*
X128054482Y-92897106D01*
X127930000Y-92884846D01*
X126210000Y-92884846D01*
X126210000Y-91933959D01*
X131511106Y-91933959D01*
X131542505Y-91930866D01*
X131548599Y-91930909D01*
X131558813Y-91929908D01*
X131752909Y-91909507D01*
X131818150Y-91896115D01*
X131883599Y-91883630D01*
X131893424Y-91880664D01*
X132079862Y-91822952D01*
X132141314Y-91797120D01*
X132203041Y-91772180D01*
X132212103Y-91767363D01*
X132383780Y-91674537D01*
X132439061Y-91637249D01*
X132494748Y-91600808D01*
X132502701Y-91594323D01*
X132653078Y-91469920D01*
X132700056Y-91422613D01*
X132747613Y-91376042D01*
X132754155Y-91368135D01*
X132877506Y-91216892D01*
X132914405Y-91161355D01*
X132952009Y-91106435D01*
X132956884Y-91097419D01*
X132956888Y-91097413D01*
X132956890Y-91097407D01*
X133048514Y-90925086D01*
X133073912Y-90863465D01*
X133100141Y-90802269D01*
X133103176Y-90792466D01*
X133159585Y-90605630D01*
X133172533Y-90540238D01*
X133186374Y-90475122D01*
X133187447Y-90464916D01*
X133206492Y-90270683D01*
X133206492Y-90270682D01*
X133210000Y-90235064D01*
X133210000Y-86260418D01*
X134056928Y-86260418D01*
X134069188Y-86384900D01*
X134105498Y-86504598D01*
X134164463Y-86614912D01*
X134243815Y-86711603D01*
X134340506Y-86790955D01*
X134450820Y-86849920D01*
X134570518Y-86886230D01*
X134695000Y-86898490D01*
X135284250Y-86895418D01*
X135443000Y-86736668D01*
X135443000Y-85674918D01*
X135697000Y-85674918D01*
X135697000Y-86736668D01*
X135855750Y-86895418D01*
X136445000Y-86898490D01*
X136569482Y-86886230D01*
X136689180Y-86849920D01*
X136799494Y-86790955D01*
X136896185Y-86711603D01*
X136975537Y-86614912D01*
X137034502Y-86504598D01*
X137070812Y-86384900D01*
X137083072Y-86260418D01*
X137080000Y-85833668D01*
X136921250Y-85674918D01*
X135697000Y-85674918D01*
X135443000Y-85674918D01*
X134218750Y-85674918D01*
X134060000Y-85833668D01*
X134056928Y-86260418D01*
X133210000Y-86260418D01*
X133210000Y-84835418D01*
X134056928Y-84835418D01*
X134060000Y-85262168D01*
X134218750Y-85420918D01*
X135443000Y-85420918D01*
X135443000Y-84359168D01*
X135697000Y-84359168D01*
X135697000Y-85420918D01*
X136921250Y-85420918D01*
X137080000Y-85262168D01*
X137083072Y-84835418D01*
X137070812Y-84710936D01*
X137034502Y-84591238D01*
X136975537Y-84480924D01*
X136896185Y-84384233D01*
X136799494Y-84304881D01*
X136689180Y-84245916D01*
X136569482Y-84209606D01*
X136445000Y-84197346D01*
X135855750Y-84200418D01*
X135697000Y-84359168D01*
X135443000Y-84359168D01*
X135284250Y-84200418D01*
X134695000Y-84197346D01*
X134570518Y-84209606D01*
X134450820Y-84245916D01*
X134340506Y-84304881D01*
X134243815Y-84384233D01*
X134164463Y-84480924D01*
X134105498Y-84591238D01*
X134069188Y-84710936D01*
X134056928Y-84835418D01*
X133210000Y-84835418D01*
X133210000Y-84762854D01*
X133206907Y-84731455D01*
X133206950Y-84725361D01*
X133205949Y-84715147D01*
X133185548Y-84521050D01*
X133172155Y-84455802D01*
X133159671Y-84390361D01*
X133156705Y-84380536D01*
X133098993Y-84194098D01*
X133073175Y-84132679D01*
X133048223Y-84070921D01*
X133043405Y-84061860D01*
X132950580Y-83890183D01*
X132913315Y-83834936D01*
X132876850Y-83779211D01*
X132870364Y-83771258D01*
X132745960Y-83620880D01*
X132698654Y-83573903D01*
X132652083Y-83526346D01*
X132644176Y-83519804D01*
X132568296Y-83457918D01*
X134168706Y-83457918D01*
X134206595Y-83528804D01*
X134317038Y-83663380D01*
X134451614Y-83773823D01*
X134605150Y-83855890D01*
X134771746Y-83906426D01*
X134945000Y-83923490D01*
X136195000Y-83923490D01*
X136368254Y-83906426D01*
X136534850Y-83855890D01*
X136688386Y-83773823D01*
X136822962Y-83663380D01*
X136933405Y-83528804D01*
X137015472Y-83375268D01*
X137066008Y-83208672D01*
X137083072Y-83035418D01*
X137083072Y-82110418D01*
X137066008Y-81937164D01*
X137015472Y-81770568D01*
X136933405Y-81617032D01*
X136822962Y-81482456D01*
X136688386Y-81372013D01*
X136582114Y-81315209D01*
X136688386Y-81258405D01*
X136822962Y-81147962D01*
X136933405Y-81013386D01*
X137015472Y-80859850D01*
X137066008Y-80693254D01*
X137083072Y-80520000D01*
X137083072Y-79595000D01*
X137066008Y-79421746D01*
X137015472Y-79255150D01*
X136933405Y-79101614D01*
X136822962Y-78967038D01*
X136688386Y-78856595D01*
X136534850Y-78774528D01*
X136368254Y-78723992D01*
X136195000Y-78706928D01*
X134945000Y-78706928D01*
X134771746Y-78723992D01*
X134605150Y-78774528D01*
X134451614Y-78856595D01*
X134317038Y-78967038D01*
X134206595Y-79101614D01*
X134162024Y-79185000D01*
X134038073Y-79185000D01*
X134038073Y-79170000D01*
X134025813Y-79045518D01*
X133989503Y-78925820D01*
X133930538Y-78815506D01*
X133851186Y-78718815D01*
X133754495Y-78639463D01*
X133644181Y-78580498D01*
X133625874Y-78574944D01*
X133692313Y-78508505D01*
X133860300Y-78257095D01*
X133976012Y-77977743D01*
X134012361Y-77795000D01*
X134056928Y-77795000D01*
X134069188Y-77919482D01*
X134105498Y-78039180D01*
X134164463Y-78149494D01*
X134243815Y-78246185D01*
X134340506Y-78325537D01*
X134450820Y-78384502D01*
X134570518Y-78420812D01*
X134695000Y-78433072D01*
X135284250Y-78430000D01*
X135443000Y-78271250D01*
X135443000Y-77209500D01*
X135697000Y-77209500D01*
X135697000Y-78271250D01*
X135855750Y-78430000D01*
X136445000Y-78433072D01*
X136569482Y-78420812D01*
X136689180Y-78384502D01*
X136799494Y-78325537D01*
X136896185Y-78246185D01*
X136975537Y-78149494D01*
X137034502Y-78039180D01*
X137070812Y-77919482D01*
X137074232Y-77884750D01*
X141221434Y-77884750D01*
X141346376Y-78073000D01*
X142623000Y-78073000D01*
X142623000Y-76980000D01*
X142877000Y-76980000D01*
X142877000Y-78073000D01*
X144153624Y-78073000D01*
X144278566Y-77884750D01*
X144275735Y-77850459D01*
X144184952Y-77627801D01*
X144052474Y-77427132D01*
X143883393Y-77256164D01*
X143684207Y-77121467D01*
X143462570Y-77028218D01*
X143227000Y-76980000D01*
X142877000Y-76980000D01*
X142623000Y-76980000D01*
X142273000Y-76980000D01*
X142037430Y-77028218D01*
X141815793Y-77121467D01*
X141616607Y-77256164D01*
X141447526Y-77427132D01*
X141315048Y-77627801D01*
X141224265Y-77850459D01*
X141221434Y-77884750D01*
X137074232Y-77884750D01*
X137083072Y-77795000D01*
X137080000Y-77368250D01*
X136921250Y-77209500D01*
X135697000Y-77209500D01*
X135443000Y-77209500D01*
X134218750Y-77209500D01*
X134060000Y-77368250D01*
X134056928Y-77795000D01*
X134012361Y-77795000D01*
X134035001Y-77681184D01*
X134035001Y-77378816D01*
X133976012Y-77082257D01*
X133860300Y-76802905D01*
X133692313Y-76551495D01*
X133510818Y-76370000D01*
X134056928Y-76370000D01*
X134060000Y-76796750D01*
X134218750Y-76955500D01*
X135443000Y-76955500D01*
X135443000Y-75893750D01*
X135697000Y-75893750D01*
X135697000Y-76955500D01*
X136921250Y-76955500D01*
X137080000Y-76796750D01*
X137083072Y-76370000D01*
X137070812Y-76245518D01*
X137034502Y-76125820D01*
X136975537Y-76015506D01*
X136896185Y-75918815D01*
X136799494Y-75839463D01*
X136689180Y-75780498D01*
X136569482Y-75744188D01*
X136445000Y-75731928D01*
X135855750Y-75735000D01*
X135697000Y-75893750D01*
X135443000Y-75893750D01*
X135284250Y-75735000D01*
X134695000Y-75731928D01*
X134570518Y-75744188D01*
X134450820Y-75780498D01*
X134340506Y-75839463D01*
X134243815Y-75918815D01*
X134164463Y-76015506D01*
X134105498Y-76125820D01*
X134069188Y-76245518D01*
X134056928Y-76370000D01*
X133510818Y-76370000D01*
X133478506Y-76337688D01*
X133227096Y-76169701D01*
X132947744Y-76053989D01*
X132651185Y-75995000D01*
X132348817Y-75995000D01*
X132052258Y-76053989D01*
X131772906Y-76169701D01*
X131521496Y-76337688D01*
X131307689Y-76551495D01*
X131139702Y-76802905D01*
X131023990Y-77082257D01*
X130965001Y-77378816D01*
X130965001Y-77681184D01*
X131023990Y-77977743D01*
X131139702Y-78257095D01*
X131307689Y-78508505D01*
X131374128Y-78574944D01*
X131355821Y-78580498D01*
X131245507Y-78639463D01*
X131148816Y-78718815D01*
X131069464Y-78815506D01*
X131010499Y-78925820D01*
X130974189Y-79045518D01*
X130961929Y-79170000D01*
X130961929Y-79273461D01*
X130921185Y-79223814D01*
X130824494Y-79144462D01*
X130714180Y-79085497D01*
X130646154Y-79064862D01*
X130664406Y-79037391D01*
X130702005Y-78982479D01*
X130706883Y-78973457D01*
X130706888Y-78973450D01*
X130706891Y-78973442D01*
X130798511Y-78801131D01*
X130823914Y-78739499D01*
X130850140Y-78678310D01*
X130853175Y-78668507D01*
X130909584Y-78481671D01*
X130922532Y-78416279D01*
X130936373Y-78351163D01*
X130937446Y-78340957D01*
X130956319Y-78148481D01*
X130960000Y-78111104D01*
X130960000Y-70988894D01*
X130956907Y-70957495D01*
X130956950Y-70951401D01*
X130955949Y-70941187D01*
X130935548Y-70747090D01*
X130922155Y-70681842D01*
X130909671Y-70616401D01*
X130906705Y-70606576D01*
X130848993Y-70420138D01*
X130823156Y-70358675D01*
X130798221Y-70296959D01*
X130793404Y-70287898D01*
X130700578Y-70116220D01*
X130663290Y-70060939D01*
X130626849Y-70005252D01*
X130620364Y-69997299D01*
X130495961Y-69846922D01*
X130448654Y-69799944D01*
X130439233Y-69790324D01*
X130548505Y-69717311D01*
X130762312Y-69503504D01*
X130930299Y-69252094D01*
X131046011Y-68972742D01*
X131068677Y-68858790D01*
X135189854Y-72979968D01*
X135135900Y-73110225D01*
X135096126Y-73310184D01*
X135096126Y-73514062D01*
X135135900Y-73714021D01*
X135213921Y-73902379D01*
X135327189Y-74071897D01*
X135471352Y-74216060D01*
X135640870Y-74329328D01*
X135829228Y-74407349D01*
X136029187Y-74447123D01*
X136233065Y-74447123D01*
X136433024Y-74407349D01*
X136621382Y-74329328D01*
X136790900Y-74216060D01*
X136935063Y-74071897D01*
X137048331Y-73902379D01*
X137126352Y-73714021D01*
X137166126Y-73514062D01*
X137166126Y-73310184D01*
X137126352Y-73110225D01*
X137048331Y-72921867D01*
X136935063Y-72752349D01*
X136880113Y-72697399D01*
X136836672Y-72554191D01*
X136766100Y-72422162D01*
X136671127Y-72306437D01*
X136642130Y-72282640D01*
X130960613Y-66601124D01*
X130936810Y-66572120D01*
X130821085Y-66477147D01*
X130689056Y-66406575D01*
X130545795Y-66363118D01*
X130434142Y-66352121D01*
X130434131Y-66352121D01*
X130396809Y-66348445D01*
X130359487Y-66352121D01*
X128480200Y-66352121D01*
X128442877Y-66348445D01*
X128405554Y-66352121D01*
X128405545Y-66352121D01*
X128293892Y-66363118D01*
X128150631Y-66406575D01*
X128018602Y-66477147D01*
X127902877Y-66572120D01*
X127879079Y-66601118D01*
X127493270Y-66986927D01*
X126210448Y-66986927D01*
X126213745Y-66142685D01*
X126213703Y-66142242D01*
X126213834Y-66093838D01*
X126216197Y-66082069D01*
X126220797Y-66070995D01*
X126227464Y-66061017D01*
X126235943Y-66052526D01*
X126245908Y-66045843D01*
X126256979Y-66041224D01*
X126303308Y-66031844D01*
X126332720Y-66028449D01*
X138315001Y-63435564D01*
X138315000Y-67836104D01*
X138318093Y-67867503D01*
X138318050Y-67873598D01*
X138319051Y-67883812D01*
X138339452Y-68077908D01*
X138352844Y-68143149D01*
X138365329Y-68208598D01*
X138368295Y-68218423D01*
X138426007Y-68404861D01*
X138451831Y-68466293D01*
X138476777Y-68528037D01*
X138481595Y-68537099D01*
X138574420Y-68708775D01*
X138611657Y-68763982D01*
X138648150Y-68819748D01*
X138654636Y-68827701D01*
X138779039Y-68978078D01*
X138826346Y-69025056D01*
X138872917Y-69072613D01*
X138880824Y-69079155D01*
X139032066Y-69202505D01*
X139087559Y-69239374D01*
X139142520Y-69277007D01*
X139151547Y-69281888D01*
X139323869Y-69373513D01*
X139385508Y-69398919D01*
X139446689Y-69425141D01*
X139456492Y-69428176D01*
X139643328Y-69484585D01*
X139708720Y-69497533D01*
X139773836Y-69511374D01*
X139784042Y-69512447D01*
X139978275Y-69531492D01*
X139978277Y-69531492D01*
X140013895Y-69535000D01*
X145486105Y-69535000D01*
X145517504Y-69531907D01*
X145523598Y-69531950D01*
X145533812Y-69530949D01*
X145727908Y-69510548D01*
X145793149Y-69497156D01*
X145858598Y-69484671D01*
X145868423Y-69481705D01*
X146054861Y-69423993D01*
X146116293Y-69398169D01*
X146178037Y-69373223D01*
X146187099Y-69368405D01*
X146358775Y-69275580D01*
X146413982Y-69238343D01*
X146469748Y-69201850D01*
X146477701Y-69195364D01*
X146628078Y-69070961D01*
X146675056Y-69023654D01*
X146722613Y-68977083D01*
X146729155Y-68969176D01*
X146852505Y-68817934D01*
X146889374Y-68762441D01*
X146927007Y-68707480D01*
X146931888Y-68698453D01*
X147023513Y-68526131D01*
X147048919Y-68464492D01*
X147075141Y-68403311D01*
X147078176Y-68393508D01*
X147134585Y-68206672D01*
X147147533Y-68141280D01*
X147161374Y-68076164D01*
X147162447Y-68065958D01*
X147181492Y-67871725D01*
X147181492Y-67871723D01*
X147185000Y-67836105D01*
X147185000Y-62922746D01*
X160744782Y-64138577D01*
G37*
X160744782Y-64138577D02*
X160827857Y-64146241D01*
X160839358Y-64149642D01*
X160849985Y-64155214D01*
X160859329Y-64162746D01*
X160867029Y-64171945D01*
X160884249Y-64203362D01*
X160920805Y-64303799D01*
X160745354Y-64268900D01*
X160442986Y-64268900D01*
X160146427Y-64327889D01*
X159867075Y-64443601D01*
X159615665Y-64611588D01*
X159401858Y-64825395D01*
X159233871Y-65076805D01*
X159224412Y-65099640D01*
X159215692Y-65088015D01*
X159122554Y-65004520D01*
X159014917Y-64940800D01*
X158896917Y-64899304D01*
X158773088Y-64881625D01*
X158648190Y-64888444D01*
X158527023Y-64919498D01*
X158321278Y-64994383D01*
X158248496Y-64929138D01*
X158248495Y-64929137D01*
X158197698Y-64899066D01*
X158119670Y-64852874D01*
X158084276Y-64840427D01*
X157852996Y-64732580D01*
X157820712Y-64713468D01*
X157679484Y-64663803D01*
X157531280Y-64642644D01*
X157531279Y-64642644D01*
X157382803Y-64650751D01*
X157381796Y-64650806D01*
X157273115Y-64678659D01*
X157273108Y-64678661D01*
X157236776Y-64687973D01*
X157202960Y-64704193D01*
X149783728Y-67404573D01*
X149731916Y-67420290D01*
X149680501Y-67447772D01*
X149627988Y-67472960D01*
X149614626Y-67482983D01*
X149599886Y-67490862D01*
X149554844Y-67527828D01*
X149508230Y-67562794D01*
X149472107Y-67603090D01*
X147846132Y-69229067D01*
X147817134Y-69252865D01*
X147793336Y-69281863D01*
X147793335Y-69281864D01*
X147722160Y-69368591D01*
X147651588Y-69500620D01*
X147621314Y-69600424D01*
X147608132Y-69643880D01*
X147603150Y-69694462D01*
X147593458Y-69792866D01*
X147597135Y-69830194D01*
X147597134Y-74963064D01*
X144185369Y-78374830D01*
X144153624Y-78327000D01*
X142877000Y-78327000D01*
X142877000Y-78347000D01*
X142623000Y-78347000D01*
X142623000Y-78327000D01*
X141346376Y-78327000D01*
X141221434Y-78515250D01*
X141224265Y-78549541D01*
X141315048Y-78772199D01*
X141434585Y-78953265D01*
X141380699Y-79018925D01*
X141267413Y-79230867D01*
X141197652Y-79460838D01*
X141174097Y-79700000D01*
X141197652Y-79939162D01*
X141267413Y-80169133D01*
X141380699Y-80381075D01*
X141437264Y-80450000D01*
X141380699Y-80518925D01*
X141267413Y-80730867D01*
X141197652Y-80960838D01*
X141174097Y-81200000D01*
X141197652Y-81439162D01*
X141267413Y-81669133D01*
X141380699Y-81881075D01*
X141437264Y-81950000D01*
X141380699Y-82018925D01*
X141267413Y-82230867D01*
X141197652Y-82460838D01*
X141174097Y-82700000D01*
X141197652Y-82939162D01*
X141267413Y-83169133D01*
X141380699Y-83381075D01*
X141437264Y-83450000D01*
X141380699Y-83518925D01*
X141267413Y-83730867D01*
X141197652Y-83960838D01*
X141174097Y-84200000D01*
X141197652Y-84439162D01*
X141267413Y-84669133D01*
X141380699Y-84881075D01*
X141437264Y-84950000D01*
X141380699Y-85018925D01*
X141267413Y-85230867D01*
X141197652Y-85460838D01*
X141174097Y-85700000D01*
X141197652Y-85939162D01*
X141267413Y-86169133D01*
X141356297Y-86335422D01*
X141326595Y-86371613D01*
X141244528Y-86525149D01*
X141193992Y-86691745D01*
X141176928Y-86864999D01*
X141176928Y-87535001D01*
X141193992Y-87708255D01*
X141244528Y-87874851D01*
X141326595Y-88028387D01*
X141437038Y-88162962D01*
X141571613Y-88273405D01*
X141725149Y-88355472D01*
X141891745Y-88406008D01*
X142064999Y-88423072D01*
X143435001Y-88423072D01*
X143608255Y-88406008D01*
X143774851Y-88355472D01*
X143928387Y-88273405D01*
X144062962Y-88162962D01*
X144173405Y-88028387D01*
X144255472Y-87874851D01*
X144306008Y-87708255D01*
X144323072Y-87535001D01*
X144323072Y-86864999D01*
X144306008Y-86691745D01*
X144255472Y-86525149D01*
X144173405Y-86371613D01*
X144143703Y-86335422D01*
X144232587Y-86169133D01*
X144302348Y-85939162D01*
X144318734Y-85772783D01*
X157090110Y-85772783D01*
X157288759Y-86327548D01*
X157342855Y-86440330D01*
X157417914Y-86540390D01*
X157511053Y-86623884D01*
X157618690Y-86687604D01*
X157736690Y-86729100D01*
X157860518Y-86746780D01*
X157985416Y-86739961D01*
X158106584Y-86708906D01*
X158506547Y-86560062D01*
X158601428Y-86356590D01*
X158182710Y-85206172D01*
X157184991Y-85569311D01*
X157090110Y-85772783D01*
X144318734Y-85772783D01*
X144325903Y-85700000D01*
X144302348Y-85460838D01*
X144232587Y-85230867D01*
X144119301Y-85018925D01*
X144062736Y-84950000D01*
X144119301Y-84881075D01*
X144232587Y-84669133D01*
X144302348Y-84439162D01*
X144325903Y-84200000D01*
X144302348Y-83960838D01*
X144232587Y-83730867D01*
X144119301Y-83518925D01*
X144062736Y-83450000D01*
X144063914Y-83448564D01*
X144205729Y-83405546D01*
X144313394Y-83347997D01*
X156207560Y-83347997D01*
X156406209Y-83902762D01*
X156460305Y-84015544D01*
X156535364Y-84115604D01*
X156628503Y-84199098D01*
X156696083Y-84239105D01*
X156670030Y-84313191D01*
X156652350Y-84437020D01*
X156659169Y-84561918D01*
X156690224Y-84683086D01*
X156894646Y-85235749D01*
X157098118Y-85330629D01*
X157678746Y-85119298D01*
X158421392Y-85119298D01*
X158840110Y-86269717D01*
X159043582Y-86364598D01*
X159445646Y-86221527D01*
X159558428Y-86167431D01*
X159658488Y-86092372D01*
X159741982Y-85999233D01*
X159805702Y-85891597D01*
X159847198Y-85773597D01*
X159864878Y-85649768D01*
X159858059Y-85524870D01*
X159827004Y-85403702D01*
X159622582Y-84851039D01*
X159419110Y-84756159D01*
X158421392Y-85119298D01*
X157678746Y-85119298D01*
X158095836Y-84967490D01*
X157718878Y-83931805D01*
X157718878Y-83931804D01*
X157300160Y-82781386D01*
X156302441Y-83144525D01*
X156207560Y-83347997D01*
X144313394Y-83347997D01*
X144337758Y-83334974D01*
X144453483Y-83240001D01*
X144477286Y-83210997D01*
X149398284Y-78290000D01*
X151461927Y-78290000D01*
X151461927Y-78430000D01*
X151474187Y-78554482D01*
X151510497Y-78674180D01*
X151569462Y-78784494D01*
X151648814Y-78881185D01*
X151745505Y-78960537D01*
X151855819Y-79019502D01*
X151874126Y-79025056D01*
X151807687Y-79091495D01*
X151639700Y-79342905D01*
X151523988Y-79622257D01*
X151464999Y-79918816D01*
X151464999Y-80221184D01*
X151523988Y-80517743D01*
X151639700Y-80797095D01*
X151807687Y-81048505D01*
X152021494Y-81262312D01*
X152272904Y-81430299D01*
X152552256Y-81546011D01*
X152848815Y-81605000D01*
X153151183Y-81605000D01*
X153447742Y-81546011D01*
X153727094Y-81430299D01*
X153978504Y-81262312D01*
X154192311Y-81048505D01*
X154360298Y-80797095D01*
X154476010Y-80517743D01*
X154534999Y-80221184D01*
X154534999Y-79918816D01*
X154476010Y-79622257D01*
X154360298Y-79342905D01*
X154192311Y-79091495D01*
X154125872Y-79025056D01*
X154144179Y-79019502D01*
X154254493Y-78960537D01*
X154351184Y-78881185D01*
X154430536Y-78784494D01*
X154489501Y-78674180D01*
X154525811Y-78554482D01*
X154538071Y-78430000D01*
X154538071Y-77613521D01*
X154729602Y-78139748D01*
X154743248Y-78168199D01*
X154745290Y-78173932D01*
X154749724Y-78183187D01*
X154835278Y-78358601D01*
X154870202Y-78415371D01*
X154904297Y-78472565D01*
X154910444Y-78480783D01*
X155028441Y-78636238D01*
X155073713Y-78685127D01*
X155118278Y-78734622D01*
X155125904Y-78741489D01*
X155271849Y-78871064D01*
X155325769Y-78910239D01*
X155379084Y-78950124D01*
X155387898Y-78955380D01*
X155556232Y-79054141D01*
X155616762Y-79082110D01*
X155628352Y-79087663D01*
X155518178Y-79252549D01*
X155402466Y-79531901D01*
X155343477Y-79828460D01*
X155343477Y-80130828D01*
X155402466Y-80427387D01*
X155518178Y-80706739D01*
X155686165Y-80958149D01*
X155899972Y-81171956D01*
X156151382Y-81339943D01*
X156299331Y-81401226D01*
X156189032Y-81440475D01*
X156076250Y-81494571D01*
X155976190Y-81569630D01*
X155892696Y-81662769D01*
X155828976Y-81770405D01*
X155787480Y-81888405D01*
X155769800Y-82012234D01*
X155776619Y-82137132D01*
X155807674Y-82258300D01*
X156012096Y-82810963D01*
X156215568Y-82905843D01*
X156796196Y-82694512D01*
X157538842Y-82694512D01*
X157915800Y-83730197D01*
X157915800Y-83730198D01*
X158334518Y-84880616D01*
X159332237Y-84517477D01*
X159427118Y-84314005D01*
X159228469Y-83759240D01*
X159174373Y-83646458D01*
X159099314Y-83546398D01*
X159006175Y-83462904D01*
X158938595Y-83422897D01*
X158964648Y-83348811D01*
X158982328Y-83224982D01*
X158975509Y-83100084D01*
X158944454Y-82978916D01*
X158740032Y-82426253D01*
X158536560Y-82331373D01*
X157538842Y-82694512D01*
X156796196Y-82694512D01*
X157213286Y-82542704D01*
X157206445Y-82523910D01*
X157445128Y-82437037D01*
X157451968Y-82455830D01*
X158449687Y-82092691D01*
X158544568Y-81889219D01*
X158345919Y-81334454D01*
X158291823Y-81221672D01*
X158216764Y-81121612D01*
X158123625Y-81038118D01*
X158040204Y-80988734D01*
X158070789Y-80958149D01*
X158238776Y-80706739D01*
X158248235Y-80683904D01*
X158256955Y-80695529D01*
X158350093Y-80779024D01*
X158457730Y-80842744D01*
X158575730Y-80884240D01*
X158682265Y-80899450D01*
X158660658Y-80960892D01*
X158636053Y-81133237D01*
X158645544Y-81307070D01*
X158688765Y-81475712D01*
X159116290Y-82650328D01*
X159191582Y-82807298D01*
X159296049Y-82946562D01*
X159425679Y-83062771D01*
X159575489Y-83151456D01*
X159630867Y-83170931D01*
X159600964Y-83221444D01*
X159543208Y-83385678D01*
X159518603Y-83558023D01*
X159528094Y-83731856D01*
X159571315Y-83900498D01*
X159998840Y-85075114D01*
X160074132Y-85232084D01*
X160178599Y-85371348D01*
X160308229Y-85487557D01*
X160458039Y-85576242D01*
X160622272Y-85633998D01*
X160794617Y-85658603D01*
X160968451Y-85649112D01*
X161137093Y-85605891D01*
X162006308Y-85289523D01*
X162163278Y-85214231D01*
X162302543Y-85109763D01*
X162418751Y-84980134D01*
X162507436Y-84830324D01*
X162565192Y-84666090D01*
X162589797Y-84493745D01*
X162585248Y-84410425D01*
X162934093Y-84283456D01*
X162976407Y-84272611D01*
X163015793Y-84253719D01*
X163015797Y-84253718D01*
X163133590Y-84197218D01*
X163273044Y-84092607D01*
X163389411Y-83962802D01*
X163435693Y-83884620D01*
X163455963Y-83850380D01*
X163455964Y-83850377D01*
X163478217Y-83812787D01*
X163492710Y-83771576D01*
X165229337Y-80047368D01*
X159580177Y-93865000D01*
X139363895Y-93865000D01*
X139332496Y-93868093D01*
X139326402Y-93868050D01*
X139316188Y-93869051D01*
X139122091Y-93889452D01*
X139056843Y-93902845D01*
X138991402Y-93915329D01*
X138981577Y-93918295D01*
X138795139Y-93976007D01*
X138733720Y-94001825D01*
X138671962Y-94026777D01*
X138662901Y-94031595D01*
X138491224Y-94124420D01*
X138435977Y-94161685D01*
X138380252Y-94198150D01*
X138372299Y-94204636D01*
X138221921Y-94329040D01*
X138174944Y-94376346D01*
X138127387Y-94422917D01*
X138120845Y-94430824D01*
X137997495Y-94582066D01*
X137960608Y-94637585D01*
X137922994Y-94692520D01*
X137918112Y-94701547D01*
X137826487Y-94873869D01*
X137801086Y-94935496D01*
X137774859Y-94996689D01*
X137771824Y-95006492D01*
X137715415Y-95193328D01*
X137702467Y-95258720D01*
X137688626Y-95323836D01*
X137687553Y-95334042D01*
X137668508Y-95528276D01*
X137668508Y-95528287D01*
X137665001Y-95563895D01*
X137665000Y-107958645D01*
X130716365Y-107961252D01*
X130824494Y-107903455D01*
X130921185Y-107824103D01*
X131000537Y-107727412D01*
X131059502Y-107617098D01*
X131095812Y-107497400D01*
X131108072Y-107372918D01*
X131108072Y-107357918D01*
X131268707Y-107357918D01*
X131306595Y-107428802D01*
X131417038Y-107563378D01*
X131551614Y-107673821D01*
X131705150Y-107755888D01*
X131871746Y-107806424D01*
X132045000Y-107823488D01*
X133295000Y-107823488D01*
X133468254Y-107806424D01*
X133634850Y-107755888D01*
X133788386Y-107673821D01*
X133922962Y-107563378D01*
X134033405Y-107428802D01*
X134115472Y-107275266D01*
X134166008Y-107108670D01*
X134183072Y-106935416D01*
X134183072Y-106010416D01*
X134166008Y-105837162D01*
X134115472Y-105670566D01*
X134033405Y-105517030D01*
X133922962Y-105382454D01*
X133788386Y-105272011D01*
X133634850Y-105189944D01*
X133468254Y-105139408D01*
X133295000Y-105122344D01*
X132045000Y-105122344D01*
X131871746Y-105139408D01*
X131705150Y-105189944D01*
X131551614Y-105272011D01*
X131417038Y-105382454D01*
X131306595Y-105517030D01*
X131268704Y-105587918D01*
X131108072Y-105587918D01*
X131108072Y-105572918D01*
X131095812Y-105448436D01*
X131059502Y-105328738D01*
X131000537Y-105218424D01*
X130921185Y-105121733D01*
X130824494Y-105042381D01*
X130714180Y-104983416D01*
X130646155Y-104962781D01*
X130664374Y-104935359D01*
X130702007Y-104880398D01*
X130706888Y-104871371D01*
X130798513Y-104699049D01*
X130823919Y-104637410D01*
X130850141Y-104576229D01*
X130853176Y-104566426D01*
X130909585Y-104379590D01*
X130922533Y-104314198D01*
X130936374Y-104249082D01*
X130937447Y-104238876D01*
X130940237Y-104210416D01*
X131156928Y-104210416D01*
X131169188Y-104334898D01*
X131205498Y-104454596D01*
X131264463Y-104564910D01*
X131343815Y-104661601D01*
X131440506Y-104740953D01*
X131550820Y-104799918D01*
X131670518Y-104836228D01*
X131795000Y-104848488D01*
X132384250Y-104845416D01*
X132543000Y-104686666D01*
X132543000Y-103624916D01*
X132797000Y-103624916D01*
X132797000Y-104686666D01*
X132955750Y-104845416D01*
X133545000Y-104848488D01*
X133669482Y-104836228D01*
X133789180Y-104799918D01*
X133899494Y-104740953D01*
X133996185Y-104661601D01*
X134075537Y-104564910D01*
X134134502Y-104454596D01*
X134170812Y-104334898D01*
X134183072Y-104210416D01*
X134180000Y-103783666D01*
X134021250Y-103624916D01*
X132797000Y-103624916D01*
X132543000Y-103624916D01*
X131318750Y-103624916D01*
X131160000Y-103783666D01*
X131156928Y-104210416D01*
X130940237Y-104210416D01*
X130956492Y-104044643D01*
X130956492Y-104044631D01*
X130959999Y-104009023D01*
X130959999Y-102785416D01*
X131156928Y-102785416D01*
X131160000Y-103212166D01*
X131318750Y-103370916D01*
X132543000Y-103370916D01*
X132543000Y-102309166D01*
X132797000Y-102309166D01*
X132797000Y-103370916D01*
X134021250Y-103370916D01*
X134180000Y-103212166D01*
X134183072Y-102785416D01*
X134170812Y-102660934D01*
X134134502Y-102541236D01*
X134075537Y-102430922D01*
X133996185Y-102334231D01*
X133899494Y-102254879D01*
X133789180Y-102195914D01*
X133669482Y-102159604D01*
X133545000Y-102147344D01*
X132955750Y-102150416D01*
X132797000Y-102309166D01*
X132543000Y-102309166D01*
X132384250Y-102150416D01*
X131795000Y-102147344D01*
X131670518Y-102159604D01*
X131550820Y-102195914D01*
X131440506Y-102254879D01*
X131343815Y-102334231D01*
X131264463Y-102430922D01*
X131205498Y-102541236D01*
X131169188Y-102660934D01*
X131156928Y-102785416D01*
X130959999Y-102785416D01*
X130959999Y-96886813D01*
X130956906Y-96855414D01*
X130956949Y-96849320D01*
X130955948Y-96839106D01*
X130935547Y-96645009D01*
X130922144Y-96579713D01*
X130909669Y-96514318D01*
X130906703Y-96504494D01*
X130848991Y-96318057D01*
X130823177Y-96256646D01*
X130798222Y-96194881D01*
X130793404Y-96185820D01*
X130793404Y-96185819D01*
X130793401Y-96185815D01*
X130700579Y-96014143D01*
X130663315Y-95958898D01*
X130626851Y-95903174D01*
X130620365Y-95895221D01*
X130495962Y-95744842D01*
X130448670Y-95697879D01*
X130439234Y-95688243D01*
X130548505Y-95615230D01*
X130762312Y-95401423D01*
X130930299Y-95150013D01*
X131046011Y-94870661D01*
X131105000Y-94574102D01*
X131105000Y-94271734D01*
X131046011Y-93975175D01*
X130930299Y-93695823D01*
X130762312Y-93444413D01*
X130548505Y-93230606D01*
X130297095Y-93062619D01*
X130017743Y-92946907D01*
X129721184Y-92887918D01*
X129418816Y-92887918D01*
X129122257Y-92946907D01*
X128842905Y-93062619D01*
X128591495Y-93230606D01*
X128525056Y-93297045D01*
X128519502Y-93278738D01*
X128460537Y-93168424D01*
X128381185Y-93071733D01*
X128284494Y-92992381D01*
X128174180Y-92933416D01*
X128054482Y-92897106D01*
X127930000Y-92884846D01*
X126210000Y-92884846D01*
X126210000Y-91933959D01*
X131511106Y-91933959D01*
X131542505Y-91930866D01*
X131548599Y-91930909D01*
X131558813Y-91929908D01*
X131752909Y-91909507D01*
X131818150Y-91896115D01*
X131883599Y-91883630D01*
X131893424Y-91880664D01*
X132079862Y-91822952D01*
X132141314Y-91797120D01*
X132203041Y-91772180D01*
X132212103Y-91767363D01*
X132383780Y-91674537D01*
X132439061Y-91637249D01*
X132494748Y-91600808D01*
X132502701Y-91594323D01*
X132653078Y-91469920D01*
X132700056Y-91422613D01*
X132747613Y-91376042D01*
X132754155Y-91368135D01*
X132877506Y-91216892D01*
X132914405Y-91161355D01*
X132952009Y-91106435D01*
X132956884Y-91097419D01*
X132956888Y-91097413D01*
X132956890Y-91097407D01*
X133048514Y-90925086D01*
X133073912Y-90863465D01*
X133100141Y-90802269D01*
X133103176Y-90792466D01*
X133159585Y-90605630D01*
X133172533Y-90540238D01*
X133186374Y-90475122D01*
X133187447Y-90464916D01*
X133206492Y-90270683D01*
X133206492Y-90270682D01*
X133210000Y-90235064D01*
X133210000Y-86260418D01*
X134056928Y-86260418D01*
X134069188Y-86384900D01*
X134105498Y-86504598D01*
X134164463Y-86614912D01*
X134243815Y-86711603D01*
X134340506Y-86790955D01*
X134450820Y-86849920D01*
X134570518Y-86886230D01*
X134695000Y-86898490D01*
X135284250Y-86895418D01*
X135443000Y-86736668D01*
X135443000Y-85674918D01*
X135697000Y-85674918D01*
X135697000Y-86736668D01*
X135855750Y-86895418D01*
X136445000Y-86898490D01*
X136569482Y-86886230D01*
X136689180Y-86849920D01*
X136799494Y-86790955D01*
X136896185Y-86711603D01*
X136975537Y-86614912D01*
X137034502Y-86504598D01*
X137070812Y-86384900D01*
X137083072Y-86260418D01*
X137080000Y-85833668D01*
X136921250Y-85674918D01*
X135697000Y-85674918D01*
X135443000Y-85674918D01*
X134218750Y-85674918D01*
X134060000Y-85833668D01*
X134056928Y-86260418D01*
X133210000Y-86260418D01*
X133210000Y-84835418D01*
X134056928Y-84835418D01*
X134060000Y-85262168D01*
X134218750Y-85420918D01*
X135443000Y-85420918D01*
X135443000Y-84359168D01*
X135697000Y-84359168D01*
X135697000Y-85420918D01*
X136921250Y-85420918D01*
X137080000Y-85262168D01*
X137083072Y-84835418D01*
X137070812Y-84710936D01*
X137034502Y-84591238D01*
X136975537Y-84480924D01*
X136896185Y-84384233D01*
X136799494Y-84304881D01*
X136689180Y-84245916D01*
X136569482Y-84209606D01*
X136445000Y-84197346D01*
X135855750Y-84200418D01*
X135697000Y-84359168D01*
X135443000Y-84359168D01*
X135284250Y-84200418D01*
X134695000Y-84197346D01*
X134570518Y-84209606D01*
X134450820Y-84245916D01*
X134340506Y-84304881D01*
X134243815Y-84384233D01*
X134164463Y-84480924D01*
X134105498Y-84591238D01*
X134069188Y-84710936D01*
X134056928Y-84835418D01*
X133210000Y-84835418D01*
X133210000Y-84762854D01*
X133206907Y-84731455D01*
X133206950Y-84725361D01*
X133205949Y-84715147D01*
X133185548Y-84521050D01*
X133172155Y-84455802D01*
X133159671Y-84390361D01*
X133156705Y-84380536D01*
X133098993Y-84194098D01*
X133073175Y-84132679D01*
X133048223Y-84070921D01*
X133043405Y-84061860D01*
X132950580Y-83890183D01*
X132913315Y-83834936D01*
X132876850Y-83779211D01*
X132870364Y-83771258D01*
X132745960Y-83620880D01*
X132698654Y-83573903D01*
X132652083Y-83526346D01*
X132644176Y-83519804D01*
X132568296Y-83457918D01*
X134168706Y-83457918D01*
X134206595Y-83528804D01*
X134317038Y-83663380D01*
X134451614Y-83773823D01*
X134605150Y-83855890D01*
X134771746Y-83906426D01*
X134945000Y-83923490D01*
X136195000Y-83923490D01*
X136368254Y-83906426D01*
X136534850Y-83855890D01*
X136688386Y-83773823D01*
X136822962Y-83663380D01*
X136933405Y-83528804D01*
X137015472Y-83375268D01*
X137066008Y-83208672D01*
X137083072Y-83035418D01*
X137083072Y-82110418D01*
X137066008Y-81937164D01*
X137015472Y-81770568D01*
X136933405Y-81617032D01*
X136822962Y-81482456D01*
X136688386Y-81372013D01*
X136582114Y-81315209D01*
X136688386Y-81258405D01*
X136822962Y-81147962D01*
X136933405Y-81013386D01*
X137015472Y-80859850D01*
X137066008Y-80693254D01*
X137083072Y-80520000D01*
X137083072Y-79595000D01*
X137066008Y-79421746D01*
X137015472Y-79255150D01*
X136933405Y-79101614D01*
X136822962Y-78967038D01*
X136688386Y-78856595D01*
X136534850Y-78774528D01*
X136368254Y-78723992D01*
X136195000Y-78706928D01*
X134945000Y-78706928D01*
X134771746Y-78723992D01*
X134605150Y-78774528D01*
X134451614Y-78856595D01*
X134317038Y-78967038D01*
X134206595Y-79101614D01*
X134162024Y-79185000D01*
X134038073Y-79185000D01*
X134038073Y-79170000D01*
X134025813Y-79045518D01*
X133989503Y-78925820D01*
X133930538Y-78815506D01*
X133851186Y-78718815D01*
X133754495Y-78639463D01*
X133644181Y-78580498D01*
X133625874Y-78574944D01*
X133692313Y-78508505D01*
X133860300Y-78257095D01*
X133976012Y-77977743D01*
X134012361Y-77795000D01*
X134056928Y-77795000D01*
X134069188Y-77919482D01*
X134105498Y-78039180D01*
X134164463Y-78149494D01*
X134243815Y-78246185D01*
X134340506Y-78325537D01*
X134450820Y-78384502D01*
X134570518Y-78420812D01*
X134695000Y-78433072D01*
X135284250Y-78430000D01*
X135443000Y-78271250D01*
X135443000Y-77209500D01*
X135697000Y-77209500D01*
X135697000Y-78271250D01*
X135855750Y-78430000D01*
X136445000Y-78433072D01*
X136569482Y-78420812D01*
X136689180Y-78384502D01*
X136799494Y-78325537D01*
X136896185Y-78246185D01*
X136975537Y-78149494D01*
X137034502Y-78039180D01*
X137070812Y-77919482D01*
X137074232Y-77884750D01*
X141221434Y-77884750D01*
X141346376Y-78073000D01*
X142623000Y-78073000D01*
X142623000Y-76980000D01*
X142877000Y-76980000D01*
X142877000Y-78073000D01*
X144153624Y-78073000D01*
X144278566Y-77884750D01*
X144275735Y-77850459D01*
X144184952Y-77627801D01*
X144052474Y-77427132D01*
X143883393Y-77256164D01*
X143684207Y-77121467D01*
X143462570Y-77028218D01*
X143227000Y-76980000D01*
X142877000Y-76980000D01*
X142623000Y-76980000D01*
X142273000Y-76980000D01*
X142037430Y-77028218D01*
X141815793Y-77121467D01*
X141616607Y-77256164D01*
X141447526Y-77427132D01*
X141315048Y-77627801D01*
X141224265Y-77850459D01*
X141221434Y-77884750D01*
X137074232Y-77884750D01*
X137083072Y-77795000D01*
X137080000Y-77368250D01*
X136921250Y-77209500D01*
X135697000Y-77209500D01*
X135443000Y-77209500D01*
X134218750Y-77209500D01*
X134060000Y-77368250D01*
X134056928Y-77795000D01*
X134012361Y-77795000D01*
X134035001Y-77681184D01*
X134035001Y-77378816D01*
X133976012Y-77082257D01*
X133860300Y-76802905D01*
X133692313Y-76551495D01*
X133510818Y-76370000D01*
X134056928Y-76370000D01*
X134060000Y-76796750D01*
X134218750Y-76955500D01*
X135443000Y-76955500D01*
X135443000Y-75893750D01*
X135697000Y-75893750D01*
X135697000Y-76955500D01*
X136921250Y-76955500D01*
X137080000Y-76796750D01*
X137083072Y-76370000D01*
X137070812Y-76245518D01*
X137034502Y-76125820D01*
X136975537Y-76015506D01*
X136896185Y-75918815D01*
X136799494Y-75839463D01*
X136689180Y-75780498D01*
X136569482Y-75744188D01*
X136445000Y-75731928D01*
X135855750Y-75735000D01*
X135697000Y-75893750D01*
X135443000Y-75893750D01*
X135284250Y-75735000D01*
X134695000Y-75731928D01*
X134570518Y-75744188D01*
X134450820Y-75780498D01*
X134340506Y-75839463D01*
X134243815Y-75918815D01*
X134164463Y-76015506D01*
X134105498Y-76125820D01*
X134069188Y-76245518D01*
X134056928Y-76370000D01*
X133510818Y-76370000D01*
X133478506Y-76337688D01*
X133227096Y-76169701D01*
X132947744Y-76053989D01*
X132651185Y-75995000D01*
X132348817Y-75995000D01*
X132052258Y-76053989D01*
X131772906Y-76169701D01*
X131521496Y-76337688D01*
X131307689Y-76551495D01*
X131139702Y-76802905D01*
X131023990Y-77082257D01*
X130965001Y-77378816D01*
X130965001Y-77681184D01*
X131023990Y-77977743D01*
X131139702Y-78257095D01*
X131307689Y-78508505D01*
X131374128Y-78574944D01*
X131355821Y-78580498D01*
X131245507Y-78639463D01*
X131148816Y-78718815D01*
X131069464Y-78815506D01*
X131010499Y-78925820D01*
X130974189Y-79045518D01*
X130961929Y-79170000D01*
X130961929Y-79273461D01*
X130921185Y-79223814D01*
X130824494Y-79144462D01*
X130714180Y-79085497D01*
X130646154Y-79064862D01*
X130664406Y-79037391D01*
X130702005Y-78982479D01*
X130706883Y-78973457D01*
X130706888Y-78973450D01*
X130706891Y-78973442D01*
X130798511Y-78801131D01*
X130823914Y-78739499D01*
X130850140Y-78678310D01*
X130853175Y-78668507D01*
X130909584Y-78481671D01*
X130922532Y-78416279D01*
X130936373Y-78351163D01*
X130937446Y-78340957D01*
X130956319Y-78148481D01*
X130960000Y-78111104D01*
X130960000Y-70988894D01*
X130956907Y-70957495D01*
X130956950Y-70951401D01*
X130955949Y-70941187D01*
X130935548Y-70747090D01*
X130922155Y-70681842D01*
X130909671Y-70616401D01*
X130906705Y-70606576D01*
X130848993Y-70420138D01*
X130823156Y-70358675D01*
X130798221Y-70296959D01*
X130793404Y-70287898D01*
X130700578Y-70116220D01*
X130663290Y-70060939D01*
X130626849Y-70005252D01*
X130620364Y-69997299D01*
X130495961Y-69846922D01*
X130448654Y-69799944D01*
X130439233Y-69790324D01*
X130548505Y-69717311D01*
X130762312Y-69503504D01*
X130930299Y-69252094D01*
X131046011Y-68972742D01*
X131068677Y-68858790D01*
X135189854Y-72979968D01*
X135135900Y-73110225D01*
X135096126Y-73310184D01*
X135096126Y-73514062D01*
X135135900Y-73714021D01*
X135213921Y-73902379D01*
X135327189Y-74071897D01*
X135471352Y-74216060D01*
X135640870Y-74329328D01*
X135829228Y-74407349D01*
X136029187Y-74447123D01*
X136233065Y-74447123D01*
X136433024Y-74407349D01*
X136621382Y-74329328D01*
X136790900Y-74216060D01*
X136935063Y-74071897D01*
X137048331Y-73902379D01*
X137126352Y-73714021D01*
X137166126Y-73514062D01*
X137166126Y-73310184D01*
X137126352Y-73110225D01*
X137048331Y-72921867D01*
X136935063Y-72752349D01*
X136880113Y-72697399D01*
X136836672Y-72554191D01*
X136766100Y-72422162D01*
X136671127Y-72306437D01*
X136642130Y-72282640D01*
X130960613Y-66601124D01*
X130936810Y-66572120D01*
X130821085Y-66477147D01*
X130689056Y-66406575D01*
X130545795Y-66363118D01*
X130434142Y-66352121D01*
X130434131Y-66352121D01*
X130396809Y-66348445D01*
X130359487Y-66352121D01*
X128480200Y-66352121D01*
X128442877Y-66348445D01*
X128405554Y-66352121D01*
X128405545Y-66352121D01*
X128293892Y-66363118D01*
X128150631Y-66406575D01*
X128018602Y-66477147D01*
X127902877Y-66572120D01*
X127879079Y-66601118D01*
X127493270Y-66986927D01*
X126210448Y-66986927D01*
X126213745Y-66142685D01*
X126213703Y-66142242D01*
X126213834Y-66093838D01*
X126216197Y-66082069D01*
X126220797Y-66070995D01*
X126227464Y-66061017D01*
X126235943Y-66052526D01*
X126245908Y-66045843D01*
X126256979Y-66041224D01*
X126303308Y-66031844D01*
X126332720Y-66028449D01*
X138315001Y-63435564D01*
X138315000Y-67836104D01*
X138318093Y-67867503D01*
X138318050Y-67873598D01*
X138319051Y-67883812D01*
X138339452Y-68077908D01*
X138352844Y-68143149D01*
X138365329Y-68208598D01*
X138368295Y-68218423D01*
X138426007Y-68404861D01*
X138451831Y-68466293D01*
X138476777Y-68528037D01*
X138481595Y-68537099D01*
X138574420Y-68708775D01*
X138611657Y-68763982D01*
X138648150Y-68819748D01*
X138654636Y-68827701D01*
X138779039Y-68978078D01*
X138826346Y-69025056D01*
X138872917Y-69072613D01*
X138880824Y-69079155D01*
X139032066Y-69202505D01*
X139087559Y-69239374D01*
X139142520Y-69277007D01*
X139151547Y-69281888D01*
X139323869Y-69373513D01*
X139385508Y-69398919D01*
X139446689Y-69425141D01*
X139456492Y-69428176D01*
X139643328Y-69484585D01*
X139708720Y-69497533D01*
X139773836Y-69511374D01*
X139784042Y-69512447D01*
X139978275Y-69531492D01*
X139978277Y-69531492D01*
X140013895Y-69535000D01*
X145486105Y-69535000D01*
X145517504Y-69531907D01*
X145523598Y-69531950D01*
X145533812Y-69530949D01*
X145727908Y-69510548D01*
X145793149Y-69497156D01*
X145858598Y-69484671D01*
X145868423Y-69481705D01*
X146054861Y-69423993D01*
X146116293Y-69398169D01*
X146178037Y-69373223D01*
X146187099Y-69368405D01*
X146358775Y-69275580D01*
X146413982Y-69238343D01*
X146469748Y-69201850D01*
X146477701Y-69195364D01*
X146628078Y-69070961D01*
X146675056Y-69023654D01*
X146722613Y-68977083D01*
X146729155Y-68969176D01*
X146852505Y-68817934D01*
X146889374Y-68762441D01*
X146927007Y-68707480D01*
X146931888Y-68698453D01*
X147023513Y-68526131D01*
X147048919Y-68464492D01*
X147075141Y-68403311D01*
X147078176Y-68393508D01*
X147134585Y-68206672D01*
X147147533Y-68141280D01*
X147161374Y-68076164D01*
X147162447Y-68065958D01*
X147181492Y-67871725D01*
X147181492Y-67871723D01*
X147185000Y-67836105D01*
X147185000Y-62922746D01*
X160744782Y-64138577D01*
%TD*%
M02*
