%TF.GenerationSoftware,KiCad,Pcbnew,5.1.6-c6e7f7d~86~ubuntu18.04.1*%
%TF.CreationDate,2021-04-26T01:39:18-07:00*%
%TF.ProjectId,thumb_cluster_right,7468756d-625f-4636-9c75-737465725f72,rev?*%
%TF.SameCoordinates,Original*%
%TF.FileFunction,Legend,Top*%
%TF.FilePolarity,Positive*%
%FSLAX46Y46*%
G04 Gerber Fmt 4.6, Leading zero omitted, Abs format (unit mm)*
G04 Created by KiCad (PCBNEW 5.1.6-c6e7f7d~86~ubuntu18.04.1) date 2021-04-26 01:39:18*
%MOMM*%
%LPD*%
G01*
G04 APERTURE LIST*
%ADD10C,0.120000*%
%ADD11C,0.100000*%
%ADD12C,0.150000*%
G04 APERTURE END LIST*
D10*
%TO.C,PT2*%
X128110000Y-67663999D02*
X128841000Y-67663999D01*
X130300000Y-67663999D02*
X130610000Y-67663999D01*
X128110000Y-69385999D02*
X128841000Y-69385999D01*
X130300000Y-69385999D02*
X130610000Y-69385999D01*
X130610000Y-67663999D02*
X130610000Y-67969999D01*
X130610000Y-69079999D02*
X130610000Y-69385999D01*
X128110000Y-69385999D02*
X128830000Y-69385999D01*
D11*
G36*
X128600000Y-69645999D02*
G01*
X128310000Y-69645999D01*
X128190000Y-69455999D01*
X128190000Y-69445999D01*
X128760000Y-69445999D01*
X128600000Y-69645999D01*
G37*
X128600000Y-69645999D02*
X128310000Y-69645999D01*
X128190000Y-69455999D01*
X128190000Y-69445999D01*
X128760000Y-69445999D01*
X128600000Y-69645999D01*
D10*
X128830000Y-69385999D02*
G75*
G02*
X128110000Y-69385999I-360000J0D01*
G01*
%TO.C,PT5*%
X158927740Y-65494174D02*
X159614655Y-65244157D01*
X160985667Y-64745150D02*
X161276971Y-64639124D01*
X159516698Y-67112325D02*
X160203614Y-66862308D01*
X161574625Y-66363300D02*
X161865930Y-66257274D01*
X161276971Y-64639124D02*
X161381629Y-64926669D01*
X161761272Y-65969728D02*
X161865930Y-66257274D01*
X159516698Y-67112325D02*
X160193277Y-66866070D01*
D11*
G36*
X160066073Y-67189055D02*
G01*
X159793562Y-67288241D01*
X159615815Y-67150741D01*
X159612395Y-67141345D01*
X160148020Y-66946393D01*
X160066073Y-67189055D01*
G37*
X160066073Y-67189055D02*
X159793562Y-67288241D01*
X159615815Y-67150741D01*
X159612395Y-67141345D01*
X160148020Y-66946393D01*
X160066073Y-67189055D01*
D10*
X160193278Y-66866069D02*
G75*
G02*
X159516698Y-67112325I-338290J-123128D01*
G01*
%TO.C,PT4*%
X153477523Y-67477891D02*
X154164438Y-67227874D01*
X155535450Y-66728867D02*
X155826754Y-66622841D01*
X154066481Y-69096042D02*
X154753397Y-68846025D01*
X156124408Y-68347017D02*
X156415713Y-68240991D01*
X155826754Y-66622841D02*
X155931412Y-66910386D01*
X156311055Y-67953445D02*
X156415713Y-68240991D01*
X154066481Y-69096042D02*
X154743060Y-68849787D01*
D11*
G36*
X154615856Y-69172772D02*
G01*
X154343345Y-69271958D01*
X154165598Y-69134458D01*
X154162178Y-69125062D01*
X154697803Y-68930110D01*
X154615856Y-69172772D01*
G37*
X154615856Y-69172772D02*
X154343345Y-69271958D01*
X154165598Y-69134458D01*
X154162178Y-69125062D01*
X154697803Y-68930110D01*
X154615856Y-69172772D01*
D10*
X154743061Y-68849786D02*
G75*
G02*
X154066481Y-69096042I-338290J-123128D01*
G01*
%TO.C,PT3*%
X153860999Y-78610000D02*
X153860999Y-79341000D01*
X153860999Y-80800000D02*
X153860999Y-81110000D01*
X152138999Y-78610000D02*
X152138999Y-79341000D01*
X152138999Y-80800000D02*
X152138999Y-81110000D01*
X153860999Y-81110000D02*
X153554999Y-81110000D01*
X152444999Y-81110000D02*
X152138999Y-81110000D01*
X152138999Y-78610000D02*
X152138999Y-79330000D01*
D11*
G36*
X151878999Y-79100000D02*
G01*
X151878999Y-78810000D01*
X152068999Y-78690000D01*
X152078999Y-78690000D01*
X152078999Y-79260000D01*
X151878999Y-79100000D01*
G37*
X151878999Y-79100000D02*
X151878999Y-78810000D01*
X152068999Y-78690000D01*
X152078999Y-78690000D01*
X152078999Y-79260000D01*
X151878999Y-79100000D01*
D10*
X152138999Y-79330000D02*
G75*
G02*
X152138999Y-78610000I0J360000D01*
G01*
%TO.C,PT1*%
X128110000Y-93561918D02*
X128841000Y-93561918D01*
X130300000Y-93561918D02*
X130610000Y-93561918D01*
X128110000Y-95283918D02*
X128841000Y-95283918D01*
X130300000Y-95283918D02*
X130610000Y-95283918D01*
X130610000Y-93561918D02*
X130610000Y-93867918D01*
X130610000Y-94977918D02*
X130610000Y-95283918D01*
X128110000Y-95283918D02*
X128830000Y-95283918D01*
D11*
G36*
X128600000Y-95543918D02*
G01*
X128310000Y-95543918D01*
X128190000Y-95353918D01*
X128190000Y-95343918D01*
X128760000Y-95343918D01*
X128600000Y-95543918D01*
G37*
X128600000Y-95543918D02*
X128310000Y-95543918D01*
X128190000Y-95353918D01*
X128190000Y-95343918D01*
X128760000Y-95343918D01*
X128600000Y-95543918D01*
D10*
X128830000Y-95283918D02*
G75*
G02*
X128110000Y-95283918I-360000J0D01*
G01*
%TO.C,IR2*%
X128490000Y-81435999D02*
X127759000Y-81435999D01*
X126300000Y-81435999D02*
X125990000Y-81435999D01*
X128490000Y-79713999D02*
X127759000Y-79713999D01*
X126300000Y-79713999D02*
X125990000Y-79713999D01*
X125990000Y-81435999D02*
X125990000Y-81129999D01*
X125990000Y-80019999D02*
X125990000Y-79713999D01*
X128490000Y-79713999D02*
X127770000Y-79713999D01*
X127770000Y-79713999D02*
G75*
G02*
X128490000Y-79713999I360000J0D01*
G01*
%TO.C,IR5*%
X163995124Y-78305653D02*
X163308209Y-78555670D01*
X161937197Y-79054677D02*
X161645893Y-79160703D01*
X163406166Y-76687502D02*
X162719250Y-76937519D01*
X161348239Y-77436527D02*
X161056934Y-77542553D01*
X161645893Y-79160703D02*
X161541235Y-78873158D01*
X161161592Y-77830099D02*
X161056934Y-77542553D01*
X163406166Y-76687502D02*
X162729587Y-76933757D01*
X162729586Y-76933758D02*
G75*
G02*
X163406166Y-76687502I338290J123128D01*
G01*
%TO.C,IR4*%
X158544907Y-80289370D02*
X157857992Y-80539387D01*
X156486980Y-81038394D02*
X156195676Y-81144420D01*
X157955949Y-78671219D02*
X157269033Y-78921236D01*
X155898022Y-79420244D02*
X155606717Y-79526270D01*
X156195676Y-81144420D02*
X156091018Y-80856875D01*
X155711375Y-79813816D02*
X155606717Y-79526270D01*
X157955949Y-78671219D02*
X157279370Y-78917474D01*
X157279369Y-78917475D02*
G75*
G02*
X157955949Y-78671219I338290J123128D01*
G01*
%TO.C,IR3*%
X131639001Y-78990000D02*
X131639001Y-78259000D01*
X131639001Y-76800000D02*
X131639001Y-76490000D01*
X133361001Y-78990000D02*
X133361001Y-78259000D01*
X133361001Y-76800000D02*
X133361001Y-76490000D01*
X131639001Y-76490000D02*
X131945001Y-76490000D01*
X133055001Y-76490000D02*
X133361001Y-76490000D01*
X133361001Y-78990000D02*
X133361001Y-78270000D01*
X133361001Y-78270000D02*
G75*
G02*
X133361001Y-78990000I0J-360000D01*
G01*
%TO.C,IR1*%
X128490000Y-107333918D02*
X127759000Y-107333918D01*
X126300000Y-107333918D02*
X125990000Y-107333918D01*
X128490000Y-105611918D02*
X127759000Y-105611918D01*
X126300000Y-105611918D02*
X125990000Y-105611918D01*
X125990000Y-107333918D02*
X125990000Y-107027918D01*
X125990000Y-105917918D02*
X125990000Y-105611918D01*
X128490000Y-105611918D02*
X127770000Y-105611918D01*
X127770000Y-105611918D02*
G75*
G02*
X128490000Y-105611918I360000J0D01*
G01*
%TO.C,PT2*%
D12*
X127180952Y-67117379D02*
X127180952Y-66117379D01*
X127561904Y-66117379D01*
X127657142Y-66164999D01*
X127704761Y-66212618D01*
X127752380Y-66307856D01*
X127752380Y-66450713D01*
X127704761Y-66545951D01*
X127657142Y-66593570D01*
X127561904Y-66641189D01*
X127180952Y-66641189D01*
X128038095Y-66117379D02*
X128609523Y-66117379D01*
X128323809Y-67117379D02*
X128323809Y-66117379D01*
X128895238Y-66212618D02*
X128942857Y-66164999D01*
X129038095Y-66117379D01*
X129276190Y-66117379D01*
X129371428Y-66164999D01*
X129419047Y-66212618D01*
X129466666Y-66307856D01*
X129466666Y-66403094D01*
X129419047Y-66545951D01*
X128847619Y-67117379D01*
X129466666Y-67117379D01*
%TO.C,PT5*%
X156804363Y-65625002D02*
X156462343Y-64685310D01*
X156820321Y-64555016D01*
X156926102Y-64567190D01*
X156987136Y-64595651D01*
X157064457Y-64668859D01*
X157113317Y-64803101D01*
X157101143Y-64908882D01*
X157072682Y-64969916D01*
X156999475Y-65047236D01*
X156641496Y-65177530D01*
X157267794Y-64392150D02*
X157804761Y-64196710D01*
X157878298Y-65234122D02*
X157536277Y-64294430D01*
X158565465Y-63919836D02*
X158117992Y-64082703D01*
X158236111Y-64546462D01*
X158264572Y-64485428D01*
X158337780Y-64408108D01*
X158561516Y-64326674D01*
X158667297Y-64338848D01*
X158728331Y-64367309D01*
X158805652Y-64440517D01*
X158887085Y-64664253D01*
X158874911Y-64770034D01*
X158846451Y-64831068D01*
X158773243Y-64908389D01*
X158549507Y-64989822D01*
X158443725Y-64977648D01*
X158382691Y-64949188D01*
%TO.C,PT4*%
X152417548Y-67281989D02*
X152075528Y-66342297D01*
X152433506Y-66212003D01*
X152539287Y-66224177D01*
X152600321Y-66252638D01*
X152677642Y-66325846D01*
X152726502Y-66460088D01*
X152714328Y-66565869D01*
X152685867Y-66626903D01*
X152612660Y-66704223D01*
X152254681Y-66834517D01*
X152880979Y-66049137D02*
X153417946Y-65853697D01*
X153491483Y-66891109D02*
X153149462Y-65951417D01*
X154247909Y-65906341D02*
X154475922Y-66532802D01*
X153893879Y-65629796D02*
X153914443Y-66382438D01*
X154496158Y-66170711D01*
%TO.C,PT3*%
X151602380Y-79919047D02*
X150602380Y-79919047D01*
X150602380Y-79538095D01*
X150650000Y-79442857D01*
X150697619Y-79395238D01*
X150792857Y-79347619D01*
X150935714Y-79347619D01*
X151030952Y-79395238D01*
X151078571Y-79442857D01*
X151126190Y-79538095D01*
X151126190Y-79919047D01*
X150602380Y-79061904D02*
X150602380Y-78490476D01*
X151602380Y-78776190D02*
X150602380Y-78776190D01*
X150602380Y-78252380D02*
X150602380Y-77633333D01*
X150983333Y-77966666D01*
X150983333Y-77823809D01*
X151030952Y-77728571D01*
X151078571Y-77680952D01*
X151173809Y-77633333D01*
X151411904Y-77633333D01*
X151507142Y-77680952D01*
X151554761Y-77728571D01*
X151602380Y-77823809D01*
X151602380Y-78109523D01*
X151554761Y-78204761D01*
X151507142Y-78252380D01*
%TO.C,PT1*%
X127180952Y-93015298D02*
X127180952Y-92015298D01*
X127561904Y-92015298D01*
X127657142Y-92062918D01*
X127704761Y-92110537D01*
X127752380Y-92205775D01*
X127752380Y-92348632D01*
X127704761Y-92443870D01*
X127657142Y-92491489D01*
X127561904Y-92539108D01*
X127180952Y-92539108D01*
X128038095Y-92015298D02*
X128609523Y-92015298D01*
X128323809Y-93015298D02*
X128323809Y-92015298D01*
X129466666Y-93015298D02*
X128895238Y-93015298D01*
X129180952Y-93015298D02*
X129180952Y-92015298D01*
X129085714Y-92158156D01*
X128990476Y-92253394D01*
X128895238Y-92301013D01*
%TO.C,IR2*%
X127323809Y-82887379D02*
X127323809Y-81887379D01*
X128371428Y-82887379D02*
X128038095Y-82411189D01*
X127800000Y-82887379D02*
X127800000Y-81887379D01*
X128180952Y-81887379D01*
X128276190Y-81934999D01*
X128323809Y-81982618D01*
X128371428Y-82077856D01*
X128371428Y-82220713D01*
X128323809Y-82315951D01*
X128276190Y-82363570D01*
X128180952Y-82411189D01*
X127800000Y-82411189D01*
X128752380Y-81982618D02*
X128800000Y-81934999D01*
X128895238Y-81887379D01*
X129133333Y-81887379D01*
X129228571Y-81934999D01*
X129276190Y-81982618D01*
X129323809Y-82077856D01*
X129323809Y-82173094D01*
X129276190Y-82315951D01*
X128704761Y-82887379D01*
X129323809Y-82887379D01*
%TO.C,IR5*%
X163395665Y-80068365D02*
X163053645Y-79128673D01*
X164380105Y-79710059D02*
X163904007Y-79376593D01*
X163843138Y-79905499D02*
X163501117Y-78965806D01*
X163859096Y-78835513D01*
X163964877Y-78847687D01*
X164025911Y-78876147D01*
X164103231Y-78949355D01*
X164152091Y-79083597D01*
X164139917Y-79189378D01*
X164111457Y-79250412D01*
X164038249Y-79327733D01*
X163680271Y-79458026D01*
X164888283Y-78460919D02*
X164440810Y-78623786D01*
X164558930Y-79087545D01*
X164587390Y-79026511D01*
X164660598Y-78949191D01*
X164884334Y-78867757D01*
X164990116Y-78879931D01*
X165051149Y-78908392D01*
X165128470Y-78981600D01*
X165209903Y-79205336D01*
X165197730Y-79311117D01*
X165169269Y-79372151D01*
X165096061Y-79449472D01*
X164872325Y-79530905D01*
X164766544Y-79518731D01*
X164705510Y-79490271D01*
%TO.C,IR4*%
X157945448Y-82052082D02*
X157603428Y-81112390D01*
X158929888Y-81693776D02*
X158453790Y-81360310D01*
X158392921Y-81889216D02*
X158050900Y-80949523D01*
X158408879Y-80819230D01*
X158514660Y-80831404D01*
X158575694Y-80859864D01*
X158653014Y-80933072D01*
X158701874Y-81067314D01*
X158689700Y-81173095D01*
X158661240Y-81234129D01*
X158588032Y-81311450D01*
X158230054Y-81441743D01*
X159507325Y-80774154D02*
X159735339Y-81400615D01*
X159153295Y-80497609D02*
X159173859Y-81250251D01*
X159755574Y-81038525D01*
%TO.C,IR3*%
X134902380Y-79776190D02*
X133902380Y-79776190D01*
X134902380Y-78728571D02*
X134426190Y-79061904D01*
X134902380Y-79300000D02*
X133902380Y-79300000D01*
X133902380Y-78919047D01*
X133950000Y-78823809D01*
X133997619Y-78776190D01*
X134092857Y-78728571D01*
X134235714Y-78728571D01*
X134330952Y-78776190D01*
X134378571Y-78823809D01*
X134426190Y-78919047D01*
X134426190Y-79300000D01*
X133902380Y-78395238D02*
X133902380Y-77776190D01*
X134283333Y-78109523D01*
X134283333Y-77966666D01*
X134330952Y-77871428D01*
X134378571Y-77823809D01*
X134473809Y-77776190D01*
X134711904Y-77776190D01*
X134807142Y-77823809D01*
X134854761Y-77871428D01*
X134902380Y-77966666D01*
X134902380Y-78252380D01*
X134854761Y-78347619D01*
X134807142Y-78395238D01*
%TO.C,IR1*%
X132102380Y-107449108D02*
X131102380Y-107449108D01*
X132102380Y-106401489D02*
X131626190Y-106734822D01*
X132102380Y-106972918D02*
X131102380Y-106972918D01*
X131102380Y-106591965D01*
X131150000Y-106496727D01*
X131197619Y-106449108D01*
X131292857Y-106401489D01*
X131435714Y-106401489D01*
X131530952Y-106449108D01*
X131578571Y-106496727D01*
X131626190Y-106591965D01*
X131626190Y-106972918D01*
X132102380Y-105449108D02*
X132102380Y-106020537D01*
X132102380Y-105734822D02*
X131102380Y-105734822D01*
X131245238Y-105830060D01*
X131340476Y-105925298D01*
X131388095Y-106020537D01*
%TD*%
M02*
