M48
; DRILL file {KiCad 5.1.6-c6e7f7d~86~ubuntu18.04.1} date Mon Apr 26 01:39:14 2021
; FORMAT={-:-/ absolute / inch / decimal}
; #@! TF.CreationDate,2021-04-26T01:39:14-07:00
; #@! TF.GenerationSoftware,Kicad,Pcbnew,5.1.6-c6e7f7d~86~ubuntu18.04.1
FMAT,2
INCH
T1C0.0157
T2C0.0343
T3C0.0354
T4C0.1260
%
G90
G05
T1
X5.3595Y-2.8902
T2
X5.6201Y-3.0787
X5.6201Y-3.1378
X5.6201Y-3.1969
X5.6201Y-3.2559
X5.6201Y-3.315
X5.6201Y-3.374
X5.6201Y-3.4331
T3
X5.2165Y-3.0524
X5.2165Y-3.1524
X6.2286Y-2.6249
X6.3226Y-2.5907
X6.0236Y-3.0524
X6.0236Y-3.1524
X5.0012Y-3.7174
X5.1012Y-3.7174
X5.0012Y-4.1918
X5.1012Y-4.1918
X5.0012Y-3.1722
X5.1012Y-3.1722
X6.0141Y-2.703
X6.108Y-2.6688
X6.1763Y-3.1488
X6.2703Y-3.1146
X6.3909Y-3.0707
X6.4849Y-3.0365
X5.0012Y-2.6978
X5.1012Y-2.6978
T4
X6.2266Y-3.5971
X5.3437Y-2.6107
T0
M30
