%TF.GenerationSoftware,KiCad,Pcbnew,5.1.6-c6e7f7d~86~ubuntu18.04.1*%
%TF.CreationDate,2021-04-26T01:39:18-07:00*%
%TF.ProjectId,thumb_cluster_right,7468756d-625f-4636-9c75-737465725f72,rev?*%
%TF.SameCoordinates,Original*%
%TF.FileFunction,Paste,Bot*%
%TF.FilePolarity,Positive*%
%FSLAX46Y46*%
G04 Gerber Fmt 4.6, Leading zero omitted, Abs format (unit mm)*
G04 Created by KiCad (PCBNEW 5.1.6-c6e7f7d~86~ubuntu18.04.1) date 2021-04-26 01:39:18*
%MOMM*%
%LPD*%
G01*
G04 APERTURE LIST*
G04 APERTURE END LIST*
%TO.C,R2*%
G36*
G01*
X136195000Y-83285418D02*
X134945000Y-83285418D01*
G75*
G02*
X134695000Y-83035418I0J250000D01*
G01*
X134695000Y-82110418D01*
G75*
G02*
X134945000Y-81860418I250000J0D01*
G01*
X136195000Y-81860418D01*
G75*
G02*
X136445000Y-82110418I0J-250000D01*
G01*
X136445000Y-83035418D01*
G75*
G02*
X136195000Y-83285418I-250000J0D01*
G01*
G37*
G36*
G01*
X136195000Y-86260418D02*
X134945000Y-86260418D01*
G75*
G02*
X134695000Y-86010418I0J250000D01*
G01*
X134695000Y-85085418D01*
G75*
G02*
X134945000Y-84835418I250000J0D01*
G01*
X136195000Y-84835418D01*
G75*
G02*
X136445000Y-85085418I0J-250000D01*
G01*
X136445000Y-86010418D01*
G75*
G02*
X136195000Y-86260418I-250000J0D01*
G01*
G37*
%TD*%
%TO.C,R5*%
G36*
G01*
X160598432Y-84856881D02*
X160170907Y-83682265D01*
G75*
G02*
X160320325Y-83361837I234923J85505D01*
G01*
X161189540Y-83045469D01*
G75*
G02*
X161509968Y-83194887I85505J-234923D01*
G01*
X161937493Y-84369503D01*
G75*
G02*
X161788075Y-84689931I-234923J-85505D01*
G01*
X160918860Y-85006299D01*
G75*
G02*
X160598432Y-84856881I-85505J234923D01*
G01*
G37*
G36*
G01*
X157802846Y-85874391D02*
X157375321Y-84699775D01*
G75*
G02*
X157524739Y-84379347I234923J85505D01*
G01*
X158393954Y-84062979D01*
G75*
G02*
X158714382Y-84212397I85505J-234923D01*
G01*
X159141907Y-85387013D01*
G75*
G02*
X158992489Y-85707441I-234923J-85505D01*
G01*
X158123274Y-86023809D01*
G75*
G02*
X157802846Y-85874391I-85505J234923D01*
G01*
G37*
%TD*%
%TO.C,R4*%
G36*
G01*
X159715882Y-82432095D02*
X159288357Y-81257479D01*
G75*
G02*
X159437775Y-80937051I234923J85505D01*
G01*
X160306990Y-80620683D01*
G75*
G02*
X160627418Y-80770101I85505J-234923D01*
G01*
X161054943Y-81944717D01*
G75*
G02*
X160905525Y-82265145I-234923J-85505D01*
G01*
X160036310Y-82581513D01*
G75*
G02*
X159715882Y-82432095I-85505J234923D01*
G01*
G37*
G36*
G01*
X156920296Y-83449605D02*
X156492771Y-82274989D01*
G75*
G02*
X156642189Y-81954561I234923J85505D01*
G01*
X157511404Y-81638193D01*
G75*
G02*
X157831832Y-81787611I85505J-234923D01*
G01*
X158259357Y-82962227D01*
G75*
G02*
X158109939Y-83282655I-234923J-85505D01*
G01*
X157240724Y-83599023D01*
G75*
G02*
X156920296Y-83449605I-85505J234923D01*
G01*
G37*
%TD*%
%TO.C,R3*%
G36*
G01*
X134945000Y-79345000D02*
X136195000Y-79345000D01*
G75*
G02*
X136445000Y-79595000I0J-250000D01*
G01*
X136445000Y-80520000D01*
G75*
G02*
X136195000Y-80770000I-250000J0D01*
G01*
X134945000Y-80770000D01*
G75*
G02*
X134695000Y-80520000I0J250000D01*
G01*
X134695000Y-79595000D01*
G75*
G02*
X134945000Y-79345000I250000J0D01*
G01*
G37*
G36*
G01*
X134945000Y-76370000D02*
X136195000Y-76370000D01*
G75*
G02*
X136445000Y-76620000I0J-250000D01*
G01*
X136445000Y-77545000D01*
G75*
G02*
X136195000Y-77795000I-250000J0D01*
G01*
X134945000Y-77795000D01*
G75*
G02*
X134695000Y-77545000I0J250000D01*
G01*
X134695000Y-76620000D01*
G75*
G02*
X134945000Y-76370000I250000J0D01*
G01*
G37*
%TD*%
%TO.C,R1*%
G36*
G01*
X132045000Y-105760416D02*
X133295000Y-105760416D01*
G75*
G02*
X133545000Y-106010416I0J-250000D01*
G01*
X133545000Y-106935416D01*
G75*
G02*
X133295000Y-107185416I-250000J0D01*
G01*
X132045000Y-107185416D01*
G75*
G02*
X131795000Y-106935416I0J250000D01*
G01*
X131795000Y-106010416D01*
G75*
G02*
X132045000Y-105760416I250000J0D01*
G01*
G37*
G36*
G01*
X132045000Y-102785416D02*
X133295000Y-102785416D01*
G75*
G02*
X133545000Y-103035416I0J-250000D01*
G01*
X133545000Y-103960416D01*
G75*
G02*
X133295000Y-104210416I-250000J0D01*
G01*
X132045000Y-104210416D01*
G75*
G02*
X131795000Y-103960416I0J250000D01*
G01*
X131795000Y-103035416D01*
G75*
G02*
X132045000Y-102785416I250000J0D01*
G01*
G37*
%TD*%
M02*
