%TF.GenerationSoftware,KiCad,Pcbnew,5.1.6-c6e7f7d~86~ubuntu18.04.1*%
%TF.CreationDate,2021-04-26T01:39:18-07:00*%
%TF.ProjectId,thumb_cluster_right,7468756d-625f-4636-9c75-737465725f72,rev?*%
%TF.SameCoordinates,Original*%
%TF.FileFunction,Profile,NP*%
%FSLAX46Y46*%
G04 Gerber Fmt 4.6, Leading zero omitted, Abs format (unit mm)*
G04 Created by KiCad (PCBNEW 5.1.6-c6e7f7d~86~ubuntu18.04.1) date 2021-04-26 01:39:18*
%MOMM*%
%LPD*%
G01*
G04 APERTURE LIST*
%TA.AperFunction,Profile*%
%ADD10C,0.200000*%
%TD*%
G04 APERTURE END LIST*
D10*
X130224999Y-78074999D02*
G75*
G02*
X129225000Y-79074998I-999999J0D01*
G01*
X130225000Y-71024999D02*
X130225000Y-78074999D01*
X129224999Y-70025000D02*
G75*
G02*
X130225000Y-71024999I1J-1000000D01*
G01*
X125475000Y-70024999D02*
X129225000Y-70024999D01*
X125475000Y-67100390D02*
X125475000Y-70024999D01*
X125478610Y-66175919D02*
X125475000Y-67100390D01*
X125478609Y-66175918D02*
G75*
G02*
X126212558Y-65302440I796390J75919D01*
G01*
X139050000Y-62524504D02*
X126212558Y-65302440D01*
X139050000Y-67800000D02*
X139050000Y-62524504D01*
X140050000Y-68800000D02*
G75*
G02*
X139050000Y-67800000I0J1000000D01*
G01*
X145450000Y-68800000D02*
X140050000Y-68800000D01*
X146450000Y-67800000D02*
G75*
G02*
X145450000Y-68800000I-1000000J0D01*
G01*
X146450000Y-62118895D02*
X146450000Y-67800000D01*
X160811672Y-63406626D02*
X146450000Y-62118895D01*
X160811672Y-63406626D02*
G75*
G02*
X161568014Y-63932997I4588J-799987D01*
G01*
X162568423Y-66681598D02*
X161568014Y-63932997D01*
X153594358Y-69947890D02*
X162568423Y-66681598D01*
X152996685Y-71229603D02*
G75*
G02*
X153594358Y-69947890I939693J342020D01*
G01*
X155407928Y-77854436D02*
X152996686Y-71229603D01*
X156689640Y-78452110D02*
G75*
G02*
X155407928Y-77854436I-342019J939693D01*
G01*
X165663705Y-75185816D02*
X156689641Y-78452109D01*
X166664114Y-77934417D02*
X165663705Y-75185816D01*
X166664114Y-77934417D02*
G75*
G02*
X166635469Y-78550251I-751754J-273616D01*
G01*
X160073735Y-94600000D02*
X166635469Y-78550251D01*
X139400000Y-94600000D02*
X160073735Y-94600000D01*
X138400000Y-95600000D02*
G75*
G02*
X139400000Y-94600000I1000000J0D01*
G01*
X138400000Y-108693369D02*
X138400000Y-95600000D01*
X126275106Y-108697918D02*
X138400000Y-108693369D01*
X126275105Y-108697917D02*
G75*
G02*
X125475000Y-107897918I-106J799999D01*
G01*
X125475000Y-104972918D02*
X125475000Y-107897918D01*
X129225000Y-104972918D02*
X125475000Y-104972918D01*
X130225000Y-103972918D02*
G75*
G02*
X129225000Y-104972918I-1000000J0D01*
G01*
X130224999Y-96922918D02*
X130224999Y-103972918D01*
X129225000Y-95922919D02*
G75*
G02*
X130224999Y-96922918I0J-999999D01*
G01*
X125475000Y-95922918D02*
X129225000Y-95922918D01*
X125475000Y-91198959D02*
X125475000Y-95922918D01*
X131475001Y-91198959D02*
X125475000Y-91198959D01*
X132475000Y-90198958D02*
G75*
G02*
X131475001Y-91198959I-1000000J-1D01*
G01*
X132475000Y-84798959D02*
X132475000Y-90198959D01*
X131475000Y-83798959D02*
G75*
G02*
X132475000Y-84798959I0J-1000000D01*
G01*
X125475000Y-83798959D02*
X131475000Y-83798959D01*
X125475000Y-79074999D02*
X125475000Y-83798959D01*
X129225000Y-79074998D02*
X125475000Y-79074999D01*
M02*
