%TF.GenerationSoftware,KiCad,Pcbnew,5.1.6-c6e7f7d~86~ubuntu18.04.1*%
%TF.CreationDate,2021-04-26T01:39:18-07:00*%
%TF.ProjectId,thumb_cluster_right,7468756d-625f-4636-9c75-737465725f72,rev?*%
%TF.SameCoordinates,Original*%
%TF.FileFunction,Soldermask,Top*%
%TF.FilePolarity,Negative*%
%FSLAX46Y46*%
G04 Gerber Fmt 4.6, Leading zero omitted, Abs format (unit mm)*
G04 Created by KiCad (PCBNEW 5.1.6-c6e7f7d~86~ubuntu18.04.1) date 2021-04-26 01:39:18*
%MOMM*%
%LPD*%
G01*
G04 APERTURE LIST*
%ADD10C,4.600000*%
%ADD11R,1.900000X1.900000*%
%ADD12C,1.900000*%
%ADD13C,0.100000*%
%ADD14O,1.970000X1.270000*%
G04 APERTURE END LIST*
D10*
%TO.C,H2*%
X135731126Y-66312121D03*
%TD*%
%TO.C,H1*%
X158154844Y-91366079D03*
%TD*%
D11*
%TO.C,PT2*%
X127030000Y-68524999D03*
D12*
X129570000Y-68524999D03*
%TD*%
D13*
%TO.C,PT5*%
G36*
X157639562Y-67890258D02*
G01*
X156989724Y-66104842D01*
X158775140Y-65455004D01*
X159424978Y-67240420D01*
X157639562Y-67890258D01*
G37*
D12*
X160594170Y-65803900D03*
%TD*%
D13*
%TO.C,PT4*%
G36*
X152189345Y-69873975D02*
G01*
X151539507Y-68088559D01*
X153324923Y-67438721D01*
X153974761Y-69224137D01*
X152189345Y-69873975D01*
G37*
D12*
X155143953Y-67787617D03*
%TD*%
D11*
%TO.C,PT3*%
X152999999Y-77530000D03*
D12*
X152999999Y-80070000D03*
%TD*%
D11*
%TO.C,PT1*%
X127030000Y-94422918D03*
D12*
X129570000Y-94422918D03*
%TD*%
D14*
%TO.C,J1*%
X142750000Y-78200000D03*
X142750000Y-79700000D03*
X142750000Y-81200000D03*
X142750000Y-82700000D03*
X142750000Y-84200000D03*
X142750000Y-85700000D03*
G36*
G01*
X143463633Y-87835000D02*
X142036367Y-87835000D01*
G75*
G02*
X141765000Y-87563633I0J271367D01*
G01*
X141765000Y-86836367D01*
G75*
G02*
X142036367Y-86565000I271367J0D01*
G01*
X143463633Y-86565000D01*
G75*
G02*
X143735000Y-86836367I0J-271367D01*
G01*
X143735000Y-87563633D01*
G75*
G02*
X143463633Y-87835000I-271367J0D01*
G01*
G37*
%TD*%
D11*
%TO.C,IR2*%
X129570000Y-80574999D03*
D12*
X127030000Y-80574999D03*
%TD*%
D13*
%TO.C,IR5*%
G36*
X165283302Y-75909569D02*
G01*
X165933140Y-77694985D01*
X164147724Y-78344823D01*
X163497886Y-76559407D01*
X165283302Y-75909569D01*
G37*
D12*
X162328694Y-77995927D03*
%TD*%
D13*
%TO.C,IR4*%
G36*
X159833085Y-77893286D02*
G01*
X160482923Y-79678702D01*
X158697507Y-80328540D01*
X158047669Y-78543124D01*
X159833085Y-77893286D01*
G37*
D12*
X156878477Y-79979644D03*
%TD*%
D11*
%TO.C,IR3*%
X132500001Y-80070000D03*
D12*
X132500001Y-77530000D03*
%TD*%
D11*
%TO.C,IR1*%
X129570000Y-106472918D03*
D12*
X127030000Y-106472918D03*
%TD*%
M02*
