%TF.GenerationSoftware,KiCad,Pcbnew,5.1.6-c6e7f7d~86~ubuntu18.04.1*%
%TF.CreationDate,2021-04-26T01:39:18-07:00*%
%TF.ProjectId,thumb_cluster_right,7468756d-625f-4636-9c75-737465725f72,rev?*%
%TF.SameCoordinates,Original*%
%TF.FileFunction,Legend,Bot*%
%TF.FilePolarity,Positive*%
%FSLAX46Y46*%
G04 Gerber Fmt 4.6, Leading zero omitted, Abs format (unit mm)*
G04 Created by KiCad (PCBNEW 5.1.6-c6e7f7d~86~ubuntu18.04.1) date 2021-04-26 01:39:18*
%MOMM*%
%LPD*%
G01*
G04 APERTURE LIST*
%ADD10C,0.150000*%
%ADD11C,0.120000*%
G04 APERTURE END LIST*
D10*
X134967534Y-104306251D02*
X134967534Y-103734822D01*
X134967534Y-104020537D02*
X133967534Y-104020537D01*
X134110392Y-103925298D01*
X134205630Y-103830060D01*
X134253249Y-103734822D01*
X133967534Y-104925298D02*
X133967534Y-105020537D01*
X134015154Y-105115775D01*
X134062773Y-105163394D01*
X134158011Y-105211013D01*
X134348487Y-105258632D01*
X134586582Y-105258632D01*
X134777058Y-105211013D01*
X134872296Y-105163394D01*
X134919915Y-105115775D01*
X134967534Y-105020537D01*
X134967534Y-104925298D01*
X134919915Y-104830060D01*
X134872296Y-104782441D01*
X134777058Y-104734822D01*
X134586582Y-104687203D01*
X134348487Y-104687203D01*
X134158011Y-104734822D01*
X134062773Y-104782441D01*
X134015154Y-104830060D01*
X133967534Y-104925298D01*
X133967534Y-105877679D02*
X133967534Y-105972918D01*
X134015154Y-106068156D01*
X134062773Y-106115775D01*
X134158011Y-106163394D01*
X134348487Y-106211013D01*
X134586582Y-106211013D01*
X134777058Y-106163394D01*
X134872296Y-106115775D01*
X134919915Y-106068156D01*
X134967534Y-105972918D01*
X134967534Y-105877679D01*
X134919915Y-105782441D01*
X134872296Y-105734822D01*
X134777058Y-105687203D01*
X134586582Y-105639584D01*
X134348487Y-105639584D01*
X134158011Y-105687203D01*
X134062773Y-105734822D01*
X134015154Y-105782441D01*
X133967534Y-105877679D01*
X137867534Y-77772329D02*
X137867534Y-77200900D01*
X137867534Y-77486615D02*
X136867534Y-77486615D01*
X137010392Y-77391376D01*
X137105630Y-77296138D01*
X137153249Y-77200900D01*
X136867534Y-78677091D02*
X136867534Y-78200900D01*
X137343725Y-78153281D01*
X137296106Y-78200900D01*
X137248487Y-78296138D01*
X137248487Y-78534234D01*
X137296106Y-78629472D01*
X137343725Y-78677091D01*
X137438963Y-78724710D01*
X137677058Y-78724710D01*
X137772296Y-78677091D01*
X137819915Y-78629472D01*
X137867534Y-78534234D01*
X137867534Y-78296138D01*
X137819915Y-78200900D01*
X137772296Y-78153281D01*
X136867534Y-79343757D02*
X136867534Y-79438996D01*
X136915154Y-79534234D01*
X136962773Y-79581853D01*
X137058011Y-79629472D01*
X137248487Y-79677091D01*
X137486582Y-79677091D01*
X137677058Y-79629472D01*
X137772296Y-79581853D01*
X137819915Y-79534234D01*
X137867534Y-79438996D01*
X137867534Y-79343757D01*
X137819915Y-79248519D01*
X137772296Y-79200900D01*
X137677058Y-79153281D01*
X137486582Y-79105662D01*
X137248487Y-79105662D01*
X137058011Y-79153281D01*
X136962773Y-79200900D01*
X136915154Y-79248519D01*
X136867534Y-79343757D01*
X137867534Y-83272329D02*
X137867534Y-82700900D01*
X137867534Y-82986615D02*
X136867534Y-82986615D01*
X137010392Y-82891376D01*
X137105630Y-82796138D01*
X137153249Y-82700900D01*
X136867534Y-84177091D02*
X136867534Y-83700900D01*
X137343725Y-83653281D01*
X137296106Y-83700900D01*
X137248487Y-83796138D01*
X137248487Y-84034234D01*
X137296106Y-84129472D01*
X137343725Y-84177091D01*
X137438963Y-84224710D01*
X137677058Y-84224710D01*
X137772296Y-84177091D01*
X137819915Y-84129472D01*
X137867534Y-84034234D01*
X137867534Y-83796138D01*
X137819915Y-83700900D01*
X137772296Y-83653281D01*
X136867534Y-84843757D02*
X136867534Y-84938996D01*
X136915154Y-85034234D01*
X136962773Y-85081853D01*
X137058011Y-85129472D01*
X137248487Y-85177091D01*
X137486582Y-85177091D01*
X137677058Y-85129472D01*
X137772296Y-85081853D01*
X137819915Y-85034234D01*
X137867534Y-84938996D01*
X137867534Y-84843757D01*
X137819915Y-84748519D01*
X137772296Y-84700900D01*
X137677058Y-84653281D01*
X137486582Y-84605662D01*
X137248487Y-84605662D01*
X137058011Y-84653281D01*
X136962773Y-84700900D01*
X136915154Y-84748519D01*
X136867534Y-84843757D01*
X156779879Y-86066128D02*
X157316846Y-85870688D01*
X157048362Y-85968408D02*
X156706342Y-85028715D01*
X156844697Y-85130384D01*
X156966765Y-85187305D01*
X157072546Y-85199479D01*
X155587660Y-85435882D02*
X156035133Y-85273016D01*
X156242747Y-85704202D01*
X156181713Y-85675741D01*
X156075932Y-85663567D01*
X155852196Y-85745000D01*
X155778988Y-85822321D01*
X155750527Y-85883355D01*
X155738353Y-85989136D01*
X155819787Y-86212873D01*
X155897107Y-86286080D01*
X155958141Y-86314541D01*
X156063922Y-86326715D01*
X156287659Y-86245282D01*
X156360867Y-86167961D01*
X156389327Y-86106927D01*
X154961199Y-85663896D02*
X154871704Y-85696469D01*
X154798496Y-85773790D01*
X154770036Y-85834824D01*
X154757862Y-85940605D01*
X154778261Y-86135881D01*
X154859695Y-86359617D01*
X154969589Y-86522319D01*
X155046909Y-86595527D01*
X155107943Y-86623988D01*
X155213724Y-86636162D01*
X155303219Y-86603588D01*
X155376427Y-86526268D01*
X155404887Y-86465234D01*
X155417061Y-86359453D01*
X155396662Y-86164177D01*
X155315228Y-85940440D01*
X155205334Y-85777738D01*
X155128014Y-85704530D01*
X155066980Y-85676070D01*
X154961199Y-85663896D01*
X155890626Y-83622927D02*
X156427593Y-83427487D01*
X156159109Y-83525207D02*
X155817089Y-82585514D01*
X155955444Y-82687183D01*
X156077512Y-82744104D01*
X156183293Y-82756278D01*
X154698407Y-82992681D02*
X155145880Y-82829815D01*
X155353494Y-83261001D01*
X155292460Y-83232540D01*
X155186679Y-83220366D01*
X154962943Y-83301799D01*
X154889735Y-83379120D01*
X154861274Y-83440154D01*
X154849100Y-83545935D01*
X154930534Y-83769672D01*
X155007854Y-83842879D01*
X155068888Y-83871340D01*
X155174669Y-83883514D01*
X155398406Y-83802081D01*
X155471614Y-83724760D01*
X155500074Y-83663726D01*
X154071946Y-83220695D02*
X153982451Y-83253268D01*
X153909243Y-83330589D01*
X153880783Y-83391623D01*
X153868609Y-83497404D01*
X153889008Y-83692680D01*
X153970442Y-83916416D01*
X154080336Y-84079118D01*
X154157656Y-84152326D01*
X154218690Y-84180787D01*
X154324471Y-84192961D01*
X154413966Y-84160387D01*
X154487174Y-84083067D01*
X154515634Y-84022033D01*
X154527808Y-83916252D01*
X154507409Y-83720976D01*
X154425975Y-83497239D01*
X154316081Y-83334537D01*
X154238761Y-83261329D01*
X154177727Y-83232869D01*
X154071946Y-83220695D01*
X149450000Y-71802381D02*
X149545238Y-71754762D01*
X149592857Y-71659524D01*
X149592857Y-70802381D01*
X148640476Y-71802381D02*
X148640476Y-71278572D01*
X148688095Y-71183334D01*
X148783333Y-71135715D01*
X148973809Y-71135715D01*
X149069047Y-71183334D01*
X148640476Y-71754762D02*
X148735714Y-71802381D01*
X148973809Y-71802381D01*
X149069047Y-71754762D01*
X149116666Y-71659524D01*
X149116666Y-71564286D01*
X149069047Y-71469048D01*
X148973809Y-71421429D01*
X148735714Y-71421429D01*
X148640476Y-71373810D01*
X148021428Y-71802381D02*
X148116666Y-71754762D01*
X148164285Y-71659524D01*
X148164285Y-70802381D01*
X147640476Y-71802381D02*
X147640476Y-70802381D01*
X147640476Y-71183334D02*
X147545238Y-71135715D01*
X147354761Y-71135715D01*
X147259523Y-71183334D01*
X147211904Y-71230953D01*
X147164285Y-71326191D01*
X147164285Y-71611905D01*
X147211904Y-71707143D01*
X147259523Y-71754762D01*
X147354761Y-71802381D01*
X147545238Y-71802381D01*
X147640476Y-71754762D01*
X146592857Y-71802381D02*
X146688095Y-71754762D01*
X146735714Y-71707143D01*
X146783333Y-71611905D01*
X146783333Y-71326191D01*
X146735714Y-71230953D01*
X146688095Y-71183334D01*
X146592857Y-71135715D01*
X146450000Y-71135715D01*
X146354761Y-71183334D01*
X146307142Y-71230953D01*
X146259523Y-71326191D01*
X146259523Y-71611905D01*
X146307142Y-71707143D01*
X146354761Y-71754762D01*
X146450000Y-71802381D01*
X146592857Y-71802381D01*
X145402380Y-71802381D02*
X145402380Y-71278572D01*
X145450000Y-71183334D01*
X145545238Y-71135715D01*
X145735714Y-71135715D01*
X145830952Y-71183334D01*
X145402380Y-71754762D02*
X145497619Y-71802381D01*
X145735714Y-71802381D01*
X145830952Y-71754762D01*
X145878571Y-71659524D01*
X145878571Y-71564286D01*
X145830952Y-71469048D01*
X145735714Y-71421429D01*
X145497619Y-71421429D01*
X145402380Y-71373810D01*
X144926190Y-71802381D02*
X144926190Y-71135715D01*
X144926190Y-71326191D02*
X144878571Y-71230953D01*
X144830952Y-71183334D01*
X144735714Y-71135715D01*
X144640476Y-71135715D01*
X143878571Y-71802381D02*
X143878571Y-70802381D01*
X143878571Y-71754762D02*
X143973809Y-71802381D01*
X144164285Y-71802381D01*
X144259523Y-71754762D01*
X144307142Y-71707143D01*
X144354761Y-71611905D01*
X144354761Y-71326191D01*
X144307142Y-71230953D01*
X144259523Y-71183334D01*
X144164285Y-71135715D01*
X143973809Y-71135715D01*
X143878571Y-71183334D01*
X143402380Y-71707143D02*
X143354761Y-71754762D01*
X143402380Y-71802381D01*
X143450000Y-71754762D01*
X143402380Y-71707143D01*
X143402380Y-71802381D01*
X142497619Y-71754762D02*
X142592857Y-71802381D01*
X142783333Y-71802381D01*
X142878571Y-71754762D01*
X142926190Y-71707143D01*
X142973809Y-71611905D01*
X142973809Y-71326191D01*
X142926190Y-71230953D01*
X142878571Y-71183334D01*
X142783333Y-71135715D01*
X142592857Y-71135715D01*
X142497619Y-71183334D01*
X141926190Y-71802381D02*
X142021428Y-71754762D01*
X142069047Y-71707143D01*
X142116666Y-71611905D01*
X142116666Y-71326191D01*
X142069047Y-71230953D01*
X142021428Y-71183334D01*
X141926190Y-71135715D01*
X141783333Y-71135715D01*
X141688095Y-71183334D01*
X141640476Y-71230953D01*
X141592857Y-71326191D01*
X141592857Y-71611905D01*
X141640476Y-71707143D01*
X141688095Y-71754762D01*
X141783333Y-71802381D01*
X141926190Y-71802381D01*
X141164285Y-71802381D02*
X141164285Y-71135715D01*
X141164285Y-71230953D02*
X141116666Y-71183334D01*
X141021428Y-71135715D01*
X140878571Y-71135715D01*
X140783333Y-71183334D01*
X140735714Y-71278572D01*
X140735714Y-71802381D01*
X140735714Y-71278572D02*
X140688095Y-71183334D01*
X140592857Y-71135715D01*
X140450000Y-71135715D01*
X140354761Y-71183334D01*
X140307142Y-71278572D01*
X140307142Y-71802381D01*
X152092857Y-73452381D02*
X152092857Y-72785715D01*
X152092857Y-72976191D02*
X152045238Y-72880953D01*
X151997619Y-72833334D01*
X151902380Y-72785715D01*
X151807142Y-72785715D01*
X151473809Y-73452381D02*
X151473809Y-72785715D01*
X151473809Y-72452381D02*
X151521428Y-72500001D01*
X151473809Y-72547620D01*
X151426190Y-72500001D01*
X151473809Y-72452381D01*
X151473809Y-72547620D01*
X150569047Y-72785715D02*
X150569047Y-73595239D01*
X150616666Y-73690477D01*
X150664285Y-73738096D01*
X150759523Y-73785715D01*
X150902380Y-73785715D01*
X150997619Y-73738096D01*
X150569047Y-73404762D02*
X150664285Y-73452381D01*
X150854761Y-73452381D01*
X150950000Y-73404762D01*
X150997619Y-73357143D01*
X151045238Y-73261905D01*
X151045238Y-72976191D01*
X150997619Y-72880953D01*
X150950000Y-72833334D01*
X150854761Y-72785715D01*
X150664285Y-72785715D01*
X150569047Y-72833334D01*
X150092857Y-73452381D02*
X150092857Y-72452381D01*
X149664285Y-73452381D02*
X149664285Y-72928572D01*
X149711904Y-72833334D01*
X149807142Y-72785715D01*
X149950000Y-72785715D01*
X150045238Y-72833334D01*
X150092857Y-72880953D01*
X149330952Y-72785715D02*
X148950000Y-72785715D01*
X149188095Y-72452381D02*
X149188095Y-73309524D01*
X149140476Y-73404762D01*
X149045238Y-73452381D01*
X148950000Y-73452381D01*
X147997619Y-72785715D02*
X147616666Y-72785715D01*
X147854761Y-72452381D02*
X147854761Y-73309524D01*
X147807142Y-73404762D01*
X147711904Y-73452381D01*
X147616666Y-73452381D01*
X147283333Y-73452381D02*
X147283333Y-72452381D01*
X146854761Y-73452381D02*
X146854761Y-72928572D01*
X146902380Y-72833334D01*
X146997619Y-72785715D01*
X147140476Y-72785715D01*
X147235714Y-72833334D01*
X147283333Y-72880953D01*
X145950000Y-72785715D02*
X145950000Y-73452381D01*
X146378571Y-72785715D02*
X146378571Y-73309524D01*
X146330952Y-73404762D01*
X146235714Y-73452381D01*
X146092857Y-73452381D01*
X145997619Y-73404762D01*
X145950000Y-73357143D01*
X145473809Y-73452381D02*
X145473809Y-72785715D01*
X145473809Y-72880953D02*
X145426190Y-72833334D01*
X145330952Y-72785715D01*
X145188095Y-72785715D01*
X145092857Y-72833334D01*
X145045238Y-72928572D01*
X145045238Y-73452381D01*
X145045238Y-72928572D02*
X144997619Y-72833334D01*
X144902380Y-72785715D01*
X144759523Y-72785715D01*
X144664285Y-72833334D01*
X144616666Y-72928572D01*
X144616666Y-73452381D01*
X144140476Y-73452381D02*
X144140476Y-72452381D01*
X144140476Y-72833334D02*
X144045238Y-72785715D01*
X143854761Y-72785715D01*
X143759523Y-72833334D01*
X143711904Y-72880953D01*
X143664285Y-72976191D01*
X143664285Y-73261905D01*
X143711904Y-73357143D01*
X143759523Y-73404762D01*
X143854761Y-73452381D01*
X144045238Y-73452381D01*
X144140476Y-73404762D01*
X142045238Y-73404762D02*
X142140476Y-73452381D01*
X142330952Y-73452381D01*
X142426190Y-73404762D01*
X142473809Y-73357143D01*
X142521428Y-73261905D01*
X142521428Y-72976191D01*
X142473809Y-72880953D01*
X142426190Y-72833334D01*
X142330952Y-72785715D01*
X142140476Y-72785715D01*
X142045238Y-72833334D01*
X141473809Y-73452381D02*
X141569047Y-73404762D01*
X141616666Y-73309524D01*
X141616666Y-72452381D01*
X140664285Y-72785715D02*
X140664285Y-73452381D01*
X141092857Y-72785715D02*
X141092857Y-73309524D01*
X141045238Y-73404762D01*
X140950000Y-73452381D01*
X140807142Y-73452381D01*
X140711904Y-73404762D01*
X140664285Y-73357143D01*
X140235714Y-73404762D02*
X140140476Y-73452381D01*
X139950000Y-73452381D01*
X139854761Y-73404762D01*
X139807142Y-73309524D01*
X139807142Y-73261905D01*
X139854761Y-73166667D01*
X139950000Y-73119048D01*
X140092857Y-73119048D01*
X140188095Y-73071429D01*
X140235714Y-72976191D01*
X140235714Y-72928572D01*
X140188095Y-72833334D01*
X140092857Y-72785715D01*
X139950000Y-72785715D01*
X139854761Y-72833334D01*
X139521428Y-72785715D02*
X139140476Y-72785715D01*
X139378571Y-72452381D02*
X139378571Y-73309524D01*
X139330952Y-73404762D01*
X139235714Y-73452381D01*
X139140476Y-73452381D01*
X138426190Y-73404762D02*
X138521428Y-73452381D01*
X138711904Y-73452381D01*
X138807142Y-73404762D01*
X138854761Y-73309524D01*
X138854761Y-72928572D01*
X138807142Y-72833334D01*
X138711904Y-72785715D01*
X138521428Y-72785715D01*
X138426190Y-72833334D01*
X138378571Y-72928572D01*
X138378571Y-73023810D01*
X138854761Y-73119048D01*
X137950000Y-73452381D02*
X137950000Y-72785715D01*
X137950000Y-72976191D02*
X137902380Y-72880953D01*
X137854761Y-72833334D01*
X137759523Y-72785715D01*
X137664285Y-72785715D01*
X146378571Y-74435715D02*
X146140476Y-75102381D01*
X145902380Y-74435715D01*
X145330952Y-74102381D02*
X145235714Y-74102381D01*
X145140476Y-74150001D01*
X145092857Y-74197620D01*
X145045238Y-74292858D01*
X144997619Y-74483334D01*
X144997619Y-74721429D01*
X145045238Y-74911905D01*
X145092857Y-75007143D01*
X145140476Y-75054762D01*
X145235714Y-75102381D01*
X145330952Y-75102381D01*
X145426190Y-75054762D01*
X145473809Y-75007143D01*
X145521428Y-74911905D01*
X145569047Y-74721429D01*
X145569047Y-74483334D01*
X145521428Y-74292858D01*
X145473809Y-74197620D01*
X145426190Y-74150001D01*
X145330952Y-74102381D01*
X144569047Y-75007143D02*
X144521428Y-75054762D01*
X144569047Y-75102381D01*
X144616666Y-75054762D01*
X144569047Y-75007143D01*
X144569047Y-75102381D01*
X144140476Y-74197620D02*
X144092857Y-74150001D01*
X143997619Y-74102381D01*
X143759523Y-74102381D01*
X143664285Y-74150001D01*
X143616666Y-74197620D01*
X143569047Y-74292858D01*
X143569047Y-74388096D01*
X143616666Y-74530953D01*
X144188095Y-75102381D01*
X143569047Y-75102381D01*
D11*
%TO.C,R2*%
X136480000Y-84662482D02*
X136480000Y-83458354D01*
X134660000Y-84662482D02*
X134660000Y-83458354D01*
%TO.C,R5*%
X159401890Y-85595677D02*
X160533400Y-85183841D01*
X158779414Y-83885437D02*
X159910924Y-83473601D01*
%TO.C,R4*%
X158519340Y-83170891D02*
X159650850Y-82759055D01*
X157896864Y-81460651D02*
X159028374Y-81048815D01*
%TO.C,R3*%
X134660000Y-77967936D02*
X134660000Y-79172064D01*
X136480000Y-77967936D02*
X136480000Y-79172064D01*
%TO.C,R1*%
X131760000Y-104383352D02*
X131760000Y-105587480D01*
X133580000Y-104383352D02*
X133580000Y-105587480D01*
%TO.C,J1*%
X144460000Y-89110000D02*
X143210000Y-89110000D01*
X144460000Y-87860000D02*
X144460000Y-89110000D01*
X140640000Y-76790000D02*
X142400000Y-76790000D01*
X140640000Y-88610000D02*
X140640000Y-76790000D01*
X142400000Y-88610000D02*
X140640000Y-88610000D01*
X142400000Y-76790000D02*
X142400000Y-76590000D01*
X143100000Y-76790000D02*
X142400000Y-76790000D01*
X142400000Y-88610000D02*
X142400000Y-88810000D01*
X143100000Y-88610000D02*
X142400000Y-88610000D01*
X143100000Y-76790000D02*
X143100000Y-76590000D01*
X143960000Y-76790000D02*
X143100000Y-76790000D01*
X143960000Y-88610000D02*
X143960000Y-76790000D01*
X143100000Y-88610000D02*
X143960000Y-88610000D01*
X143100000Y-88810000D02*
X143100000Y-88610000D01*
X144160000Y-76590000D02*
X144160000Y-88810000D01*
X140440000Y-76590000D02*
X144160000Y-76590000D01*
X140440000Y-88810000D02*
X140440000Y-76590000D01*
X144160000Y-88810000D02*
X140440000Y-88810000D01*
%TO.C,R2*%
D10*
X139222380Y-83806251D02*
X138746190Y-83472918D01*
X139222380Y-83234822D02*
X138222380Y-83234822D01*
X138222380Y-83615775D01*
X138270000Y-83711013D01*
X138317619Y-83758632D01*
X138412857Y-83806251D01*
X138555714Y-83806251D01*
X138650952Y-83758632D01*
X138698571Y-83711013D01*
X138746190Y-83615775D01*
X138746190Y-83234822D01*
X138317619Y-84187203D02*
X138270000Y-84234822D01*
X138222380Y-84330060D01*
X138222380Y-84568156D01*
X138270000Y-84663394D01*
X138317619Y-84711013D01*
X138412857Y-84758632D01*
X138508095Y-84758632D01*
X138650952Y-84711013D01*
X139222380Y-84139584D01*
X139222380Y-84758632D01*
%TO.C,R5*%
X153866831Y-87126390D02*
X154017195Y-86564911D01*
X154403799Y-86930950D02*
X154061778Y-85991257D01*
X153703800Y-86121551D01*
X153630592Y-86198871D01*
X153602132Y-86259905D01*
X153589958Y-86365687D01*
X153638818Y-86499928D01*
X153716139Y-86573136D01*
X153777172Y-86601597D01*
X153882954Y-86613771D01*
X154240932Y-86483477D01*
X152674613Y-86496144D02*
X153122086Y-86333278D01*
X153329700Y-86764464D01*
X153268666Y-86736003D01*
X153162885Y-86723829D01*
X152939148Y-86805262D01*
X152865940Y-86882583D01*
X152837480Y-86943617D01*
X152825306Y-87049398D01*
X152906739Y-87273135D01*
X152984060Y-87346342D01*
X153045094Y-87374803D01*
X153150875Y-87386977D01*
X153374611Y-87305544D01*
X153447819Y-87228223D01*
X153476280Y-87167189D01*
%TO.C,R4*%
X152977579Y-84683189D02*
X153127943Y-84121710D01*
X153514547Y-84487749D02*
X153172526Y-83548056D01*
X152814548Y-83678350D01*
X152741340Y-83755670D01*
X152712880Y-83816704D01*
X152700706Y-83922486D01*
X152749566Y-84056727D01*
X152826887Y-84129935D01*
X152887920Y-84158396D01*
X152993702Y-84170570D01*
X153351680Y-84040276D01*
X151944115Y-84349888D02*
X152172129Y-84976349D01*
X152037558Y-83910476D02*
X152505594Y-84500252D01*
X151923880Y-84711978D01*
%TO.C,R3*%
X139122380Y-78406251D02*
X138646190Y-78072918D01*
X139122380Y-77834822D02*
X138122380Y-77834822D01*
X138122380Y-78215775D01*
X138170000Y-78311013D01*
X138217619Y-78358632D01*
X138312857Y-78406251D01*
X138455714Y-78406251D01*
X138550952Y-78358632D01*
X138598571Y-78311013D01*
X138646190Y-78215775D01*
X138646190Y-77834822D01*
X138122380Y-78739584D02*
X138122380Y-79358632D01*
X138503333Y-79025298D01*
X138503333Y-79168156D01*
X138550952Y-79263394D01*
X138598571Y-79311013D01*
X138693809Y-79358632D01*
X138931904Y-79358632D01*
X139027142Y-79311013D01*
X139074761Y-79263394D01*
X139122380Y-79168156D01*
X139122380Y-78882441D01*
X139074761Y-78787203D01*
X139027142Y-78739584D01*
%TO.C,R1*%
X136222380Y-104806251D02*
X135746190Y-104472918D01*
X136222380Y-104234822D02*
X135222380Y-104234822D01*
X135222380Y-104615775D01*
X135270000Y-104711013D01*
X135317619Y-104758632D01*
X135412857Y-104806251D01*
X135555714Y-104806251D01*
X135650952Y-104758632D01*
X135698571Y-104711013D01*
X135746190Y-104615775D01*
X135746190Y-104234822D01*
X136222380Y-105758632D02*
X136222380Y-105187203D01*
X136222380Y-105472918D02*
X135222380Y-105472918D01*
X135365238Y-105377679D01*
X135460476Y-105282441D01*
X135508095Y-105187203D01*
%TO.C,J1*%
X144702380Y-82366666D02*
X145416666Y-82366666D01*
X145559523Y-82319047D01*
X145654761Y-82223809D01*
X145702380Y-82080952D01*
X145702380Y-81985714D01*
X145702380Y-83366666D02*
X145702380Y-82795238D01*
X145702380Y-83080952D02*
X144702380Y-83080952D01*
X144845238Y-82985714D01*
X144940476Y-82890476D01*
X144988095Y-82795238D01*
%TD*%
M02*
